<svg width="257" height="149" viewBox="0 0 257 149" fill="none" xmlns="http://www.w3.org/2000/svg">
<circle cx="128" cy="32" r="32" fill="white" fill-opacity="0.1"/>
<path d="M44.3949 137.06C45.3309 137.06 46.0629 137.318 46.5909 137.834C47.1189 138.35 47.3829 139.082 47.3829 140.03C47.3829 140.978 47.1189 141.71 46.5909 142.226C46.0629 142.742 45.3309 143 44.3949 143H42.4779V137.06H44.3949ZM44.4669 142.325C45.1449 142.325 45.6729 142.124 46.0509 141.722C46.4349 141.314 46.6269 140.75 46.6269 140.03C46.6269 139.31 46.4349 138.749 46.0509 138.347C45.6729 137.939 45.1449 137.735 44.4669 137.735H43.1979V142.325H44.4669ZM53.8062 140.534H52.3842V143H51.6642V137.06H53.9142C54.5202 137.06 55.0062 137.216 55.3722 137.528C55.7382 137.84 55.9212 138.263 55.9212 138.797C55.9212 139.217 55.8042 139.571 55.5702 139.859C55.3362 140.147 55.0152 140.345 54.6072 140.453L56.2812 143H55.4262L53.8062 140.534ZM52.3842 139.859H53.9052C54.7452 139.859 55.1652 139.505 55.1652 138.797C55.1652 138.089 54.7452 137.735 53.9052 137.735H52.3842V139.859ZM62.6908 136.97C63.2488 136.97 63.7348 137.096 64.1488 137.348C64.5628 137.594 64.8808 137.948 65.1028 138.41C65.3308 138.866 65.4448 139.406 65.4448 140.03C65.4448 140.654 65.3308 141.197 65.1028 141.659C64.8808 142.115 64.5628 142.469 64.1488 142.721C63.7348 142.967 63.2488 143.09 62.6908 143.09C62.1328 143.09 61.6468 142.967 61.2328 142.721C60.8188 142.469 60.4978 142.115 60.2698 141.659C60.0478 141.197 59.9368 140.654 59.9368 140.03C59.9368 139.406 60.0478 138.866 60.2698 138.41C60.4978 137.948 60.8188 137.594 61.2328 137.348C61.6468 137.096 62.1328 136.97 62.6908 136.97ZM62.6908 137.645C62.0728 137.645 61.5838 137.858 61.2238 138.284C60.8698 138.704 60.6928 139.286 60.6928 140.03C60.6928 140.774 60.8698 141.359 61.2238 141.785C61.5838 142.205 62.0728 142.415 62.6908 142.415C63.3088 142.415 63.7948 142.205 64.1488 141.785C64.5088 141.359 64.6888 140.774 64.6888 140.03C64.6888 139.286 64.5088 138.704 64.1488 138.284C63.7948 137.858 63.3088 137.645 62.6908 137.645ZM74.3912 143H73.5002L71.0162 139.022L70.3862 137.852H70.3772L70.4132 138.806V143H69.7292V137.06H70.6202L73.0952 141.02L73.7342 142.208H73.7432L73.7072 141.254V137.06H74.3912V143ZM83.3406 142.325V143H79.0386V137.06H83.2056V137.735H79.7586V139.652H82.4406V140.327H79.7586V142.325H83.3406ZM89.3949 137.06C90.3309 137.06 91.0629 137.318 91.5909 137.834C92.1189 138.35 92.3829 139.082 92.3829 140.03C92.3829 140.978 92.1189 141.71 91.5909 142.226C91.0629 142.742 90.3309 143 89.3949 143H87.4779V137.06H89.3949ZM89.4669 142.325C90.1449 142.325 90.6729 142.124 91.0509 141.722C91.4349 141.314 91.6269 140.75 91.6269 140.03C91.6269 139.31 91.4349 138.749 91.0509 138.347C90.6729 137.939 90.1449 137.735 89.4669 137.735H88.1979V142.325H89.4669ZM100.966 142.325V143H96.6642V137.06H100.831V137.735H97.3842V139.652H100.066V140.327H97.3842V142.325H100.966ZM109.225 142.325V143H105.103V137.06H105.823V142.325H109.225ZM113.902 143H113.182V137.06H113.902V143ZM120.903 143H120.084L117.825 137.06H118.599L120.111 141.164L120.489 142.343L120.867 141.173L122.379 137.06H123.153L120.903 143ZM131.383 142.325V143H127.081V137.06H131.248V137.735H127.801V139.652H130.483V140.327H127.801V142.325H131.383ZM137.663 140.534H136.241V143H135.521V137.06H137.771C138.377 137.06 138.863 137.216 139.229 137.528C139.595 137.84 139.778 138.263 139.778 138.797C139.778 139.217 139.661 139.571 139.427 139.859C139.193 140.147 138.872 140.345 138.464 140.453L140.138 143H139.283L137.663 140.534ZM136.241 139.859H137.762C138.602 139.859 139.022 139.505 139.022 138.797C139.022 138.089 138.602 137.735 137.762 137.735H136.241V139.859ZM148.508 142.325V143H144.206V137.06H148.373V137.735H144.926V139.652H147.608V140.327H144.926V142.325H148.508ZM154.562 137.06C155.498 137.06 156.23 137.318 156.758 137.834C157.286 138.35 157.55 139.082 157.55 140.03C157.55 140.978 157.286 141.71 156.758 142.226C156.23 142.742 155.498 143 154.562 143H152.645V137.06H154.562ZM154.634 142.325C155.312 142.325 155.84 142.124 156.218 141.722C156.602 141.314 156.794 140.75 156.794 140.03C156.794 139.31 156.602 138.749 156.218 138.347C155.84 137.939 155.312 137.735 154.634 137.735H153.365V142.325H154.634ZM172.387 141.479C172.201 141.983 171.895 142.379 171.469 142.667C171.043 142.949 170.551 143.09 169.993 143.09C169.435 143.09 168.949 142.967 168.535 142.721C168.121 142.469 167.8 142.115 167.572 141.659C167.35 141.197 167.239 140.654 167.239 140.03C167.239 139.412 167.35 138.872 167.572 138.41C167.8 137.948 168.121 137.594 168.535 137.348C168.949 137.096 169.429 136.97 169.975 136.97C170.545 136.97 171.022 137.087 171.406 137.321C171.796 137.555 172.087 137.9 172.279 138.356L171.568 138.689C171.436 138.341 171.244 138.08 170.992 137.906C170.74 137.732 170.419 137.645 170.029 137.645C169.621 137.645 169.264 137.741 168.958 137.933C168.652 138.119 168.415 138.392 168.247 138.752C168.079 139.112 167.995 139.538 167.995 140.03C167.995 140.774 168.172 141.359 168.526 141.785C168.886 142.205 169.375 142.415 169.993 142.415C170.395 142.415 170.743 142.313 171.037 142.109C171.331 141.905 171.541 141.605 171.667 141.209L172.387 141.479ZM178.863 136.97C179.421 136.97 179.907 137.096 180.321 137.348C180.735 137.594 181.053 137.948 181.275 138.41C181.503 138.866 181.617 139.406 181.617 140.03C181.617 140.654 181.503 141.197 181.275 141.659C181.053 142.115 180.735 142.469 180.321 142.721C179.907 142.967 179.421 143.09 178.863 143.09C178.305 143.09 177.819 142.967 177.405 142.721C176.991 142.469 176.67 142.115 176.442 141.659C176.22 141.197 176.109 140.654 176.109 140.03C176.109 139.406 176.22 138.866 176.442 138.41C176.67 137.948 176.991 137.594 177.405 137.348C177.819 137.096 178.305 136.97 178.863 136.97ZM178.863 137.645C178.245 137.645 177.756 137.858 177.396 138.284C177.042 138.704 176.865 139.286 176.865 140.03C176.865 140.774 177.042 141.359 177.396 141.785C177.756 142.205 178.245 142.415 178.863 142.415C179.481 142.415 179.967 142.205 180.321 141.785C180.681 141.359 180.861 140.774 180.861 140.03C180.861 139.286 180.681 138.704 180.321 138.284C179.967 137.858 179.481 137.645 178.863 137.645ZM186.621 137.735V139.652H189.303V140.327H186.621V143H185.901V137.06H190.059V137.735H186.621ZM194.814 137.735V139.652H197.496V140.327H194.814V143H194.094V137.06H198.252V137.735H194.814ZM206.59 142.325V143H202.288V137.06H206.455V137.735H203.008V139.652H205.69V140.327H203.008V142.325H206.59ZM215.029 142.325V143H210.727V137.06H214.894V137.735H211.447V139.652H214.129V140.327H211.447V142.325H215.029Z" fill="white"/>
<path d="M60.4626 117L48.1146 117L48.1146 115.992L51.5166 115.614L47.6526 105.954L38.2026 105.954L34.8426 114.9L38.5806 115.992L38.5806 117L29.8026 117L29.8026 115.992L32.9946 114.9L43.1586 88.944L46.0986 88.944L57.2286 115.614L60.4626 115.992L60.4626 117ZM47.0226 104.4L42.9066 94.194L38.7906 104.4L47.0226 104.4ZM73.4636 117L60.5696 117L60.5696 115.992L64.2236 115.614L64.2236 90.33L60.5696 89.952L60.5696 88.944L73.4636 88.944L73.4636 89.952L69.8096 90.33L69.8096 115.614L73.4636 115.992L73.4636 117ZM85.3095 102.342L86.7375 102.342C91.2175 102.342 93.4575 100.2 93.4575 95.916C93.4575 93.844 93.0235 92.346 92.1555 91.422C91.2875 90.47 89.9155 89.994 88.0395 89.994C86.8355 89.994 85.9255 90.05 85.3095 90.162L85.3095 102.342ZM84.5955 88.86L89.2995 88.734C95.9635 88.734 99.2955 91.128 99.2955 95.916C99.2955 98.044 98.5395 99.78 97.0275 101.124C95.5155 102.468 93.5695 103.14 91.1895 103.14L90.2235 103.14C93.4155 103.56 95.5995 104.526 96.7755 106.038C97.9795 107.55 98.5815 109.846 98.5815 112.926C98.5815 114.83 98.9735 115.992 99.7575 116.412C100.038 116.58 100.444 116.664 100.976 116.664C101.536 116.664 102.292 116.44 103.244 115.992L103.286 117C101.774 117.644 100.234 117.966 98.6655 117.966C95.5295 117.966 93.6395 116.79 92.9955 114.438C92.7715 113.458 92.6595 112.24 92.6595 110.784C92.6595 109.3 92.5615 108.166 92.3655 107.382C92.1975 106.57 91.9315 105.912 91.5675 105.408C90.7555 104.176 89.2295 103.56 86.9895 103.56L85.3095 103.56L85.3095 115.614L88.5015 115.992L88.5015 117L76.6575 117L76.6575 115.992L79.7655 115.656L79.7655 90.246L76.1535 89.742L76.1535 88.692C78.5055 88.804 80.6195 88.86 82.4955 88.86L84.5955 88.86ZM126.07 88.944C132.762 88.944 136.108 91.142 136.108 95.538C136.108 97.33 135.534 98.828 134.386 100.032C133.238 101.208 131.572 101.922 129.388 102.174C132.216 102.706 134.274 103.532 135.562 104.652C136.85 105.772 137.494 107.354 137.494 109.398C137.494 111.974 136.402 113.892 134.218 115.152C132.034 116.384 129.192 117 125.692 117L114.31 117L114.31 115.992L117.376 115.572L117.376 90.33L113.806 89.91L113.806 88.944L126.07 88.944ZM124.138 103.014L123.046 103.056L123.046 115.824C123.578 115.964 124.194 116.034 124.894 116.034C126.826 116.034 128.45 115.502 129.766 114.438C131.082 113.346 131.74 111.554 131.74 109.062C131.74 105.898 130.368 104.008 127.624 103.392C126.504 103.14 125.342 103.014 124.138 103.014ZM123.046 90.078L123.046 101.838L124.054 101.838C126.014 101.838 127.54 101.306 128.632 100.242C129.724 99.178 130.27 97.638 130.27 95.622C130.27 93.578 129.85 92.15 129.01 91.338C128.17 90.498 126.826 90.078 124.978 90.078L123.046 90.078ZM140.386 117L140.386 115.992L144.04 115.614L144.04 90.33L140.386 89.952L140.386 88.944L161.806 88.944L161.806 94.908L160.462 94.908L158.824 90.456L149.626 90.33L149.626 101.628L157.774 101.628L159.076 98.52L160.252 98.52L160.252 106.332L159.034 106.332L157.774 103.14L149.626 103.14L149.626 115.656L160.084 115.53L162.268 110.742L163.612 110.742L163.108 117L140.386 117ZM194.912 117L182.564 117L182.564 115.992L185.966 115.614L182.102 105.954L172.652 105.954L169.292 114.9L173.03 115.992L173.03 117L164.252 117L164.252 115.992L167.444 114.9L177.608 88.944L180.548 88.944L191.678 115.614L194.912 115.992L194.912 117ZM181.472 104.4L177.356 94.194L173.24 104.4L181.472 104.4ZM216.397 88.944L224.881 88.944L224.881 89.952L221.941 90.96L221.941 117L219.085 117L200.395 93.984L200.395 114.942L203.923 115.992L203.923 117L195.523 117L195.523 115.992L198.589 114.942L198.589 90.33L194.935 89.952L194.935 88.944L202.831 88.944L219.631 109.86L219.631 90.918L216.397 89.952L216.397 88.944Z" fill="white"/>
<path d="M146.738 45.0653C143.28 35.3804 139.771 25.7154 136.265 16.0465C135.756 14.6521 134.791 13.9729 133.233 14.0008C129.727 14.0648 126.218 14.0528 122.712 14.0048C121.162 13.9848 120.252 14.692 119.739 16.1144C116.266 25.7194 112.76 35.3085 109.306 44.9215C108.408 47.4186 109.521 48.9369 112.184 48.9689C115.296 49.0088 118.404 48.9769 121.516 48.9769C122.45 48.9769 123.408 49.0208 123.904 47.974C124.37 47.0071 123.742 46.3359 123.261 45.6287C121.432 42.9478 120.327 40.0071 120.037 36.7548C119.91 35.3045 120.53 34.6213 121.941 34.6173C123.924 34.6093 125.912 34.6173 127.895 34.6173C127.895 34.6133 127.895 34.6093 127.895 34.6093C129.815 34.6093 131.734 34.5813 133.65 34.6173C135.713 34.6532 136.229 35.2685 135.927 37.3541C135.482 40.4266 134.361 43.2354 132.621 45.8085C131.373 47.6584 131.969 48.9249 134.131 48.9569C137.438 49.0128 140.748 49.0208 144.055 48.9449C146.448 48.889 147.545 47.3228 146.738 45.0653ZM130.291 25.4717C129.346 26.6064 128.59 27.7651 128.253 29.2514C127.939 30.6378 127.064 30.6698 126.09 29.7348C124.397 28.1007 124.199 25.0802 125.765 22.9985C126.643 21.8319 127.462 20.7251 127.756 19.2029C127.994 17.9843 128.936 17.8684 129.815 18.7634C130.78 19.7383 131.313 20.9249 131.293 22.4432C131.377 23.51 131.027 24.5967 130.291 25.4717Z" fill="white"/>
</svg>
