<svg width="375" height="73" viewBox="0 0 375 73" fill="none" xmlns="http://www.w3.org/2000/svg">
<g clip-path="url(#clip0)">
<path d="M229.732 27.8733C229.732 27.8733 109.528 18.6058 41.1759 54.7676C17.9819 67.0347 3.36451 81.2215 -5.81449 94.6214C-24.9618 122.553 -7.22158 160.432 26.6124 163.879C42.8381 165.533 63.1728 163.569 87.563 153.847C159.433 125.191 229.732 27.8733 229.732 27.8733Z" fill="#2F8C91"/>
<path d="M45.1366 115.831C49.9791 113.579 54.8191 111.337 59.6616 109.085C75.3568 120.931 91.0495 132.787 106.754 144.635C107.304 144.33 107.854 144.025 108.396 143.708C92.7444 131.893 77.0928 120.078 61.4412 108.263C66.015 106.139 70.6008 104.009 75.1746 101.886C90.3709 112.981 105.061 124.738 119.192 137.123C119.686 136.795 120.187 136.478 120.681 136.149C106.64 123.816 92.0585 112.116 76.9663 101.056C81.3657 99.0126 85.7651 96.9695 90.1645 94.9263C104.09 106.052 118.005 117.175 131.93 128.301C132.41 127.948 132.889 127.596 133.371 127.234C119.557 116.196 105.736 105.146 91.9223 94.1086C96.5324 91.9636 101.15 89.8305 105.76 87.6855C119.651 96.9525 133.155 106.777 146.223 117.148C146.678 116.769 147.131 116.4 147.576 116.019C134.656 105.755 121.314 96.0206 107.588 86.8338C112.336 84.6305 117.084 82.4271 121.834 80.2142C134.195 88.7067 146.179 97.7184 157.738 107.228C158.174 106.845 158.602 106.45 159.038 106.066C147.634 96.6754 135.83 87.7678 123.65 79.3698C127.515 77.5742 131.389 75.7809 135.253 73.9853C146.733 81.2085 157.868 88.9387 168.624 97.157C169.045 96.75 169.464 96.3525 169.885 95.9454C159.314 87.8527 148.384 80.2431 137.115 73.1214C141.829 70.9302 146.543 68.7391 151.257 66.5479C161.664 71.7951 171.449 78.1228 180.473 85.4267C180.875 85.015 181.277 84.6033 181.681 84.182C172.873 77.0417 163.345 70.8367 153.226 65.6284C154.831 64.8858 156.439 64.1336 158.044 63.3911C158.357 63.4153 158.674 63.2984 158.882 63.0028C160.047 62.4593 161.209 61.9254 162.373 61.3819C171.749 65.3846 180.274 71.003 187.599 77.9999C187.994 77.5763 188.386 77.1622 188.78 76.7386C181.666 69.9652 173.463 64.4548 164.456 60.4185C167.993 58.7781 171.521 57.1354 175.058 55.495C182.443 59.3649 189.502 63.7561 196.206 68.652C196.594 68.2164 196.979 67.7905 197.366 67.355C190.896 62.6274 184.092 58.3685 177.003 54.5899C180.286 53.0613 183.576 51.5445 186.859 50.0159C191.322 53.3356 195.777 56.6435 200.24 59.9633C200.976 60.5062 201.717 61.0707 202.453 61.6137C202.831 61.1758 203.206 60.7476 203.581 60.3193C202.482 59.506 201.407 58.6782 200.327 57.8695C196.436 54.9718 192.542 52.0837 188.651 49.1859C191.433 47.8926 194.203 46.6065 196.985 45.3132C201.467 47.5803 205.852 50.0274 210.116 52.6691C210.496 52.2217 210.867 51.7719 211.235 51.3317C207.247 48.858 203.157 46.5429 198.973 44.3983C202.22 42.8914 205.457 41.3822 208.702 39.8848C211.435 41.3859 214.089 43 216.658 44.7462C217.031 44.2868 217.392 43.8347 217.75 43.3922C215.442 41.8309 213.062 40.3538 210.624 38.9847C212.58 38.0724 214.534 37.1696 216.491 36.2573C218.108 37.1342 219.728 38.0015 221.336 38.876C221.711 38.4071 222.062 37.9526 222.411 37.5078C221.081 36.7917 219.752 36.0756 218.433 35.3618C221.355 34.0006 224.275 32.6489 227.207 31.29C228.861 29.0951 229.732 27.8813 229.732 27.8813C229.732 27.8813 228.272 27.7641 225.587 27.6167C222.328 29.1308 219.069 30.645 215.81 32.1591C216.653 30.5723 217.365 28.9338 217.972 27.26C217.381 27.24 216.781 27.2176 216.161 27.1906C215.343 29.3322 214.333 31.4177 213.108 33.4208C210.837 34.4812 208.559 35.5296 206.287 36.5899C207.931 33.4979 209.282 30.305 210.34 27.0111C209.75 26.9911 209.156 26.9806 208.544 26.9655C207.401 30.4322 205.912 33.8054 204.091 37.0277C203.965 37.2415 203.953 37.4521 203.997 37.6455C199.808 39.5868 195.629 41.5305 191.44 43.4718C193.861 37.9944 196.077 32.4371 198.103 26.8141C197.498 26.8109 196.883 26.8053 196.265 26.8094C194.091 32.8138 191.69 38.7431 189.065 44.5782C185.305 46.3277 181.535 48.0749 177.775 49.8244C180.983 42.2487 183.997 34.5858 186.82 26.8667C186.203 26.8707 185.592 26.8867 184.963 26.898C181.997 34.9793 178.823 42.9901 175.433 50.9186C170.823 53.0637 166.204 55.2063 161.594 57.3513C166.179 47.4533 170.375 37.3904 174.186 27.1841C173.563 27.2074 172.941 27.2306 172.309 27.2515C168.343 37.8272 163.954 48.2502 159.158 58.4941C156.119 59.9087 153.071 61.321 150.032 62.7356C153.204 51.115 156.375 39.4943 159.547 27.8736C158.941 27.9111 158.336 27.9485 157.721 27.9837C154.47 39.88 151.228 51.7786 147.974 63.6845C142.073 66.4241 136.173 69.1637 130.272 71.9033C136.725 57.8281 142.397 43.4232 147.263 28.7533C146.634 28.8053 146.014 28.8596 145.385 28.9116C140.371 43.9222 134.524 58.6512 127.851 73.0292C122.449 75.543 117.05 78.0472 111.638 80.5587C116.49 64.0349 121.344 47.5015 126.196 30.9777C125.569 31.0608 124.944 31.1343 124.327 31.2197C119.402 47.9904 114.478 64.761 109.563 81.534C107.503 82.4925 105.442 83.451 103.384 84.3998C100.881 85.5669 98.37 86.7221 95.8664 87.8892C100.803 69.6879 105.742 51.4771 110.678 33.2758C110.056 33.3803 109.424 33.4826 108.799 33.5967C103.809 52.0089 98.8077 70.4283 93.818 88.8404C89.9537 90.6361 86.0894 92.4317 82.2251 94.2273C85.4641 75.1401 88.7032 56.0529 91.9326 36.9633C91.3224 37.1013 90.7122 37.2393 90.0997 37.3868C86.8582 56.5243 83.607 75.6595 80.3656 94.7969C80.3486 94.9047 80.3559 94.998 80.3632 95.0912C74.8354 97.6561 69.3174 100.223 63.7897 102.788C67.8665 82.2147 71.9529 61.6435 76.0297 41.07C75.4074 41.2559 74.7755 41.4395 74.1532 41.6254C70.0474 62.3139 65.9416 83.0024 61.8455 103.693C57.7027 105.615 53.5696 107.539 49.4269 109.461C51.155 89.1567 52.8759 68.8403 54.604 48.5358C53.9963 48.7862 53.3982 49.0389 52.7977 49.3012C51.072 69.6368 49.3342 89.9796 47.6085 110.315C43.1994 112.356 38.7976 114.409 34.3885 116.45C33.8963 96.8008 34.518 77.1351 36.2413 57.5411C35.6166 57.8993 35.004 58.2502 34.3987 58.613C32.7287 78.1181 32.1506 97.6926 32.6864 117.25C25.5388 120.574 18.3841 123.887 11.2365 127.211C10.7493 109.617 11.1167 92.0153 12.305 74.4582C11.6707 75.0174 11.0581 75.5716 10.4431 76.1355C9.33229 93.3045 9.02293 110.514 9.51985 127.703C9.5247 127.806 9.54165 127.902 9.58039 127.992C6.57563 129.395 3.5636 130.785 0.558829 132.188C-0.451306 118.169 -1.45176 104.152 -2.46431 90.1429C-3.0115 90.8451 -3.53932 91.5518 -4.05503 92.2514C-3.07638 105.826 -2.09774 119.4 -1.12879 132.972C-4.10692 134.35 -7.08747 135.738 -10.0559 137.118C-9.53288 138.342 -8.94447 139.551 -8.31732 140.729C-7.49168 140.348 -6.66603 139.967 -5.84038 139.586C3.65373 147.511 13.1478 155.436 22.6323 163.359C23.7098 163.567 24.809 163.73 25.9252 163.866C15.9154 155.502 5.90309 147.147 -4.11646 138.78C-1.45309 137.55 1.20302 136.308 3.86639 135.077C15.7964 144.869 27.7385 154.654 39.6685 164.446C40.5256 164.428 41.3973 164.394 42.2713 164.35C30.0508 154.325 17.8206 144.299 5.60243 134.265C9.73308 132.35 13.854 130.433 17.9847 128.518C31.3191 139.868 44.6559 151.208 57.9903 162.557C58.7118 162.426 59.4334 162.294 60.1694 162.146C46.6825 150.668 33.1931 139.2 19.7159 127.725C23.3139 126.048 26.9191 124.383 30.5171 122.707C30.6212 122.661 30.7156 122.612 30.8197 122.566C45.6287 133.935 59.8154 146.058 73.3411 158.887C73.973 158.704 74.6074 158.511 75.2442 158.308C61.6773 145.398 47.4373 133.2 32.5872 121.751C33.0521 121.537 33.517 121.323 33.9722 121.108C34.0811 121.083 34.1853 121.037 34.2627 120.974C37.2772 119.574 40.2916 118.174 43.3158 116.776C60.0739 127.79 76.2726 139.594 91.8831 152.142C92.4738 151.877 93.0719 151.624 93.6651 151.35C78.0523 138.69 61.8656 126.878 45.1366 115.831Z" fill="#286F7F"/>
<path d="M170.082 77.7416C170.082 77.7416 233.432 134.752 289.826 150.934C308.967 156.425 324.2 157.355 335.971 156.179C360.527 153.733 369.131 131.011 351.716 114.639C343.362 106.784 330.912 98.5226 312.346 91.4998C257.665 70.8163 170.082 77.7416 170.082 77.7416Z" fill="#BAE3DD"/>
<path d="M317.635 125.245C313.791 123.974 309.953 122.71 306.109 121.438C303.07 109.826 300.033 98.2077 296.994 86.5954C296.535 86.4696 296.075 86.35 295.614 86.2303C298.644 97.8139 301.674 109.397 304.706 120.975C301.075 119.778 297.438 118.572 293.807 117.375C290.683 106.275 288.161 95.1463 286.275 84.017C285.833 83.9224 285.391 83.8277 284.957 83.7354C286.827 94.8011 289.306 105.872 292.388 116.907C288.9 115.757 285.405 114.599 281.916 113.449C279.522 102.908 277.13 92.36 274.736 81.8184C274.289 81.7419 273.849 81.6676 273.4 81.5971C275.774 92.0608 278.148 102.524 280.521 112.988C276.86 111.776 273.205 110.571 269.544 109.359C266.256 99.5558 263.461 89.7112 261.169 79.8416C260.732 79.7877 260.287 79.7315 259.85 79.6777C262.105 89.4384 264.854 99.1777 268.087 108.873C264.321 107.63 260.548 106.385 256.784 105.137C253.976 96.3176 251.64 87.4641 249.786 78.5991C249.354 78.5596 248.913 78.5179 248.481 78.4784C250.301 87.2224 252.594 95.9585 255.343 104.656C252.276 103.641 249.207 102.632 246.14 101.616C243.204 93.6846 240.724 85.7139 238.688 77.714C238.252 77.6866 237.816 77.6592 237.381 77.6257C239.371 85.4879 241.802 93.333 244.666 101.126C240.925 99.8904 237.183 98.6547 233.442 97.419C230.146 90.7402 227.73 83.9155 226.218 77.0431C225.788 77.024 225.357 77.011 224.927 76.9919C226.39 83.7062 228.725 90.3636 231.88 96.9033C230.604 96.4829 229.335 96.0649 228.061 95.6385C227.895 95.4925 227.656 95.3907 227.394 95.4202C226.475 95.1159 225.548 94.8092 224.628 94.5049C221.301 88.7677 219.252 82.7826 218.556 76.7878C218.124 76.7747 217.699 76.77 217.267 76.757C217.955 82.5728 219.876 88.3767 222.98 93.9578C220.174 93.031 217.376 92.1066 214.57 91.1798C212.302 86.3835 210.479 81.5256 209.095 76.6302C208.66 76.6292 208.234 76.6245 207.8 76.6175C209.13 81.3465 210.874 86.031 213.024 90.6687C210.417 89.8058 207.81 88.9428 205.208 88.0881C204.322 84.8109 203.429 81.5253 202.542 78.2481C202.391 77.7065 202.251 77.1612 202.1 76.6196C201.673 76.621 201.245 76.6223 200.826 76.6259C201.045 77.43 201.247 78.2354 201.461 79.031C202.236 81.8961 203.014 84.7551 203.789 87.6201C201.585 86.8931 199.382 86.1661 197.178 85.4391C195.753 82.5575 194.494 79.6512 193.378 76.7276C192.941 76.7326 192.51 76.746 192.089 76.7557C193.127 79.4999 194.296 82.2162 195.608 84.9211C193.033 84.0674 190.464 83.222 187.888 82.3683C187.079 80.5686 186.38 78.7545 185.779 76.9295C185.348 76.9429 184.917 76.9563 184.502 76.9743C185.035 78.6161 185.66 80.2448 186.359 81.8619C184.805 81.3485 183.252 80.8352 181.698 80.3219C181.215 79.2649 180.733 78.2018 180.241 77.1425C179.8 77.1597 179.376 77.1814 178.961 77.1994C179.361 78.0686 179.752 78.9416 180.152 79.8108C177.83 79.0431 175.516 78.2777 173.193 77.51C171.173 77.6487 170.082 77.7407 170.082 77.7407C170.082 77.7407 170.85 78.4338 172.295 79.6828C174.878 80.5389 177.463 81.3889 180.055 82.2472C178.795 82.4937 177.59 82.8214 176.428 83.2074C176.747 83.4766 177.074 83.7541 177.424 84.0385C178.937 83.5571 180.537 83.1924 182.212 82.9543C184.019 83.5537 185.819 84.1447 187.626 84.7441C185.18 85.2255 182.839 85.8812 180.631 86.7C180.961 86.9654 181.289 87.2369 181.623 87.5167C183.97 86.6662 186.471 86.0039 189.09 85.553C189.265 85.5245 189.384 85.4474 189.455 85.3564C192.777 86.4516 196.097 87.5527 199.418 88.6478C195.357 89.7188 191.373 90.9104 187.457 92.2201C187.795 92.4879 188.139 92.764 188.492 93.0363C192.676 91.6466 196.941 90.3917 201.305 89.2703C204.294 90.2563 207.283 91.2423 210.261 92.232C204.722 93.7816 199.254 95.4435 193.859 97.2114C194.212 97.4838 194.56 97.7478 194.922 98.0225C200.569 96.1699 206.302 94.4401 212.118 92.8392C215.779 94.0518 219.442 95.2584 223.095 96.4687C215.638 98.3109 208.317 100.396 201.137 102.705C201.501 102.973 201.864 103.242 202.228 103.511C209.674 101.128 217.272 98.9916 225.029 97.1111C227.445 97.9125 229.856 98.7057 232.265 99.5048C224.755 102.649 217.253 105.796 209.743 108.941C210.103 109.195 210.462 109.45 210.829 109.706C218.519 106.483 226.208 103.265 233.89 100.039C238.567 101.584 243.252 103.131 247.929 104.675C237.363 107.319 227.077 110.45 217.106 114.039C217.481 114.298 217.867 114.553 218.25 114.814C228.467 111.159 239.01 107.984 249.856 105.309C254.143 106.729 258.432 108.142 262.712 109.559C251.842 113.878 240.971 118.198 230.099 122.523C230.496 122.768 230.884 123.012 231.281 123.257C242.311 118.872 253.342 114.481 264.372 110.096C266.003 110.639 267.637 111.175 269.269 111.718C271.258 112.376 273.248 113.035 275.231 113.685C263.483 118.63 251.746 123.571 239.999 128.516C240.407 128.752 240.807 128.985 241.216 129.221C253.093 124.222 264.97 119.222 276.856 114.219C279.923 115.234 282.992 116.243 286.059 117.259C274.844 123.301 263.62 129.347 252.405 135.389C252.819 135.606 253.232 135.824 253.648 136.036C264.894 129.976 276.14 123.917 287.387 117.858C287.449 117.823 287.496 117.784 287.527 117.74C291.91 119.188 296.294 120.635 300.676 122.088C288.248 128.337 275.828 134.59 263.4 140.839C263.844 141.046 264.287 141.252 264.732 141.452C277.223 135.168 289.723 128.881 302.213 122.596C305.495 123.68 308.777 124.764 312.067 125.849C301.097 133.044 290.138 140.235 279.169 147.429C279.631 147.602 280.103 147.771 280.567 147.937C291.548 140.733 302.529 133.529 313.508 126.33C317.004 127.482 320.499 128.641 323.996 129.793C314.612 137.713 304.582 145.145 293.966 152.062C294.491 152.2 295.018 152.332 295.537 152.462C306.079 145.557 316.026 138.14 325.351 130.242C331.027 132.114 336.693 133.99 342.37 135.862C333.989 142.97 325.126 149.71 315.821 156.067C316.455 156.131 317.075 156.186 317.695 156.24C326.763 150.005 335.403 143.397 343.581 136.441C343.629 136.396 343.66 136.352 343.692 136.302C346.079 137.088 348.464 137.881 350.85 138.667C344.528 144.612 338.199 150.548 331.877 156.493C332.532 156.459 333.171 156.42 333.814 156.37C339.939 150.617 346.064 144.864 352.191 139.106C354.553 139.885 356.916 140.664 359.276 141.45C359.588 140.733 359.852 140.003 360.067 139.259C359.409 139.043 358.758 138.829 358.102 138.607C356.639 131.283 355.173 123.966 353.71 116.642C353.199 116.082 352.66 115.527 352.1 114.985C353.644 122.706 355.187 130.432 356.731 138.153C354.623 137.454 352.506 136.758 350.398 136.059C348.47 126.923 346.541 117.787 344.622 108.648C344.125 108.275 343.619 107.9 343.103 107.528C345.078 116.887 347.052 126.246 349.019 135.602C345.745 134.521 342.472 133.44 339.198 132.359C337.248 121.991 335.29 111.621 333.341 101.254C332.872 100.987 332.395 100.719 331.91 100.448C333.885 110.934 335.86 121.421 337.835 131.907C334.981 130.966 332.12 130.017 329.266 129.077C329.186 129.053 329.108 129.024 329.029 128.995C326.259 117.965 324.203 106.911 322.872 95.8765C322.421 95.6677 321.968 95.465 321.516 95.2563C322.832 106.339 324.873 117.447 327.636 128.528C327.271 128.41 326.899 128.283 326.534 128.165C326.459 128.123 326.379 128.1 326.303 128.091C323.909 127.303 321.516 126.508 319.122 125.72C315.072 113.961 311.721 102.14 309.085 90.2901C308.619 90.1296 308.153 89.9691 307.687 89.8086C310.278 101.665 313.611 113.487 317.635 125.245Z" fill="#97C9CE"/>
<path d="M224.002 99.2116C223.983 99.0708 223.95 98.9304 223.924 98.7968C223.916 98.7759 223.923 98.7544 223.915 98.7335C223.889 98.5999 223.863 98.4664 223.831 98.3401C223.83 98.326 223.823 98.305 223.822 98.2909C223.789 98.1505 223.763 98.017 223.723 97.8839C223.722 97.8556 223.707 97.8278 223.706 97.7996C223.666 97.6665 223.641 97.5329 223.601 97.3999C223.593 97.3789 223.592 97.3506 223.584 97.3297C223.544 97.1966 223.504 97.0635 223.464 96.9305L223.457 96.9236C223.417 96.7906 223.37 96.6507 223.323 96.5249C223.316 96.504 223.308 96.483 223.3 96.462C223.253 96.3363 223.207 96.2105 223.16 96.0847C223.152 96.0638 223.144 96.0428 223.129 96.015C223.082 95.8893 223.028 95.7567 222.982 95.6309C222.974 95.6241 222.981 95.6168 222.974 95.6099C222.927 95.4842 222.874 95.3657 222.82 95.2473C222.812 95.2263 222.805 95.2195 222.797 95.1985C222.744 95.0801 222.69 94.9616 222.629 94.8363C222.621 94.8154 222.614 94.7944 222.606 94.7734C222.552 94.655 222.491 94.5297 222.431 94.4185C222.424 94.4117 222.423 94.3976 222.409 94.3839C222.355 94.2655 222.287 94.1475 222.227 94.0363C222.22 94.0295 222.227 94.0222 222.219 94.0154C222.159 93.9042 222.091 93.7862 222.031 93.6751C222.023 93.6541 222.008 93.6405 222.008 93.6263C221.948 93.5152 221.88 93.4114 221.82 93.3002C221.813 93.2934 221.805 93.2724 221.798 93.2656C221.663 93.0438 221.521 92.8292 221.379 92.6147C221.372 92.6079 221.364 92.5869 221.357 92.5801C221.29 92.4763 221.216 92.3797 221.142 92.2832C221.134 92.2764 221.12 92.2627 221.119 92.2486C220.971 92.0414 220.816 91.8556 220.661 91.6699C220.654 91.663 220.654 91.663 220.646 91.6562C220.565 91.567 220.499 91.4773 220.418 91.388C220.41 91.3812 220.403 91.3744 220.396 91.3675C220.315 91.2783 220.241 91.1959 220.161 91.1067C219.999 90.9424 219.838 90.778 219.677 90.6278C219.67 90.621 219.663 90.6142 219.663 90.6142C219.582 90.5391 219.495 90.4713 219.422 90.403L219.415 90.3962C219.247 90.2533 219.087 90.1314 218.913 90.01L218.906 90.0031C218.826 89.9422 218.74 89.8885 218.66 89.8417L218.653 89.8349C218.4 89.6807 218.155 89.5476 217.897 89.4431L217.889 89.4363C217.638 89.3387 217.395 89.2621 217.153 89.2137L217.146 89.2069C217.067 89.1883 216.989 89.1839 216.904 89.1726C216.741 89.157 216.592 89.1549 216.43 89.1675C216.352 89.1772 216.282 89.1796 216.205 89.2035C216.205 89.2035 216.205 89.2035 216.198 89.2108C215.185 89.4008 214.344 90.2572 213.857 91.9506C211.616 99.6962 217.326 108.056 219.619 110.992C218.117 110.491 216.615 110.019 215.099 109.561C214.063 109.249 213.027 108.952 211.991 108.655L210.541 108.244C206.698 107.172 202.842 106.143 199.019 105.02C199.052 104.97 199.086 104.919 199.127 104.875C199.229 104.737 199.323 104.607 199.425 104.469C199.486 104.389 199.532 104.309 199.593 104.23C199.681 104.106 199.755 103.983 199.843 103.86C199.896 103.773 199.95 103.687 200.004 103.6C200.077 103.477 200.158 103.361 200.225 103.246C200.279 103.159 200.332 103.072 200.379 102.979C200.445 102.863 200.519 102.741 200.579 102.618C200.632 102.532 200.672 102.445 200.718 102.352C200.778 102.229 200.845 102.114 200.904 101.992C200.944 101.905 200.99 101.812 201.037 101.732C201.096 101.61 201.156 101.488 201.208 101.359C201.247 101.273 201.287 101.186 201.32 101.107C201.372 100.978 201.424 100.849 201.483 100.713C201.516 100.634 201.549 100.555 201.581 100.476C201.64 100.325 201.692 100.182 201.75 100.031C201.769 99.9671 201.795 99.9096 201.822 99.8521C201.893 99.6445 201.963 99.4369 202.027 99.2225C202.026 99.2084 202.04 99.1938 202.04 99.1796C202.097 98.9867 202.154 98.7937 202.211 98.6007C202.23 98.5364 202.242 98.4653 202.261 98.4009C202.298 98.2582 202.336 98.1154 202.367 97.9799C202.385 97.9014 202.404 97.823 202.422 97.7445C202.446 97.6164 202.484 97.4877 202.508 97.3596C202.527 97.2811 202.538 97.1958 202.549 97.1105C202.573 96.9824 202.59 96.8615 202.614 96.7333C202.626 96.6481 202.637 96.5628 202.655 96.4843C202.673 96.3635 202.69 96.2426 202.707 96.1217C202.718 96.0364 202.729 95.9512 202.741 95.8659C202.758 95.745 202.768 95.6173 202.778 95.5038C202.789 95.4185 202.793 95.3405 202.805 95.2552C202.815 95.1276 202.818 95.0072 202.827 94.8795C202.832 94.8015 202.836 94.7235 202.841 94.6456C202.85 94.5179 202.853 94.3834 202.855 94.2488C202.853 94.1782 202.858 94.1143 202.862 94.0364C202.864 93.8877 202.859 93.7322 202.861 93.5836C202.86 93.5412 202.865 93.4915 202.856 93.4422C202.85 93.2444 202.843 93.0465 202.836 92.8486C202.835 92.8204 202.827 92.7994 202.834 92.778C202.828 92.6083 202.808 92.4392 202.802 92.2696C202.793 92.2062 202.784 92.1429 202.789 92.079C202.777 91.945 202.766 91.8251 202.748 91.6984C202.738 91.6209 202.729 91.5575 202.719 91.48C202.708 91.3601 202.69 91.2475 202.672 91.1349C202.662 91.0574 202.652 90.9799 202.636 90.9098C202.618 90.7972 202.6 90.6846 202.582 90.5861C202.573 90.5086 202.549 90.4316 202.539 90.3541C202.514 90.2488 202.504 90.1431 202.479 90.0378C202.469 89.9603 202.445 89.8833 202.436 89.8058C202.411 89.7005 202.386 89.5952 202.369 89.4967C202.352 89.4266 202.335 89.3422 202.318 89.272C202.294 89.1668 202.262 89.0688 202.237 88.9635C202.221 88.8933 202.197 88.8163 202.18 88.7461C202.155 88.6408 202.117 88.536 202.092 88.4307C202.068 88.3678 202.052 88.2976 202.028 88.2348C201.989 88.1158 201.957 88.0037 201.918 87.8848C201.901 87.8287 201.886 87.7868 201.87 87.7307C201.815 87.5699 201.76 87.409 201.691 87.2486C201.668 87.1999 201.652 87.1438 201.629 87.0951C201.59 86.9903 201.544 86.8787 201.505 86.7739C201.474 86.7041 201.451 86.6413 201.42 86.5716C201.382 86.4809 201.35 86.397 201.305 86.3137C201.275 86.244 201.244 86.1743 201.213 86.1045C201.175 86.028 201.137 85.9515 201.106 85.8676C201.075 85.7979 201.031 85.7287 201 85.659C200.962 85.5824 200.931 85.5127 200.887 85.4435C200.856 85.3738 200.811 85.3046 200.78 85.2349C200.743 85.1725 200.705 85.0959 200.667 85.0335C200.623 84.9643 200.592 84.8946 200.547 84.8254C200.51 84.7629 200.472 84.7006 200.427 84.6313C200.383 84.5621 200.345 84.4997 200.3 84.4305C200.263 84.3681 200.218 84.313 200.181 84.2506C200.136 84.1813 200.099 84.1189 200.047 84.057C200.003 84.0019 199.972 83.9463 199.935 83.8981C199.891 83.8288 199.839 83.7669 199.802 83.7045C199.764 83.6563 199.735 83.6148 199.698 83.5665C199.513 83.3252 199.321 83.0912 199.123 82.8786C199.086 82.8444 199.064 82.8098 199.027 82.7757C198.975 82.7138 198.917 82.6592 198.859 82.6045C198.822 82.5704 198.785 82.5363 198.756 82.4948C198.697 82.4402 198.646 82.3924 198.588 82.3378C198.551 82.3037 198.515 82.2695 198.478 82.2354C198.427 82.1876 198.368 82.133 198.31 82.0925C198.274 82.0584 198.245 82.0311 198.201 82.0043C198.143 81.9638 198.092 81.916 198.034 81.8755C198.005 81.8482 197.962 81.8214 197.926 81.8014C197.868 81.7609 197.81 81.7204 197.752 81.6799C197.716 81.6599 197.686 81.6326 197.65 81.6126C197.592 81.5721 197.528 81.539 197.47 81.4985C197.434 81.4785 197.405 81.4653 197.369 81.4453C197.304 81.4121 197.246 81.3717 197.181 81.3385C197.152 81.3253 197.131 81.319 197.102 81.3058C197.037 81.2726 196.973 81.2394 196.901 81.2136L196.894 81.2067C196.642 81.095 196.392 81.0257 196.143 80.9846C196.129 80.9851 196.108 80.9787 196.086 80.9724C196.015 80.9607 195.951 80.9558 195.887 80.9509C195.859 80.9518 195.838 80.9455 195.802 80.9396C195.738 80.9347 195.682 80.9366 195.618 80.9317C195.59 80.9327 195.561 80.9336 195.526 80.9278C195.469 80.9297 195.413 80.9316 195.349 80.9408C195.321 80.9418 195.286 80.9501 195.258 80.951C195.201 80.953 195.145 80.969 195.082 80.9782C195.047 80.9865 195.018 80.9875 194.991 81.0026C194.935 81.0186 194.878 81.0347 194.822 81.0507C194.787 81.059 194.76 81.0741 194.739 81.0819C194.683 81.0979 194.627 81.1281 194.571 81.1442C194.543 81.1593 194.515 81.1744 194.494 81.1821C194.439 81.2123 194.376 81.2357 194.32 81.2659C194.299 81.2737 194.279 81.2956 194.258 81.3034C193.689 81.6482 193.164 82.2249 192.741 83.0883C189.237 90.1057 195.729 101.276 197.881 104.656C195.258 103.86 192.646 103.008 190.067 102.049L189.966 102.01C189.888 101.977 189.816 101.951 189.73 101.926C189.73 101.926 189.73 101.926 189.723 101.919L188.246 101.346C185.025 100.062 181.911 98.5759 178.904 96.8881C179.089 96.5139 179.334 96.0174 179.603 95.4069C179.637 95.3421 179.656 95.2777 179.689 95.2129C179.8 94.9474 179.932 94.6599 180.049 94.3587C180.082 94.2798 180.107 94.2082 180.14 94.1292C180.205 93.9572 180.277 93.7779 180.349 93.5986C180.401 93.4695 180.453 93.3403 180.498 93.2044C180.537 93.104 180.576 93.0036 180.615 92.8891C180.744 92.5451 180.866 92.1801 180.988 91.801C181.052 91.6149 181.109 91.4219 181.167 91.2289C181.912 88.8193 182.516 85.9616 182.481 83.0691C182.476 82.9277 182.479 82.7932 182.474 82.6519C182.473 82.6095 182.471 82.5671 182.47 82.5247C182.459 82.4189 182.463 82.3127 182.452 82.2069C182.45 82.1645 182.449 82.1362 182.448 82.0938C182.436 81.9598 182.432 81.8184 182.42 81.6844C182.419 81.6561 182.419 81.642 182.418 81.6137C182.414 81.5007 182.396 81.3881 182.385 81.2823C182.384 81.2399 182.375 81.2048 182.374 81.1624C182.363 81.0566 182.353 80.9509 182.335 80.8524C182.334 80.8242 182.333 80.7959 182.325 80.7749C182.307 80.6482 182.288 80.5215 182.27 80.3948C182.269 80.3665 182.261 80.3314 182.253 80.3104C182.236 80.212 182.218 80.1135 182.201 80.0151C182.192 79.98 182.184 79.9449 182.176 79.9098C182.158 79.7972 182.14 79.6846 182.115 79.5793C182.114 79.5652 182.107 79.5583 182.114 79.551C182.089 79.4316 182.063 79.3122 182.038 79.1928C182.03 79.1577 182.022 79.1367 182.021 79.1085C181.997 79.0173 181.973 78.9262 181.955 78.8418C181.955 78.8136 181.939 78.7858 181.938 78.7575C181.906 78.6454 181.874 78.5333 181.842 78.4212C181.842 78.4212 181.835 78.4144 181.842 78.407C181.817 78.3018 181.778 78.197 181.746 78.099C181.739 78.078 181.73 78.0429 181.722 78.022C181.691 77.9381 181.667 77.847 181.636 77.7631C181.628 77.7422 181.628 77.728 181.62 77.7071C181.581 77.6023 181.549 77.5043 181.503 77.4068C181.503 77.3927 181.496 77.3858 181.488 77.379C181.457 77.2952 181.419 77.2045 181.381 77.1279C181.373 77.107 181.365 77.086 181.357 77.0651C181.319 76.9744 181.28 76.8837 181.235 76.8004L181.228 76.7935C181.189 76.7029 181.137 76.6127 181.092 76.5293C181.084 76.5225 181.084 76.5084 181.069 76.4947C181.031 76.4182 180.986 76.3489 180.948 76.2724C180.941 76.2656 180.933 76.2446 180.926 76.2378C180.829 76.0784 180.739 75.9258 180.635 75.7878C180.627 75.781 180.62 75.7741 180.62 75.76C180.568 75.6981 180.531 75.6357 180.479 75.5738C180.472 75.5669 180.472 75.5669 180.464 75.5601C180.354 75.4294 180.244 75.3129 180.134 75.2105C180.127 75.2037 180.119 75.1968 180.112 75.19C179.995 75.0808 179.886 74.9925 179.763 74.9047C179.705 74.8643 179.64 74.8311 179.589 74.7974C179.582 74.7906 179.582 74.7906 179.575 74.7838C179.459 74.7169 179.33 74.6647 179.202 74.6266L179.194 74.6198C179.13 74.6008 179.073 74.5886 179.009 74.5695C179.009 74.5695 179.001 74.5627 178.994 74.57C178.866 74.5461 178.739 74.5362 178.604 74.5337L178.59 74.5342C177.523 74.5776 176.362 75.6005 175.253 77.9305C172.632 83.4745 176.259 92.7612 177.821 96.2598C175.129 94.6887 172.53 92.9728 170.039 91.0835L168.594 89.9652C168.121 89.5921 167.655 89.2117 167.189 88.8314C165.333 87.2884 163.558 85.6577 161.859 83.9467C161.926 83.8453 161.993 83.7299 162.073 83.5998C162.121 83.5345 162.161 83.4624 162.201 83.3903C162.295 83.2456 162.388 83.0867 162.496 82.9133C162.818 82.3929 163.192 81.7576 163.64 80.9995C163.78 80.7471 163.941 80.4869 164.095 80.2058C164.175 80.0616 164.255 79.9173 164.342 79.7799C165.17 78.3226 166.135 76.5281 167.216 74.4184C167.269 74.3175 167.323 74.2166 167.362 74.1163C167.382 74.0802 167.395 74.0515 167.415 74.0154C167.448 73.9506 167.474 73.879 167.514 73.8069C167.534 73.7708 167.547 73.7279 167.567 73.6919C167.6 73.6271 167.619 73.5627 167.652 73.4979C167.665 73.4551 167.691 73.4117 167.704 73.3688C167.73 73.3113 167.756 73.2397 167.783 73.1822C167.795 73.1393 167.822 73.096 167.835 73.0531C167.861 72.9956 167.88 72.9312 167.906 72.8596C167.919 72.8167 167.938 72.7665 167.958 72.7305C167.977 72.6662 168.004 72.6087 168.03 72.537C168.042 72.4942 168.055 72.4513 168.075 72.4152C168.101 72.3436 168.12 72.2793 168.139 72.2149C168.152 72.1721 168.165 72.1433 168.178 72.1004C168.203 72.0147 168.228 71.9289 168.254 71.8431C168.26 71.8217 168.266 71.8003 168.273 71.7788C168.304 71.6716 168.336 71.5644 168.368 71.4572C168.381 71.4285 168.387 71.3929 168.386 71.3646C168.405 71.2861 168.423 71.2077 168.449 71.1361C168.462 71.0932 168.468 71.0576 168.48 71.0147C168.499 70.9504 168.511 70.8792 168.53 70.8149C168.543 70.772 168.548 70.7223 168.561 70.6795C168.58 70.6151 168.585 70.5513 168.597 70.4943C168.61 70.4514 168.615 70.4017 168.62 70.352C168.633 70.295 168.644 70.2238 168.657 70.1668C168.662 70.1171 168.675 70.0742 168.68 70.0245C168.692 69.9675 168.697 69.9036 168.716 69.8393C168.722 69.7896 168.734 69.7467 168.74 69.697C168.745 69.6332 168.757 69.5761 168.769 69.505C168.774 69.4553 168.78 69.4197 168.785 69.37C168.797 69.2988 168.802 69.235 168.814 69.1639C168.819 69.1283 168.818 69.0859 168.824 69.0503C168.835 68.9509 168.845 68.8373 168.856 68.7379C168.862 68.7023 168.861 68.6741 168.866 68.6385C168.878 68.5673 168.876 68.4967 168.888 68.4255C168.893 68.3758 168.891 68.3334 168.897 68.2837C168.902 68.2199 168.9 68.1633 168.912 68.1063C168.917 68.0566 168.916 68.0142 168.914 67.9577C168.912 67.9011 168.918 67.8514 168.916 67.7949C168.921 67.7452 168.912 67.6959 168.918 67.6462C168.916 67.5897 168.921 67.54 168.919 67.4835C168.925 67.4338 168.916 67.3845 168.921 67.3348C168.919 67.2783 168.918 67.2359 168.916 67.1793C168.914 67.1228 168.913 67.0804 168.911 67.0239C168.916 66.9742 168.907 66.9249 168.905 66.8684C168.903 66.8119 168.902 66.7695 168.9 66.7129C168.899 66.6705 168.897 66.614 168.895 66.5716C168.893 66.515 168.885 66.4658 168.89 66.4161C168.889 66.3737 168.88 66.3245 168.878 66.2821C168.868 66.1763 168.864 66.0632 168.846 65.9506C168.838 65.9155 168.843 65.88 168.835 65.8449C168.833 65.7883 168.817 65.7323 168.815 65.6757C168.814 65.6333 168.806 65.5982 168.804 65.5558C168.795 65.5066 168.786 65.4433 168.777 65.394C168.769 65.3589 168.768 65.3165 168.759 65.2814C168.751 65.2322 168.741 65.1688 168.733 65.1196C168.724 65.0845 168.723 65.0421 168.715 65.007C168.706 64.9578 168.69 64.9017 168.688 64.8452C168.68 64.8101 168.671 64.775 168.663 64.7399C168.647 64.6839 168.638 64.6346 168.622 64.5786C168.614 64.5435 168.606 64.5084 168.598 64.4733C168.581 64.4172 168.573 64.368 168.557 64.312C168.556 64.2837 168.541 64.2559 168.54 64.2276C168.524 64.1716 168.508 64.1155 168.492 64.0595C168.491 64.0453 168.483 64.0244 168.476 64.0175C168.412 63.8075 168.334 63.5978 168.264 63.3951C168.263 63.3809 168.256 63.3741 168.255 63.36C168.232 63.2971 168.209 63.2483 168.179 63.1928C168.171 63.1718 168.163 63.1508 168.156 63.1299C168.133 63.0811 168.103 63.0256 168.087 62.9695C168.079 62.9485 168.071 62.9276 168.056 62.8998C168.033 62.851 168.01 62.8023 167.98 62.7467C167.972 62.7258 167.964 62.7048 167.942 62.6843C167.92 62.6356 167.897 62.5868 167.86 62.5386C167.852 62.5176 167.837 62.5039 167.829 62.483C167.807 62.4342 167.77 62.386 167.747 62.3372C167.732 62.3236 167.732 62.3094 167.717 62.2958C167.687 62.2402 167.65 62.1919 167.62 62.1505C167.613 62.1437 167.613 62.1437 167.605 62.1368C167.449 61.9087 167.286 61.7019 167.103 61.5171C167.096 61.5103 167.089 61.5035 167.089 61.5035C167.045 61.4625 167.008 61.4284 166.964 61.3874C166.957 61.3806 166.943 61.3669 166.935 61.3601C166.899 61.326 166.855 61.285 166.818 61.2509C166.804 61.2372 166.796 61.2304 166.782 61.2168C166.745 61.1826 166.702 61.1558 166.658 61.1148C166.643 61.1012 166.636 61.0944 166.615 61.088C166.571 61.0612 166.535 61.027 166.484 60.9934C166.477 60.9866 166.462 60.9729 166.448 60.9734C166.405 60.9466 166.354 60.9129 166.311 60.8861C166.303 60.8793 166.303 60.8793 166.296 60.8724C166.072 60.7456 165.842 60.6402 165.599 60.5636C165.542 60.5514 165.492 60.5318 165.435 60.5196C165.421 60.5201 165.414 60.5133 165.399 60.5138C165.342 60.5015 165.293 60.4962 165.243 60.4766C165.228 60.4771 165.207 60.4708 165.193 60.4713C165.143 60.4659 165.086 60.4537 165.036 60.4483C165.022 60.4487 165.001 60.4424 164.987 60.4429C164.937 60.4375 164.873 60.4326 164.823 60.4272C164.809 60.4277 164.788 60.4213 164.774 60.4218C164.717 60.4237 164.667 60.4184 164.604 60.4134C164.59 60.4139 164.575 60.4144 164.561 60.4149C163.953 60.4214 163.286 60.5785 162.561 60.9003C155.787 63.9322 159.459 78.078 160.939 82.9237C158.233 80.1078 155.732 77.0868 153.479 73.8875C153.479 73.8734 153.479 73.8734 153.479 73.8593L152.638 72.6638C151.35 70.7619 150.144 68.8006 149.028 66.7868C149.035 66.7653 149.041 66.7439 149.048 66.7224C149.092 66.5724 149.137 66.4364 149.174 66.2936C149.181 66.2722 149.18 66.258 149.187 66.2366C149.224 66.0938 149.262 65.951 149.292 65.8014C149.292 65.7873 149.298 65.7659 149.305 65.7585C149.335 65.6089 149.365 65.4593 149.396 65.3097C149.395 65.2815 149.408 65.2527 149.407 65.2244C149.43 65.0821 149.461 64.9325 149.477 64.7834C149.476 64.7551 149.482 64.7337 149.481 64.7054C149.504 64.549 149.52 64.3999 149.536 64.2366L149.536 64.2225C149.552 64.0733 149.561 63.9174 149.57 63.7614C149.569 63.7332 149.575 63.7117 149.574 63.6835C149.583 63.5275 149.585 63.3789 149.587 63.2302C149.586 63.2019 149.585 63.1737 149.591 63.1381C149.593 62.9895 149.602 62.8335 149.596 62.678C149.603 62.6566 149.595 62.6356 149.594 62.6074C149.596 62.4587 149.591 62.3032 149.579 62.1551C149.578 62.1409 149.578 62.1268 149.577 62.1127C149.572 61.9572 149.559 61.7949 149.547 61.6467C149.546 61.6185 149.545 61.5902 149.544 61.5619C149.532 61.4138 149.513 61.2588 149.501 61.1106C149.5 61.0823 149.499 61.0541 149.498 61.0258C149.478 60.8708 149.459 60.7158 149.44 60.5608C149.439 60.5467 149.432 60.5399 149.431 60.5257C149.412 60.3707 149.386 60.223 149.366 60.068C149.358 60.0471 149.357 60.0188 149.357 60.0047C149.331 59.857 149.304 59.6952 149.278 59.5475C149.277 59.5192 149.269 59.4841 149.261 59.4632C149.227 59.3087 149.201 59.161 149.167 59.0065C149.16 58.9855 149.159 58.9572 149.151 58.9363C149.117 58.7817 149.077 58.6345 149.043 58.48C149.036 58.4732 149.043 58.4659 149.036 58.4591C148.995 58.2977 148.954 58.1505 148.913 57.9892C148.906 57.9682 148.897 57.9331 148.89 57.9122C148.849 57.765 148.802 57.6109 148.761 57.4637C148.746 57.4359 148.745 57.4077 148.73 57.3799C148.682 57.2258 148.635 57.0718 148.58 56.9251C148.58 56.911 148.565 56.8973 148.565 56.8832C148.51 56.7364 148.47 56.5892 148.415 56.4425C148.407 56.4215 148.4 56.4006 148.399 56.3865C148.345 56.2397 148.29 56.093 148.236 55.9463C148.221 55.9185 148.22 55.8902 148.204 55.8624C148.15 55.7157 148.089 55.5763 148.034 55.4296C148.026 55.4086 148.011 55.3808 148.003 55.3599C147.942 55.2063 147.88 55.0669 147.818 54.9133C147.75 54.7671 147.688 54.6135 147.619 54.4673C147.612 54.4463 147.596 54.4185 147.589 54.3976C147.527 54.2582 147.452 54.1192 147.391 53.9798C147.375 53.952 147.368 53.931 147.353 53.9033C147.277 53.7643 147.216 53.6249 147.14 53.486C147.132 53.465 147.125 53.4582 147.117 53.4372C147.049 53.3051 146.974 53.1662 146.906 53.0341C146.898 53.0272 146.89 53.0063 146.883 52.9994C146.808 52.8605 146.74 52.7284 146.657 52.5968C146.642 52.569 146.634 52.548 146.619 52.5202C146.544 52.3954 146.469 52.2565 146.394 52.1317C146.386 52.1107 146.364 52.0902 146.356 52.0693C146.274 51.9376 146.192 51.806 146.109 51.6744L146.102 51.6676C146.02 51.5359 145.938 51.4043 145.856 51.2868C145.848 51.2658 145.833 51.2522 145.825 51.2312C145.744 51.1137 145.669 50.9889 145.58 50.8646C145.564 50.8368 145.55 50.8232 145.535 50.7954C145.453 50.6779 145.364 50.5535 145.282 50.436C145.267 50.4224 145.267 50.4083 145.252 50.3946C145.17 50.2771 145.082 50.1669 145 50.0494C144.993 50.0426 144.985 50.0358 144.985 50.0216C144.896 49.9114 144.814 49.7939 144.726 49.6838C144.711 49.6701 144.696 49.6423 144.681 49.6287C144.593 49.5185 144.511 49.4151 144.423 49.3049C144.408 49.2913 144.4 49.2703 144.379 49.2498C144.29 49.1396 144.194 49.0367 144.106 48.9266L144.098 48.9197C144.003 48.8168 143.922 48.7135 143.826 48.6106C143.812 48.5969 143.804 48.5901 143.79 48.5765C143.701 48.4804 143.613 48.3844 143.525 48.2883C143.511 48.2746 143.496 48.261 143.474 48.2405C143.386 48.1445 143.291 48.0557 143.21 47.9665C143.195 47.9528 143.188 47.946 143.173 47.9323C143.078 47.8436 142.99 47.7475 142.896 47.6729L142.888 47.6661C142.793 47.5773 142.706 47.4954 142.611 47.4208C142.597 47.4072 142.582 47.3935 142.575 47.3867C142.487 47.3048 142.393 47.2301 142.305 47.1623C142.291 47.1487 142.283 47.1419 142.269 47.1282C142.174 47.0536 142.08 46.979 141.993 46.9112C141.985 46.9044 141.985 46.9044 141.978 46.8975C141.891 46.8298 141.796 46.7551 141.702 46.6947C141.695 46.6878 141.688 46.681 141.68 46.6742C141.593 46.6064 141.499 46.5459 141.412 46.4923C141.398 46.4786 141.384 46.4791 141.369 46.4654C141.282 46.4118 141.188 46.3513 141.101 46.2976C141.094 46.2908 141.08 46.2913 141.065 46.2776C140.878 46.1708 140.705 46.0776 140.525 45.9918C140.518 45.9849 140.504 45.9854 140.496 45.9786C140.41 45.9391 140.324 45.8996 140.245 45.8669C140.238 45.86 140.223 45.8605 140.209 45.8469C140.123 45.8073 140.037 45.7819 139.951 45.7566C139.951 45.7566 139.944 45.7497 139.937 45.757C139.851 45.7317 139.765 45.7063 139.687 45.6877L139.673 45.6882C139.594 45.6696 139.516 45.6511 139.431 45.6398C139.416 45.6403 139.409 45.6335 139.395 45.634C139.227 45.6963 139.156 45.6845 139.078 45.6801C139.064 45.6806 139.064 45.6806 139.05 45.6811C138.894 45.6722 138.731 45.6707 138.583 45.6828C138.569 45.6832 138.569 45.6833 138.555 45.6837C138.477 45.6934 138.414 45.7027 138.344 45.7192C138.33 45.7197 138.323 45.727 138.309 45.7275C138.238 45.744 138.168 45.7605 138.099 45.7912C138.099 45.7912 138.092 45.7985 138.078 45.799C138.015 45.8224 137.945 45.853 137.875 45.8837L137.868 45.891C137.799 45.9217 137.736 45.9592 137.674 45.9967C137.667 46.004 137.653 46.0045 137.646 46.0118C137.584 46.0493 137.529 46.0936 137.467 46.1452C137.46 46.1525 137.453 46.1598 137.446 46.1671C137.398 46.2041 137.336 46.2558 137.281 46.3142C136.646 46.9655 136.225 48.1189 136.101 49.8919C135.434 60.2302 144.213 65.6273 147.445 67.2509C148.584 69.3277 149.82 71.3446 151.139 73.302L151.883 74.3804C154.196 77.6909 156.765 80.8298 159.546 83.7564C155.037 81.8295 143.598 77.6972 138.942 82.9C137.708 84.2791 137.291 85.5173 137.461 86.5799C137.468 86.5867 137.462 86.594 137.469 86.6008C137.522 86.9103 137.624 87.2111 137.775 87.489L137.782 87.4958C137.933 87.7737 138.133 88.0428 138.368 88.2895L138.375 88.2964C138.61 88.5431 138.894 88.7811 139.206 88.9898C139.213 88.9967 139.213 88.9967 139.22 89.0035C139.278 89.044 139.343 89.0913 139.408 89.1244C139.668 89.2854 139.95 89.4386 140.245 89.5913C140.252 89.5981 140.274 89.6044 140.281 89.6113C140.346 89.6444 140.417 89.6703 140.489 89.7103C140.497 89.7171 140.511 89.7167 140.518 89.7235C140.741 89.8221 140.97 89.9133 141.214 90.0041C141.221 90.0109 141.235 90.0104 141.243 90.0173C141.314 90.0431 141.386 90.069 141.458 90.0948C141.479 90.1012 141.508 90.1144 141.529 90.1207C141.601 90.1466 141.665 90.1656 141.744 90.1842C141.765 90.1905 141.787 90.1969 141.815 90.21C142.051 90.2799 142.287 90.3497 142.522 90.4054C142.551 90.4185 142.579 90.4176 142.601 90.4239C142.665 90.443 142.736 90.4547 142.807 90.4664C142.843 90.4723 142.886 90.485 142.922 90.4908C142.993 90.5026 143.057 90.5216 143.128 90.5333C143.171 90.546 143.207 90.5519 143.256 90.5573C143.327 90.569 143.392 90.5881 143.456 90.593C143.491 90.5988 143.527 90.6047 143.562 90.6106C143.691 90.6345 143.819 90.6585 143.946 90.6683C143.996 90.6737 144.046 90.679 144.089 90.6917C144.153 90.6966 144.21 90.7089 144.273 90.7138C144.323 90.7191 144.38 90.7314 144.437 90.7294C144.5 90.7343 144.557 90.7466 144.621 90.7515C144.678 90.7637 144.735 90.7618 144.799 90.7667C144.863 90.7716 144.912 90.777 144.976 90.7819C145.061 90.7931 145.139 90.7975 145.231 90.8015C145.303 90.8132 145.373 90.8108 145.444 90.8225C145.522 90.827 145.586 90.8319 145.664 90.8363C145.714 90.8417 145.771 90.8398 145.82 90.8452C145.884 90.8501 145.955 90.8477 146.019 90.8526C146.075 90.8506 146.125 90.856 146.181 90.8541C146.252 90.8517 146.33 90.8561 146.394 90.861C146.444 90.8664 146.486 90.865 146.542 90.8631C146.663 90.866 146.776 90.8622 146.896 90.8652C146.925 90.8642 146.953 90.8633 146.988 90.8691C147.081 90.8731 147.172 90.8629 147.264 90.8668C147.307 90.8654 147.363 90.8635 147.406 90.862C147.476 90.8596 147.561 90.8568 147.632 90.8544C147.674 90.8529 147.731 90.851 147.773 90.8495C147.858 90.8467 147.935 90.837 148.02 90.8341C148.063 90.8326 148.105 90.8312 148.147 90.8298C148.267 90.8186 148.387 90.8075 148.507 90.7963C148.521 90.7958 148.542 90.788 148.564 90.7944C148.669 90.7837 148.775 90.773 148.881 90.7624C148.923 90.7609 148.958 90.7527 149.008 90.7439C149.085 90.7342 149.177 90.724 149.254 90.7143C149.297 90.7129 149.346 90.7041 149.381 90.6959C149.465 90.6788 149.55 90.676 149.634 90.6589C149.67 90.6507 149.712 90.6492 149.747 90.641C149.874 90.6225 149.986 90.6045 150.106 90.5793C150.12 90.5788 150.127 90.5715 150.134 90.5783C150.247 90.5603 150.352 90.5355 150.465 90.5175C150.5 90.5093 150.535 90.501 150.584 90.4923C150.668 90.4752 150.753 90.4582 150.83 90.4344C150.872 90.4188 150.914 90.4174 150.956 90.4018C151.04 90.3848 151.117 90.3609 151.202 90.3439C151.237 90.3357 151.272 90.3274 151.307 90.3191C151.419 90.287 151.538 90.2617 151.657 90.2223C151.657 90.2223 151.664 90.215 151.671 90.2218C151.784 90.1897 151.896 90.1576 152.008 90.1255C152.043 90.1172 152.078 90.109 152.113 90.0866C152.19 90.0627 152.273 90.0316 152.35 90.0077C152.392 89.9921 152.427 89.9839 152.469 89.9683C152.546 89.9445 152.63 89.9133 152.7 89.8826C152.735 89.8744 152.77 89.852 152.805 89.8437C152.916 89.7975 153.021 89.7585 153.133 89.7123C154.779 89.0337 156.103 88.4086 157.159 87.8491C157.465 87.6831 157.742 87.5322 158.006 87.3817C158.27 87.2312 158.513 87.0885 158.734 86.9395C159.067 86.7301 159.364 86.529 159.619 86.3434C159.702 86.284 159.785 86.2246 159.868 86.1652C160.185 85.928 160.433 85.7215 160.639 85.5305C160.694 85.4862 160.735 85.4423 160.783 85.3912C160.851 85.3181 160.927 85.2519 160.981 85.1934C162.71 86.9176 164.52 88.5683 166.399 90.1317L167.876 91.3339C170.631 93.5113 173.529 95.5071 176.548 97.3007C171.515 96.8279 157.022 96.1105 156.256 103.346C156.224 103.658 156.206 103.942 156.201 104.225C156.204 104.296 156.199 104.36 156.201 104.43L156.202 104.445C156.204 104.515 156.206 104.572 156.215 104.635L156.216 104.649C156.218 104.706 156.227 104.769 156.229 104.826L156.229 104.84C156.233 104.939 156.242 105.002 156.244 105.059L156.244 105.073C156.246 105.129 156.262 105.185 156.264 105.242C156.271 105.249 156.265 105.256 156.272 105.263C156.281 105.312 156.29 105.376 156.299 105.425C156.306 105.432 156.299 105.439 156.306 105.446C156.315 105.495 156.331 105.551 156.34 105.6C156.347 105.607 156.34 105.614 156.348 105.621C156.357 105.67 156.365 105.72 156.388 105.768C156.395 105.775 156.389 105.783 156.396 105.789C156.405 105.839 156.42 105.88 156.443 105.929C156.45 105.936 156.444 105.943 156.451 105.95C156.467 105.992 156.475 106.041 156.498 106.09C156.505 106.097 156.499 106.104 156.506 106.111C156.522 106.153 156.537 106.195 156.56 106.244C156.567 106.25 156.56 106.258 156.568 106.265C156.583 106.307 156.599 106.348 156.629 106.39C156.636 106.397 156.629 106.404 156.636 106.411C156.652 106.453 156.674 106.487 156.697 106.536C156.705 106.543 156.705 106.543 156.705 106.557C156.727 106.592 156.743 106.634 156.773 106.675C156.78 106.682 156.78 106.682 156.781 106.696C156.803 106.731 156.825 106.765 156.855 106.807C156.862 106.814 156.862 106.814 156.87 106.82C156.892 106.855 156.914 106.89 156.944 106.931C156.951 106.938 156.951 106.938 156.959 106.945C156.981 106.979 157.018 107.013 157.04 107.048C157.047 107.055 157.047 107.055 157.055 107.062C157.077 107.096 157.114 107.13 157.143 107.158L157.15 107.165C157.179 107.192 157.216 107.226 157.238 107.261L157.246 107.267C157.275 107.295 157.311 107.329 157.341 107.356L157.348 107.363C157.377 107.39 157.414 107.424 157.45 107.444C157.45 107.444 157.45 107.444 157.457 107.451C157.494 107.485 157.53 107.505 157.566 107.54C157.61 107.566 157.639 107.594 157.682 107.621C158.608 108.212 159.907 108.33 161.42 108.102C161.483 108.093 161.547 108.084 161.61 108.074C161.61 108.074 161.61 108.074 161.617 108.067C161.68 108.058 161.744 108.049 161.8 108.032L161.814 108.032C161.877 108.023 161.933 108.007 161.997 107.998C162.004 107.99 162.011 107.997 162.018 107.99C162.081 107.98 162.137 107.964 162.207 107.948C162.214 107.941 162.221 107.947 162.228 107.94C162.292 107.931 162.348 107.915 162.411 107.891C162.425 107.891 162.431 107.884 162.439 107.891C162.495 107.874 162.558 107.865 162.621 107.842C162.635 107.841 162.642 107.834 162.656 107.834C162.712 107.818 162.776 107.808 162.838 107.785C162.853 107.784 162.859 107.777 162.874 107.777C162.93 107.761 162.986 107.745 163.056 107.728C163.07 107.728 163.077 107.72 163.091 107.72C163.147 107.704 163.21 107.68 163.266 107.664C163.28 107.664 163.287 107.657 163.308 107.649C163.364 107.633 163.427 107.609 163.483 107.593C163.497 107.593 163.511 107.578 163.525 107.578C163.581 107.562 163.644 107.538 163.7 107.522C163.714 107.522 163.735 107.514 163.742 107.507C163.798 107.491 163.861 107.467 163.917 107.451C163.931 107.451 163.952 107.443 163.959 107.436C164.015 107.42 164.078 107.396 164.134 107.38C164.155 107.372 164.169 107.372 164.182 107.357C164.238 107.341 164.301 107.318 164.357 107.302C164.378 107.294 164.392 107.293 164.406 107.279C164.462 107.263 164.525 107.239 164.581 107.209C164.602 107.201 164.616 107.201 164.629 107.186C164.692 107.163 164.741 107.14 164.804 107.117C164.825 107.109 164.839 107.109 164.86 107.101C164.923 107.077 164.972 107.054 165.034 107.031C165.055 107.023 165.076 107.016 165.083 107.008C165.146 106.985 165.195 106.962 165.258 106.939C165.279 106.931 165.3 106.923 165.306 106.916C165.369 106.892 165.418 106.869 165.481 106.846C165.502 106.838 165.523 106.831 165.537 106.816C165.599 106.793 165.655 106.762 165.711 106.746C165.732 106.739 165.753 106.731 165.774 106.723C165.837 106.7 165.892 106.669 165.955 106.646C165.976 106.638 165.997 106.63 166.004 106.623C166.067 106.6 166.123 106.57 166.185 106.546C166.206 106.538 166.227 106.531 166.241 106.516C166.297 106.486 166.359 106.463 166.415 106.432C166.436 106.425 166.45 106.41 166.471 106.402C166.526 106.372 166.589 106.349 166.645 106.318C166.666 106.311 166.687 106.303 166.7 106.288C166.756 106.258 166.819 106.235 166.874 106.204C166.895 106.197 166.909 106.182 166.923 106.182C166.979 106.151 167.048 106.121 167.104 106.091C167.125 106.083 167.138 106.068 167.153 106.068C167.208 106.037 167.278 106.007 167.333 105.977C167.354 105.969 167.361 105.962 167.382 105.954C167.445 105.916 167.507 105.893 167.57 105.855C167.584 105.855 167.598 105.84 167.612 105.84C167.674 105.802 167.744 105.772 167.806 105.734C167.813 105.727 167.827 105.726 167.841 105.712C167.911 105.681 167.973 105.644 168.042 105.599C168.049 105.591 168.063 105.591 168.063 105.591C168.14 105.553 168.202 105.516 168.279 105.478C168.828 105.183 169.369 104.867 169.909 104.538C169.972 104.5 170.041 104.455 170.103 104.418C170.117 104.403 170.131 104.403 170.145 104.388C170.2 104.358 170.256 104.314 170.311 104.284C170.332 104.276 170.353 104.254 170.374 104.246C170.429 104.216 170.477 104.179 170.533 104.149C170.561 104.134 170.581 104.112 170.602 104.104C170.65 104.067 170.706 104.037 170.747 104.007C170.775 103.992 170.803 103.977 170.824 103.955C170.872 103.918 170.921 103.895 170.969 103.858C170.997 103.843 171.031 103.82 171.059 103.805C171.1 103.776 171.156 103.745 171.197 103.716C171.232 103.693 171.26 103.678 171.294 103.656C171.336 103.626 171.377 103.596 171.433 103.566C171.468 103.544 171.495 103.529 171.53 103.506C171.571 103.477 171.613 103.447 171.654 103.417C171.689 103.395 171.723 103.372 171.751 103.357C171.793 103.328 171.834 103.298 171.876 103.268C171.91 103.246 171.945 103.223 171.979 103.201C172.021 103.171 172.062 103.142 172.104 103.112C172.138 103.089 172.173 103.067 172.208 103.045C172.249 103.015 172.291 102.985 172.332 102.955C172.367 102.933 172.401 102.911 172.428 102.881C172.47 102.852 172.511 102.822 172.553 102.792C172.587 102.77 172.622 102.748 172.649 102.718C172.691 102.689 172.725 102.666 172.767 102.636C172.801 102.614 172.843 102.584 172.87 102.555C172.912 102.525 172.946 102.503 172.98 102.466C173.015 102.444 173.056 102.414 173.084 102.385C173.125 102.355 173.16 102.333 173.194 102.297C173.229 102.274 173.27 102.244 173.297 102.215C173.339 102.185 173.373 102.163 173.408 102.127C173.442 102.104 173.476 102.068 173.511 102.045C173.552 102.015 173.58 101.986 173.621 101.957C173.656 101.934 173.69 101.898 173.724 101.875C173.759 101.853 173.793 101.816 173.828 101.794C173.862 101.771 173.897 101.735 173.931 101.713C173.966 101.69 174 101.654 174.035 101.631C174.069 101.609 174.103 101.572 174.138 101.55C174.172 101.527 174.207 101.491 174.241 101.469C174.276 101.446 174.31 101.41 174.345 101.387C174.379 101.365 174.413 101.328 174.448 101.306C174.483 101.283 174.517 101.247 174.551 101.224C174.586 101.202 174.62 101.166 174.655 101.143C174.689 101.121 174.723 101.084 174.758 101.062C174.793 101.039 174.827 101.003 174.861 100.98C174.889 100.951 174.93 100.922 174.957 100.892C174.985 100.863 175.026 100.833 175.054 100.804C175.081 100.775 175.122 100.745 175.15 100.716C175.177 100.687 175.212 100.664 175.246 100.628C175.273 100.599 175.314 100.569 175.342 100.54C175.369 100.51 175.404 100.488 175.431 100.459C175.458 100.43 175.5 100.4 175.527 100.371C175.554 100.341 175.589 100.319 175.616 100.29C175.644 100.261 175.685 100.231 175.712 100.202C175.74 100.172 175.774 100.15 175.801 100.121C175.829 100.092 175.87 100.062 175.898 100.033C175.925 100.003 175.959 99.9809 175.987 99.9517C176.014 99.9225 176.056 99.8928 176.083 99.8635C176.11 99.8343 176.137 99.8051 176.172 99.7827C176.199 99.7535 176.234 99.7169 176.268 99.6945C176.295 99.6653 176.323 99.6361 176.357 99.6137C176.385 99.5844 176.412 99.5552 176.453 99.5255C176.481 99.4963 176.508 99.467 176.535 99.4378C176.563 99.4086 176.597 99.372 176.624 99.3428C176.651 99.3136 176.679 99.2844 176.699 99.2624C176.726 99.2332 176.754 99.204 176.788 99.1674C176.815 99.1382 176.843 99.109 176.863 99.0871C176.89 99.0578 176.918 99.0286 176.945 98.9994C176.972 98.9702 176.993 98.9482 177.02 98.919C177.047 98.8898 177.075 98.8605 177.102 98.8313C177.129 98.8021 177.15 98.7802 177.177 98.7509C177.204 98.7217 177.232 98.6925 177.259 98.6633C177.286 98.634 177.307 98.6121 177.334 98.5829C177.361 98.5536 177.389 98.5244 177.416 98.4952C177.436 98.4733 177.464 98.444 177.484 98.4221C177.512 98.3929 177.539 98.3637 177.573 98.3271C177.593 98.3052 177.621 98.276 177.641 98.2541C177.669 98.2248 177.703 98.1883 177.723 98.1522C177.73 98.1449 177.743 98.1303 177.75 98.123C179.972 99.3918 182.261 100.545 184.603 101.583C185.264 101.872 185.925 102.161 186.599 102.435L187.84 102.938C190.472 103.973 193.149 104.887 195.859 105.736C191.227 105.993 181.703 107.646 178.277 116.543C177.607 118.285 177.473 119.542 177.743 120.396C177.743 120.396 177.75 120.403 177.743 120.41C177.767 120.487 177.798 120.557 177.828 120.626C177.828 120.626 177.836 120.633 177.829 120.641C177.86 120.71 177.897 120.773 177.928 120.842C178.01 120.974 178.099 121.084 178.201 121.194C178.253 121.242 178.304 121.289 178.362 121.33L178.369 121.337C178.427 121.377 178.485 121.418 178.55 121.451C178.55 121.451 178.55 121.451 178.557 121.458C178.752 121.571 178.967 121.649 179.202 121.705C179.202 121.705 179.21 121.711 179.216 121.704C179.295 121.723 179.38 121.734 179.459 121.753C179.459 121.753 179.466 121.759 179.473 121.752C179.729 121.786 180.005 121.798 180.301 121.773L180.315 121.773C180.414 121.77 180.506 121.759 180.612 121.749L180.626 121.748C180.936 121.709 181.266 121.649 181.61 121.559C181.617 121.552 181.624 121.559 181.631 121.551C181.743 121.519 181.848 121.494 181.967 121.455C181.974 121.448 181.988 121.447 181.988 121.447C182.1 121.415 182.219 121.376 182.338 121.336L182.345 121.329C182.583 121.25 182.834 121.157 183.086 121.063C183.093 121.056 183.107 121.055 183.107 121.055C183.233 121.009 183.351 120.955 183.477 120.908C183.491 120.908 183.498 120.901 183.519 120.893C183.637 120.839 183.77 120.785 183.888 120.732C183.895 120.724 183.909 120.724 183.909 120.724C184.167 120.609 184.425 120.48 184.696 120.351C184.703 120.343 184.717 120.343 184.724 120.335C184.849 120.275 184.981 120.206 185.106 120.131C185.127 120.124 185.134 120.116 185.155 120.109C185.287 120.04 185.412 119.965 185.544 119.897C185.551 119.89 185.572 119.882 185.578 119.875C185.842 119.724 186.12 119.559 186.397 119.394C186.404 119.387 186.418 119.386 186.425 119.379C186.556 119.297 186.688 119.215 186.82 119.132C186.841 119.124 186.854 119.11 186.875 119.102C187.007 119.02 187.139 118.937 187.263 118.848C187.276 118.834 187.297 118.826 187.311 118.811C187.45 118.722 187.574 118.633 187.712 118.543C187.719 118.536 187.726 118.528 187.74 118.528C187.879 118.438 188.01 118.342 188.141 118.245C188.148 118.238 188.155 118.231 188.169 118.23C188.3 118.134 188.431 118.037 188.562 117.941C188.576 117.926 188.604 117.911 188.617 117.897C188.748 117.8 188.88 117.704 189.003 117.601C189.024 117.579 189.045 117.571 189.065 117.549C189.196 117.453 189.327 117.342 189.458 117.246C189.472 117.231 189.486 117.23 189.5 117.216C189.638 117.112 189.762 117.009 189.892 116.898C189.899 116.891 189.906 116.884 189.913 116.876C190.043 116.766 190.174 116.655 190.305 116.545C190.325 116.523 190.346 116.515 190.367 116.493C190.49 116.39 190.621 116.279 190.738 116.169C190.758 116.147 190.786 116.132 190.806 116.11C190.937 116 191.054 115.889 191.184 115.779C191.198 115.764 191.218 115.742 191.239 115.735C191.363 115.617 191.5 115.499 191.624 115.382L191.63 115.375C191.754 115.257 191.884 115.133 192.007 115.015C192.028 114.993 192.041 114.979 192.062 114.957C192.185 114.839 192.309 114.722 192.418 114.605C192.438 114.583 192.459 114.561 192.479 114.539C192.603 114.422 192.719 114.298 192.828 114.181C192.849 114.159 192.862 114.144 192.883 114.122C193.006 113.991 193.122 113.866 193.244 113.735C193.251 113.728 193.251 113.728 193.258 113.72C193.374 113.596 193.497 113.465 193.613 113.34C193.627 113.326 193.647 113.304 193.661 113.289C193.777 113.165 193.886 113.034 194.002 112.91C194.022 112.888 194.043 112.866 194.063 112.844C194.172 112.713 194.281 112.596 194.39 112.465C194.41 112.443 194.431 112.421 194.444 112.392C194.553 112.261 194.662 112.13 194.777 111.992C194.784 111.985 194.798 111.97 194.804 111.963C194.913 111.832 195.015 111.694 195.123 111.563C195.137 111.548 195.151 111.533 195.157 111.512C195.258 111.374 195.367 111.243 195.462 111.113C195.482 111.091 195.496 111.062 195.516 111.04C195.611 110.909 195.712 110.771 195.807 110.641C195.827 110.619 195.84 110.59 195.861 110.568C195.962 110.43 196.05 110.293 196.144 110.148C196.157 110.134 196.164 110.112 196.171 110.105C196.258 109.968 196.352 109.823 196.439 109.686C196.446 109.678 196.452 109.657 196.459 109.649C196.553 109.505 196.641 109.367 196.721 109.223C196.734 109.194 196.754 109.172 196.761 109.151C196.848 109.014 196.928 108.869 197.001 108.732C197.014 108.704 197.035 108.682 197.048 108.653C197.128 108.509 197.208 108.365 197.281 108.228C197.288 108.206 197.301 108.192 197.308 108.17C197.388 108.026 197.46 107.875 197.54 107.731C197.547 107.723 197.554 107.716 197.547 107.709C197.619 107.558 197.692 107.407 197.758 107.263C197.764 107.242 197.777 107.213 197.791 107.199C197.857 107.055 197.923 106.911 197.989 106.767C198.002 106.739 198.015 106.71 198.021 106.688C198.054 106.61 198.087 106.531 198.126 106.444C202.2 107.65 206.32 108.748 210.406 109.897L212.334 110.44C214.599 111.092 216.851 111.772 219.077 112.51C214.837 114.529 201.552 121.278 200.714 126.379C200.463 127.937 200.996 129.051 202.01 129.738C202.024 129.752 202.038 129.751 202.053 129.765C202.234 129.879 202.421 129.986 202.63 130.085C202.651 130.091 202.659 130.098 202.68 130.105C202.888 130.189 203.11 130.274 203.339 130.337C203.36 130.343 203.374 130.343 203.396 130.349C203.517 130.38 203.631 130.405 203.753 130.436C203.753 130.436 203.76 130.443 203.767 130.436C203.881 130.46 204.002 130.477 204.13 130.501C204.151 130.507 204.165 130.507 204.187 130.513C204.308 130.53 204.443 130.547 204.57 130.557C204.584 130.556 204.592 130.563 204.606 130.563C204.734 130.573 204.854 130.575 204.982 130.585C204.996 130.585 205.017 130.591 205.038 130.583C205.173 130.586 205.307 130.588 205.449 130.584C205.463 130.583 205.491 130.582 205.505 130.582C205.632 130.577 205.759 130.573 205.894 130.561C205.908 130.561 205.922 130.56 205.943 130.553C206.084 130.548 206.225 130.529 206.366 130.51C206.394 130.509 206.415 130.501 206.436 130.508C206.57 130.496 206.704 130.47 206.838 130.459C206.852 130.458 206.866 130.458 206.88 130.457C207.021 130.438 207.169 130.412 207.317 130.386C207.345 130.385 207.373 130.37 207.401 130.369C207.541 130.336 207.682 130.317 207.829 130.276C207.836 130.269 207.844 130.276 207.85 130.268C207.998 130.228 208.152 130.195 208.299 130.154C208.334 130.146 208.355 130.138 208.391 130.13C208.685 130.049 208.986 129.947 209.279 129.838C209.314 129.83 209.342 129.815 209.377 129.806C209.524 129.752 209.671 129.697 209.824 129.635C209.831 129.628 209.845 129.628 209.845 129.628C209.984 129.566 210.117 129.512 210.257 129.451C210.284 129.436 210.326 129.42 210.354 129.405C210.5 129.337 210.64 129.275 210.779 129.2C210.8 129.192 210.813 129.177 210.834 129.17C210.966 129.101 211.092 129.04 211.216 128.965C211.244 128.95 211.279 128.928 211.307 128.913C211.446 128.837 211.577 128.755 211.723 128.672C211.751 128.657 211.764 128.643 211.792 128.628C211.917 128.553 212.028 128.478 212.152 128.403C212.18 128.388 212.215 128.366 212.235 128.344C212.374 128.254 212.498 128.165 212.629 128.068C212.657 128.053 212.684 128.024 212.712 128.009C212.83 127.927 212.94 127.839 213.05 127.75C213.07 127.728 213.098 127.713 213.119 127.691C213.243 127.588 213.366 127.484 213.49 127.381C213.518 127.352 213.545 127.337 213.573 127.308C213.682 127.205 213.793 127.116 213.895 127.007C213.909 126.992 213.929 126.97 213.943 126.955C214.059 126.845 214.175 126.721 214.292 126.611C214.319 126.582 214.347 126.553 214.374 126.523C214.476 126.414 214.585 126.297 214.681 126.18C214.687 126.173 214.701 126.159 214.708 126.151C214.817 126.02 214.919 125.896 215.027 125.765C215.055 125.736 215.075 125.7 215.102 125.671C215.203 125.533 215.312 125.402 215.399 125.265C218.341 121.047 219.608 117.098 220.159 114.589C220.306 113.905 220.399 113.336 220.462 112.888C224.106 114.144 227.692 115.578 231.148 117.329L231.213 117.362C231.256 117.389 231.306 117.408 231.35 117.435L232.473 118.02C232.473 118.02 232.473 118.02 232.487 118.019C232.567 118.066 232.653 118.105 232.732 118.152L232.768 118.172C233.511 118.579 234.247 118.992 234.976 119.427C243.758 124.676 251.263 131.906 256.853 140.468C257.39 141.299 258.582 140.332 258.051 139.508C253.11 131.936 246.654 125.37 239.18 120.289C237.463 119.124 235.686 118.052 233.884 117.066L232.436 116.302C228.763 114.403 224.939 112.828 221.029 111.461C221.117 111.352 221.198 111.236 221.279 111.12C221.3 111.098 221.32 111.062 221.34 111.04C221.449 110.895 221.549 110.743 221.65 110.591C221.664 110.576 221.664 110.562 221.677 110.547C221.771 110.402 221.866 110.258 221.96 110.113C221.973 110.084 221.987 110.07 222.007 110.048C222.094 109.896 222.188 109.752 222.275 109.6C222.288 109.571 222.308 109.535 222.328 109.513C222.415 109.362 222.495 109.218 222.568 109.067C222.574 109.045 222.595 109.023 222.601 109.002C222.674 108.851 222.747 108.714 222.82 108.563C222.826 108.541 222.833 108.534 222.847 108.519C222.919 108.368 222.985 108.21 223.05 108.067C223.064 108.038 223.077 108.009 223.09 107.98C223.149 107.83 223.214 107.686 223.266 107.529C223.279 107.5 223.285 107.479 223.298 107.45C223.357 107.299 223.408 107.142 223.467 106.991L223.474 106.984C223.525 106.827 223.576 106.669 223.627 106.512C223.641 106.483 223.64 106.455 223.653 106.426C223.697 106.276 223.742 106.126 223.779 105.969C223.785 105.933 223.798 105.905 223.797 105.876C223.834 105.719 223.878 105.569 223.909 105.42C223.908 105.406 223.914 105.384 223.921 105.377C223.952 105.227 223.989 105.084 224.013 104.942C224.019 104.921 224.018 104.892 224.024 104.871C224.055 104.721 224.078 104.565 224.101 104.423C224.107 104.387 224.106 104.359 224.112 104.323C224.128 104.174 224.158 104.024 224.175 103.875C224.181 103.854 224.18 103.826 224.186 103.804C224.202 103.655 224.219 103.52 224.228 103.378C224.228 103.364 224.234 103.343 224.234 103.329C224.25 103.179 224.252 103.031 224.261 102.875C224.26 102.847 224.266 102.811 224.265 102.783C224.267 102.634 224.276 102.492 224.278 102.344C224.277 102.315 224.276 102.287 224.275 102.259C224.277 102.11 224.279 101.962 224.281 101.813L224.281 101.799C224.283 101.65 224.278 101.495 224.265 101.346C224.265 101.318 224.264 101.29 224.263 101.262C224.258 101.12 224.246 100.972 224.241 100.831C224.24 100.803 224.239 100.774 224.231 100.739C224.219 100.591 224.206 100.443 224.188 100.302C224.187 100.288 224.187 100.274 224.186 100.26C224.174 100.126 224.156 99.9847 224.137 99.8438C224.136 99.8156 224.128 99.7946 224.127 99.7663C224.108 99.6255 224.089 99.4846 224.063 99.3511C224.011 99.275 224.01 99.2467 224.002 99.2116Z" fill="#3D4775"/>
<path d="M230.318 56.2345C230.318 56.2345 288.99 113.171 340.566 123.956C358.066 127.617 371.932 126.561 382.614 123.557C404.888 117.3 412.278 89.8706 396.133 73.4073C388.39 65.5117 376.912 57.7202 359.907 52.214C309.794 35.9928 230.318 56.2345 230.318 56.2345Z" fill="#2F8C91"/>
<path d="M365.346 90.4239C361.829 89.4982 358.316 88.5685 354.798 87.6428C351.813 74.665 348.833 61.6832 345.843 48.7C345.422 48.6207 345.001 48.5414 344.579 48.4715C347.555 61.4143 350.531 74.3572 353.508 87.3001C350.187 86.4239 346.856 85.5462 343.535 84.67C340.48 72.2994 337.98 59.8036 336.048 47.223C335.646 47.1801 335.245 47.1279 334.842 47.085C336.751 59.5997 339.219 72.0187 342.235 84.3258C339.04 83.4834 335.845 82.641 332.65 81.7986C330.272 69.9636 327.898 58.1339 325.52 46.2989C325.115 46.2747 324.709 46.2505 324.299 46.2303C326.657 57.9713 329.015 69.7217 331.373 81.4628C328.024 80.5822 324.676 79.6922 321.326 78.8116C318.149 67.9598 315.418 56.9855 313.156 45.9155C312.752 45.9155 312.353 45.9115 311.953 45.9169C314.185 56.8672 316.87 67.7244 319.997 78.463C316.55 77.5529 313.103 76.6429 309.65 75.7368C306.931 65.9521 304.637 56.0606 302.783 46.0933C302.387 46.1041 301.99 46.1242 301.594 46.135C303.419 55.9734 305.665 65.733 308.331 75.3896C305.524 74.6502 302.714 73.9054 299.907 73.166C297.09 64.425 294.675 55.5687 292.673 46.6228C292.274 46.6523 291.881 46.6779 291.482 46.7074C293.443 55.5081 295.803 64.2122 298.555 72.809C295.131 71.9073 291.707 71.0057 288.283 70.104C285.157 62.8578 282.831 55.3182 281.331 47.5995C280.94 47.6398 280.549 47.6801 280.153 47.7244C281.612 55.2645 283.858 62.6288 286.851 69.7298C285.686 69.4209 284.516 69.116 283.352 68.8071C283.2 68.659 282.983 68.5824 282.744 68.6462C281.897 68.4246 281.056 68.199 280.209 67.9774C277.074 61.827 275.094 55.2029 274.346 48.381C273.954 48.4307 273.567 48.4765 273.175 48.5262C273.911 55.1403 275.771 61.5684 278.698 67.5768C276.13 66.8982 273.567 66.225 270.999 65.5464C268.845 60.328 267.091 54.9796 265.743 49.5215C265.349 49.5805 264.961 49.6356 264.568 49.6947C265.867 54.9633 267.546 60.1325 269.586 65.1752C267.2 64.5486 264.816 63.9126 262.43 63.286C261.559 59.6213 260.688 55.9659 259.818 52.3012C259.672 51.6991 259.534 51.0837 259.388 50.4816C258.998 50.546 258.614 50.6065 258.23 50.6671C258.446 51.5675 258.644 52.465 258.852 53.3546C259.609 56.5516 260.372 59.7447 261.129 62.9418C259.109 62.4098 257.097 61.8792 255.076 61.3473C253.733 58.2228 252.52 55.0464 251.455 51.8212C251.06 51.8896 250.669 51.9634 250.284 52.0333C251.278 55.0513 252.395 58.0308 253.636 60.9623C251.279 60.3401 248.926 59.7233 246.574 59.0971C245.806 57.1297 245.131 55.1381 244.557 53.1143C244.161 53.1921 243.774 53.2713 243.392 53.3466C243.91 55.1606 244.503 56.9623 245.174 58.7328C243.752 58.3602 242.335 57.9836 240.913 57.611C240.454 56.4528 239.99 55.2986 239.535 54.1458C239.133 54.2275 238.75 54.3121 238.372 54.3928C238.751 55.3423 239.13 56.2918 239.505 57.2359C237.381 56.6784 235.263 56.1169 233.135 55.554C231.307 55.9811 230.318 56.2358 230.318 56.2358C230.318 56.2358 231.029 56.9299 232.366 58.1708C234.732 58.7945 237.099 59.4181 239.466 60.0418C238.329 60.5036 237.237 61.049 236.184 61.6578C236.484 61.9244 236.787 62.1964 237.099 62.4792C238.468 61.7178 239.911 61.0686 241.432 60.5557C243.083 60.9876 244.734 61.429 246.385 61.8609C244.168 62.7597 242.059 63.8381 240.059 65.0961C240.358 65.3626 240.663 65.6252 240.976 65.8987C243.097 64.5874 245.357 63.4748 247.724 62.5848C247.884 62.5279 247.983 62.4234 248.045 62.3037C251.085 63.1078 254.121 63.9066 257.161 64.7107C253.489 66.5157 249.89 68.4517 246.36 70.5038C246.675 70.7678 246.993 71.0373 247.317 71.3029C251.092 69.1161 254.952 67.0671 258.888 65.1638C261.62 65.8821 264.356 66.6058 267.088 67.3241C262.083 69.8816 257.14 72.5686 252.273 75.3678C252.597 75.6333 252.923 75.8895 253.257 76.1565C258.357 73.2305 263.536 70.4315 268.791 67.7688C272.141 68.6494 275.494 69.5355 278.844 70.4161C272.099 73.5867 265.484 77.0122 259.008 80.6794C259.343 80.9371 259.678 81.1947 260.017 81.4578C266.737 77.6653 273.611 74.136 280.618 70.8764C282.826 71.4565 285.038 72.042 287.246 72.622C280.482 77.3034 273.718 81.9849 266.953 86.6663C267.286 86.9092 267.618 87.1521 267.955 87.4004C274.882 82.61 281.805 77.8141 288.738 73.0197C293.022 74.1499 297.307 75.2801 301.592 76.4103C292.036 80.9486 282.742 85.9969 273.752 91.5328C274.104 91.7786 274.451 92.019 274.803 92.2648C284.019 86.6154 293.546 81.4738 303.351 76.8731C307.276 77.9047 311.195 78.9403 315.124 79.9774C305.327 86.4858 295.525 92.9981 285.728 99.5065C286.092 99.7351 286.45 99.9676 286.81 100.191C296.753 93.5852 306.697 86.9796 316.636 80.3686C318.133 80.7623 319.63 81.1561 321.122 81.5537C322.942 82.0308 324.76 82.5172 326.58 82.9943C316.002 90.3403 305.418 97.6902 294.839 105.036C295.21 105.251 295.585 105.472 295.961 105.683C306.66 98.2506 317.369 90.8193 328.068 83.3866C330.874 84.126 333.681 84.8654 336.488 85.6048C326.406 94.1483 316.324 102.692 306.246 111.241C306.625 111.433 307.004 111.626 307.389 111.815C317.494 103.246 327.603 94.6827 337.709 86.114C337.765 86.0652 337.802 86.0135 337.839 85.9617C341.853 87.0213 345.862 88.0755 349.875 89.1351C338.702 98.09 327.525 107.04 316.353 115.995C316.759 116.167 317.17 116.346 317.576 116.519C328.815 107.516 340.053 98.514 351.288 89.5063C354.295 90.3006 357.299 91.0895 360.306 91.8839C350.478 101.717 340.648 111.559 330.82 121.392C331.247 121.525 331.67 121.652 332.099 121.776C341.94 111.926 351.79 102.077 361.631 92.2271C364.83 93.0748 368.03 93.9133 371.229 94.7611C362.848 105.215 353.878 115.194 344.364 124.659C344.848 124.743 345.322 124.826 345.797 124.899C355.244 115.458 364.151 105.507 372.47 95.0817C377.662 96.4477 382.853 97.8231 388.046 99.1892C380.566 108.57 372.636 117.584 364.297 126.219C364.874 126.203 365.437 126.179 366.006 126.152C374.134 117.686 381.861 108.851 389.158 99.6769C389.201 99.6212 389.234 99.564 389.254 99.5C391.439 100.072 393.623 100.653 395.808 101.224C390.172 108.969 384.532 116.707 378.902 124.447C379.496 124.319 380.083 124.179 380.659 124.038C386.116 116.54 391.573 109.041 397.033 101.548C399.194 102.12 401.36 102.689 403.517 103.256C403.782 102.392 404.006 101.507 404.196 100.621C403.598 100.462 402.999 100.302 402.401 100.143C400.929 91.8967 399.457 83.6505 397.989 75.4097C397.518 74.8341 397.015 74.2728 396.493 73.7179C398.041 82.4166 399.594 91.1113 401.147 99.8154C399.215 99.302 397.283 98.798 395.352 98.2846C393.429 88.0095 391.496 77.733 389.573 67.458C389.118 67.0956 388.648 66.7357 388.172 66.3797C390.144 76.9019 392.121 87.4295 394.088 97.9556C391.09 97.1627 388.096 96.3753 385.098 95.5824C383.127 83.8868 381.15 72.195 379.178 60.4993C378.744 60.2551 378.309 60.0108 377.86 59.7691C379.855 71.5977 381.855 83.4223 383.845 95.2455C381.23 94.5596 378.616 93.8643 376.001 93.1783C375.926 93.1573 375.856 93.1416 375.781 93.1205C373.048 80.7757 370.972 68.307 369.551 55.7573C369.141 55.579 368.725 55.4046 368.303 55.2342C369.71 67.844 371.781 80.3743 374.5 92.7792C374.163 92.689 373.827 92.5988 373.494 92.5139C373.426 92.4795 373.352 92.4585 373.284 92.4576C371.095 91.8804 368.905 91.3033 366.712 90.7208C362.806 77.716 359.539 64.5415 356.906 51.2348C356.482 51.1166 356.058 50.9891 355.628 50.8748C358.213 64.2411 361.47 77.4141 365.346 90.4239Z" fill="#286F7F"/>
<path d="M308.722 59.2744C307.382 67.9825 312.541 79.2332 314.566 83.2218C309.788 79.9317 304.935 76.9617 300.007 74.3269C298.683 45.1847 283.506 18.4232 283.506 18.4232C283.506 18.4232 285.75 24.8937 287.994 43.1496C289.977 59.2638 296.444 70.0635 298.999 73.7935C294.355 71.3597 289.662 69.2238 284.922 67.3918C283.204 66.7279 281.478 66.1066 279.751 65.5247C275.325 57.7761 278.351 44.2212 275.881 31.525C274.024 21.9697 259.654 13.2581 259.654 13.2581C259.654 13.2581 271.694 22.329 270.212 37.2162C269.027 49.1065 276.55 61.1178 279.627 65.484C274.128 63.6412 268.579 62.2052 263.001 61.1874C262.523 58.5218 260.836 49.625 258.259 40.9127C255.218 30.6494 244.171 8.82501 244.171 8.82501C244.171 8.82501 244.48 18.405 247.668 31.5458C250.247 42.1618 260.03 57.3128 262.549 61.1016C257.911 60.2751 253.253 59.7305 248.578 59.4735C247.797 56.8496 245.114 47.978 241.86 38.8771C237.98 28.0347 220.535 3.51889 220.535 3.51889C220.535 3.51889 223.4 11.5707 229.358 28.8504C234.484 43.7045 245.163 56.2291 248.062 59.4536C243.847 59.2399 239.622 59.2562 235.391 59.5084C232.361 57.981 223.262 54.7834 204.577 58.2789C182.601 62.3873 175.877 65.4104 175.877 65.4104C175.877 65.4104 216.103 71.8506 235.184 61.0694C239.02 60.832 242.777 60.8 246.458 60.934C242.881 63.7092 230.196 73.9847 220.109 87.7499C208.251 103.939 205.306 109.21 205.306 109.21C205.306 109.21 230.528 87.2143 237.638 76.6008C243.246 68.2254 246.098 62.8574 247.057 60.9629C252.083 61.1825 256.964 61.737 261.678 62.5605C258.216 65.3194 245.32 76.2525 240.998 88.9585C235.987 103.691 225.652 111.165 225.652 111.165C225.652 111.165 237.253 106.514 246.945 88.373C254.987 73.3246 260.415 65.0164 262.038 62.6196C268.223 63.7235 274.127 65.2912 279.724 67.2119C276.492 69.3184 266.802 76.3238 261.01 87.8277C253.979 101.79 240.991 115.506 240.991 115.506C240.991 115.506 261.273 102.381 271.563 86.29C278.984 74.6856 280.507 69.5487 280.779 67.5803C287.136 69.814 293.096 72.4887 298.626 75.391C295.626 76.821 285.954 82.082 276.769 94.2087C265.717 108.796 257.195 120.103 257.195 120.103C257.195 120.103 292.924 92.8931 299.308 75.7462C304.787 78.6686 309.832 81.8127 314.412 85.0014C311.66 85.9477 303.451 89.4646 297.163 99.2344C289.5 111.141 284.341 114.664 276.902 118.458C276.902 118.458 293.526 113.223 299.676 105.039C306.868 95.465 309.861 87.9219 314.58 85.119C317.639 87.2497 320.482 89.3975 323.109 91.4929C344.197 108.366 356.165 126.218 356.29 126.398C356.53 126.754 357.008 126.857 357.369 126.629C357.413 126.597 357.457 126.566 357.498 126.528C357.745 126.277 357.792 125.879 357.591 125.563C357.472 125.38 345.392 107.357 324.122 90.3278C321.231 88.0126 318.304 85.8256 315.342 83.7578C315.304 80.1238 315.198 66.8555 315.706 58.1303C316.297 47.9424 300.673 28.5258 300.673 28.5258C300.673 28.5258 310.383 48.5025 308.722 59.2744Z" fill="#E5674E"/>
<path d="M107.68 3.86174C107.68 3.86174 16.2752 19.4696 -19.1057 60.1974C-31.1121 74.0222 -36.0909 87.6948 -37.4181 99.7305C-40.1955 124.833 -12.08 150.601 13.9785 146.854C26.4802 145.057 40.5294 139.706 54.4327 127.614C95.3808 91.9984 107.68 3.86174 107.68 3.86174Z" fill="#BAE3DD"/>
<path d="M8.23868 106.415C10.8748 103.77 13.4983 101.125 16.1344 98.4795C32.3295 104.622 48.5322 110.771 64.7272 116.913C65.0072 116.577 65.2796 116.235 65.552 115.892C49.3973 109.764 33.2426 103.635 17.0955 97.5134C19.5803 95.0118 22.0776 92.5108 24.5624 90.0091C40.0958 95.6731 55.521 101.929 70.7902 108.786C71.0247 108.441 71.2592 108.097 71.4887 107.759C56.3079 100.936 40.9711 94.6848 25.5336 89.0315C27.92 86.6275 30.319 84.2242 32.7053 81.8203C47.3175 87.7409 61.9373 93.6679 76.5495 99.5885C76.7613 99.225 76.968 98.8673 77.1722 98.4974C62.6686 92.6182 48.165 86.7391 33.6614 80.86C36.1739 78.3416 38.6738 75.8226 41.1863 73.3042C55.0352 77.807 68.8188 82.807 82.5118 88.303C82.6908 87.9319 82.8748 87.555 83.0538 87.1839C69.5148 81.7376 55.8827 76.7751 42.1903 72.304C44.7684 69.7105 47.3515 67.1111 49.9372 64.5239C62.3596 68.7161 74.7117 73.3811 86.9606 78.5114C87.1194 78.1333 87.2832 77.7494 87.442 77.3713C75.3623 72.3035 63.1768 67.6888 50.9311 63.5353C53.0349 61.4251 55.1312 59.3085 57.2351 57.1983C68.5084 60.5809 79.7214 64.4248 90.8641 68.7114C91.0078 68.3204 91.1514 67.9295 91.3026 67.545C80.3543 63.3221 69.3205 59.5292 58.2491 56.1866C60.8121 53.6103 63.375 51.0341 65.938 48.4579C75.6328 50.5277 85.3054 53.5429 94.8197 57.4488C94.9507 57.0572 95.0741 56.6593 95.2051 56.2678C85.913 52.439 76.4827 49.4778 67.0076 47.3826C67.8804 46.5026 68.7482 45.6285 69.6286 44.7549C69.8633 44.7121 70.0576 44.5648 70.0826 44.2947C70.7133 43.6622 71.349 43.0239 71.9796 42.3915C80.4294 43.7012 88.8952 46.4105 97.0413 50.4065C97.1648 50.0086 97.2756 49.61 97.399 49.2121C89.4928 45.3484 81.2995 42.6584 73.1123 41.2589C75.0345 39.3267 76.9517 37.4003 78.8739 35.4682C85.8117 37.048 92.7222 39.0967 99.5748 41.5888C99.6831 41.1781 99.7939 40.7795 99.9097 40.3752C93.2919 37.9609 86.6314 35.9725 79.9334 34.4044C81.7219 32.6104 83.5104 30.8164 85.2863 29.0219C89.864 30.7279 94.4544 32.4346 99.0321 34.1406C99.7896 34.4187 100.55 34.7089 101.307 34.9869C101.41 34.582 101.514 34.177 101.612 33.7779C100.488 33.3614 99.367 32.927 98.256 32.5112C94.254 31.02 90.2595 29.5353 86.2575 28.0442C87.766 26.526 89.2745 25.0078 90.783 23.4896C94.9664 24.3806 99.1424 25.4461 103.306 26.6617C103.406 26.2445 103.495 25.8268 103.585 25.4212C99.6792 24.2724 95.7785 23.2686 91.8577 22.4084C93.626 20.6376 95.3817 18.8661 97.1501 17.0953C99.743 17.728 102.328 18.4749 104.904 19.3238C104.992 18.906 105.08 18.4883 105.158 18.0821C102.843 17.3122 100.522 16.6385 98.1995 16.0431C99.264 14.9735 100.329 13.9039 101.393 12.8344C102.918 13.198 104.451 13.5681 105.98 13.9259C106.066 13.496 106.141 13.0776 106.219 12.6715C104.965 12.3752 103.707 12.0668 102.453 11.7706C104.044 10.172 105.631 8.57924 107.223 6.98067C107.534 4.96406 107.68 3.86181 107.68 3.86181C107.68 3.86181 106.57 4.04889 104.553 4.44508C102.779 6.2217 101.014 8.00473 99.2352 9.78713C99.2166 8.40558 99.0769 7.01209 98.8487 5.6143C98.4121 5.70759 97.9628 5.80027 97.4984 5.91029C97.7672 7.71401 97.8593 9.50912 97.7646 11.277C96.5235 12.5189 95.295 13.7613 94.0538 15.0032C94.0142 12.3183 93.717 9.59681 93.1699 6.87519C92.7358 6.98066 92.2941 7.07973 91.8398 7.17819C92.3945 10.0569 92.6615 12.9337 92.618 15.7592C92.6131 15.9459 92.6864 16.1183 92.79 16.256C90.5172 18.5449 88.2367 20.8274 85.9639 23.1162C85.5366 18.447 84.9301 13.7571 84.1495 9.04051C83.7103 9.15177 83.2585 9.2624 82.8093 9.38523C83.6306 14.4173 84.2524 19.4215 84.6723 24.4159C82.6265 26.4747 80.5807 28.5335 78.5323 30.5801C77.8312 24.1431 76.9636 17.6859 75.9368 11.215C75.4876 11.3378 75.051 11.4613 74.5967 11.5899C75.6741 18.3647 76.5672 25.1246 77.2685 31.863C74.756 34.3814 72.2511 36.9062 69.7436 39.4188C69.1244 30.9419 68.1493 22.4056 66.841 13.8288C66.3943 13.9638 65.9476 14.0989 65.5008 14.2339C66.8422 23.1197 67.8175 31.9575 68.4142 40.7468C66.7543 42.4083 65.1071 44.0705 63.4522 45.7263C61.1133 36.189 58.7693 26.6575 56.4304 17.1202C56.0039 17.2622 55.5774 17.4043 55.1458 17.5521C57.5455 27.3214 59.9376 37.0844 62.3423 46.8479C59.1386 50.0682 55.9299 53.2942 52.7262 56.5145C51.8042 44.4778 50.1653 32.3279 47.8397 20.1204C47.4031 20.274 46.969 20.4397 46.5274 20.5991C48.8809 33.0913 50.515 45.5184 51.4094 57.8431C48.468 60.7928 45.5343 63.7489 42.598 66.6928C39.5217 53.068 36.4454 39.4433 33.3616 25.8122C32.9376 25.9966 32.5187 26.1751 32.0948 26.3595C35.2191 40.1855 38.3511 54.0179 41.4754 67.8439C40.3529 68.9649 39.2379 70.0923 38.1153 71.2133C36.7506 72.5818 35.3859 73.9502 34.0338 75.3193C30.3407 60.3804 26.6501 45.4536 22.957 30.5147C22.5432 30.7176 22.1344 30.9148 21.7205 31.1177C25.4541 46.2214 29.1877 61.3251 32.9238 76.4409C30.82 78.5511 28.7237 80.6678 26.6199 82.778C21.3362 67.4903 16.0501 52.1904 10.7664 36.9027C10.3753 37.1249 9.98419 37.347 9.60065 37.5755C14.8995 52.9061 20.1983 68.2367 25.4971 83.5674C25.5274 83.6533 25.5679 83.7276 25.6184 83.7903C22.6165 86.8094 19.6146 89.8285 16.6052 92.8412C11.3434 76.2462 6.07651 59.6571 0.814713 43.0622C0.431194 43.3208 0.0476804 43.5795 -0.328266 43.8446C4.96388 60.5254 10.2586 77.2184 15.5507 93.8992C13.3031 96.1591 11.0555 98.4191 8.80278 100.685C1.92586 84.7348 -4.94853 68.7969 -11.8255 52.8468C-12.1686 53.1496 -12.5091 53.4646 -12.8446 53.7739C-5.95762 69.7425 0.92941 85.7112 7.80886 101.673C5.41745 104.083 3.01846 106.487 0.627047 108.896C-7.6048 93.881 -15.029 78.6338 -21.6228 63.2341C-21.9356 63.6228 -22.2408 64.0179 -22.5409 64.4072C-15.9446 79.7287 -8.52044 94.8855 -0.303796 109.828C-4.18859 113.738 -8.07591 117.637 -11.9607 121.547C-19.3585 108.11 -26.148 94.5034 -32.3191 80.7763C-32.5611 81.3252 -32.7853 81.8689 -33.0096 82.4127C-26.9422 95.8213 -20.2741 109.114 -13.028 122.243C-12.98 122.324 -12.9295 122.386 -12.8714 122.455C-14.5035 124.1 -16.1432 125.739 -17.7753 127.384C-24.1311 116.795 -30.4743 106.206 -36.8301 95.6172C-36.9458 96.2627 -37.0514 96.8966 -37.1418 97.5433C-30.9932 107.797 -24.8446 118.05 -18.6885 128.31C-20.3054 129.937 -21.9224 131.565 -23.547 133.186C-22.6705 134.036 -21.7637 134.852 -20.8266 135.633C-20.3776 135.179 -19.9336 134.73 -19.477 134.282C-9.37437 138.585 0.720742 142.881 10.8234 147.183C11.6943 147.135 12.5651 147.057 13.4233 146.948C2.77269 142.414 -7.8855 137.873 -18.5361 133.339C-17.0881 131.891 -15.6427 130.43 -14.1947 128.981C-1.56709 134.25 11.0606 139.519 23.6907 144.801C24.3091 144.62 24.9324 144.433 25.5533 144.234C12.6176 138.836 -0.318108 133.437 -13.2488 128.032C-11.0062 125.778 -8.76358 123.524 -6.521 121.269C7.75061 127.475 22.0273 133.675 36.2989 139.88C36.7682 139.644 37.2426 139.402 37.7221 139.154C23.2863 132.88 8.85062 126.606 -5.58511 120.332C-3.63263 118.365 -1.66752 116.399 0.284956 114.432C0.335408 114.375 0.393439 114.323 0.451459 114.272C15.8058 120.216 31.0168 126.853 46.0237 134.162C46.4122 133.897 46.7932 133.627 47.1818 133.362C32.1142 126.002 16.8351 119.308 1.4151 113.318C1.66231 113.064 1.92215 112.812 2.16935 112.559C2.24254 112.52 2.29299 112.462 2.32323 112.397C3.96039 110.747 5.60512 109.102 7.24228 107.452C23.8811 112.754 40.4295 118.763 56.842 125.47C57.17 125.155 57.4979 124.839 57.8259 124.523C41.4158 117.768 24.8699 111.741 8.23868 106.415Z" fill="#97C9CE"/>
<path d="M34.3551 97.2576C37.9617 105.689 35.6182 118.234 34.5936 122.726C38.5877 118.267 42.7533 114.12 47.0697 110.293C40.9139 80.6787 49.4074 50.1341 49.4074 50.1341C49.4074 50.1341 48.7962 57.174 51.2195 76.0623C53.3593 92.7309 49.5819 105.145 47.9473 109.503C52.0278 105.941 56.2419 102.668 60.5796 99.6829C62.1476 98.6001 63.7408 97.569 65.3412 96.5683C67.8392 87.7235 61.2691 74.8123 60.504 61.4707C59.932 51.4177 72.2556 39.2173 72.2556 39.2173C72.2556 39.2173 62.3804 51.2253 67.7165 65.8327C71.9835 77.4967 67.4451 91.3836 65.4472 96.5087C70.5457 93.3358 75.8074 90.5632 81.2125 88.189C81.0131 85.3939 80.4246 76.0509 80.804 66.6675C81.2494 55.62 86.8328 31.0366 86.8328 31.0366C86.8328 31.0366 88.9943 40.7401 89.1374 54.7169C89.262 66.004 83.2313 83.5896 81.6518 88.0017C86.1427 86.0582 90.7282 84.3902 95.4075 83.0074C95.5223 80.1816 95.9581 70.6255 96.9214 60.6924C98.0842 48.8503 109.469 20.0215 109.469 20.0215C109.469 20.0215 108.635 28.8002 107.039 47.5996C105.671 63.7613 98.062 78.9105 95.9446 82.8487C100.167 81.6221 104.458 80.6289 108.819 79.8595C111.502 77.5935 119.903 72.1911 139.768 71.2214C163.125 70.0751 170.725 71.4879 170.725 71.4879C170.725 71.4879 131.568 87.6312 109.439 81.3785C105.489 82.0568 101.662 82.9242 97.97 83.9521C102.318 85.8794 117.833 93.161 131.604 104.573C147.807 117.995 152.146 122.58 152.146 122.58C152.146 122.58 120.895 106.534 110.941 97.574C103.099 90.5062 98.8109 85.7975 97.3523 84.1133C92.3072 85.5419 87.5052 87.2692 82.9319 89.2349C87.1479 91.1798 103.058 99.0606 110.713 110.796C119.588 124.401 132.001 129.424 132.001 129.424C132.001 129.424 119.032 127.542 104.528 111.636C92.4909 98.4452 84.847 91.4053 82.5867 89.3813C76.5983 91.9792 71.0148 94.9696 65.8266 98.243C69.6469 99.5887 81.2762 104.293 90.1221 114.466C100.853 126.807 117.556 137.478 117.556 137.478C117.556 137.478 93.5922 129.161 79.0118 115.462C68.4914 105.581 65.628 100.784 64.8433 98.875C58.9653 102.649 53.6073 106.767 48.7489 111.019C52.1664 111.735 63.3267 114.697 75.7753 124.684C90.7458 136.689 102.304 146.003 102.304 146.003C102.304 146.003 59.0448 127.244 48.1578 111.538C43.3501 115.785 39.042 120.166 35.2128 124.473C38.2481 124.769 47.4921 126.321 56.3825 134.631C67.2211 144.758 73.3622 147.056 81.8885 149.086C81.8885 149.086 63.6692 147.824 55.325 141.077C45.5621 133.182 40.5824 126.325 35.0768 124.638C32.5274 127.509 30.1917 130.35 28.0652 133.102C11.0022 155.129 3.46267 175.947 3.38359 176.148C3.23355 176.569 2.77149 176.784 2.34348 176.636C2.28466 176.621 2.23763 176.587 2.18969 176.563C1.87674 176.366 1.72252 175.977 1.84712 175.613C1.91716 175.402 9.53576 154.383 26.7277 132.16C29.06 129.141 31.4719 126.237 33.9433 123.448C33.0518 119.789 29.7381 106.423 26.9757 97.7722C23.7565 87.676 34.5998 64.4012 34.5998 64.4012C34.5998 64.4012 29.9025 86.8219 34.3551 97.2576Z" fill="#FCF4DF"/>
<path d="M268.803 19.4573C268.803 19.4573 299.6 94.7659 342.545 125.004C357.116 135.266 370.262 139.772 381.274 141.237C404.232 144.301 422.1 122.096 413.947 100.644C410.038 90.3564 402.66 78.6894 389.289 66.9332C349.883 32.2935 268.803 19.4573 268.803 19.4573Z" fill="#1A4143"/>
<path d="M378.833 104.076C375.981 101.84 373.135 99.6017 370.283 97.3651C372.791 84.3004 375.306 71.2342 377.813 58.163C377.459 57.9242 377.105 57.6853 376.746 57.4545C374.243 70.4836 371.74 83.5126 369.238 96.5417C366.546 94.4281 363.846 92.3094 361.154 90.1959C363.353 77.6599 366.112 65.2283 369.426 52.9433C369.074 52.7452 368.728 52.5391 368.376 52.341C365.067 64.5562 362.31 76.9049 360.1 89.3673C357.511 87.3346 354.921 85.3018 352.331 83.2691C354.934 71.4907 357.539 59.7189 360.143 47.9406C359.781 47.7585 359.419 47.5764 359.05 47.3958C356.467 59.0802 353.879 70.7728 351.295 82.4573C348.579 80.3284 345.868 78.1915 343.152 76.0627C344.624 64.8694 346.557 53.7404 348.957 42.7084C348.586 42.5488 348.222 42.3878 347.853 42.2349C345.474 53.1454 343.547 64.1492 342.074 75.2188C339.28 73.0245 336.486 70.8301 333.685 68.6371C335.147 58.6021 337.042 48.6372 339.371 38.7765C339.004 38.63 338.631 38.4916 338.264 38.3451C335.96 48.0763 334.074 57.9016 332.616 67.7984C330.34 66.0132 328.063 64.2214 325.788 62.4362C326.738 53.3183 328.103 44.2538 329.884 35.2702C329.506 35.1398 329.135 35.0079 328.757 34.8775C326.998 43.7119 325.644 52.6156 324.692 61.5756C321.916 59.398 319.14 57.2203 316.364 55.0427C316.426 47.1721 317.341 39.3485 319.085 31.6869C318.711 31.5696 318.336 31.4522 317.955 31.3363C316.245 38.8182 315.328 46.4498 315.201 54.1348C314.258 53.3922 313.308 52.651 312.365 51.9084C312.285 51.7126 312.117 51.5568 311.873 51.5211C311.185 50.9837 310.505 50.445 309.818 49.9077C309.429 43.0372 310.291 36.1885 312.363 29.6453C311.983 29.536 311.61 29.4252 311.23 29.3158C309.231 35.6641 308.338 42.2857 308.594 48.9444C306.513 47.3092 304.434 45.6805 302.353 44.0453C302.487 38.4156 303.041 32.8246 304.011 27.2936C303.626 27.1923 303.248 27.0895 302.863 26.9881C301.924 32.3264 301.375 37.7238 301.207 43.1476C299.272 41.6318 297.342 40.1079 295.407 38.5921C296.09 34.8921 296.769 31.2002 297.452 27.5002C297.562 26.8913 297.684 26.273 297.794 25.6641C297.41 25.5693 297.033 25.473 296.657 25.3768C296.491 26.2869 296.309 27.1868 296.14 28.0837C295.543 31.3108 294.951 34.5365 294.353 37.7635C292.715 36.4785 291.085 35.1986 289.446 33.9135C289.477 30.5217 289.649 27.1336 289.976 23.7594C289.586 23.6661 289.198 23.5793 288.816 23.491C288.507 26.6477 288.328 29.8175 288.281 32.9925C286.37 31.492 284.461 29.998 282.557 28.496C282.649 26.3913 282.834 24.3004 283.126 22.2205C282.731 22.1351 282.344 22.0549 281.963 21.9732C281.705 23.8392 281.521 25.7235 281.421 27.6099C280.267 26.7072 279.119 25.8029 277.965 24.9001C278.013 23.6582 278.053 22.4177 278.102 21.1824C277.701 21.0985 277.315 21.0248 276.936 20.9497C276.9 21.9689 276.864 22.9882 276.826 24.0009C275.103 22.6518 273.387 21.3013 271.663 19.9456C269.813 19.615 268.803 19.458 268.803 19.458C268.803 19.458 269.175 20.3742 269.899 22.0385C271.818 23.5442 273.737 25.0498 275.656 26.5554C274.426 26.5293 273.204 26.5977 271.992 26.7397C272.159 27.1021 272.327 27.471 272.499 27.8531C274.062 27.6961 275.649 27.6715 277.251 27.8019C278.591 28.8496 279.926 29.9053 281.267 30.953C278.869 30.9007 276.499 31.0558 274.156 31.4183C274.323 31.7807 274.496 32.1417 274.673 32.5157C277.148 32.1519 279.671 32.0252 282.202 32.1445C282.372 32.1555 282.505 32.0988 282.61 32.0138C285.073 33.9504 287.535 35.8805 289.999 37.8172C285.901 38.0208 281.817 38.3728 277.749 38.8588C277.931 39.2248 278.114 39.5974 278.304 39.9686C282.651 39.4559 287.02 39.1033 291.399 38.9136C293.614 40.6501 295.831 42.393 298.047 44.1295C292.422 44.496 286.803 45.0058 281.207 45.648C281.397 46.0192 281.592 46.3823 281.79 46.7586C287.651 46.0925 293.533 45.5734 299.429 45.2092C302.146 47.3381 304.864 49.4735 307.58 51.6023C300.111 51.8434 292.659 52.3697 285.237 53.1717C285.44 53.5399 285.643 53.9082 285.848 54.283C293.544 53.4622 301.276 52.9434 309.021 52.7243C310.812 54.1273 312.604 55.5368 314.395 56.9398C306.298 58.557 298.201 60.1743 290.104 61.7915C290.31 62.1452 290.517 62.4989 290.725 62.8592C299.016 61.2064 307.305 59.5471 315.602 57.8928C319.075 60.6194 322.548 63.346 326.021 66.0726C315.422 66.4567 304.856 67.4113 294.372 68.9326C294.595 69.2965 294.817 69.6538 295.04 70.0177C305.777 68.482 316.595 67.5342 327.448 67.1909C330.631 69.6853 333.807 72.1811 336.992 74.682C325.374 76.7753 313.75 78.87 302.133 80.9633C302.374 81.3163 302.609 81.6707 302.849 82.0172C314.64 79.8927 326.431 77.7683 338.22 75.6372C339.434 76.5888 340.648 77.5404 341.855 78.4934C343.332 79.6489 344.803 80.8123 346.28 81.9678C333.607 84.5195 320.927 87.0728 308.254 89.6246C308.507 89.9681 308.762 90.3182 309.022 90.6603C321.84 88.0766 334.667 85.498 347.486 82.9142C349.761 84.6995 352.036 86.4847 354.312 88.2699C341.61 92.1145 328.909 95.9591 316.209 99.8103C316.478 100.136 316.748 100.463 317.025 100.787C329.758 96.9287 342.493 93.0768 355.226 89.2184C355.297 89.1959 355.352 89.1632 355.407 89.1305C358.66 91.6852 361.911 94.2335 365.164 96.7882C351.295 100.579 337.425 104.363 323.557 108.154C323.86 108.473 324.165 108.799 324.468 109.117C338.415 105.309 352.363 101.501 366.31 97.6859C368.747 99.6008 371.183 101.509 373.62 103.424C360.63 108.55 347.635 113.683 334.644 118.809C334.983 119.099 335.319 119.383 335.663 119.666C348.671 114.529 361.688 109.398 374.697 104.261C377.288 106.3 379.884 108.332 382.476 110.371C370.562 116.637 358.3 122.236 345.747 127.148C346.157 127.416 346.558 127.679 346.965 127.934C359.446 123.016 371.639 117.419 383.484 111.154C387.694 114.455 391.9 117.765 396.11 121.066C385.457 126.704 374.539 131.829 363.399 136.446C363.935 136.659 364.461 136.86 364.994 137.06C375.872 132.514 386.531 127.473 396.934 121.951C396.995 121.917 397.049 121.878 397.093 121.827C398.866 123.213 400.634 124.608 402.407 125.994C394.107 130.862 385.805 135.723 377.512 140.589C378.109 140.706 378.703 140.81 379.289 140.908C387.326 136.195 395.362 131.481 403.4 126.774C405.151 128.151 406.908 129.527 408.656 130.898C409.249 130.211 409.812 129.489 410.345 128.753C409.861 128.371 409.376 127.988 408.891 127.606C410.875 119.472 412.859 111.339 414.844 103.212C414.645 102.499 414.411 101.786 414.156 101.072C412.059 109.65 409.969 118.226 407.874 126.811C406.31 125.578 404.741 124.354 403.177 123.121C405.567 112.951 407.949 102.776 410.34 92.6065C410.069 92.0949 409.783 91.5797 409.491 91.0659C407.046 101.482 404.602 111.904 402.151 122.321C399.722 120.411 397.294 118.508 394.865 116.598C397.785 105.108 400.699 93.6198 403.619 82.1297C403.319 81.7345 403.019 81.3393 402.705 80.9404C399.752 92.5614 396.806 104.181 393.852 115.795C391.73 114.135 389.614 112.466 387.492 110.805C387.432 110.756 387.374 110.714 387.314 110.665C389.798 98.2803 392.935 86.0409 396.706 73.986C396.401 73.6607 396.09 73.3367 395.772 73.0143C391.965 85.1186 388.799 97.4125 386.277 109.847C386.005 109.632 385.733 109.416 385.462 109.207C385.414 109.149 385.354 109.1 385.292 109.072C383.517 107.68 381.742 106.287 379.966 104.888C381.641 91.4346 383.971 78.0788 386.936 64.8521C386.594 64.5761 386.257 64.2922 385.909 64.0177C382.876 77.28 380.538 90.6308 378.833 104.076Z" fill="#2F8C91"/>
</g>
<defs>
<clipPath id="clip0">
<rect x="375" y="73" width="375" height="73" transform="rotate(-180 375 73)" fill="white"/>
</clipPath>
</defs>
</svg>
