<svg width="375" height="113" viewBox="0 0 375 113" fill="none" xmlns="http://www.w3.org/2000/svg">
<g clip-path="url(#clip0)">
<path d="M145.268 85.1266C145.268 85.1266 265.472 94.3941 333.824 58.2323C357.018 45.9652 371.635 31.7784 380.814 18.3785C399.962 -9.55331 382.222 -47.4316 348.388 -50.8791C332.162 -52.5332 311.827 -50.5695 287.437 -40.8471C215.567 -12.1909 145.268 85.1266 145.268 85.1266Z" fill="#2F8C91"/>
<path d="M329.863 -2.83118C325.021 -0.579388 320.181 1.66283 315.338 3.91462C299.643 -7.93135 283.951 -19.7869 268.246 -31.6352C267.696 -31.3302 267.146 -31.0251 266.604 -30.7082C282.256 -18.893 297.907 -7.07788 313.559 4.73727C308.985 6.86051 304.399 8.99102 299.825 11.1143C284.629 0.0185564 269.939 -11.7383 255.808 -24.1232C255.314 -23.7947 254.813 -23.478 254.319 -23.1494C268.36 -10.8165 282.942 0.883664 298.034 11.9442C293.634 13.9873 289.235 16.0305 284.836 18.0736C270.91 6.94804 256.995 -4.17522 243.07 -15.3008C242.59 -14.9484 242.111 -14.596 241.629 -14.234C255.443 -3.19618 269.264 7.85354 283.078 18.8913C278.468 21.0364 273.85 23.1695 269.24 25.3145C255.349 16.0474 241.845 6.22281 228.777 -4.14768C228.322 -3.76911 227.869 -3.40012 227.424 -3.01923C240.344 7.24458 253.686 16.9793 267.412 26.1661C262.664 28.3695 257.916 30.5728 253.166 32.7857C240.805 24.2933 228.821 15.2816 217.262 5.77195C216.826 6.15517 216.398 6.55031 215.962 6.93353C227.366 16.3246 239.17 25.2322 251.35 33.6301C247.485 35.4258 243.611 37.2191 239.747 39.0147C228.267 31.7915 217.132 24.0613 206.376 15.8429C205.955 16.25 205.536 16.6475 205.115 17.0545C215.686 25.1473 226.616 32.7568 237.885 39.8786C233.171 42.0697 228.457 44.2609 223.743 46.452C213.336 41.2049 203.551 34.8772 194.527 27.5733C194.125 27.985 193.723 28.3967 193.319 28.818C202.127 35.9583 211.655 42.1633 221.774 47.3716C220.169 48.1142 218.561 48.8663 216.956 49.6089C216.644 49.5846 216.326 49.7015 216.118 49.9971C214.953 50.5406 213.791 51.0746 212.627 51.6181C203.251 47.6153 194.726 41.997 187.401 35.0001C187.007 35.4237 186.614 35.8377 186.22 36.2613C193.334 43.0348 201.537 48.5452 210.544 52.5815C207.007 54.2218 203.479 55.8646 199.942 57.5049C192.557 53.635 185.498 49.2438 178.794 44.348C178.406 44.7835 178.021 45.2095 177.634 45.645C184.104 50.3726 190.908 54.6314 197.997 58.41C194.714 59.9387 191.424 61.4554 188.141 62.9841C183.678 59.6643 179.223 56.3565 174.76 53.0367C174.024 52.4937 173.283 51.9292 172.547 51.3863C172.169 51.8241 171.794 52.2524 171.419 52.6807C172.518 53.494 173.593 54.3218 174.673 55.1304C178.564 58.0282 182.458 60.9163 186.349 63.814C183.567 65.1073 180.797 66.3934 178.015 67.6867C173.533 65.4197 169.148 62.9725 164.884 60.3309C164.504 60.7783 164.133 61.2281 163.765 61.6683C167.753 64.1419 171.843 66.457 176.027 68.6017C172.78 70.1086 169.543 71.6178 166.299 73.1151C163.565 71.614 160.911 70 158.342 68.2538C157.969 68.7132 157.608 69.1653 157.25 69.6078C159.558 71.1691 161.938 72.6462 164.376 74.0153C162.42 74.9276 160.466 75.8303 158.509 76.7427C156.892 75.8658 155.272 74.9985 153.664 74.1239C153.289 74.5929 152.938 75.0473 152.589 75.4922C153.919 76.2083 155.248 76.9244 156.568 77.6381C153.645 78.9994 150.725 80.351 147.793 81.7099C146.139 83.9049 145.268 85.1187 145.268 85.1187C145.268 85.1187 146.728 85.2359 149.413 85.3833C152.672 83.8691 155.931 82.355 159.19 80.8408C158.347 82.4276 157.636 84.0662 157.028 85.7399C157.619 85.76 158.219 85.7823 158.839 85.8094C159.657 83.6677 160.667 81.5823 161.892 79.5791C164.163 78.5188 166.442 77.4704 168.713 76.4101C167.069 79.502 165.718 82.695 164.66 85.9888C165.251 86.0089 165.844 86.0193 166.456 86.0344C167.599 82.5678 169.088 79.1945 170.909 75.9722C171.035 75.7585 171.047 75.5479 171.003 75.3544C175.192 73.4131 179.371 71.4695 183.56 69.5282C181.139 75.0055 178.923 80.5628 176.897 86.1859C177.502 86.1891 178.117 86.1946 178.735 86.1906C180.909 80.1862 183.31 74.2568 185.935 68.4217C189.695 66.6722 193.465 64.9251 197.225 63.1756C194.017 70.7513 191.003 78.4142 188.18 86.1333C188.798 86.1292 189.408 86.1133 190.037 86.1019C193.003 78.0207 196.177 70.0098 199.567 62.0813C204.177 59.9363 208.796 57.7936 213.406 55.6486C208.821 65.5466 204.625 75.6095 200.814 85.8158C201.437 85.7926 202.059 85.7694 202.691 85.7485C206.657 75.1728 211.046 64.7497 215.842 54.5059C218.881 53.0912 221.929 51.6789 224.968 50.2643C221.796 61.885 218.625 73.5057 215.453 85.1264C216.059 85.0889 216.664 85.0514 217.279 85.0163C220.53 73.12 223.772 61.2213 227.026 49.3154C232.927 46.5759 238.827 43.8363 244.728 41.0967C238.275 55.1718 232.603 69.5767 227.737 84.2466C228.366 84.1947 228.986 84.1404 229.615 84.0884C234.629 69.0778 240.476 54.3488 247.149 39.9708C252.551 37.457 257.95 34.9527 263.362 32.4412C258.51 48.965 253.656 65.4984 248.804 82.0222C249.431 81.9391 250.056 81.8657 250.673 81.7803C255.598 65.0096 260.522 48.2389 265.437 31.4659C267.497 30.5075 269.558 29.549 271.616 28.6001C274.119 27.433 276.63 26.2778 279.134 25.1107C274.197 43.312 269.258 61.5229 264.322 79.7242C264.944 79.6196 265.576 79.5174 266.201 79.4032C271.191 60.9911 276.192 42.5717 281.182 24.1595C285.046 22.3639 288.911 20.5682 292.775 18.7726C289.536 37.8598 286.297 56.947 283.067 76.0366C283.678 75.8986 284.288 75.7607 284.9 75.6131C288.142 56.4756 291.393 37.3405 294.634 18.203C294.651 18.0952 294.644 18.002 294.637 17.9087C300.165 15.3439 305.683 12.7766 311.21 10.2117C307.134 30.7852 303.047 51.3564 298.97 71.9299C299.593 71.744 300.225 71.5605 300.847 71.3746C304.953 50.686 309.058 29.9975 313.155 9.30667C317.297 7.38481 321.43 5.46062 325.573 3.53877C323.845 23.8433 322.124 44.1597 320.396 64.4642C321.004 64.2138 321.602 63.9611 322.202 63.6988C323.928 43.3632 325.666 23.0203 327.392 2.68476C331.801 0.643936 336.202 -1.40879 340.612 -3.44962C341.104 16.1992 340.482 35.8649 338.759 55.4588C339.383 55.1007 339.996 54.7498 340.601 54.387C342.271 34.8819 342.849 15.3074 342.314 -4.25023C349.461 -7.57453 356.616 -10.8869 363.763 -14.2112C364.251 3.3827 363.883 20.9846 362.695 38.5417C363.329 37.9825 363.942 37.4283 364.557 36.8645C365.668 19.6955 365.977 2.48623 365.48 -14.7033C365.475 -14.8062 365.458 -14.9018 365.42 -14.9924C368.424 -16.3948 371.436 -17.7854 374.441 -19.1878C375.451 -5.16891 376.452 8.84767 377.464 22.857C378.012 22.1549 378.539 21.4481 379.055 20.7486C378.076 7.1744 377.098 -6.39976 376.129 -19.9716C379.107 -21.3499 382.087 -22.7379 385.056 -24.1185C384.533 -25.3423 383.944 -26.5513 383.317 -27.7289C382.492 -27.3479 381.666 -26.9669 380.84 -26.5859C371.346 -34.5111 361.852 -42.4363 352.368 -50.3592C351.29 -50.5674 350.191 -50.7301 349.075 -50.8663C359.085 -42.5019 369.097 -34.1471 379.116 -25.7804C376.453 -24.55 373.797 -23.3078 371.134 -22.0774C359.204 -31.8693 347.262 -41.6539 335.332 -51.4458C334.474 -51.4282 333.603 -51.3938 332.729 -51.3497C344.949 -41.3253 357.179 -31.2986 369.398 -21.2646C365.267 -19.35 361.146 -17.4331 357.015 -15.5185C343.681 -26.868 330.344 -38.208 317.01 -49.5575C316.288 -49.426 315.567 -49.2945 314.831 -49.1461C328.318 -37.6684 341.807 -26.2002 355.284 -14.7248C351.686 -13.0482 348.081 -11.3834 344.483 -9.70678C344.379 -9.66064 344.284 -9.61218 344.18 -9.56603C329.371 -20.9346 315.185 -33.0584 301.659 -45.8875C301.027 -45.7039 300.393 -45.5108 299.756 -45.308C313.323 -32.3979 327.563 -20.2003 342.413 -8.75064C341.948 -8.53707 341.483 -8.32351 341.028 -8.1076C340.919 -8.08297 340.815 -8.03682 340.737 -7.97411C337.723 -6.57401 334.708 -5.17389 331.684 -3.77611C314.926 -14.7898 298.727 -26.5942 283.117 -39.1416C282.526 -38.877 281.928 -38.6242 281.335 -38.35C296.948 -25.6902 313.134 -13.8785 329.863 -2.83118Z" fill="#286F7F"/>
<path d="M204.918 35.2583C204.918 35.2583 141.568 -21.7517 85.1739 -37.9344C66.0331 -43.4252 50.8 -44.3551 39.0289 -43.1794C14.4733 -40.7334 5.86913 -18.0112 23.284 -1.6392C31.638 6.21554 44.0876 14.4773 62.6537 21.5002C117.335 42.1837 204.918 35.2583 204.918 35.2583Z" fill="#BAE3DD"/>
<path d="M57.3653 -12.2455C61.2092 -10.9737 65.0468 -9.71026 68.8907 -8.43846C71.9297 3.17388 74.9668 14.7922 78.0058 26.4046C78.4647 26.5303 78.9254 26.65 79.3861 26.7697C76.3559 15.1861 73.3257 3.6025 70.2937 -7.97506C73.9247 -6.77773 77.5619 -5.57205 81.1929 -4.37472C84.3166 6.72458 86.8388 17.8537 88.7247 28.9829C89.1668 29.0776 89.6089 29.1722 90.043 29.2646C88.1728 18.1989 85.6941 7.12818 82.612 -3.9067C86.1004 -2.75701 89.5951 -1.59897 93.0835 -0.449272C95.4776 10.0923 97.8698 20.6399 100.264 31.1815C100.711 31.2581 101.151 31.3323 101.6 31.4029C99.2264 20.9392 96.8525 10.4755 94.4785 0.0118143C98.1398 1.22442 101.795 2.42869 105.456 3.6413C108.744 13.4441 111.539 23.2887 113.831 33.1584C114.268 33.2122 114.713 33.2684 115.15 33.3223C112.895 23.5616 110.146 13.8222 106.913 4.12691C110.679 5.36956 114.452 6.61453 118.216 7.86322C121.024 16.6824 123.36 25.5358 125.214 34.4008C125.646 34.4403 126.087 34.4821 126.519 34.5216C124.699 25.7776 122.406 17.0414 119.657 8.3442C122.724 9.35933 125.793 10.3684 128.86 11.3836C131.796 19.3153 134.276 27.2861 136.312 35.2859C136.748 35.3134 137.184 35.3408 137.619 35.3742C135.629 27.512 133.198 19.667 130.334 11.8738C134.075 13.1095 137.817 14.3452 141.558 15.581C144.854 22.2597 147.27 29.0844 148.782 35.9569C149.212 35.976 149.643 35.989 150.073 36.0081C148.61 29.2937 146.275 22.6364 143.12 16.0966C144.396 16.517 145.665 16.9351 146.939 17.3615C147.105 17.5074 147.344 17.6092 147.606 17.5798C148.525 17.8841 149.452 18.1907 150.372 18.495C153.699 24.2322 155.748 30.2174 156.444 36.2122C156.876 36.2252 157.301 36.2299 157.733 36.2429C157.045 30.4272 155.124 24.6232 152.02 19.0421C154.826 19.9689 157.624 20.8934 160.43 21.8202C162.698 26.6164 164.521 31.4743 165.905 36.3697C166.34 36.3707 166.766 36.3754 167.2 36.3824C165.87 31.6535 164.126 26.969 161.976 22.3312C164.583 23.1942 167.19 24.0572 169.792 24.9118C170.678 28.189 171.571 31.4746 172.458 34.7519C172.609 35.2934 172.749 35.8387 172.9 36.3803C173.327 36.379 173.755 36.3776 174.174 36.374C173.955 35.57 173.753 34.7646 173.539 33.9689C172.764 31.1039 171.986 28.2449 171.211 25.3798C173.415 26.1068 175.618 26.8338 177.822 27.5608C179.247 30.4424 180.506 33.3487 181.622 36.2724C182.059 36.2673 182.49 36.2539 182.911 36.2442C181.873 33.5 180.704 30.7838 179.392 28.0788C181.967 28.9325 184.536 29.7779 187.112 30.6316C187.921 32.4313 188.62 34.2455 189.221 36.0704C189.652 36.057 190.083 36.0436 190.498 36.0256C189.965 34.3838 189.34 32.7551 188.641 31.1381C190.195 31.6514 191.748 32.1647 193.302 32.6781C193.785 33.7351 194.267 34.7981 194.759 35.8574C195.2 35.8403 195.624 35.8185 196.039 35.8005C195.639 34.9313 195.248 34.0583 194.848 33.1891C197.17 33.9568 199.484 34.7222 201.807 35.4899C203.827 35.3512 204.918 35.2593 204.918 35.2593C204.918 35.2593 204.15 34.5662 202.705 33.3171C200.122 32.4611 197.537 31.6111 194.945 30.7527C196.205 30.5062 197.41 30.1785 198.572 29.7925C198.253 29.5233 197.926 29.2458 197.576 28.9614C196.063 29.4429 194.463 29.8075 192.788 30.0456C190.981 29.4463 189.181 28.8552 187.374 28.2559C189.82 27.7744 192.161 27.1188 194.369 26.2999C194.039 26.0345 193.711 25.763 193.377 25.4832C191.03 26.3337 188.529 26.996 185.91 27.447C185.735 27.4754 185.616 27.5525 185.545 27.6435C182.223 26.5484 178.903 25.4472 175.582 24.3521C179.643 23.2811 183.627 22.0896 187.543 20.7798C187.205 20.5121 186.861 20.236 186.508 19.9636C182.324 21.3534 178.059 22.6082 173.695 23.7296C170.706 22.7436 167.717 21.7577 164.739 20.7679C170.278 19.2183 175.746 17.5565 181.141 15.7885C180.788 15.5161 180.44 15.2521 180.078 14.9774C174.431 16.83 168.698 18.5598 162.882 20.1607C159.221 18.9481 155.558 17.7416 151.905 16.5313C159.362 14.689 166.683 12.6043 173.863 10.2953C173.499 10.0266 173.136 9.75796 172.772 9.4893C165.326 11.8723 157.728 14.0083 149.971 15.8889C147.555 15.0874 145.144 14.2943 142.735 13.4951C150.245 10.3505 157.747 7.20353 165.257 4.05889C164.897 3.80461 164.538 3.55032 164.171 3.29373C156.481 6.51738 148.792 9.735 141.11 12.961C136.433 11.4163 131.748 9.86935 127.071 8.32469C137.637 5.68085 147.923 2.54983 157.894 -1.03912C157.519 -1.29803 157.133 -1.55322 156.75 -1.81443C146.533 1.84107 135.99 5.01593 125.144 7.69065C120.857 6.27132 116.568 4.85801 112.288 3.44099C123.158 -0.878355 134.029 -5.1977 144.901 -9.52307C144.504 -9.76851 144.116 -10.0116 143.719 -10.2571C132.689 -5.87218 121.658 -1.48126 110.629 2.90363C108.997 2.36114 107.363 1.82468 105.731 1.28219C103.742 0.623631 101.752 -0.0349339 99.7695 -0.685156C111.517 -5.63005 123.254 -10.5712 135.001 -15.5161C134.593 -15.7518 134.193 -15.9852 133.784 -16.2209C121.907 -11.2216 110.03 -6.2223 98.1437 -1.2193C95.0766 -2.23443 92.0078 -3.24353 88.9407 -4.25866C100.156 -10.3009 111.38 -16.3468 122.595 -22.389C122.181 -22.6065 121.768 -22.8241 121.352 -23.0357C110.106 -16.9763 98.8596 -10.9169 87.6133 -4.85756C87.5507 -4.82318 87.5041 -4.78417 87.4735 -4.74055C83.0898 -6.18762 78.7061 -7.63469 74.3242 -9.08779C86.752 -15.3375 99.1718 -21.5896 111.6 -27.8393C111.156 -28.0457 110.713 -28.2521 110.268 -28.4525C97.7774 -22.1684 85.2771 -15.8806 72.7866 -9.59651C69.5048 -10.6801 66.2231 -11.7636 62.9333 -12.8495C73.9026 -20.044 84.8621 -27.2348 95.8315 -34.4293C95.3693 -34.6018 94.8972 -34.7707 94.4331 -34.9372C83.4522 -27.7329 72.4712 -20.5287 61.492 -13.3305C57.9955 -14.4825 54.5009 -15.6406 51.0044 -16.7926C60.3882 -24.7128 70.4183 -32.1452 81.0337 -39.0616C80.5088 -39.1998 79.9821 -39.3319 79.4634 -39.4617C68.9213 -32.5571 58.9743 -25.14 49.6495 -17.2421C43.9732 -19.1142 38.3067 -20.99 32.6304 -22.862C41.0114 -29.9701 49.8742 -36.71 59.1793 -43.0667C58.5452 -43.1315 57.9253 -43.1856 57.3054 -43.2398C48.2374 -37.0048 39.5975 -30.3973 31.4189 -23.4406C31.3705 -23.3956 31.3399 -23.352 31.3076 -23.3023C28.921 -24.0885 26.5364 -24.8808 24.1499 -25.6669C30.4723 -31.6118 36.801 -37.5482 43.1234 -43.4931C42.4683 -43.459 41.8291 -43.4204 41.1864 -43.3697C35.0612 -37.6171 28.9361 -31.8645 22.8092 -26.1058C20.4467 -26.8851 18.0842 -27.6643 15.7236 -28.4496C15.412 -27.7332 15.1484 -27.003 14.933 -26.2589C15.5914 -26.0429 16.2417 -25.8292 16.8982 -25.6072C18.3615 -18.2835 19.8266 -10.9658 21.2899 -3.64201C21.801 -3.08177 22.3397 -2.52666 22.8999 -1.98501C21.3557 -9.70569 19.8133 -17.4324 18.2691 -25.1531C20.3768 -24.4538 22.4943 -23.7583 24.6019 -23.059C26.5304 -13.9232 28.459 -4.78739 30.3776 4.35215C30.8754 4.72503 31.3811 5.10022 31.8968 5.47169C29.9221 -3.88716 27.9475 -13.246 25.9809 -22.6025C29.2547 -21.5213 32.5284 -20.44 35.8022 -19.3588C37.7518 -8.99115 39.7096 1.37878 41.6592 11.7464C42.1281 12.0126 42.605 12.2812 43.0899 12.5521C41.115 2.06573 39.1401 -8.4206 37.1651 -18.9069C40.0193 -17.9663 42.8797 -17.0173 45.7339 -16.0766C45.8141 -16.0535 45.8925 -16.0243 45.9708 -15.9952C48.7407 -4.96513 50.7974 6.0888 52.1278 17.1235C52.5792 17.3322 53.0323 17.5349 53.4836 17.7437C52.1677 6.66075 50.1273 -4.44746 47.364 -15.5281C47.7293 -15.4097 48.1007 -15.283 48.466 -15.1646C48.5407 -15.1234 48.6209 -15.1003 48.6967 -15.0915C51.0912 -14.303 53.4839 -13.5085 55.8785 -12.72C59.9277 -0.960638 63.2788 10.8596 65.9149 22.7098C66.3808 22.8703 66.8466 23.0308 67.3125 23.1913C64.7219 11.3346 61.3887 -0.487093 57.3653 -12.2455Z" fill="#97C9CE"/>
<path d="M150.998 13.7884C151.017 13.9292 151.05 14.0696 151.076 14.2032C151.084 14.2241 151.077 14.2456 151.085 14.2665C151.111 14.4001 151.137 14.5336 151.169 14.6599C151.17 14.674 151.177 14.695 151.178 14.7091C151.211 14.8495 151.237 14.983 151.277 15.1161C151.278 15.1444 151.293 15.1722 151.294 15.2004C151.334 15.3335 151.359 15.4671 151.399 15.6001C151.407 15.6211 151.408 15.6494 151.416 15.6703C151.456 15.8034 151.496 15.9365 151.536 16.0695L151.543 16.0764C151.583 16.2094 151.63 16.3493 151.677 16.4751C151.684 16.4961 151.692 16.517 151.7 16.538C151.747 16.6638 151.793 16.7895 151.84 16.9153C151.848 16.9362 151.856 16.9572 151.871 16.985C151.918 17.1108 151.972 17.2433 152.018 17.3691C152.026 17.3759 152.019 17.3832 152.026 17.3901C152.073 17.5158 152.126 17.6343 152.18 17.7527C152.188 17.7737 152.195 17.7805 152.203 17.8015C152.256 17.92 152.31 18.0384 152.371 18.1637C152.379 18.1847 152.386 18.2056 152.394 18.2266C152.448 18.345 152.509 18.4703 152.569 18.5815C152.576 18.5883 152.577 18.6024 152.591 18.6161C152.645 18.7346 152.713 18.8525 152.773 18.9637C152.78 18.9705 152.773 18.9778 152.781 18.9846C152.841 19.0958 152.909 19.2138 152.969 19.3249C152.977 19.3459 152.992 19.3595 152.992 19.3737C153.052 19.4848 153.12 19.5887 153.18 19.6998C153.187 19.7066 153.195 19.7276 153.202 19.7344C153.337 19.9562 153.479 20.1708 153.621 20.3853C153.628 20.3921 153.636 20.4131 153.643 20.4199C153.71 20.5237 153.784 20.6203 153.858 20.7168C153.866 20.7236 153.88 20.7373 153.881 20.7514C154.029 20.9586 154.184 21.1444 154.339 21.3302C154.346 21.337 154.346 21.337 154.354 21.3438C154.435 21.433 154.501 21.5228 154.582 21.612C154.59 21.6188 154.597 21.6256 154.604 21.6325C154.685 21.7217 154.759 21.8041 154.839 21.8933C155.001 22.0576 155.162 22.222 155.323 22.3722C155.33 22.379 155.337 22.3858 155.337 22.3858C155.418 22.4609 155.505 22.5287 155.578 22.597L155.585 22.6038C155.753 22.7467 155.913 22.8686 156.086 22.99L156.094 22.9969C156.174 23.0578 156.26 23.1115 156.34 23.1583L156.347 23.1651C156.6 23.3193 156.845 23.4524 157.103 23.5569L157.111 23.5637C157.362 23.6613 157.605 23.7379 157.847 23.7863L157.854 23.7931C157.933 23.8117 158.011 23.8161 158.096 23.8274C158.259 23.8431 158.408 23.8451 158.57 23.8325C158.648 23.8228 158.718 23.8204 158.795 23.7965C158.795 23.7965 158.795 23.7965 158.802 23.7892C159.815 23.5992 160.656 22.7428 161.143 21.0494C163.384 13.3038 157.674 4.94401 155.381 2.00791C156.883 2.50871 158.385 2.98124 159.901 3.43915C160.937 3.75062 161.973 4.04794 163.009 4.34527L164.459 4.75588C168.302 5.82808 172.158 6.85739 175.981 7.97977C175.948 8.03044 175.914 8.08111 175.873 8.12496C175.771 8.26283 175.677 8.3934 175.575 8.53127C175.514 8.61117 175.468 8.69059 175.407 8.77049C175.319 8.89375 175.245 9.01653 175.157 9.13979C175.104 9.22651 175.05 9.31324 174.996 9.39996C174.923 9.52274 174.842 9.6387 174.775 9.75417C174.721 9.84089 174.668 9.92762 174.621 10.0212C174.555 10.1366 174.481 10.2594 174.421 10.3817C174.368 10.4684 174.328 10.5547 174.282 10.6482C174.222 10.7705 174.155 10.886 174.096 11.0083C174.056 11.0946 174.01 11.1881 173.963 11.2675C173.904 11.3898 173.844 11.5121 173.792 11.6413C173.753 11.7275 173.713 11.8138 173.68 11.8927C173.628 12.0218 173.576 12.1509 173.517 12.2874C173.484 12.3663 173.451 12.4453 173.419 12.5242C173.36 12.6748 173.308 12.818 173.25 12.9686C173.231 13.0329 173.205 13.0904 173.178 13.1479C173.107 13.3555 173.037 13.5631 172.973 13.7775C172.974 13.7916 172.96 13.8062 172.96 13.8204C172.903 14.0133 172.846 14.2063 172.789 14.3993C172.77 14.4636 172.758 14.5347 172.739 14.5991C172.702 14.7418 172.664 14.8846 172.633 15.0201C172.615 15.0986 172.596 15.177 172.578 15.2555C172.554 15.3836 172.516 15.5123 172.492 15.6405C172.473 15.7189 172.462 15.8042 172.451 15.8895C172.427 16.0176 172.41 16.1385 172.386 16.2667C172.374 16.352 172.363 16.4372 172.345 16.5157C172.327 16.6366 172.31 16.7574 172.293 16.8783C172.282 16.9636 172.271 17.0488 172.259 17.1341C172.242 17.255 172.232 17.3827 172.222 17.4962C172.211 17.5815 172.207 17.6595 172.195 17.7448C172.185 17.8725 172.182 17.9928 172.173 18.1205C172.168 18.1985 172.164 18.2765 172.159 18.3545C172.15 18.4821 172.147 18.6167 172.145 18.7512C172.147 18.8218 172.142 18.8857 172.138 18.9637C172.136 19.1123 172.141 19.2678 172.139 19.4164C172.14 19.4588 172.135 19.5085 172.144 19.5578C172.15 19.7556 172.157 19.9535 172.164 20.1514C172.165 20.1797 172.173 20.2006 172.166 20.2221C172.172 20.3917 172.192 20.5608 172.198 20.7304C172.207 20.7938 172.216 20.8571 172.211 20.921C172.223 21.055 172.234 21.1749 172.252 21.3016C172.262 21.3791 172.271 21.4425 172.281 21.52C172.292 21.6399 172.31 21.7525 172.328 21.8651C172.338 21.9426 172.348 22.0201 172.364 22.0903C172.382 22.2028 172.4 22.3154 172.418 22.4139C172.427 22.4914 172.451 22.5684 172.461 22.6459C172.486 22.7512 172.496 22.8569 172.521 22.9622C172.531 23.0397 172.555 23.1167 172.564 23.1942C172.589 23.2995 172.614 23.4048 172.631 23.5033C172.648 23.5735 172.665 23.6578 172.682 23.728C172.706 23.8333 172.738 23.9312 172.763 24.0365C172.779 24.1067 172.803 24.1837 172.82 24.2539C172.845 24.3592 172.883 24.464 172.908 24.5693C172.932 24.6322 172.948 24.7024 172.972 24.7652C173.011 24.8842 173.043 24.9963 173.082 25.1152C173.099 25.1713 173.114 25.2132 173.13 25.2693C173.185 25.4301 173.24 25.591 173.309 25.7514C173.332 25.8001 173.348 25.8562 173.371 25.9049C173.41 26.0097 173.456 26.1213 173.495 26.2262C173.526 26.2959 173.549 26.3587 173.58 26.4285C173.618 26.5191 173.65 26.603 173.695 26.6863C173.725 26.756 173.756 26.8258 173.787 26.8955C173.825 26.972 173.863 27.0485 173.894 27.1324C173.925 27.2021 173.969 27.2713 174 27.341C174.038 27.4176 174.069 27.4873 174.113 27.5565C174.144 27.6262 174.189 27.6954 174.22 27.7651C174.257 27.8275 174.295 27.9041 174.333 27.9665C174.377 28.0357 174.408 28.1054 174.453 28.1747C174.49 28.2371 174.528 28.2995 174.573 28.3687C174.617 28.4379 174.655 28.5003 174.7 28.5695C174.737 28.6319 174.782 28.687 174.819 28.7494C174.864 28.8187 174.901 28.8811 174.953 28.943C174.997 28.9981 175.028 29.0537 175.065 29.1019C175.109 29.1712 175.161 29.2331 175.198 29.2955C175.235 29.3438 175.265 29.3852 175.302 29.4335C175.487 29.6748 175.679 29.9088 175.877 30.1214C175.914 30.1556 175.936 30.1902 175.973 30.2243C176.025 30.2862 176.083 30.3409 176.141 30.3955C176.178 30.4296 176.215 30.4637 176.244 30.5052C176.303 30.5598 176.354 30.6076 176.412 30.6622C176.449 30.6963 176.485 30.7305 176.522 30.7646C176.573 30.8124 176.632 30.867 176.69 30.9075C176.726 30.9416 176.755 30.9689 176.799 30.9958C176.857 31.0362 176.908 31.084 176.966 31.1245C176.995 31.1518 177.038 31.1786 177.074 31.1986C177.132 31.2391 177.19 31.2796 177.248 31.3201C177.284 31.3401 177.314 31.3674 177.35 31.3874C177.408 31.4279 177.472 31.461 177.53 31.5015C177.566 31.5215 177.595 31.5347 177.631 31.5547C177.696 31.5879 177.754 31.6284 177.819 31.6615C177.848 31.6747 177.869 31.681 177.898 31.6942C177.963 31.7274 178.027 31.7606 178.099 31.7864L178.106 31.7933C178.358 31.905 178.608 31.9743 178.857 32.0154C178.871 32.0149 178.892 32.0213 178.914 32.0276C178.985 32.0393 179.049 32.0442 179.113 32.0491C179.141 32.0482 179.162 32.0545 179.198 32.0604C179.262 32.0653 179.318 32.0634 179.382 32.0683C179.41 32.0673 179.439 32.0664 179.474 32.0722C179.531 32.0703 179.587 32.0684 179.651 32.0592C179.679 32.0582 179.714 32.0499 179.742 32.049C179.799 32.0471 179.855 32.031 179.918 32.0218C179.953 32.0135 179.982 32.0125 180.009 31.9975C180.065 31.9814 180.122 31.9653 180.178 31.9493C180.213 31.941 180.24 31.9259 180.261 31.9181C180.317 31.9021 180.373 31.8719 180.429 31.8558C180.457 31.8407 180.485 31.8256 180.506 31.8179C180.561 31.7877 180.624 31.7643 180.68 31.7341C180.701 31.7263 180.721 31.7044 180.742 31.6966C181.311 31.3519 181.836 30.7751 182.259 29.9117C185.763 22.8943 179.271 11.7239 177.119 8.34441C179.742 9.13965 182.354 9.99191 184.933 10.9514L185.034 10.9904C185.112 11.0231 185.184 11.049 185.27 11.0744C185.27 11.0744 185.27 11.0744 185.277 11.0812L186.754 11.6536C189.975 12.938 193.089 14.4241 196.096 16.1119C195.911 16.4861 195.666 16.9826 195.397 17.5932C195.363 17.658 195.344 17.7223 195.311 17.7871C195.2 18.0526 195.068 18.3401 194.951 18.6413C194.918 18.7202 194.893 18.7918 194.86 18.8708C194.795 19.0428 194.723 19.2221 194.651 19.4014C194.599 19.5305 194.547 19.6597 194.502 19.7956C194.463 19.896 194.424 19.9964 194.385 20.1109C194.256 20.4549 194.134 20.8199 194.012 21.199C193.948 21.3851 193.891 21.5781 193.833 21.7711C193.088 24.1808 192.484 27.0384 192.519 29.9309C192.524 30.0723 192.521 30.2068 192.526 30.3481C192.527 30.3905 192.529 30.4329 192.53 30.4753C192.541 30.5811 192.537 30.6874 192.548 30.7931C192.55 30.8355 192.551 30.8638 192.552 30.9062C192.564 31.0402 192.568 31.1816 192.58 31.3156C192.581 31.3439 192.581 31.358 192.582 31.3863C192.586 31.4993 192.604 31.6119 192.615 31.7177C192.616 31.7601 192.625 31.7952 192.626 31.8376C192.637 31.9434 192.647 32.0491 192.665 32.1476C192.666 32.1758 192.667 32.2041 192.675 32.2251C192.693 32.3518 192.712 32.4785 192.73 32.6053C192.731 32.6335 192.739 32.6686 192.747 32.6896C192.764 32.788 192.782 32.8865 192.799 32.9849C192.808 33.02 192.816 33.0551 192.824 33.0902C192.842 33.2028 192.86 33.3154 192.885 33.4207C192.886 33.4348 192.893 33.4417 192.886 33.449C192.911 33.5684 192.937 33.6878 192.962 33.8072C192.97 33.8423 192.978 33.8633 192.979 33.8915C193.003 33.9827 193.027 34.0739 193.045 34.1582C193.045 34.1864 193.061 34.2142 193.062 34.2425C193.094 34.3546 193.126 34.4667 193.158 34.5788C193.158 34.5788 193.165 34.5857 193.158 34.593C193.183 34.6982 193.222 34.8031 193.254 34.901C193.261 34.922 193.27 34.9571 193.278 34.978C193.309 35.0619 193.333 35.153 193.364 35.2369C193.372 35.2578 193.372 35.272 193.38 35.2929C193.419 35.3977 193.451 35.4957 193.497 35.5932C193.497 35.6073 193.504 35.6142 193.512 35.621C193.543 35.7049 193.581 35.7955 193.619 35.8721C193.627 35.893 193.635 35.914 193.643 35.9349C193.681 36.0256 193.72 36.1163 193.765 36.1996L193.772 36.2065C193.811 36.2971 193.863 36.3873 193.908 36.4707C193.916 36.4775 193.916 36.4917 193.931 36.5053C193.969 36.5818 194.014 36.6511 194.052 36.7276C194.059 36.7344 194.067 36.7554 194.074 36.7622C194.171 36.9216 194.261 37.0742 194.365 37.2122C194.373 37.219 194.38 37.2259 194.38 37.24C194.432 37.3019 194.469 37.3643 194.521 37.4262C194.528 37.4331 194.528 37.4331 194.536 37.4399C194.646 37.5706 194.756 37.6871 194.866 37.7895C194.873 37.7963 194.881 37.8032 194.888 37.81C195.005 37.9192 195.114 38.0075 195.237 38.0953C195.295 38.1358 195.36 38.1689 195.411 38.2026C195.418 38.2094 195.418 38.2094 195.425 38.2162C195.541 38.2831 195.67 38.3353 195.798 38.3734L195.806 38.3802C195.87 38.3992 195.927 38.4114 195.991 38.4305C195.991 38.4305 195.999 38.4373 196.006 38.43C196.134 38.4539 196.261 38.4638 196.396 38.4663L196.41 38.4658C197.477 38.4225 198.638 37.3996 199.747 35.0695C202.368 29.5255 198.741 20.2388 197.179 16.7402C199.871 18.3113 202.47 20.0272 204.961 21.9165L206.406 23.0348C206.879 23.4079 207.345 23.7883 207.811 24.1686C209.667 25.7116 211.442 27.3423 213.141 29.0533C213.074 29.1547 213.007 29.2701 212.927 29.4002C212.879 29.4655 212.839 29.5376 212.799 29.6097C212.705 29.7544 212.612 29.9133 212.504 30.0867C212.182 30.6071 211.808 31.2424 211.36 32.0005C211.22 32.2529 211.059 32.5131 210.905 32.7942C210.825 32.9384 210.745 33.0827 210.658 33.2201C209.83 34.6774 208.865 36.4719 207.784 38.5816C207.731 38.6825 207.677 38.7834 207.638 38.8837C207.618 38.9198 207.605 38.9485 207.585 38.9846C207.552 39.0494 207.526 39.121 207.486 39.1931C207.466 39.2292 207.453 39.2721 207.433 39.3081C207.4 39.3729 207.381 39.4373 207.348 39.5021C207.335 39.5449 207.309 39.5883 207.296 39.6312C207.27 39.6887 207.244 39.7603 207.217 39.8178C207.205 39.8607 207.178 39.9041 207.165 39.9469C207.139 40.0044 207.12 40.0688 207.094 40.1404C207.081 40.1833 207.062 40.2335 207.042 40.2695C207.023 40.3338 206.996 40.3913 206.97 40.463C206.958 40.5058 206.945 40.5487 206.925 40.5848C206.899 40.6564 206.88 40.7207 206.861 40.7851C206.848 40.8279 206.835 40.8567 206.822 40.8996C206.797 40.9853 206.772 41.0711 206.746 41.1569C206.74 41.1783 206.734 41.1998 206.727 41.2212C206.696 41.3284 206.664 41.4356 206.632 41.5428C206.619 41.5716 206.613 41.6071 206.614 41.6354C206.595 41.7139 206.577 41.7923 206.551 41.8639C206.538 41.9068 206.532 41.9424 206.52 41.9853C206.501 42.0496 206.489 42.1208 206.47 42.1851C206.457 42.228 206.452 42.2777 206.439 42.3206C206.42 42.3849 206.415 42.4487 206.403 42.5057C206.39 42.5486 206.385 42.5983 206.38 42.648C206.367 42.705 206.356 42.7762 206.343 42.8332C206.338 42.8829 206.325 42.9258 206.32 42.9755C206.308 43.0325 206.303 43.0964 206.284 43.1607C206.278 43.2104 206.266 43.2533 206.26 43.303C206.255 43.3668 206.243 43.4239 206.231 43.495C206.226 43.5447 206.22 43.5803 206.215 43.63C206.203 43.7012 206.198 43.765 206.186 43.8361C206.181 43.8717 206.182 43.9141 206.176 43.9497C206.165 44.0491 206.155 44.1627 206.144 44.2621C206.138 44.2977 206.139 44.3259 206.134 44.3615C206.122 44.4327 206.124 44.5033 206.112 44.5745C206.107 44.6242 206.109 44.6666 206.103 44.7163C206.098 44.7801 206.1 44.8367 206.088 44.8937C206.083 44.9434 206.084 44.9858 206.086 45.0423C206.088 45.0989 206.082 45.1486 206.084 45.2051C206.079 45.2548 206.088 45.3041 206.082 45.3538C206.084 45.4103 206.079 45.46 206.081 45.5165C206.075 45.5663 206.084 45.6155 206.079 45.6652C206.081 45.7217 206.082 45.7641 206.084 45.8207C206.086 45.8772 206.087 45.9196 206.089 45.9761C206.084 46.0258 206.093 46.0751 206.095 46.1316C206.097 46.1882 206.098 46.2306 206.1 46.2871C206.101 46.3295 206.103 46.386 206.105 46.4284C206.107 46.485 206.115 46.5342 206.11 46.5839C206.111 46.6263 206.12 46.6755 206.122 46.7179C206.132 46.8237 206.136 46.9368 206.154 47.0494C206.162 47.0845 206.157 47.12 206.165 47.1551C206.167 47.2117 206.183 47.2677 206.185 47.3243C206.186 47.3667 206.194 47.4018 206.196 47.4442C206.205 47.4934 206.214 47.5567 206.223 47.606C206.231 47.6411 206.232 47.6835 206.241 47.7186C206.249 47.7678 206.259 47.8312 206.267 47.8804C206.276 47.9155 206.277 47.9579 206.285 47.993C206.294 48.0422 206.31 48.0983 206.312 48.1548C206.32 48.1899 206.329 48.225 206.337 48.2601C206.353 48.3161 206.362 48.3654 206.378 48.4214C206.386 48.4565 206.394 48.4916 206.402 48.5267C206.419 48.5828 206.427 48.632 206.443 48.688C206.444 48.7163 206.459 48.7441 206.46 48.7724C206.476 48.8284 206.492 48.8845 206.508 48.9405C206.509 48.9547 206.517 48.9756 206.524 48.9825C206.588 49.1925 206.666 49.4022 206.736 49.6049C206.737 49.6191 206.744 49.6259 206.745 49.64C206.768 49.7029 206.791 49.7517 206.821 49.8072C206.829 49.8282 206.837 49.8492 206.844 49.8701C206.867 49.9189 206.897 49.9744 206.913 50.0305C206.921 50.0515 206.929 50.0724 206.944 50.1002C206.967 50.149 206.99 50.1977 207.02 50.2533C207.028 50.2742 207.036 50.2952 207.058 50.3157C207.08 50.3644 207.103 50.4132 207.14 50.4614C207.148 50.4824 207.163 50.4961 207.171 50.517C207.193 50.5658 207.23 50.614 207.253 50.6628C207.268 50.6764 207.268 50.6906 207.283 50.7042C207.313 50.7598 207.35 50.8081 207.38 50.8495C207.387 50.8563 207.387 50.8563 207.395 50.8632C207.551 51.0913 207.714 51.2981 207.897 51.4829C207.904 51.4897 207.911 51.4965 207.911 51.4965C207.955 51.5375 207.992 51.5716 208.036 51.6126C208.043 51.6194 208.057 51.6331 208.065 51.6399C208.101 51.674 208.145 51.715 208.182 51.7491C208.196 51.7628 208.204 51.7696 208.218 51.7833C208.255 51.8174 208.298 51.8442 208.342 51.8852C208.357 51.8988 208.364 51.9057 208.385 51.912C208.429 51.9388 208.465 51.973 208.516 52.0066C208.523 52.0134 208.538 52.0271 208.552 52.0266C208.595 52.0534 208.646 52.0871 208.689 52.1139C208.697 52.1208 208.697 52.1208 208.704 52.1276C208.928 52.2544 209.158 52.3598 209.401 52.4364C209.458 52.4486 209.508 52.4682 209.565 52.4804C209.579 52.4799 209.586 52.4867 209.601 52.4862C209.658 52.4985 209.707 52.5038 209.757 52.5234C209.772 52.5229 209.793 52.5292 209.807 52.5288C209.857 52.5341 209.914 52.5463 209.964 52.5517C209.978 52.5513 209.999 52.5576 210.013 52.5571C210.063 52.5625 210.127 52.5674 210.177 52.5728C210.191 52.5723 210.212 52.5787 210.226 52.5782C210.283 52.5763 210.333 52.5817 210.396 52.5866C210.41 52.5861 210.425 52.5856 210.439 52.5851C211.047 52.5786 211.714 52.4215 212.439 52.0997C219.213 49.0678 215.541 34.922 214.061 30.0763C216.767 32.8922 219.268 35.9132 221.521 39.1125C221.521 39.1266 221.521 39.1266 221.521 39.1407L222.362 40.3362C223.65 42.2381 224.856 44.1994 225.972 46.2132C225.965 46.2347 225.959 46.2561 225.952 46.2776C225.908 46.4277 225.863 46.5636 225.826 46.7064C225.819 46.7278 225.82 46.742 225.813 46.7634C225.776 46.9062 225.738 47.049 225.708 47.1986C225.708 47.2127 225.702 47.2341 225.695 47.2415C225.665 47.3911 225.635 47.5407 225.604 47.6903C225.605 47.7185 225.592 47.7473 225.593 47.7756C225.57 47.9179 225.539 48.0675 225.523 48.2166C225.524 48.2449 225.518 48.2663 225.519 48.2946C225.496 48.451 225.48 48.6001 225.464 48.7634L225.464 48.7775C225.448 48.9267 225.439 49.0826 225.43 49.2386C225.431 49.2668 225.425 49.2883 225.426 49.3165C225.417 49.4725 225.415 49.6211 225.413 49.7698C225.414 49.7981 225.415 49.8263 225.409 49.8619C225.407 50.0105 225.398 50.1665 225.404 50.322C225.397 50.3434 225.405 50.3644 225.406 50.3926C225.404 50.5413 225.409 50.6968 225.421 50.8449C225.422 50.8591 225.422 50.8732 225.423 50.8873C225.428 51.0428 225.441 51.2051 225.453 51.3533C225.454 51.3815 225.455 51.4098 225.456 51.4381C225.468 51.5862 225.487 51.7412 225.499 51.8894C225.5 51.9177 225.501 51.9459 225.502 51.9742C225.522 52.1292 225.541 52.2842 225.56 52.4392C225.561 52.4533 225.568 52.4602 225.569 52.4743C225.588 52.6293 225.614 52.777 225.634 52.932C225.642 52.9529 225.643 52.9812 225.643 52.9953C225.669 53.143 225.696 53.3048 225.722 53.4525C225.723 53.4808 225.731 53.5159 225.739 53.5368C225.773 53.6914 225.799 53.839 225.833 53.9936C225.84 54.0145 225.841 54.0428 225.849 54.0637C225.883 54.2183 225.923 54.3655 225.957 54.52C225.964 54.5268 225.957 54.5341 225.964 54.5409C226.005 54.7023 226.046 54.8495 226.087 55.0108C226.094 55.0318 226.103 55.0669 226.11 55.0878C226.151 55.235 226.198 55.3891 226.239 55.5363C226.254 55.5641 226.255 55.5923 226.27 55.6201C226.318 55.7742 226.365 55.9282 226.42 56.0749C226.42 56.0891 226.435 56.1027 226.435 56.1168C226.49 56.2636 226.53 56.4108 226.585 56.5575C226.593 56.5785 226.6 56.5994 226.601 56.6136C226.655 56.7603 226.71 56.907 226.764 57.0537C226.779 57.0815 226.78 57.1098 226.796 57.1376C226.85 57.2843 226.911 57.4237 226.966 57.5704C226.974 57.5914 226.989 57.6192 226.997 57.6402C227.058 57.7937 227.12 57.9331 227.182 58.0867C227.25 58.2329 227.312 58.3865 227.381 58.5327C227.388 58.5537 227.404 58.5815 227.411 58.6024C227.473 58.7418 227.548 58.8808 227.609 59.0202C227.625 59.048 227.632 59.069 227.647 59.0967C227.723 59.2357 227.784 59.3751 227.86 59.514C227.868 59.535 227.875 59.5418 227.883 59.5628C227.951 59.6949 228.026 59.8338 228.094 59.9659C228.102 59.9728 228.11 59.9937 228.117 60.0006C228.192 60.1395 228.26 60.2716 228.343 60.4032C228.358 60.431 228.366 60.452 228.381 60.4798C228.456 60.6046 228.531 60.7435 228.606 60.8683C228.614 60.8893 228.636 60.9098 228.644 60.9307C228.726 61.0624 228.808 61.194 228.891 61.3256L228.898 61.3324C228.98 61.4641 229.062 61.5957 229.144 61.7132C229.152 61.7342 229.167 61.7478 229.175 61.7688C229.256 61.8863 229.331 62.0111 229.42 62.1354C229.436 62.1632 229.45 62.1769 229.465 62.2046C229.547 62.3221 229.636 62.4465 229.718 62.564C229.733 62.5776 229.733 62.5917 229.748 62.6054C229.83 62.7229 229.918 62.8331 230 62.9506C230.007 62.9574 230.015 62.9642 230.015 62.9784C230.104 63.0886 230.186 63.2061 230.274 63.3162C230.289 63.3299 230.304 63.3577 230.319 63.3713C230.407 63.4815 230.489 63.5849 230.577 63.6951C230.592 63.7087 230.6 63.7297 230.621 63.7502C230.71 63.8604 230.806 63.9633 230.894 64.0734L230.902 64.0803C230.997 64.1832 231.078 64.2865 231.174 64.3894C231.188 64.4031 231.196 64.4099 231.21 64.4235C231.299 64.5196 231.387 64.6157 231.475 64.7117C231.489 64.7254 231.504 64.739 231.526 64.7595C231.614 64.8555 231.709 64.9443 231.79 65.0335C231.805 65.0472 231.812 65.054 231.827 65.0677C231.922 65.1564 232.01 65.2525 232.104 65.3271L232.112 65.3339C232.207 65.4227 232.294 65.5046 232.389 65.5792C232.403 65.5928 232.418 65.6065 232.425 65.6133C232.513 65.6953 232.607 65.7699 232.695 65.8377C232.709 65.8513 232.717 65.8581 232.731 65.8718C232.826 65.9464 232.92 66.021 233.007 66.0888C233.015 66.0956 233.015 66.0956 233.022 66.1025C233.109 66.1703 233.204 66.2449 233.298 66.3053C233.305 66.3122 233.312 66.319 233.32 66.3258C233.407 66.3936 233.501 66.4541 233.588 66.5078C233.602 66.5214 233.616 66.5209 233.631 66.5346C233.718 66.5882 233.812 66.6487 233.899 66.7024C233.906 66.7092 233.92 66.7087 233.935 66.7224C234.122 66.8292 234.295 66.9224 234.475 67.0082C234.482 67.0151 234.496 67.0146 234.504 67.0214C234.59 67.0609 234.676 67.1005 234.755 67.1331C234.762 67.14 234.777 67.1395 234.791 67.1531C234.877 67.1927 234.963 67.2181 235.049 67.2434C235.049 67.2434 235.056 67.2503 235.063 67.243C235.149 67.2683 235.235 67.2937 235.313 67.3123L235.327 67.3118C235.406 67.3304 235.484 67.3489 235.569 67.3602C235.584 67.3597 235.591 67.3665 235.605 67.366C235.773 67.3037 235.844 67.3155 235.922 67.3199C235.936 67.3194 235.936 67.3194 235.95 67.3189C236.106 67.3278 236.269 67.3293 236.417 67.3172C236.431 67.3168 236.431 67.3167 236.445 67.3163C236.523 67.3066 236.586 67.2973 236.656 67.2808C236.67 67.2803 236.677 67.273 236.691 67.2725C236.762 67.256 236.832 67.2395 236.901 67.2088C236.901 67.2088 236.908 67.2015 236.922 67.201C236.985 67.1776 237.055 67.147 237.125 67.1163L237.132 67.109C237.201 67.0783 237.264 67.0408 237.326 67.0033C237.333 66.996 237.347 66.9955 237.354 66.9882C237.416 66.9507 237.471 66.9064 237.533 66.8548C237.54 66.8475 237.547 66.8402 237.554 66.8329C237.602 66.7959 237.664 66.7442 237.719 66.6858C238.354 66.0345 238.775 64.8811 238.899 63.1081C239.566 52.7698 230.787 47.3727 227.555 45.7491C226.416 43.6723 225.18 41.6554 223.861 39.698L223.117 38.6196C220.804 35.3092 218.235 32.1702 215.454 29.2436C219.963 31.1705 231.402 35.3028 236.058 30.1C237.292 28.7209 237.709 27.4827 237.539 26.4201C237.532 26.4133 237.538 26.406 237.531 26.3992C237.478 26.0897 237.376 25.7889 237.225 25.511L237.218 25.5042C237.067 25.2263 236.867 24.9572 236.632 24.7105L236.625 24.7036C236.39 24.4569 236.106 24.2189 235.794 24.0102C235.787 24.0033 235.787 24.0033 235.78 23.9965C235.722 23.956 235.657 23.9087 235.592 23.8756C235.332 23.7146 235.05 23.5614 234.755 23.4087C234.748 23.4019 234.726 23.3956 234.719 23.3887C234.654 23.3556 234.583 23.3297 234.511 23.2897C234.503 23.2829 234.489 23.2833 234.482 23.2765C234.259 23.178 234.03 23.0867 233.786 22.9959C233.779 22.9891 233.765 22.9896 233.757 22.9828C233.686 22.9569 233.614 22.931 233.542 22.9052C233.521 22.8988 233.492 22.8856 233.471 22.8793C233.399 22.8534 233.335 22.8344 233.256 22.8158C233.235 22.8095 233.213 22.8031 233.185 22.79C232.949 22.7201 232.713 22.6503 232.478 22.5946C232.449 22.5815 232.421 22.5824 232.399 22.5761C232.335 22.557 232.264 22.5453 232.193 22.5336C232.157 22.5277 232.114 22.515 232.078 22.5092C232.007 22.4974 231.943 22.4784 231.872 22.4667C231.829 22.454 231.793 22.4481 231.744 22.4427C231.673 22.431 231.608 22.4119 231.544 22.407C231.509 22.4012 231.473 22.3953 231.438 22.3894C231.309 22.3655 231.181 22.3415 231.054 22.3317C231.004 22.3263 230.954 22.321 230.911 22.3083C230.847 22.3034 230.79 22.2911 230.727 22.2862C230.677 22.2809 230.62 22.2686 230.563 22.2706C230.5 22.2657 230.443 22.2534 230.379 22.2485C230.322 22.2363 230.265 22.2382 230.201 22.2333C230.137 22.2284 230.088 22.223 230.024 22.2181C229.939 22.2069 229.861 22.2025 229.769 22.1985C229.697 22.1868 229.627 22.1892 229.556 22.1775C229.478 22.173 229.414 22.1681 229.336 22.1637C229.286 22.1583 229.229 22.1602 229.18 22.1548C229.116 22.1499 229.045 22.1523 228.981 22.1474C228.925 22.1494 228.875 22.144 228.819 22.1459C228.748 22.1483 228.67 22.1439 228.606 22.139C228.556 22.1336 228.514 22.135 228.458 22.1369C228.337 22.134 228.224 22.1378 228.104 22.1348C228.075 22.1358 228.047 22.1367 228.012 22.1309C227.919 22.1269 227.828 22.1371 227.736 22.1332C227.693 22.1346 227.637 22.1365 227.594 22.138C227.524 22.1404 227.439 22.1432 227.368 22.1457C227.326 22.1471 227.269 22.149 227.227 22.1505C227.142 22.1533 227.065 22.163 226.98 22.1659C226.937 22.1674 226.895 22.1688 226.853 22.1702C226.733 22.1814 226.613 22.1925 226.493 22.2037C226.479 22.2042 226.458 22.212 226.436 22.2056C226.331 22.2163 226.225 22.227 226.119 22.2376C226.077 22.2391 226.042 22.2473 225.992 22.2561C225.915 22.2658 225.823 22.276 225.746 22.2857C225.703 22.2871 225.654 22.2959 225.619 22.3041C225.535 22.3212 225.45 22.324 225.366 22.3411C225.33 22.3493 225.288 22.3508 225.253 22.359C225.126 22.3775 225.014 22.3955 224.894 22.4207C224.88 22.4212 224.873 22.4285 224.866 22.4217C224.753 22.4397 224.648 22.4645 224.535 22.4825C224.5 22.4907 224.465 22.499 224.416 22.5077C224.332 22.5248 224.247 22.5418 224.17 22.5656C224.128 22.5812 224.086 22.5826 224.044 22.5982C223.96 22.6152 223.883 22.6391 223.798 22.6561C223.763 22.6644 223.728 22.6726 223.693 22.6809C223.581 22.713 223.462 22.7383 223.343 22.7777C223.343 22.7777 223.336 22.785 223.329 22.7782C223.216 22.8103 223.104 22.8424 222.992 22.8745C222.957 22.8828 222.922 22.891 222.887 22.9134C222.81 22.9373 222.727 22.9684 222.65 22.9923C222.608 23.0079 222.573 23.0161 222.531 23.0317C222.454 23.0555 222.37 23.0867 222.3 23.1174C222.265 23.1256 222.23 23.148 222.195 23.1563C222.084 23.2025 221.979 23.2415 221.867 23.2877C220.221 23.9663 218.897 24.5914 217.841 25.1509C217.535 25.3169 217.258 25.4679 216.994 25.6183C216.73 25.7688 216.487 25.9115 216.266 26.0605C215.933 26.2699 215.636 26.471 215.381 26.6566C215.298 26.716 215.215 26.7754 215.132 26.8348C214.815 27.072 214.567 27.2785 214.361 27.4695C214.306 27.5138 214.265 27.5577 214.217 27.6088C214.149 27.6819 214.073 27.7481 214.019 27.8066C212.29 26.0824 210.48 24.4317 208.601 22.8683L207.124 21.6661C204.369 19.4887 201.471 17.4929 198.452 15.6993C203.485 16.1721 217.978 16.8895 218.744 9.65392C218.776 9.34153 218.794 9.05789 218.799 8.77473C218.796 8.70406 218.801 8.64022 218.799 8.56955L218.798 8.55542C218.796 8.48475 218.794 8.42821 218.785 8.36485L218.784 8.35071C218.782 8.29418 218.773 8.23081 218.771 8.17428L218.771 8.16014C218.767 8.06121 218.758 7.99784 218.756 7.94131L218.756 7.92717C218.754 7.87064 218.738 7.81458 218.736 7.75805C218.729 7.75122 218.735 7.74391 218.728 7.73709C218.719 7.68786 218.71 7.62449 218.701 7.57527C218.694 7.56844 218.701 7.56113 218.694 7.5543C218.685 7.50507 218.669 7.44902 218.66 7.39979C218.653 7.39296 218.66 7.38566 218.652 7.37883C218.643 7.3296 218.635 7.28037 218.612 7.23162C218.605 7.2248 218.611 7.21749 218.604 7.21066C218.595 7.16143 218.58 7.11951 218.557 7.07076C218.55 7.06394 218.556 7.05663 218.549 7.0498C218.533 7.00788 218.525 6.95865 218.502 6.90991C218.495 6.90308 218.501 6.89577 218.494 6.88894C218.478 6.84702 218.463 6.8051 218.44 6.75635C218.433 6.74953 218.44 6.74222 218.432 6.73539C218.417 6.69347 218.401 6.65155 218.371 6.61011C218.364 6.60328 218.371 6.59597 218.364 6.58915C218.348 6.54722 218.326 6.51261 218.303 6.46386C218.295 6.45704 218.295 6.45703 218.295 6.4429C218.273 6.40828 218.257 6.36636 218.227 6.32492C218.22 6.3181 218.22 6.31809 218.219 6.30396C218.197 6.26935 218.175 6.23473 218.145 6.19329C218.138 6.18647 218.138 6.18646 218.13 6.17964C218.108 6.14502 218.086 6.11041 218.056 6.06897C218.049 6.06214 218.049 6.06214 218.041 6.05531C218.019 6.0207 217.982 5.98656 217.96 5.95195C217.953 5.94512 217.953 5.94512 217.945 5.9383C217.923 5.90368 217.886 5.86955 217.857 5.84224L217.85 5.83541C217.821 5.8081 217.784 5.77397 217.762 5.73936L217.754 5.73253C217.725 5.70522 217.689 5.67109 217.659 5.64378L217.652 5.63695C217.623 5.60965 217.586 5.57551 217.55 5.55551C217.55 5.55551 217.55 5.55551 217.543 5.54869C217.506 5.51455 217.47 5.49455 217.434 5.46042C217.39 5.43359 217.361 5.40628 217.318 5.37946C216.392 4.7883 215.093 4.6697 213.58 4.89801C213.517 4.90723 213.453 4.91646 213.39 4.92569C213.39 4.92569 213.39 4.92569 213.383 4.933C213.32 4.94223 213.256 4.95145 213.2 4.96751L213.186 4.96799C213.123 4.97722 213.067 4.99327 213.003 5.0025C212.996 5.00981 212.989 5.00298 212.982 5.01029C212.919 5.01951 212.863 5.03557 212.793 5.05211C212.786 5.05941 212.779 5.05259 212.772 5.05989C212.708 5.06912 212.652 5.08517 212.589 5.10854C212.575 5.10902 212.569 5.11633 212.561 5.1095C212.505 5.12556 212.442 5.13478 212.379 5.15814C212.365 5.15863 212.358 5.16593 212.344 5.16641C212.288 5.18247 212.224 5.1917 212.162 5.21506C212.147 5.21554 212.141 5.22284 212.126 5.22333C212.07 5.23938 212.014 5.25544 211.944 5.27197C211.93 5.27245 211.923 5.27976 211.909 5.28024C211.853 5.2963 211.79 5.31966 211.734 5.33571C211.72 5.33619 211.713 5.3435 211.692 5.35129C211.636 5.36734 211.573 5.3907 211.517 5.40676C211.503 5.40724 211.489 5.42185 211.475 5.42233C211.419 5.43839 211.356 5.46175 211.3 5.47781C211.286 5.47829 211.265 5.48607 211.258 5.49338C211.202 5.50944 211.139 5.5328 211.083 5.54885C211.069 5.54933 211.048 5.55712 211.041 5.56443C210.985 5.58048 210.922 5.60384 210.866 5.6199C210.845 5.62769 210.831 5.62817 210.818 5.64278C210.762 5.65884 210.699 5.6822 210.643 5.69826C210.622 5.70604 210.608 5.70652 210.594 5.72114C210.538 5.73719 210.475 5.76055 210.419 5.79074C210.398 5.79853 210.384 5.79901 210.371 5.81362C210.308 5.83699 210.259 5.85987 210.196 5.88323C210.175 5.89102 210.161 5.8915 210.14 5.89928C210.077 5.92265 210.028 5.94553 209.966 5.96889C209.945 5.97668 209.924 5.98447 209.917 5.99177C209.854 6.01514 209.805 6.03802 209.742 6.06138C209.721 6.06917 209.7 6.07696 209.694 6.08426C209.631 6.10763 209.582 6.13051 209.519 6.15387C209.498 6.16166 209.477 6.16944 209.463 6.18406C209.401 6.20742 209.345 6.23761 209.289 6.25366C209.268 6.26145 209.247 6.26924 209.226 6.27702C209.163 6.30039 209.108 6.33058 209.045 6.35394C209.024 6.36173 209.003 6.36951 208.996 6.37682C208.933 6.40018 208.877 6.43037 208.815 6.45373C208.794 6.46152 208.773 6.46931 208.759 6.48392C208.703 6.51411 208.641 6.53747 208.585 6.56766C208.564 6.57545 208.55 6.59007 208.529 6.59785C208.474 6.62804 208.411 6.65141 208.355 6.68159C208.334 6.68938 208.313 6.69717 208.3 6.71178C208.244 6.74197 208.181 6.76533 208.126 6.79552C208.105 6.80331 208.091 6.81792 208.077 6.81841C208.021 6.84859 207.952 6.87926 207.896 6.90945C207.875 6.91724 207.862 6.93185 207.847 6.93233C207.792 6.96252 207.722 6.99319 207.667 7.02338C207.646 7.03117 207.639 7.03847 207.618 7.04626C207.555 7.08376 207.493 7.10712 207.43 7.14462C207.416 7.1451 207.402 7.15971 207.388 7.16019C207.326 7.19769 207.256 7.22836 207.194 7.26585C207.187 7.27316 207.173 7.27364 207.159 7.28825C207.089 7.31892 207.027 7.35642 206.958 7.40122C206.951 7.40853 206.937 7.40901 206.937 7.40901C206.86 7.44699 206.798 7.48448 206.721 7.52246C206.172 7.81704 205.631 8.13259 205.091 8.46227C205.028 8.49976 204.959 8.54457 204.897 8.58206C204.883 8.59668 204.869 8.59716 204.855 8.61177C204.8 8.64196 204.744 8.68628 204.689 8.71647C204.668 8.72426 204.647 8.74618 204.626 8.75397C204.571 8.78416 204.523 8.82117 204.467 8.85136C204.439 8.86646 204.419 8.88838 204.398 8.89617C204.35 8.93318 204.294 8.96337 204.253 8.99308C204.225 9.00817 204.197 9.02327 204.176 9.04519C204.128 9.08221 204.079 9.10508 204.031 9.1421C204.003 9.1572 203.969 9.1796 203.941 9.19469C203.9 9.2244 203.844 9.25459 203.803 9.2843C203.768 9.3067 203.74 9.3218 203.706 9.3442C203.664 9.37391 203.623 9.40362 203.567 9.43381C203.532 9.45621 203.505 9.47131 203.47 9.49371C203.429 9.52341 203.387 9.55313 203.346 9.58283C203.311 9.60523 203.277 9.62764 203.249 9.64273C203.207 9.67244 203.166 9.70215 203.124 9.73185C203.09 9.75425 203.055 9.77666 203.021 9.79906C202.979 9.82877 202.938 9.85848 202.896 9.88819C202.862 9.91059 202.827 9.93299 202.792 9.95539C202.751 9.9851 202.709 10.0148 202.668 10.0445C202.633 10.0669 202.599 10.0893 202.572 10.1185C202.53 10.1483 202.489 10.178 202.447 10.2077C202.413 10.2301 202.378 10.2525 202.351 10.2817C202.309 10.3114 202.275 10.3338 202.233 10.3635C202.199 10.3859 202.157 10.4156 202.13 10.4449C202.088 10.4746 202.054 10.497 202.02 10.5335C201.985 10.5559 201.944 10.5856 201.916 10.6148C201.875 10.6446 201.84 10.667 201.806 10.7035C201.771 10.7259 201.73 10.7556 201.703 10.7848C201.661 10.8145 201.627 10.8369 201.592 10.8735C201.558 10.8959 201.524 10.9324 201.489 10.9548C201.448 10.9845 201.42 11.0138 201.379 11.0435C201.344 11.0659 201.31 11.1024 201.276 11.1248C201.241 11.1472 201.207 11.1837 201.172 11.2061C201.138 11.2285 201.103 11.2651 201.069 11.2875C201.034 11.3099 201 11.3464 200.965 11.3688C200.931 11.3912 200.897 11.4278 200.862 11.4502C200.828 11.4726 200.793 11.5091 200.759 11.5315C200.724 11.5539 200.69 11.5904 200.655 11.6128C200.621 11.6352 200.587 11.6718 200.552 11.6942C200.517 11.7166 200.483 11.7531 200.449 11.7755C200.414 11.7979 200.38 11.8345 200.345 11.8569C200.311 11.8793 200.277 11.9158 200.242 11.9382C200.207 11.9606 200.173 11.9971 200.139 12.0195C200.111 12.0488 200.07 12.0785 200.043 12.1077C200.015 12.1369 199.974 12.1666 199.946 12.1959C199.919 12.2251 199.878 12.2548 199.85 12.284C199.823 12.3133 199.788 12.3357 199.754 12.3722C199.727 12.4014 199.686 12.4311 199.658 12.4604C199.631 12.4896 199.596 12.512 199.569 12.5412C199.542 12.5705 199.5 12.6002 199.473 12.6294C199.446 12.6586 199.411 12.681 199.384 12.7102C199.356 12.7395 199.315 12.7692 199.288 12.7984C199.26 12.8276 199.226 12.85 199.199 12.8793C199.171 12.9085 199.13 12.9382 199.102 12.9674C199.075 12.9967 199.041 13.0191 199.013 13.0483C198.986 13.0775 198.944 13.1072 198.917 13.1365C198.89 13.1657 198.863 13.1949 198.828 13.2173C198.801 13.2465 198.766 13.2831 198.732 13.3055C198.705 13.3347 198.677 13.3639 198.643 13.3863C198.615 13.4156 198.588 13.4448 198.547 13.4745C198.519 13.5037 198.492 13.533 198.465 13.5622C198.437 13.5914 198.403 13.628 198.376 13.6572C198.349 13.6864 198.321 13.7156 198.301 13.7376C198.274 13.7668 198.246 13.796 198.212 13.8326C198.185 13.8618 198.157 13.891 198.137 13.9129C198.11 13.9422 198.082 13.9714 198.055 14.0006C198.028 14.0299 198.007 14.0518 197.98 14.081C197.953 14.1102 197.925 14.1395 197.898 14.1687C197.871 14.1979 197.85 14.2198 197.823 14.2491C197.796 14.2783 197.768 14.3075 197.741 14.3368C197.714 14.366 197.693 14.3879 197.666 14.4171C197.639 14.4464 197.611 14.4756 197.584 14.5048C197.564 14.5267 197.536 14.556 197.516 14.5779C197.488 14.6071 197.461 14.6363 197.427 14.6729C197.407 14.6948 197.379 14.724 197.359 14.746C197.331 14.7752 197.297 14.8117 197.277 14.8478C197.27 14.8551 197.257 14.8697 197.25 14.877C195.028 13.6082 192.739 12.4549 190.397 11.4166C189.736 11.1278 189.075 10.8389 188.401 10.5647L187.16 10.0621C184.528 9.02655 181.851 8.11285 179.141 7.26395C183.773 7.00748 193.297 5.35375 196.723 -3.54294C197.393 -5.28495 197.527 -6.54181 197.257 -7.39582C197.257 -7.39582 197.25 -7.40265 197.257 -7.40995C197.233 -7.48697 197.202 -7.55668 197.172 -7.62639C197.172 -7.62639 197.164 -7.63322 197.171 -7.64052C197.14 -7.71023 197.103 -7.77263 197.072 -7.84234C196.99 -7.97398 196.901 -8.08416 196.799 -8.19387C196.747 -8.24166 196.696 -8.28945 196.638 -8.32993L196.631 -8.33676C196.573 -8.37724 196.515 -8.41772 196.45 -8.45089C196.45 -8.45089 196.45 -8.45089 196.443 -8.45772C196.248 -8.57138 196.033 -8.64897 195.798 -8.70465C195.798 -8.70465 195.79 -8.71148 195.784 -8.70417C195.705 -8.72273 195.62 -8.73399 195.541 -8.75254C195.541 -8.75254 195.534 -8.75937 195.527 -8.75207C195.271 -8.78582 194.995 -8.79766 194.699 -8.77344L194.685 -8.77296C194.586 -8.76959 194.494 -8.75941 194.388 -8.74874L194.374 -8.74826C194.064 -8.70942 193.734 -8.64867 193.39 -8.55917C193.383 -8.55186 193.376 -8.55868 193.369 -8.55137C193.257 -8.51926 193.152 -8.49446 193.033 -8.45504C193.026 -8.44774 193.012 -8.44726 193.012 -8.44726C192.9 -8.41515 192.781 -8.37573 192.662 -8.33631L192.655 -8.32901C192.417 -8.25017 192.166 -8.15672 191.914 -8.06328C191.907 -8.05597 191.893 -8.05549 191.893 -8.05549C191.767 -8.00876 191.649 -7.95521 191.523 -7.90849C191.509 -7.90801 191.502 -7.9007 191.481 -7.89291C191.363 -7.83936 191.23 -7.78533 191.112 -7.73178C191.105 -7.72447 191.091 -7.72399 191.091 -7.72399C190.833 -7.6091 190.575 -7.48008 190.304 -7.35058C190.297 -7.34327 190.283 -7.34278 190.276 -7.33548C190.151 -7.27462 190.019 -7.20645 189.894 -7.13146C189.873 -7.12367 189.866 -7.11637 189.845 -7.10858C189.713 -7.04042 189.588 -6.96542 189.456 -6.89726C189.449 -6.88995 189.428 -6.88217 189.422 -6.87486C189.158 -6.72439 188.88 -6.55931 188.603 -6.39423C188.596 -6.38693 188.582 -6.38645 188.575 -6.37914C188.444 -6.29684 188.312 -6.21454 188.18 -6.13224C188.159 -6.12446 188.146 -6.10984 188.125 -6.10205C187.993 -6.01975 187.861 -5.93745 187.737 -5.84833C187.724 -5.83371 187.703 -5.82593 187.689 -5.81131C187.55 -5.72171 187.426 -5.63258 187.288 -5.54297C187.281 -5.53567 187.274 -5.52835 187.26 -5.52787C187.121 -5.43827 186.99 -5.34183 186.859 -5.2454C186.852 -5.23809 186.845 -5.23079 186.831 -5.23031C186.7 -5.13387 186.569 -5.03744 186.438 -4.94101C186.424 -4.9264 186.396 -4.9113 186.383 -4.89668C186.252 -4.80025 186.12 -4.70382 185.997 -4.60056C185.976 -4.57864 185.955 -4.57085 185.935 -4.54893C185.804 -4.45249 185.673 -4.34193 185.542 -4.2455C185.528 -4.23088 185.514 -4.2304 185.5 -4.21578C185.362 -4.11204 185.238 -4.00878 185.108 -3.89821C185.101 -3.89091 185.094 -3.8836 185.087 -3.87629C184.957 -3.76572 184.826 -3.65516 184.695 -3.54459C184.675 -3.52267 184.654 -3.51488 184.633 -3.49296C184.51 -3.3897 184.379 -3.27913 184.262 -3.16905C184.242 -3.14713 184.214 -3.13203 184.194 -3.11011C184.063 -2.99954 183.946 -2.88946 183.816 -2.77889C183.802 -2.76427 183.782 -2.74235 183.761 -2.73457C183.637 -2.61717 183.5 -2.4993 183.376 -2.3819L183.37 -2.37459C183.246 -2.2572 183.116 -2.1325 182.993 -2.01511C182.972 -1.99318 182.959 -1.97857 182.938 -1.95665C182.815 -1.83926 182.691 -1.72186 182.582 -1.60495C182.562 -1.58303 182.541 -1.56111 182.521 -1.53918C182.397 -1.42179 182.281 -1.29757 182.172 -1.18065C182.151 -1.15873 182.138 -1.14412 182.117 -1.12219C181.994 -0.990666 181.878 -0.866445 181.756 -0.734916C181.749 -0.727609 181.749 -0.727609 181.742 -0.720302C181.626 -0.59608 181.503 -0.464553 181.387 -0.340332C181.373 -0.325718 181.353 -0.303796 181.339 -0.289181C181.223 -0.16496 181.114 -0.0339171 180.998 0.090304C180.978 0.112226 180.957 0.134146 180.937 0.156068C180.828 0.287118 180.719 0.404032 180.61 0.535081C180.59 0.557003 180.569 0.578923 180.556 0.607674C180.447 0.738723 180.338 0.869767 180.223 1.00812C180.216 1.01543 180.202 1.03005 180.196 1.03735C180.087 1.1684 179.985 1.30627 179.877 1.43732C179.863 1.45194 179.849 1.46655 179.843 1.48799C179.742 1.62586 179.633 1.75692 179.538 1.88748C179.518 1.9094 179.504 1.93815 179.484 1.96008C179.389 2.09064 179.288 2.22852 179.193 2.35908C179.173 2.38101 179.16 2.40975 179.139 2.43168C179.038 2.56955 178.95 2.70695 178.856 2.85165C178.843 2.86626 178.836 2.8877 178.829 2.89501C178.742 3.0324 178.648 3.17711 178.561 3.3145C178.554 3.32181 178.548 3.34325 178.541 3.35055C178.447 3.49525 178.359 3.63265 178.279 3.77687C178.266 3.80562 178.246 3.82754 178.239 3.84898C178.152 3.98638 178.072 4.1306 177.999 4.26751C177.986 4.29626 177.965 4.31818 177.952 4.34693C177.872 4.49115 177.792 4.63537 177.719 4.77229C177.712 4.79373 177.699 4.80834 177.692 4.82979C177.612 4.97401 177.54 5.12505 177.46 5.26928C177.453 5.27658 177.446 5.28389 177.453 5.29072C177.381 5.44177 177.308 5.59281 177.242 5.73655C177.236 5.75799 177.223 5.78674 177.209 5.80136C177.143 5.9451 177.077 6.08884 177.011 6.23258C176.998 6.26133 176.985 6.29008 176.979 6.31152C176.946 6.39046 176.913 6.46939 176.874 6.55564C172.8 5.34978 168.68 4.25162 164.594 3.10279L162.666 2.55986C160.401 1.90808 158.149 1.22756 155.923 0.48954C160.163 -1.52945 173.448 -8.27773 174.286 -13.3791C174.537 -14.9371 174.004 -16.051 172.99 -16.7382C172.976 -16.7519 172.962 -16.7514 172.947 -16.7651C172.766 -16.8792 172.579 -16.986 172.37 -17.0851C172.349 -17.0914 172.341 -17.0982 172.32 -17.1046C172.112 -17.1895 171.89 -17.2739 171.661 -17.3369C171.64 -17.3432 171.626 -17.3428 171.604 -17.3491C171.483 -17.3804 171.369 -17.4048 171.247 -17.436C171.247 -17.436 171.24 -17.4429 171.233 -17.4356C171.119 -17.46 170.998 -17.4771 170.87 -17.501C170.849 -17.5074 170.835 -17.5069 170.813 -17.5133C170.692 -17.5304 170.557 -17.547 170.43 -17.5568C170.416 -17.5563 170.408 -17.5632 170.394 -17.5627C170.266 -17.5725 170.146 -17.5755 170.018 -17.5853C170.004 -17.5848 169.983 -17.5912 169.962 -17.5834C169.827 -17.5859 169.693 -17.5884 169.551 -17.5836C169.537 -17.5831 169.509 -17.5821 169.495 -17.5817C169.368 -17.5773 169.241 -17.573 169.106 -17.5614C169.092 -17.5609 169.078 -17.5604 169.057 -17.5526C168.916 -17.5478 168.775 -17.5289 168.634 -17.51C168.606 -17.509 168.585 -17.5012 168.564 -17.5076C168.43 -17.4959 168.296 -17.4702 168.162 -17.4585C168.148 -17.4581 168.134 -17.4576 168.12 -17.4571C167.979 -17.4382 167.831 -17.4119 167.683 -17.3857C167.655 -17.3847 167.627 -17.3696 167.599 -17.3687C167.459 -17.3356 167.318 -17.3167 167.171 -17.2763C167.164 -17.269 167.156 -17.2758 167.15 -17.2685C167.002 -17.2281 166.848 -17.1946 166.701 -17.1542C166.666 -17.1459 166.645 -17.1381 166.609 -17.1299C166.315 -17.0491 166.014 -16.9469 165.721 -16.8379C165.686 -16.8296 165.658 -16.8145 165.623 -16.8063C165.476 -16.7517 165.329 -16.6972 165.176 -16.6354C165.169 -16.6281 165.155 -16.6276 165.155 -16.6276C165.015 -16.5663 164.883 -16.5123 164.743 -16.4509C164.716 -16.4358 164.674 -16.4202 164.646 -16.4052C164.5 -16.3365 164.36 -16.2752 164.221 -16.1997C164.2 -16.1919 164.187 -16.1773 164.166 -16.1695C164.034 -16.1013 163.908 -16.0405 163.784 -15.9655C163.756 -15.9504 163.721 -15.928 163.693 -15.9129C163.554 -15.8374 163.423 -15.7551 163.277 -15.6723C163.249 -15.6573 163.236 -15.6426 163.208 -15.6275C163.083 -15.5526 162.972 -15.478 162.848 -15.403C162.82 -15.388 162.785 -15.3656 162.765 -15.3436C162.626 -15.254 162.502 -15.1649 162.371 -15.0685C162.343 -15.0534 162.316 -15.0241 162.288 -15.009C162.17 -14.9272 162.06 -14.8386 161.95 -14.7499C161.93 -14.728 161.902 -14.7129 161.881 -14.691C161.757 -14.5877 161.634 -14.4845 161.51 -14.3812C161.482 -14.352 161.455 -14.3369 161.427 -14.3077C161.318 -14.2049 161.207 -14.1162 161.105 -14.0066C161.091 -13.992 161.071 -13.9701 161.057 -13.9555C160.941 -13.8454 160.825 -13.7212 160.708 -13.6111C160.681 -13.5819 160.653 -13.5526 160.626 -13.5234C160.524 -13.4138 160.415 -13.2969 160.319 -13.1804C160.313 -13.1731 160.299 -13.1585 160.292 -13.1512C160.183 -13.0202 160.081 -12.8964 159.973 -12.7654C159.945 -12.7362 159.925 -12.7001 159.898 -12.6709C159.797 -12.533 159.688 -12.4019 159.601 -12.2646C156.659 -8.04687 155.392 -4.09834 154.841 -1.58915C154.694 -0.904955 154.601 -0.335757 154.538 0.112105C150.894 -1.14373 147.308 -2.5784 143.852 -4.32882L143.787 -4.36199C143.744 -4.38882 143.694 -4.40833 143.65 -4.43516L142.527 -5.0196C142.527 -5.0196 142.527 -5.01959 142.513 -5.01912C142.433 -5.06594 142.347 -5.10547 142.268 -5.15229L142.232 -5.17229C141.489 -5.57865 140.753 -5.99231 140.024 -6.42741C131.242 -11.6759 123.737 -18.9064 118.147 -27.4684C117.61 -28.2992 116.418 -27.3318 116.949 -26.5079C121.89 -18.9356 128.346 -12.3699 135.82 -7.28924C137.537 -6.12356 139.314 -5.05191 141.116 -4.06603L142.564 -3.3016C146.237 -1.4029 150.061 0.172242 153.971 1.53933C153.883 1.64846 153.802 1.76441 153.721 1.88036C153.7 1.90228 153.68 1.93834 153.66 1.96026C153.551 2.10544 153.45 2.25745 153.35 2.40946C153.336 2.42408 153.336 2.43821 153.323 2.45283C153.229 2.59753 153.134 2.74223 153.04 2.88693C153.027 2.91568 153.013 2.93029 152.993 2.95221C152.906 3.10374 152.812 3.24844 152.725 3.39997C152.712 3.42872 152.692 3.46477 152.672 3.48669C152.585 3.63822 152.505 3.78244 152.432 3.93349C152.426 3.95493 152.405 3.97686 152.399 3.9983C152.326 4.14935 152.253 4.28626 152.18 4.43731C152.174 4.45875 152.167 4.46606 152.153 4.48067C152.081 4.63172 152.015 4.78959 151.95 4.93334C151.936 4.96208 151.923 4.99083 151.91 5.01958C151.851 5.17014 151.786 5.31389 151.734 5.47128C151.721 5.50003 151.715 5.52148 151.702 5.55022C151.643 5.70079 151.592 5.85819 151.533 6.00875L151.526 6.01606C151.475 6.17345 151.424 6.33085 151.373 6.48824C151.359 6.51699 151.36 6.54526 151.347 6.57401C151.303 6.72409 151.258 6.87418 151.221 7.0311C151.215 7.06667 151.202 7.09542 151.203 7.12369C151.166 7.28061 151.122 7.43069 151.091 7.5803C151.092 7.59443 151.086 7.61588 151.079 7.62318C151.048 7.77279 151.011 7.91557 150.987 8.05787C150.981 8.07931 150.982 8.10758 150.976 8.12902C150.945 8.27863 150.922 8.43506 150.899 8.57736C150.893 8.61293 150.894 8.64121 150.888 8.67678C150.872 8.8259 150.842 8.97552 150.825 9.12464C150.819 9.14608 150.82 9.17435 150.814 9.19579C150.798 9.34492 150.781 9.47992 150.772 9.62174C150.772 9.63587 150.766 9.65731 150.766 9.67144C150.75 9.82057 150.748 9.96922 150.739 10.1252C150.74 10.1534 150.734 10.189 150.735 10.2173C150.733 10.3659 150.724 10.5077 150.722 10.6564C150.723 10.6847 150.724 10.7129 150.725 10.7412C150.723 10.8898 150.721 11.0385 150.719 11.1871L150.719 11.2013C150.717 11.3499 150.722 11.5054 150.735 11.6536C150.735 11.6818 150.736 11.7101 150.737 11.7384C150.742 11.8797 150.754 12.0279 150.759 12.1692C150.76 12.1975 150.761 12.2257 150.769 12.2608C150.781 12.409 150.794 12.5572 150.812 12.698C150.813 12.7122 150.813 12.7263 150.814 12.7404C150.826 12.8745 150.844 13.0153 150.863 13.1562C150.864 13.1845 150.872 13.2054 150.873 13.2337C150.892 13.3745 150.911 13.5154 150.937 13.649C150.989 13.725 150.99 13.7533 150.998 13.7884Z" fill="#3D4775"/>
<path d="M144.682 56.7654C144.682 56.7654 86.0097 -0.171448 34.434 -10.956C16.9344 -14.6175 3.06774 -13.5607 -7.61414 -10.5566C-29.8875 -4.30052 -37.2783 23.1293 -21.1326 39.5926C-13.39 47.4883 -1.91222 55.2797 15.0932 60.7859C65.2062 77.0071 144.682 56.7654 144.682 56.7654Z" fill="#2F8C91"/>
<path d="M9.65358 22.576C13.1714 23.5017 16.6838 24.4314 20.2017 25.3571C23.1872 38.3349 26.1672 51.3167 29.1567 64.2999C29.5778 64.3792 29.9988 64.4585 30.4212 64.5285C27.4449 51.5856 24.4686 38.6427 21.4923 25.6999C24.8133 26.5761 28.1439 27.4537 31.4649 28.33C34.5199 40.7005 37.02 53.1963 38.9521 65.7769C39.3544 65.8198 39.7552 65.8721 40.1575 65.9149C38.2493 53.4003 35.7812 40.9813 32.7651 28.6742C35.9599 29.5165 39.1547 30.3589 42.3495 31.2013C44.7278 43.0364 47.102 54.866 49.4802 66.7011C49.8854 66.7252 50.2906 66.7494 50.7013 66.7696C48.3426 55.0286 45.9853 43.2782 43.6267 31.5372C46.9762 32.4178 50.3243 33.3077 53.6739 34.1884C56.8515 45.0401 59.5817 56.0145 61.8444 67.0844C62.2485 67.0844 62.647 67.0884 63.047 67.083C60.8145 56.1327 58.1295 45.2755 55.0026 34.537C58.4498 35.447 61.8971 36.3571 65.3498 37.2632C68.0691 47.0478 70.3629 56.9393 72.2166 66.9066C72.6126 66.8959 73.01 66.8757 73.406 66.8649C71.581 57.0266 69.335 47.267 66.669 37.6103C69.4757 38.3497 72.2864 39.0945 75.093 39.8339C77.9102 48.575 80.3249 57.4312 82.3267 66.3771C82.7256 66.3476 83.1189 66.322 83.5178 66.2925C81.5569 57.4919 79.1966 48.7877 76.4448 40.1909C79.869 41.0926 83.2932 41.9943 86.7174 42.896C89.8433 50.1421 92.1693 57.6817 93.6693 65.4005C94.0601 65.3601 94.4509 65.3198 94.8472 65.2755C93.3878 57.7355 91.1418 50.3711 88.1492 43.2701C89.3137 43.579 90.4836 43.884 91.6481 44.1929C91.8005 44.3409 92.0174 44.4175 92.2561 44.3537C93.103 44.5753 93.9444 44.8009 94.7913 45.0225C97.9258 51.173 99.9064 57.797 100.654 64.6189C101.046 64.5692 101.433 64.5235 101.825 64.4738C101.089 57.8597 99.2294 51.4315 96.3018 45.4231C98.8696 46.1017 101.433 46.7749 104.001 47.4535C106.155 52.6719 107.909 58.0203 109.257 63.4785C109.651 63.4194 110.039 63.3643 110.432 63.3053C109.133 58.0366 107.454 52.8674 105.414 47.8247C107.8 48.4513 110.184 49.0873 112.57 49.7139C113.441 53.3787 114.312 57.034 115.182 60.6988C115.328 61.3009 115.466 61.9163 115.612 62.5184C116.002 62.4539 116.386 62.3934 116.77 62.3329C116.554 61.4324 116.356 60.5349 116.148 59.6453C115.391 56.4483 114.628 53.2552 113.871 50.0582C115.891 50.5901 117.903 51.1207 119.924 51.6527C121.267 54.7772 122.48 57.9535 123.544 61.1788C123.94 61.1103 124.331 61.0365 124.716 60.9667C123.722 57.9486 122.605 54.9692 121.364 52.0376C123.721 52.6598 126.074 53.2766 128.426 53.9028C129.194 55.8702 129.869 57.8619 130.443 59.8856C130.839 59.8079 131.226 59.7286 131.608 59.6533C131.09 57.8393 130.497 56.0376 129.826 54.2671C131.248 54.6397 132.665 55.0163 134.087 55.389C134.546 56.5471 135.01 57.7014 135.465 58.8542C135.867 58.7725 136.25 58.6878 136.628 58.6071C136.249 57.6576 135.87 56.7081 135.495 55.7641C137.619 56.3215 139.737 56.883 141.865 57.4459C143.693 57.0188 144.682 56.7641 144.682 56.7641C144.682 56.7641 143.971 56.0701 142.634 54.8292C140.268 54.2055 137.901 53.5818 135.534 52.9581C136.671 52.4964 137.763 51.951 138.816 51.3421C138.516 51.0755 138.213 50.8036 137.901 50.5208C136.532 51.2822 135.089 51.9314 133.568 52.4442C131.917 52.0123 130.266 51.571 128.615 51.139C130.832 50.2403 132.941 49.1619 134.941 47.9039C134.642 47.6373 134.337 47.3747 134.024 47.1012C131.903 48.4126 129.643 49.5251 127.276 50.4152C127.116 50.472 127.017 50.5765 126.955 50.6962C123.915 49.8921 120.879 49.0934 117.839 48.2892C121.511 46.4842 125.11 44.5482 128.64 42.4962C128.325 42.2321 128.007 41.9626 127.683 41.697C123.908 43.8838 120.048 45.9328 116.112 47.8362C113.38 47.1179 110.644 46.3941 107.912 45.6758C112.917 43.1183 117.86 40.4313 122.727 37.6322C122.403 37.3666 122.077 37.1104 121.743 36.8434C116.643 39.7694 111.464 42.5684 106.209 45.2311C102.859 44.3505 99.5057 43.4645 96.1562 42.5839C102.901 39.4132 109.516 35.9877 115.992 32.3205C115.657 32.0628 115.322 31.8052 114.983 31.5421C108.263 35.3347 101.389 38.8639 94.3822 42.1235C92.1741 41.5434 89.9619 40.958 87.7537 40.3779C94.518 35.6965 101.282 31.015 108.047 26.3336C107.714 26.0907 107.382 25.8478 107.045 25.5995C100.118 30.39 93.1949 35.1859 86.2622 39.9803C81.9776 38.8501 77.6929 37.7199 73.4083 36.5897C82.9643 32.0513 92.2583 27.0031 101.248 21.4672C100.896 21.2213 100.549 20.9809 100.197 20.7351C90.981 26.3845 81.4535 31.5261 71.6494 36.1268C67.7244 35.0952 63.8048 34.0596 59.8758 33.0226C69.6727 26.5142 79.4752 20.0018 89.2721 13.4934C88.9082 13.2648 88.5498 13.0323 88.19 12.8092C78.2466 19.4147 68.3032 26.0203 58.3638 32.6313C56.8668 32.2376 55.3698 31.8439 53.8783 31.4462C52.0583 30.9691 50.2398 30.4827 48.4197 30.0056C58.9984 22.6597 69.5825 15.3098 80.1611 7.96382C79.7903 7.74855 79.4155 7.52788 79.0392 7.31655C68.34 14.7493 57.6314 22.1806 46.9323 29.6134C44.1256 28.874 41.3189 28.1346 38.5123 27.3952C48.5943 18.8517 58.6763 10.3082 68.7544 1.75926C68.3752 1.56665 67.996 1.37405 67.6114 1.18539C57.506 9.75403 47.3965 18.3173 37.2911 26.8859C37.2349 26.9347 37.1977 26.9865 37.1605 27.0382C33.1473 25.9786 29.1382 24.9244 25.125 23.8648C36.2977 14.9099 47.4745 5.96036 58.6473 -2.99458C58.2407 -3.16746 57.8301 -3.34575 57.4235 -3.51863C46.1851 5.48367 34.9466 14.486 23.7121 23.4937C20.7046 22.6993 17.7011 21.9104 14.6936 21.1161C24.5221 11.2832 34.3519 1.4409 44.1804 -8.392C43.7531 -8.52497 43.3298 -8.65252 42.901 -8.77613C33.0601 1.07403 23.2098 10.9227 13.3689 20.7729C10.1701 19.9251 6.96979 19.0867 3.77095 18.2389C12.1521 7.78517 21.1221 -2.19449 30.6356 -11.6592C30.1521 -11.7433 29.678 -11.826 29.2026 -11.8993C19.7559 -2.45787 10.8487 7.49316 2.53042 17.9182C-2.66221 16.5522 -7.85339 15.1768 -13.046 13.8108C-5.56569 4.43015 2.36433 -4.58412 10.7031 -13.2192C10.1262 -13.2028 9.56273 -13.1795 8.99383 -13.1523C0.866064 -4.68583 -6.86099 4.14897 -14.1585 13.3231C-14.2012 13.3788 -14.2344 13.4359 -14.254 13.5C-16.4391 12.9283 -18.6228 12.3472 -20.8079 11.7755C-15.1722 4.03138 -9.53242 -3.70734 -3.90218 -11.4475C-4.49649 -11.3188 -5.08275 -11.1793 -5.65948 -11.0383C-11.1161 -3.53958 -16.5728 3.95911 -22.0334 11.4524C-24.194 10.8797 -26.3601 10.3109 -28.5167 9.74361C-28.7817 10.6081 -29.006 11.4933 -29.1963 12.3789C-28.5978 12.5383 -27.9993 12.6977 -27.4008 12.857C-25.9287 21.1032 -24.4567 29.3494 -22.9886 37.5902C-22.5177 38.1659 -22.0153 38.7272 -21.4925 39.282C-23.0408 30.5834 -24.5945 21.8886 -26.1467 13.1846C-24.2155 13.6979 -22.2828 14.202 -20.3516 14.7154C-18.4285 24.9904 -16.496 35.2669 -14.573 45.5419C-14.1178 45.9044 -13.6476 46.2643 -13.172 46.6203C-15.1445 36.0981 -17.121 25.5705 -19.088 15.0443C-16.09 15.8372 -13.096 16.6247 -10.098 17.4175C-8.12663 29.1132 -6.14978 40.8049 -4.17842 52.5006C-3.74393 52.7449 -3.30945 52.9891 -2.85997 53.2309C-4.85463 41.4023 -6.85476 29.5776 -8.84538 17.7544C-6.23004 18.4403 -3.61617 19.1357 -1.00083 19.8216C-0.926196 19.8427 -0.855595 19.8584 -0.78096 19.8795C1.9518 32.2243 4.02773 44.693 5.44855 57.2427C5.85914 57.421 6.27521 57.5953 6.69676 57.7657C5.29009 45.1559 3.21881 32.6257 0.500191 20.2207C0.836758 20.311 1.17333 20.4012 1.50586 20.486C1.57357 20.5204 1.64821 20.5415 1.71623 20.5424C3.90537 21.1195 6.0945 21.6966 8.28768 22.2791C12.194 35.284 15.4607 48.4585 18.0936 61.7651C18.5183 61.8833 18.9416 62.0109 19.3718 62.1251C16.7871 48.7588 13.5299 35.5858 9.65358 22.576Z" fill="#286F7F"/>
<path d="M66.2777 53.7256C67.6185 45.0175 62.4593 33.7668 60.4341 29.7782C65.2116 33.0683 70.0649 36.0383 74.9931 38.6731C76.3172 67.8153 91.4942 94.5768 91.4942 94.5768C91.4942 94.5768 89.2497 88.1063 87.0058 69.8504C85.0225 53.7362 78.5562 42.9365 76.0011 39.2065C80.645 41.6403 85.3384 43.7762 90.0779 45.6082C91.7965 46.2721 93.5221 46.8934 95.2489 47.4753C99.6752 55.2239 96.6485 68.7788 99.1194 81.475C100.976 91.0303 115.346 99.7419 115.346 99.7419C115.346 99.7419 103.306 90.671 104.788 75.7838C105.973 63.8935 98.4501 51.8822 95.3729 47.516C100.872 49.3588 106.421 50.7947 111.999 51.8126C112.477 54.4782 114.164 63.375 116.741 72.0873C119.782 82.3506 130.829 104.175 130.829 104.175C130.829 104.175 130.52 94.5949 127.332 81.4542C124.753 70.8381 114.97 55.6872 112.451 51.8984C117.089 52.7248 121.747 53.2695 126.422 53.5265C127.203 56.1504 129.886 65.022 133.14 74.1229C137.02 84.9652 154.465 109.481 154.465 109.481C154.465 109.481 151.6 101.429 145.642 84.1496C140.516 69.2955 129.837 56.7709 126.938 53.5464C131.153 53.7601 135.378 53.7438 139.609 53.4916C142.639 55.0189 151.738 58.2166 170.423 54.721C192.399 50.6126 199.123 47.5895 199.123 47.5895C199.123 47.5895 158.897 41.1494 139.816 51.9305C135.98 52.168 132.223 52.2 128.542 52.066C132.119 49.2907 144.804 39.0152 154.891 25.2501C166.749 9.06147 169.694 3.78963 169.694 3.78963C169.694 3.78963 144.472 25.7856 137.362 36.3992C131.754 44.7746 128.902 50.1426 127.943 52.037C122.917 51.8175 118.036 51.263 113.322 50.4394C116.784 47.6806 129.68 36.7475 134.002 24.0415C139.013 9.30917 149.348 1.83544 149.348 1.83544C149.348 1.83544 137.747 6.4858 128.055 24.627C120.013 39.6754 114.585 47.9836 112.962 50.3804C106.777 49.2765 100.873 47.7088 95.2758 45.7881C98.5079 43.6816 108.198 36.6762 113.99 25.1723C121.021 11.2104 134.009 -2.50639 134.009 -2.50639C134.009 -2.50639 113.727 10.6195 103.437 26.71C96.0156 38.3143 94.4934 43.4512 94.2212 45.4197C87.8644 43.186 81.9037 40.5113 76.3738 37.609C79.3738 36.179 89.0456 30.918 98.231 18.7913C109.283 4.20422 117.805 -7.10285 117.805 -7.10285C117.805 -7.10285 82.0757 20.1069 75.6918 37.2538C70.2128 34.3314 65.1681 31.1873 60.5876 27.9986C63.34 27.0523 71.5486 23.5354 77.8374 13.7655C85.5 1.85907 90.6595 -1.66445 98.0984 -5.45775C98.0984 -5.45775 81.4739 -0.223251 75.3237 7.96095C68.132 17.535 65.1395 25.078 60.4203 27.881C57.3613 25.7503 54.518 23.6025 51.8907 21.5071C30.8027 4.63421 18.8345 -13.218 18.7098 -13.3977C18.4697 -13.7544 17.9921 -13.8573 17.6313 -13.6293C17.5872 -13.5974 17.543 -13.5655 17.5022 -13.5277C17.2553 -13.2767 17.2078 -12.8791 17.4093 -12.5633C17.528 -12.3803 29.6083 5.64297 50.8777 22.6722C53.7689 24.9874 56.6965 27.1744 59.6578 29.2422C59.696 32.8761 59.8017 46.1445 59.294 54.8697C58.7027 65.0576 74.3271 84.4742 74.3271 84.4742C74.3271 84.4742 64.6174 64.4975 66.2777 53.7256Z" fill="#E5674E"/>
<path d="M267.32 109.138C267.32 109.138 358.725 93.5303 394.106 52.8026C406.112 38.9777 411.091 25.3051 412.418 13.2695C415.196 -11.8329 387.08 -37.6015 361.021 -33.8542C348.52 -32.0573 334.471 -26.7064 320.567 -14.6138C279.619 21.0015 267.32 109.138 267.32 109.138Z" fill="#BAE3DD"/>
<path d="M366.761 6.58483C364.125 9.22983 361.502 11.8755 358.866 14.5205C342.67 8.37808 326.468 2.22931 310.273 -3.91306C309.993 -3.57701 309.72 -3.23457 309.448 -2.89212C325.603 3.23623 341.757 9.36458 357.904 15.4865C355.42 17.9882 352.922 20.4892 350.438 22.9908C334.904 17.3268 319.479 11.0712 304.21 4.21428C303.975 4.55858 303.741 4.90287 303.511 5.24139C318.692 12.0639 334.029 18.3152 349.466 23.9685C347.08 26.3724 344.681 28.7758 342.295 31.1797C327.682 25.2591 313.063 19.3321 298.45 13.4115C298.239 13.775 298.032 14.1327 297.828 14.5026C312.331 20.3817 326.835 26.2609 341.339 32.14C338.826 34.6584 336.326 37.1774 333.814 39.6958C319.965 35.193 306.181 30.193 292.488 24.697C292.309 25.0681 292.125 25.445 291.946 25.8161C305.485 31.2624 319.117 36.2249 332.81 40.6959C330.232 43.2895 327.648 45.8889 325.063 48.476C312.64 44.2839 300.288 39.6188 288.039 34.4886C287.881 34.8667 287.717 35.2506 287.558 35.6287C299.638 40.6965 311.823 45.3112 324.069 49.4646C321.965 51.5748 319.869 53.6915 317.765 55.8017C306.492 52.4191 295.279 48.5752 284.136 44.2886C283.992 44.6795 283.849 45.0705 283.697 45.455C294.646 49.6779 305.679 53.4708 316.751 56.8134C314.188 59.3896 311.625 61.9658 309.062 64.5421C299.367 62.4723 289.695 59.4571 280.18 55.5512C280.049 55.9427 279.926 56.3407 279.795 56.7322C289.087 60.5609 298.517 63.5222 307.992 65.6174C307.12 66.4973 306.252 67.3715 305.371 68.2451C305.137 68.2879 304.942 68.4352 304.917 68.7053C304.287 69.3378 303.651 69.976 303.02 70.6085C294.571 69.2987 286.105 66.5895 277.959 62.5935C277.835 62.9914 277.724 63.3899 277.601 63.7879C285.507 67.6516 293.7 70.3416 301.888 71.7411C299.965 73.6732 298.048 75.5996 296.126 77.5318C289.188 75.952 282.278 73.9032 275.425 71.4112C275.317 71.8219 275.206 72.2205 275.09 72.6248C281.708 75.0391 288.369 77.0274 295.067 78.5956C293.278 80.3895 291.49 82.1835 289.714 83.9781C285.136 82.2721 280.546 80.5654 275.968 78.8594C275.21 78.5813 274.45 78.2911 273.693 78.013C273.59 78.418 273.486 78.8229 273.388 79.2221C274.512 79.6386 275.633 80.073 276.744 80.4888C280.746 81.9799 284.74 83.4646 288.742 84.9558C287.234 86.474 285.725 87.9922 284.217 89.5104C280.034 88.6194 275.858 87.5539 271.694 86.3383C271.594 86.7554 271.505 87.1732 271.415 87.5787C275.321 88.7275 279.221 89.7314 283.142 90.5915C281.374 92.3624 279.618 94.1338 277.85 95.9047C275.257 95.272 272.672 94.5251 270.096 93.6762C270.008 94.094 269.92 94.5117 269.842 94.9179C272.157 95.6878 274.478 96.3615 276.8 96.9569C275.736 98.0265 274.671 99.096 273.607 100.166C272.082 99.8019 270.549 99.4319 269.019 99.074C268.934 99.504 268.859 99.9223 268.781 100.329C270.035 100.625 271.293 100.933 272.547 101.229C270.956 102.828 269.369 104.421 267.777 106.019C267.466 108.036 267.32 109.138 267.32 109.138C267.32 109.138 268.43 108.951 270.447 108.555C272.22 106.778 273.986 104.995 275.765 103.213C275.783 104.594 275.923 105.988 276.151 107.386C276.588 107.292 277.037 107.2 277.502 107.09C277.233 105.286 277.141 103.491 277.235 101.723C278.477 100.481 279.705 99.2386 280.946 97.9968C280.986 100.682 281.283 103.403 281.83 106.125C282.264 106.019 282.706 105.92 283.16 105.822C282.605 102.943 282.338 100.066 282.382 97.2407C282.387 97.0541 282.314 96.8817 282.21 96.744C284.483 94.4551 286.763 92.1726 289.036 89.8837C289.463 94.5529 290.07 99.2429 290.851 103.959C291.29 103.848 291.741 103.738 292.191 103.615C291.369 98.5827 290.748 93.5785 290.328 88.5841C292.373 86.5253 294.419 84.4665 296.468 82.4199C297.169 88.8569 298.036 95.314 299.063 101.785C299.512 101.662 299.949 101.539 300.403 101.41C299.326 94.6352 298.433 87.8754 297.731 81.1369C300.244 78.6186 302.749 76.0938 305.256 73.5812C305.876 82.058 306.851 90.5944 308.159 99.1711C308.606 99.0361 309.052 98.9011 309.499 98.7661C308.158 89.8803 307.182 81.0425 306.586 72.2532C308.246 70.5916 309.893 68.9295 311.548 67.2737C313.887 76.811 316.231 86.3425 318.57 95.8797C318.996 95.7377 319.423 95.5957 319.854 95.4479C317.454 85.6786 315.062 75.9156 312.658 66.1521C315.861 62.9318 319.07 59.7057 322.274 56.4855C323.196 68.5221 324.835 80.6721 327.16 92.8796C327.597 92.726 328.031 92.5602 328.473 92.4009C326.119 79.9086 324.485 67.4816 323.591 55.1569C326.532 52.2072 329.466 49.2511 332.402 46.3072C335.478 59.9319 338.555 73.5566 341.638 87.1877C342.062 87.0034 342.481 86.8248 342.905 86.6405C339.781 72.8145 336.649 58.9821 333.525 45.1561C334.647 44.0351 335.762 42.9077 336.885 41.7867C338.249 40.4182 339.614 39.0497 340.966 37.6807C344.659 52.6196 348.35 67.5463 352.043 82.4853C352.457 82.2823 352.866 82.0852 353.279 81.8823C349.546 66.7786 345.812 51.6749 342.076 36.559C344.18 34.4488 346.276 32.3322 348.38 30.222C353.664 45.5097 358.95 60.8095 364.234 76.0972C364.625 75.8751 365.016 75.653 365.399 75.4245C360.101 60.0939 354.802 44.7632 349.503 29.4326C349.473 29.3467 349.432 29.2724 349.382 29.2096C352.383 26.1906 355.385 23.1715 358.395 20.1588C363.657 36.7537 368.923 53.3429 374.185 69.9378C374.569 69.6791 374.952 69.4205 375.328 69.1554C370.036 52.4746 364.741 35.7816 359.449 19.1008C361.697 16.8408 363.945 14.5809 366.197 12.3151C373.074 28.2652 379.948 44.2031 386.825 60.1532C387.169 59.8503 387.509 59.5353 387.845 59.2261C380.958 43.2574 374.071 27.2888 367.191 11.3265C369.583 8.91677 371.981 6.51344 374.373 4.10372C382.605 19.119 390.029 34.3662 396.623 49.7659C396.936 49.3772 397.241 48.9821 397.541 48.5927C390.945 33.2713 383.52 18.1145 375.304 3.17234C379.189 -0.738259 383.076 -4.63666 386.961 -8.54725C394.358 4.88996 401.148 18.4965 407.319 32.2237C407.561 31.6748 407.785 31.131 408.01 30.5873C401.942 17.1787 395.274 3.8855 388.028 -9.24289C387.98 -9.3236 387.929 -9.38635 387.871 -9.45551C389.503 -11.1003 391.143 -12.7388 392.775 -14.3836C399.131 -3.79461 405.474 6.79379 411.83 17.3828C411.946 16.7373 412.051 16.1034 412.142 15.4566C405.993 5.20327 399.845 -5.05008 393.688 -15.3098C395.305 -16.9373 396.922 -18.5648 398.547 -20.1859C397.67 -21.0364 396.764 -21.8523 395.827 -22.6335C395.378 -22.1791 394.934 -21.7304 394.477 -21.2824C384.374 -25.5847 374.279 -29.8805 364.177 -34.1828C363.306 -34.1348 362.435 -34.0566 361.577 -33.9477C372.227 -29.4137 382.885 -24.8734 393.536 -20.3394C392.088 -18.8906 390.643 -17.4296 389.195 -15.9808C376.567 -21.2501 363.939 -26.5194 351.309 -31.8009C350.691 -31.62 350.068 -31.4333 349.447 -31.2344C362.382 -25.8356 375.318 -20.4367 388.249 -15.0321C386.006 -12.7779 383.764 -10.5237 381.521 -8.26951C367.249 -14.475 352.973 -20.6747 338.701 -26.8801C338.232 -26.6437 337.757 -26.4016 337.278 -26.1536C351.714 -19.8798 366.149 -13.6061 380.585 -7.33235C378.633 -5.36548 376.667 -3.39924 374.715 -1.43238C374.665 -1.37454 374.607 -1.3231 374.548 -1.27167C359.194 -7.21634 343.983 -13.8534 328.976 -21.1618C328.588 -20.8974 328.207 -20.6265 327.818 -20.3621C342.886 -13.0025 358.165 -6.30785 373.585 -0.317775C373.338 -0.0645301 373.078 0.1881 372.831 0.441331C372.757 0.479977 372.707 0.537819 372.677 0.602658C371.04 2.25328 369.395 3.8975 367.758 5.54812C351.119 0.246291 334.57 -5.76256 318.158 -12.4702C317.83 -12.1546 317.502 -11.8389 317.174 -11.5233C333.584 -4.76756 350.13 1.25925 366.761 6.58483Z" fill="#97C9CE"/>
<path d="M340.645 15.7423C337.038 7.31068 339.382 -5.23429 340.406 -9.72651C336.412 -5.26726 332.247 -1.12008 327.93 2.70703C334.086 32.3213 325.593 62.8659 325.593 62.8659C325.593 62.8659 326.204 55.8259 323.78 36.9376C321.641 20.269 325.418 7.8545 327.053 3.49684C322.972 7.05881 318.758 10.3319 314.42 13.3171C312.852 14.3999 311.259 15.4309 309.659 16.4317C307.161 25.2765 313.731 38.1876 314.496 51.5293C315.068 61.5823 302.744 73.7826 302.744 73.7826C302.744 73.7826 312.62 61.7746 307.283 47.1672C303.016 35.5033 307.555 21.6163 309.553 16.4912C304.454 19.6641 299.193 22.4368 293.788 24.8109C293.987 27.606 294.575 36.949 294.196 46.3324C293.751 57.3799 288.167 81.9634 288.167 81.9634C288.167 81.9634 286.006 72.2599 285.863 58.283C285.738 46.9959 291.769 29.4103 293.348 24.9983C288.857 26.9417 284.272 28.6097 279.593 29.9925C279.478 32.8183 279.042 42.3745 278.079 52.3076C276.916 64.1496 265.531 92.9784 265.531 92.9784C265.531 92.9784 266.365 84.1998 267.961 65.4004C269.329 49.2386 276.938 34.0894 279.055 30.1512C274.833 31.3779 270.542 32.371 266.181 33.1405C263.498 35.4065 255.097 40.8088 235.232 41.7786C211.875 42.9249 204.275 41.5121 204.275 41.5121C204.275 41.5121 243.432 25.3687 265.561 31.6214C269.511 30.9431 273.338 30.0758 277.03 29.0479C272.682 27.1206 257.167 19.839 243.396 8.42713C227.193 -4.99474 222.854 -9.57965 222.854 -9.57965C222.854 -9.57965 254.105 6.46628 264.059 15.426C271.901 22.4938 276.189 27.2024 277.648 28.8867C282.693 27.4581 287.495 25.7307 292.068 23.7651C287.852 21.8201 271.942 13.9393 264.287 2.2043C255.412 -11.4008 242.999 -16.4237 242.999 -16.4237C242.999 -16.4237 255.968 -14.5422 270.472 1.36365C282.509 14.5547 290.153 21.5946 292.413 23.6186C298.402 21.0208 303.985 18.0304 309.173 14.7569C305.353 13.4113 293.724 8.70672 284.878 -1.46651C274.147 -13.8075 257.444 -24.4781 257.444 -24.4781C257.444 -24.4781 281.408 -16.1611 295.988 -2.4619C306.509 7.41896 309.372 12.2155 310.157 14.125C316.035 10.351 321.393 6.23323 326.251 1.98109C322.834 1.265 311.673 -1.69712 299.225 -11.6842C284.254 -23.6895 272.696 -33.0026 272.696 -33.0026C272.696 -33.0026 315.955 -14.2436 326.842 1.46167C331.65 -2.78521 335.958 -7.16647 339.787 -11.4727C336.752 -11.7686 327.508 -13.3211 318.618 -21.6306C307.779 -31.7579 301.638 -34.0558 293.112 -36.0866C293.112 -36.0866 311.331 -34.8244 319.675 -28.0766C329.438 -20.1818 334.418 -13.325 339.923 -11.6382C342.473 -14.5094 344.808 -17.3505 346.935 -20.1021C363.998 -42.1292 371.537 -62.9473 371.616 -63.1477C371.766 -63.5689 372.228 -63.7838 372.657 -63.6361C372.715 -63.6209 372.762 -63.587 372.81 -63.5628C373.123 -63.3664 373.277 -62.9768 373.153 -62.6126C373.083 -62.4016 365.464 -41.383 348.272 -19.1601C345.94 -16.1408 343.528 -13.2374 341.057 -10.4481C341.948 -6.78953 345.262 6.57645 348.024 15.2278C351.244 25.324 340.4 48.5988 340.4 48.5988C340.4 48.5988 345.098 26.178 340.645 15.7423Z" fill="#FCF4DF"/>
<path d="M106.197 93.5427C106.197 93.5427 75.4004 18.2341 32.4548 -12.0038C17.8842 -22.2656 4.73842 -26.7719 -6.27362 -28.2374C-29.2322 -31.3007 -47.1004 -9.09628 -38.9473 12.3557C-35.0378 22.6436 -27.6602 34.3106 -14.2887 46.0668C25.1174 80.7065 106.197 93.5427 106.197 93.5427Z" fill="#1A4143"/>
<path d="M-3.83348 8.92356C-0.981076 11.1602 1.86471 13.3982 4.71712 15.6349C2.20871 28.6996 -0.306334 41.7657 -2.81325 54.837C-2.45914 55.0758 -2.10503 55.3147 -1.74581 55.5455C0.756921 42.5164 3.25965 29.4874 5.76238 16.4583C8.45429 18.5719 11.1543 20.6905 13.8462 22.8041C11.647 35.3401 8.88826 47.7717 5.57415 60.0567C5.92583 60.2548 6.27238 60.4609 6.62405 60.659C9.93339 48.4438 12.6904 36.0951 14.8996 23.6327C17.4894 25.6654 20.0792 27.6982 22.6691 29.7309C20.0656 41.5093 17.4607 53.2811 14.8573 65.0594C15.2191 65.2415 15.581 65.4236 15.9495 65.6042C18.5329 53.9197 21.1213 42.2272 23.7047 30.5427C26.421 32.6716 29.1321 34.8084 31.8484 36.9373C30.3757 48.1306 28.4431 59.2596 26.0431 70.2916C26.4137 70.4511 26.7776 70.6121 27.1467 70.7651C29.5261 59.8546 31.4528 48.8507 32.9262 37.7811C35.7202 39.9755 38.5142 42.1699 41.3148 44.3628C39.8531 54.3979 37.958 64.3628 35.6286 74.2235C35.9962 74.3699 36.3688 74.5084 36.7364 74.6548C39.0401 64.9236 40.9257 55.0984 42.3845 45.2016C44.6599 46.9868 46.9368 48.7785 49.2122 50.5638C48.2622 59.6816 46.8966 68.7462 45.116 77.7297C45.4937 77.8602 45.8649 77.9921 46.2427 78.1225C48.0021 69.2881 49.3562 60.3843 50.3078 51.4243C53.084 53.602 55.8602 55.7796 58.6364 57.9573C58.574 65.8279 57.6594 73.6515 55.9145 81.3131C56.2893 81.4304 56.6641 81.5478 57.0455 81.6637C58.7552 74.1817 59.6725 66.5502 59.7985 58.8652C60.7417 59.6078 61.6915 60.349 62.6347 61.0916C62.7146 61.2873 62.8827 61.4431 63.1274 61.4789C63.8146 62.0162 64.4951 62.555 65.1823 63.0923C65.5708 69.9628 64.7094 76.8115 62.6371 83.3547C63.017 83.464 63.3903 83.5748 63.7701 83.6841C65.7692 77.3359 66.662 70.7142 66.4059 64.0555C68.4868 65.6908 70.5661 67.3194 72.647 68.9547C72.5129 74.5844 71.9595 80.1753 70.9889 85.7064C71.3739 85.8077 71.7523 85.9105 72.1373 86.0119C73.0758 80.6736 73.6251 75.2762 73.7929 69.8524C75.728 71.3682 77.658 72.8921 79.5931 74.4079C78.9096 78.1078 78.2312 81.7998 77.5477 85.4997C77.4377 86.1086 77.3161 86.727 77.2062 87.3359C77.5897 87.4307 77.9665 87.5269 78.3434 87.6232C78.509 86.7131 78.6909 85.8132 78.8595 84.9162C79.4574 81.6892 80.0487 78.4635 80.6465 75.2364C82.285 76.5215 83.9154 77.8014 85.5539 79.0864C85.5226 82.4783 85.3513 85.8664 85.0238 89.2406C85.4138 89.3339 85.8024 89.4207 86.1844 89.509C86.4925 86.3523 86.6725 83.1824 86.7191 80.0074C88.6298 81.508 90.539 83.002 92.4431 84.504C92.3514 86.6087 92.166 88.6996 91.8738 90.7795C92.269 90.8648 92.6561 90.9451 93.0365 91.0268C93.2946 89.1608 93.479 87.2765 93.5794 85.39C94.7333 86.2928 95.8807 87.1971 97.0346 88.0999C96.9873 89.3418 96.9465 90.5822 96.8976 91.8176C97.2994 91.9015 97.685 91.9752 98.064 92.0503C98.1001 91.031 98.1362 90.0118 98.1739 88.999C99.8967 90.3481 101.613 91.6987 103.337 93.0544C105.187 93.385 106.197 93.5419 106.197 93.5419C106.197 93.5419 105.825 92.6257 105.101 90.9614C103.182 89.4558 101.263 87.9502 99.3441 86.4445C100.574 86.4707 101.796 86.4022 103.008 86.2603C102.841 85.8979 102.673 85.5289 102.501 85.1469C100.938 85.3039 99.351 85.3285 97.7493 85.1981C96.4089 84.1504 95.0736 83.0947 93.7332 82.047C96.1305 82.0993 98.5009 81.9442 100.844 81.5817C100.677 81.2193 100.504 80.8583 100.327 80.4842C97.8517 80.8481 95.3288 80.9747 92.7978 80.8555C92.6284 80.8445 92.4954 80.9011 92.3898 80.9862C89.9265 79.0496 87.4647 77.1195 85.0013 75.1828C89.099 74.9792 93.1833 74.6271 97.2507 74.1412C97.0689 73.7751 96.8856 73.4025 96.6957 73.0314C92.3494 73.5441 87.9801 73.8967 83.601 74.0864C81.3855 72.3499 79.1685 70.6069 76.9531 68.8705C82.5778 68.504 88.1974 67.9942 93.7933 67.352C93.6034 66.9808 93.4084 66.6176 93.2104 66.2414C87.3487 66.9075 81.467 67.4266 75.5705 67.7908C72.8542 65.6619 70.1364 63.5265 67.4201 61.3976C74.8889 61.1566 82.3405 60.6303 89.7633 59.8283C89.5601 59.46 89.357 59.0918 89.1523 58.717C81.4557 59.5378 73.7242 60.0566 65.9792 60.2757C64.1883 58.8727 62.3959 57.4632 60.605 56.0602C68.7021 54.4429 76.7992 52.8257 84.8963 51.2085C84.6896 50.8548 84.4828 50.5011 84.2746 50.1408C75.984 51.7936 67.6949 53.4529 59.3977 55.1071C55.9247 52.3805 52.4516 49.6539 48.9786 46.9273C59.5784 46.5432 70.1441 45.5887 80.6277 44.0674C80.4047 43.7035 80.1832 43.3461 79.9601 42.9822C69.2226 44.518 58.405 45.4658 47.5524 45.809C44.3693 43.3147 41.1929 40.8189 38.0083 38.318C49.6256 36.2247 61.2496 34.1299 72.8669 32.0367C72.6256 31.6837 72.3908 31.3292 72.151 30.9828C60.36 33.1072 48.5691 35.2317 36.7796 37.3627C35.5657 36.4112 34.3518 35.4596 33.1446 34.5065C31.6681 33.3511 30.1967 32.1877 28.7202 31.0322C41.3931 28.4804 54.0727 25.9272 66.7456 23.3754C66.4925 23.0319 66.2379 22.6818 65.9782 22.3397C53.1597 24.9234 40.333 27.502 27.5144 30.0857C25.239 28.3005 22.9636 26.5153 20.6882 24.7301C33.3898 20.8855 46.0914 17.0408 58.7915 13.1897C58.5215 12.8636 58.2516 12.5375 57.9751 12.2128C45.2419 16.0713 32.5072 19.9231 19.774 23.7816C19.7027 23.8041 19.6477 23.8368 19.5926 23.8695C16.34 21.3147 13.0889 18.7665 9.83625 16.2117C23.7046 12.4209 37.5745 8.63654 51.4429 4.84566C51.1399 4.52683 50.8353 4.20144 50.5323 3.88261C36.5845 7.69089 22.6367 11.4992 8.69041 15.314C6.25297 13.3992 3.81704 11.491 1.3796 9.57615C14.3699 4.45046 27.3653 -0.683232 40.3556 -5.80892C40.0174 -6.0994 39.6807 -6.38333 39.3374 -6.66581C26.3287 -1.52922 13.312 3.60227 0.303329 8.73886C-2.28799 6.69956 -4.88443 4.66825 -7.47575 2.62895C4.43801 -3.63668 16.7002 -9.23568 29.2528 -14.1484C28.8433 -14.4164 28.442 -14.6793 28.0355 -14.9341C15.5536 -10.0163 3.36058 -4.41867 -8.48396 1.84554C-12.6945 -1.45551 -16.9 -4.76456 -21.1105 -8.0656C-10.4568 -13.7041 0.46121 -18.8294 11.6009 -23.4461C11.065 -23.6589 10.5388 -23.86 10.006 -24.0596C-0.871924 -19.5141 -11.5312 -14.4729 -21.9337 -8.95149C-21.9954 -8.91733 -22.0489 -8.87807 -22.0928 -8.82716C-23.8659 -10.2134 -25.6339 -11.6076 -27.407 -12.9939C-19.1069 -17.8617 -10.8053 -22.723 -2.51181 -27.5893C-3.10896 -27.7061 -3.7031 -27.8097 -4.28911 -27.9083C-12.3257 -23.1945 -20.3624 -18.4808 -28.4005 -13.7736C-30.1508 -15.1511 -31.9076 -16.5272 -33.6563 -17.8981C-34.2489 -17.2109 -34.8125 -16.4888 -35.3451 -15.7528C-34.8606 -15.3706 -34.3761 -14.9883 -33.8915 -14.6061C-35.8752 -6.47243 -37.8588 1.66122 -39.844 9.78833C-39.6447 10.5014 -39.4109 11.2138 -39.1557 11.9284C-37.059 3.35032 -34.9689 -5.22636 -32.8737 -13.811C-31.3098 -12.5784 -29.7409 -11.3538 -28.1771 -10.1212C-30.5673 0.0486413 -32.9494 10.2236 -35.3397 20.3934C-35.0687 20.9051 -34.783 21.4203 -34.4906 21.9341C-32.0458 11.5184 -29.6025 1.09612 -27.1511 -9.32106C-24.7218 -7.41135 -22.294 -5.50819 -19.8647 -3.59847C-22.7849 7.89159 -25.6986 19.3802 -28.6188 30.8703C-28.3191 31.2655 -28.0193 31.6607 -27.7048 32.0596C-24.7521 20.4386 -21.8061 8.81903 -18.8519 -2.79542C-16.7304 -1.13471 -14.614 0.534015 -12.4924 2.19473C-12.4325 2.24351 -12.3741 2.28574 -12.3142 2.33452C-14.7985 14.7197 -17.9354 26.959 -21.7059 39.0139C-21.4014 39.3393 -21.0902 39.6632 -20.7725 39.9857C-16.9647 27.8814 -13.7986 15.5875 -11.277 3.15286C-11.0048 3.36837 -10.7326 3.58388 -10.4618 3.79283C-10.4136 3.85106 -10.3537 3.89984 -10.2917 3.92752C-8.51706 5.32031 -6.74244 6.7131 -4.96631 8.11244C-6.6411 21.5654 -8.97111 34.9212 -11.9359 48.1479C-11.5941 48.4239 -11.2574 48.7078 -10.909 48.9823C-7.87591 35.72 -5.53777 22.3692 -3.83348 8.92356Z" fill="#2F8C91"/>
</g>
<defs>
<clipPath id="clip0">
<rect width="375" height="113" fill="white"/>
</clipPath>
</defs>
</svg>
