<svg width="169" height="664" viewBox="0 0 169 664" fill="none" xmlns="http://www.w3.org/2000/svg">
<g clip-path="url(#clip0)">
<path d="M52.957 322.906C52.957 322.906 69.5856 106.87 4.60571 -15.9812C-17.4374 -57.6687 -42.9279 -83.9423 -67.0036 -100.442C-117.189 -134.859 -185.238 -102.982 -191.425 -42.1752C-194.394 -13.014 -190.863 23.5327 -173.391 67.3696C-121.895 196.543 52.957 322.906 52.957 322.906Z" fill="#2F8C91"/>
<path d="M-105.1 -8.87371C-101.054 -0.170162 -97.0243 8.52904 -92.978 17.2326C-114.257 45.4384 -135.554 73.6399 -156.838 101.863C-156.29 102.851 -155.742 103.839 -155.172 104.814C-133.948 76.6861 -112.724 48.5586 -91.4997 20.4311C-87.6843 28.6516 -83.8558 36.8939 -80.0404 45.1144C-99.9722 72.4239 -121.092 98.8238 -143.34 124.218C-142.75 125.106 -142.18 126.007 -141.59 126.895C-119.435 101.661 -98.4176 75.4571 -78.5491 48.3347C-74.8776 56.2419 -71.2062 64.149 -67.5347 72.0562C-87.5203 97.0811 -107.502 122.089 -127.487 147.113C-126.854 147.975 -126.221 148.837 -125.57 149.703C-105.743 124.878 -85.8932 100.04 -66.0653 75.2156C-62.2108 83.5014 -58.3776 91.8002 -54.5231 100.086C-71.1698 125.05 -88.8181 149.318 -107.447 172.802C-106.767 173.621 -106.104 174.434 -105.42 175.235C-86.9822 152.016 -69.4952 128.04 -52.9927 103.372C-49.0334 111.905 -45.0741 120.439 -41.0975 128.977C-56.3528 151.191 -72.5409 172.727 -89.6238 193.5C-88.9352 194.283 -88.2253 195.054 -87.5367 195.837C-70.6669 175.342 -54.6657 154.129 -39.5801 132.241C-36.3535 139.187 -33.131 146.149 -29.9043 153.095C-42.8794 173.725 -56.7654 193.737 -71.5285 213.066C-70.7971 213.824 -70.0829 214.576 -69.3516 215.334C-54.8141 196.335 -41.1447 176.693 -28.3519 156.441C-24.4145 164.914 -20.4771 173.387 -16.5397 181.86C-25.9647 200.563 -37.3313 218.147 -50.4518 234.365C-49.7121 235.087 -48.9723 235.809 -48.2154 236.536C-35.3888 220.706 -24.2427 203.583 -14.8872 185.398C-13.5529 188.283 -12.2013 191.173 -10.8669 194.058C-10.9104 194.62 -10.7003 195.19 -10.1692 195.564C-9.19254 197.657 -8.2331 199.746 -7.25643 201.839C-14.4461 218.688 -24.5384 234.01 -37.1077 247.172C-36.3465 247.882 -35.6026 248.587 -34.8415 249.296C-22.6736 236.512 -12.7752 221.769 -5.52524 205.582C-2.57753 211.94 0.374361 218.28 3.32207 224.638C-3.62927 237.91 -11.5171 250.595 -20.3118 262.644C-19.5293 263.34 -18.7639 264.032 -17.9814 264.728C-9.48906 253.101 -1.83881 240.874 4.94845 228.133C7.69542 234.034 10.421 239.948 13.168 245.849C7.20448 253.868 1.2624 261.875 -4.70107 269.894C-5.67645 271.217 -6.69046 272.549 -7.66584 273.872C-6.87911 274.551 -6.10961 275.225 -5.3401 275.9C-3.87912 273.924 -2.39206 271.992 -0.939443 270.051C4.26587 263.059 9.45396 256.062 14.6593 249.069C16.9833 254.069 19.2944 259.048 21.6184 264.048C17.5462 272.102 13.1505 279.983 8.40527 287.646C9.20922 288.329 10.0174 288.995 10.8083 289.656C15.2517 282.489 19.4103 275.14 23.2625 267.62C25.9704 273.456 28.6824 279.275 31.3731 285.106C28.6767 290.019 25.7774 294.788 22.6407 299.405C23.466 300.075 24.2783 300.723 25.0734 301.368C27.878 297.221 30.5314 292.943 32.9906 288.561C34.63 292.077 36.2522 295.589 37.8916 299.106C36.3165 302.012 34.7586 304.923 33.1877 307.813C34.0303 308.487 34.8468 309.118 35.646 309.745C36.9324 307.356 38.2187 304.967 39.5008 302.596C41.9469 307.848 44.3758 313.097 46.8177 318.367C50.7614 321.339 52.9422 322.906 52.9422 322.906C52.9422 322.906 53.1525 320.282 53.4169 315.456C50.696 309.598 47.9751 303.741 45.2542 297.883C48.1052 299.398 51.0491 300.677 54.0563 301.77C54.0922 300.708 54.1323 299.629 54.1807 298.515C50.333 297.044 46.5861 295.229 42.987 293.027C41.0816 288.945 39.1977 284.85 37.2923 280.768C42.8476 283.723 48.5842 286.152 54.5021 288.054C54.538 286.992 54.5566 285.926 54.5837 284.825C48.3553 282.77 42.2948 280.094 36.5053 276.821C36.1213 276.594 35.7429 276.573 35.3953 276.651C31.9069 269.122 28.4142 261.611 24.9258 254.083C34.7667 258.435 44.7513 262.417 54.854 266.06C54.8596 264.973 54.8694 263.867 54.862 262.758C44.0743 258.849 33.4213 254.531 22.9375 249.814C19.7937 243.055 16.6542 236.28 13.5104 229.521C27.1213 235.288 40.889 240.707 54.7575 245.782C54.7501 244.672 54.7213 243.576 54.7008 242.444C40.1816 237.112 25.7889 231.406 11.544 225.313C7.68949 217.027 3.83916 208.724 -0.0153508 200.438C17.7681 208.682 35.8477 216.224 54.1849 223.075C54.1431 221.957 54.1012 220.838 54.0636 219.702C35.0627 212.573 16.336 204.682 -2.06881 196.061C-4.61085 190.599 -7.1487 185.12 -9.69074 179.659C11.1874 185.361 32.0655 191.063 52.9436 196.765C52.8762 195.677 52.8088 194.589 52.7455 193.484C31.3722 187.638 9.9947 181.81 -11.3959 175.96C-16.3188 165.354 -21.2417 154.749 -26.1647 144.144C-0.87635 155.743 25.0043 165.94 51.361 174.689C51.2675 173.558 51.1698 172.443 51.0763 171.312C24.1076 162.298 -2.35539 151.787 -28.1879 139.792C-32.7051 130.083 -37.2052 120.379 -41.7183 110.653C-12.031 119.375 17.6736 128.102 47.3608 136.825C47.2115 135.698 47.0794 134.575 46.9259 133.466C16.795 124.612 -13.3358 115.759 -43.4709 106.923C-45.1932 103.22 -46.9155 99.5164 -48.6206 95.8174C-50.7179 91.3177 -52.7937 86.8049 -54.891 82.3052C-22.1899 91.1804 10.5284 100.06 43.2295 108.935C43.0416 107.817 42.8578 106.681 42.6526 105.558C9.57265 96.5873 -23.5203 87.5946 -56.6002 78.6236C-59.8269 71.6781 -63.0536 64.7327 -66.2803 57.7873C-31.9879 63.6121 2.30454 69.437 36.6012 75.2444C36.3532 74.1478 36.1052 73.0512 35.84 71.9502C1.45726 66.121 -32.9213 60.2744 -67.304 54.4452C-67.4976 54.4147 -67.6651 54.4277 -67.8326 54.4408C-72.4417 44.5057 -77.0549 34.588 -81.6639 24.6529C-44.7011 31.9836 -7.74246 39.3317 29.2204 46.6624C28.8863 45.544 28.5564 44.4082 28.2223 43.2898C-8.9472 35.9069 -46.1166 28.524 -83.2903 21.1584C-86.7438 13.7125 -90.2015 6.28406 -93.655 -1.16182C-57.1759 1.94776 -20.6754 5.04427 15.8037 8.15385C15.3537 7.06156 14.8996 5.98668 14.4282 4.90744C-22.1067 1.80221 -58.6547 -1.32478 -95.1896 -4.43001C-98.8569 -12.3546 -102.546 -20.2661 -106.213 -28.1907C-70.9122 -29.0716 -35.581 -27.9508 -0.378419 -24.85C-1.02198 -25.9728 -1.6525 -27.0738 -2.30443 -28.1618C-37.3474 -31.1668 -72.5147 -32.2093 -107.652 -31.25C-113.625 -44.0964 -119.577 -56.9559 -125.551 -69.8023C-93.9422 -70.6748 -62.3188 -70.0112 -30.7758 -67.8724C-31.7804 -69.0126 -32.7763 -70.1136 -33.7893 -71.219C-64.6352 -73.2185 -95.5531 -73.7777 -126.436 -72.8877C-126.62 -72.879 -126.792 -72.8486 -126.955 -72.7789C-129.475 -78.1795 -131.974 -83.5931 -134.494 -88.9936C-109.308 -90.8065 -84.1261 -92.602 -58.9573 -94.4193C-60.2188 -95.4028 -61.4887 -96.3516 -62.7455 -97.2786C-87.1325 -95.5222 -111.52 -93.7658 -135.902 -92.0268C-138.379 -97.3795 -140.873 -102.737 -143.354 -108.072C-145.553 -107.132 -147.725 -106.075 -149.84 -104.948C-149.156 -103.464 -148.471 -101.98 -147.786 -100.496C-162.023 -83.4342 -176.26 -66.3724 -190.492 -49.328C-190.866 -47.3916 -191.158 -45.4159 -191.403 -43.4099C-176.377 -61.3985 -161.369 -79.3914 -146.339 -97.3975C-144.128 -92.6105 -141.896 -87.8366 -139.685 -83.0497C-157.275 -61.6104 -174.851 -40.1493 -192.441 -18.7101C-192.41 -17.1696 -192.347 -15.603 -192.268 -14.032C-174.261 -35.9935 -156.249 -57.9724 -138.224 -79.9295C-134.784 -72.5053 -131.339 -65.0986 -127.899 -57.6745C-148.287 -33.7114 -168.658 -9.74406 -189.046 14.219C-188.809 15.5158 -188.573 16.8126 -188.306 18.1355C-167.688 -6.10166 -147.087 -30.3432 -126.472 -54.563C-123.46 -48.0962 -120.468 -41.6165 -117.455 -35.1497C-117.372 -34.9626 -117.285 -34.7929 -117.202 -34.6057C-137.624 -7.99257 -159.403 17.5022 -182.449 41.8088C-182.119 42.9446 -181.772 44.0847 -181.408 45.2292C-158.216 20.8486 -136.305 -4.7418 -115.737 -31.429C-115.353 -30.5934 -114.969 -29.7579 -114.581 -28.9397C-114.537 -28.7439 -114.454 -28.5568 -114.342 -28.4175C-111.826 -22.9996 -109.31 -17.5816 -106.798 -12.1463C-126.582 17.97 -147.787 47.081 -170.327 75.1344C-169.851 76.1963 -169.397 77.2712 -168.904 78.3373C-146.162 50.2796 -124.945 21.1904 -105.1 -8.87371Z" fill="#286F7F"/>
<path d="M-6.66876 295.702C-6.66876 295.702 -109.089 409.55 -138.154 510.906C-148.016 545.307 -149.684 572.686 -147.569 593.842C-143.17 637.977 -102.342 653.446 -72.9289 622.15C-58.8175 607.136 -43.9756 584.762 -31.3609 551.394C5.79152 453.118 -6.66876 295.702 -6.66876 295.702Z" fill="#BAE3DD"/>
<path d="M-91.9925 560.892C-89.7082 553.984 -87.4388 547.086 -85.1544 540.178C-64.2905 534.718 -43.4158 529.262 -22.5519 523.802C-22.3261 522.977 -22.1112 522.149 -21.8962 521.321C-42.7085 526.765 -63.5207 532.209 -84.3221 537.656C-82.1715 531.131 -80.0059 524.594 -77.8553 518.068C-57.9132 512.456 -37.9175 507.925 -17.9214 504.537C-17.7514 503.743 -17.5814 502.948 -17.4156 502.168C-37.2976 505.527 -57.1884 509.98 -77.0147 515.517C-74.9496 509.248 -72.8696 502.967 -70.8046 496.697C-51.8644 492.396 -32.9135 488.099 -13.9733 483.798C-13.8358 482.994 -13.7025 482.204 -13.5758 481.396C-32.376 485.661 -51.1762 489.925 -69.9764 494.19C-67.7984 487.61 -65.6353 481.041 -63.4573 474.46C-45.8446 468.554 -28.1569 463.531 -10.424 459.414C-10.3273 458.629 -10.2265 457.829 -10.1298 457.044C-27.6669 461.094 -45.1656 466.033 -62.585 471.841C-60.353 465.074 -58.1169 458.292 -55.874 451.527C-40.0288 446.482 -24.1218 442.285 -8.1939 438.956C-8.12305 438.179 -8.04805 437.387 -7.9772 436.609C-23.6877 439.878 -39.3839 443.998 -55.0101 448.937C-53.1868 443.425 -51.3742 437.909 -49.5509 432.397C-35.3 427.121 -20.9791 422.666 -6.60573 419.009C-6.55656 418.225 -6.50739 417.441 -6.44738 416.66C-20.5734 420.235 -34.6685 424.602 -48.6704 429.749C-46.4508 423.024 -44.2313 416.3 -42.0117 409.576C-30.0123 403.653 -17.7504 399.313 -5.40266 396.597C-5.36847 395.824 -5.34513 395.048 -5.31094 394.275C-17.3746 396.904 -29.3358 401.1 -41.0855 406.769C-40.3304 404.475 -39.5795 402.195 -38.8136 399.904C-38.5514 399.607 -38.3685 399.177 -38.4215 398.706C-37.8749 397.054 -37.3242 395.387 -36.7776 393.735C-26.4699 387.757 -15.7165 384.074 -4.94549 382.825C-4.92214 382.049 -4.91377 381.284 -4.89042 380.508C-15.3398 381.744 -25.7676 385.196 -35.7949 390.773C-34.1303 385.73 -32.4697 380.701 -30.8051 375.658C-22.1878 371.582 -13.4598 368.308 -4.6642 365.821C-4.66253 365.038 -4.65417 364.273 -4.64166 363.494C-13.1382 365.883 -21.5547 369.016 -29.8872 372.88C-28.3371 368.194 -26.7871 363.508 -25.252 358.833C-19.3638 357.24 -13.4606 355.635 -7.57237 354.042C-6.59934 353.772 -5.61962 353.519 -4.64659 353.248C-4.64906 352.48 -4.65154 351.712 -4.65817 350.958C-6.10273 351.353 -7.54983 351.715 -8.9794 352.099C-14.127 353.492 -19.2638 354.889 -24.4114 356.282C-23.1056 352.321 -21.7998 348.36 -20.494 344.399C-15.3167 341.84 -10.095 339.576 -4.84224 337.572C-4.8514 336.787 -4.87555 336.012 -4.89301 335.255C-9.82346 337.121 -14.7037 339.221 -19.5636 341.578C-18.0302 336.95 -16.5117 332.332 -14.9783 327.704C-11.7449 326.25 -8.48541 324.993 -5.2066 323.914C-5.23075 323.139 -5.2549 322.364 -5.28735 321.618C-8.23712 322.577 -11.1634 323.7 -14.0687 324.955C-13.1466 322.163 -12.2246 319.371 -11.3025 316.578C-9.40349 315.71 -7.4936 314.844 -5.59039 313.961C-5.62123 313.169 -5.66036 312.405 -5.69281 311.659C-7.25453 312.379 -8.82293 313.081 -10.3846 313.801C-9.00573 309.627 -7.63096 305.467 -6.25204 301.293C-6.50169 297.662 -6.66708 295.702 -6.66708 295.702C-6.66708 295.702 -7.91227 297.081 -10.1562 299.678C-11.6938 304.321 -13.2205 308.967 -14.7623 313.625C-15.2055 311.361 -15.7944 309.194 -16.4882 307.105C-16.9718 307.68 -17.4703 308.266 -17.9813 308.895C-17.116 311.615 -16.4605 314.491 -16.0323 317.502C-17.1089 320.749 -18.1705 323.985 -19.247 327.232C-20.1125 322.836 -21.291 318.627 -22.7627 314.659C-23.2396 315.252 -23.7273 315.841 -24.23 316.441C-22.7014 320.661 -21.5108 325.155 -20.7001 329.864C-20.6489 330.177 -20.5104 330.391 -20.3469 330.519C-22.3139 336.489 -24.2918 342.456 -26.2588 348.426C-28.1839 341.126 -30.3256 333.965 -32.6796 326.927C-33.1606 327.534 -33.6566 328.152 -34.146 328.788C-31.6481 336.307 -29.3926 343.973 -27.3769 351.817C-29.1479 357.189 -30.9188 362.56 -32.6965 367.914C-35.4819 357.958 -38.4689 348.13 -41.6465 338.431C-42.1359 339.067 -42.6102 339.692 -43.1037 340.342C-39.7739 350.493 -36.6648 360.797 -33.7872 371.25C-35.9652 377.831 -38.1324 384.414 -40.3063 390.98C-43.6178 377.576 -47.3649 364.417 -51.5151 351.513C-51.9977 352.166 -52.4804 352.819 -52.963 353.473C-48.6799 366.856 -44.8406 380.513 -41.4601 394.454C-42.8997 398.798 -44.3243 403.13 -45.7597 407.459C-51.4113 393.961 -57.067 380.477 -62.7186 366.979C-63.1755 367.625 -63.6323 368.27 -64.0932 368.93C-58.2996 382.753 -52.5169 396.573 -46.7191 410.381C-49.4936 418.787 -52.2722 427.206 -55.0466 435.612C-59.799 416.62 -65.4267 398.133 -71.8771 380.212C-72.3422 380.886 -72.8006 381.578 -73.2699 382.267C-66.6999 400.631 -60.9934 419.581 -56.1854 439.075C-58.7348 446.781 -61.2733 454.49 -63.8185 462.181C-71.5814 442.642 -79.3443 423.104 -87.1181 403.562C-87.559 404.275 -87.9958 404.974 -88.4367 405.687C-80.5559 425.511 -72.6644 445.339 -64.7837 465.164C-65.7581 468.097 -66.7216 471.033 -67.696 473.966C-68.8789 477.541 -70.0618 481.116 -71.2297 484.68C-80.1168 463.566 -88.9971 442.469 -97.8842 421.354C-98.3076 422.088 -98.7268 422.807 -99.1502 423.541C-90.1654 444.889 -81.1806 466.237 -72.1891 487.602C-74.0125 493.114 -75.825 498.63 -77.6483 504.142C-88.5068 483.984 -99.372 463.808 -110.231 443.65C-110.621 444.394 -111.012 445.138 -111.392 445.885C-100.503 466.099 -89.6135 486.314 -78.7241 506.528C-78.6623 506.641 -78.5922 506.724 -78.5138 506.779C-81.113 514.658 -83.7122 522.537 -86.3222 530.412C-97.5538 508.074 -108.79 485.75 -120.021 463.412C-120.392 464.209 -120.763 465.005 -121.123 465.805C-109.829 488.256 -98.5294 510.725 -87.2359 533.175C-89.1822 539.074 -91.1285 544.972 -93.0789 550.884C-106.008 531.168 -118.93 511.468 -131.859 491.751C-132.169 492.582 -132.472 493.43 -132.771 494.264C-119.825 514.002 -106.878 533.74 -93.9428 553.475C-96.012 559.759 -98.092 566.04 -100.161 572.324C-114.394 555.456 -127.75 537.428 -140.179 518.347C-140.427 519.29 -140.664 520.237 -140.898 521.169C-128.49 540.118 -115.161 557.998 -100.969 574.759C-104.331 584.961 -107.7 595.145 -111.063 605.347C-123.836 590.282 -135.948 574.351 -147.371 557.625C-147.487 558.765 -147.584 559.879 -147.681 560.994C-136.477 577.293 -124.603 592.823 -112.102 607.524C-112.021 607.611 -111.943 607.666 -111.854 607.724C-113.266 612.013 -114.689 616.299 -116.101 620.588C-126.784 609.224 -137.451 597.848 -148.134 586.483C-148.073 587.661 -148.003 588.809 -147.912 589.965C-137.575 600.975 -127.237 611.985 -116.889 622.998C-118.289 627.244 -119.689 631.49 -121.099 635.733C-119.812 636.293 -118.5 636.767 -117.163 637.154C-116.775 635.971 -116.391 634.802 -115.992 633.622C-102.834 630.994 -89.6858 628.362 -76.5271 625.733C-75.5206 624.815 -74.5233 623.847 -73.5502 622.84C-87.4221 625.614 -101.305 628.384 -115.177 631.158C-113.921 627.37 -112.671 623.564 -111.415 619.776C-95.0009 616.312 -78.5865 612.848 -62.1654 609.401C-61.4955 608.507 -60.8215 607.598 -60.1541 606.671C-76.9693 610.218 -93.7844 613.765 -110.595 617.298C-108.653 611.414 -106.711 605.53 -104.769 599.647C-86.1414 596.145 -67.5096 592.628 -48.8819 589.126C-48.4037 588.283 -47.9212 587.426 -47.4347 586.555C-66.2756 590.102 -85.1165 593.65 -103.957 597.197C-102.268 592.067 -100.563 586.927 -98.8738 581.797C-98.8323 581.653 -98.7799 581.512 -98.7276 581.371C-78.9098 576.395 -59.049 572.701 -39.2227 570.311C-38.8477 569.5 -38.4836 568.686 -38.1086 567.875C-58.0216 570.238 -77.9799 573.903 -97.8885 578.867C-97.6759 578.211 -97.4483 577.543 -97.2356 576.887C-97.1616 576.752 -97.1201 576.608 -97.1044 576.472C-95.6881 572.168 -94.261 567.868 -92.8447 563.564C-71.7169 556.289 -50.4794 550.268 -29.1881 545.533C-28.8998 544.695 -28.6116 543.858 -28.3233 543.021C-49.6263 547.675 -70.8663 553.663 -91.9925 560.892Z" fill="#97C9CE"/>
<path d="M14.7703 352.606C15.0233 352.572 15.2755 352.513 15.5154 352.466C15.5531 352.452 15.5916 352.464 15.6293 352.45C15.8692 352.403 16.1091 352.357 16.3359 352.299C16.3613 352.298 16.3989 352.284 16.4243 352.283C16.6765 352.223 16.9164 352.177 17.1555 352.105C17.2063 352.104 17.2562 352.076 17.307 352.075C17.546 352.003 17.786 351.957 18.025 351.885C18.0627 351.871 18.1134 351.869 18.1511 351.855C18.3902 351.784 18.6292 351.712 18.8683 351.64L18.8805 351.627C19.1196 351.555 19.3709 351.471 19.5969 351.387C19.6345 351.373 19.6722 351.359 19.7098 351.345C19.9358 351.261 20.1617 351.177 20.3876 351.093C20.4253 351.079 20.4629 351.065 20.5128 351.037C20.7388 350.954 20.977 350.856 21.2029 350.772C21.2152 350.759 21.2283 350.772 21.2406 350.758C21.4665 350.674 21.6793 350.578 21.8921 350.482C21.9298 350.468 21.942 350.455 21.9797 350.441C22.1925 350.345 22.4053 350.248 22.6304 350.139C22.668 350.125 22.7057 350.111 22.7433 350.097C22.9561 350.001 23.1812 349.891 23.3809 349.783C23.3931 349.77 23.4185 349.769 23.4431 349.743C23.6559 349.646 23.8678 349.525 24.0675 349.416C24.0797 349.403 24.0929 349.415 24.1051 349.402C24.3048 349.294 24.5168 349.172 24.7164 349.063C24.7541 349.049 24.7786 349.023 24.804 349.022C25.0037 348.914 25.1902 348.793 25.3899 348.684C25.4022 348.671 25.4398 348.657 25.4521 348.644C25.8506 348.402 26.236 348.147 26.6213 347.892C26.6336 347.879 26.6713 347.865 26.6835 347.852C26.8701 347.731 27.0435 347.598 27.2169 347.465C27.2292 347.452 27.2537 347.426 27.2791 347.425C27.6513 347.158 27.9851 346.88 28.3188 346.601C28.331 346.588 28.331 346.588 28.3433 346.575C28.5036 346.43 28.6648 346.31 28.8251 346.164C28.8373 346.151 28.8496 346.138 28.8619 346.125C29.0222 345.98 29.1702 345.847 29.3305 345.702C29.6257 345.412 29.9209 345.122 30.1907 344.833C30.203 344.82 30.2152 344.807 30.2152 344.807C30.3501 344.663 30.4719 344.506 30.5945 344.375L30.6068 344.362C30.8635 344.06 31.0825 343.773 31.3007 343.461L31.313 343.447C31.4225 343.304 31.5189 343.148 31.603 343.005L31.6153 342.992C31.8922 342.538 32.1314 342.097 32.319 341.633L32.3313 341.62C32.5066 341.169 32.6443 340.732 32.7312 340.296L32.7434 340.283C32.7768 340.142 32.7847 340.002 32.8049 339.849C32.8331 339.555 32.8367 339.288 32.8141 338.996C32.7967 338.857 32.7924 338.73 32.7495 338.592C32.7495 338.592 32.7495 338.592 32.7364 338.579C32.395 336.76 30.8565 335.248 27.8145 334.372C13.8998 330.344 -1.1183 340.608 -6.39288 344.729C-5.49322 342.028 -4.64433 339.329 -3.82171 336.605C-3.26218 334.742 -2.72804 332.88 -2.19391 331.018L-1.45626 328.412C0.469895 321.505 2.31901 314.575 4.33533 307.703C4.42636 307.764 4.51739 307.824 4.59615 307.898C4.84384 308.08 5.07839 308.25 5.32608 308.432C5.46961 308.542 5.61229 308.626 5.75582 308.736C5.97725 308.894 6.19782 309.026 6.41925 309.184C6.57505 309.28 6.73085 309.377 6.88665 309.473C7.10722 309.605 7.31552 309.751 7.52296 309.871C7.67876 309.967 7.83456 310.064 8.00262 310.147C8.21006 310.267 8.43063 310.4 8.65034 310.507C8.80614 310.603 8.96107 310.674 9.12913 310.757C9.34884 310.864 9.55629 310.985 9.776 311.092C9.93093 311.163 10.099 311.246 10.2417 311.33C10.4614 311.437 10.6811 311.544 10.913 311.638C11.068 311.709 11.2229 311.78 11.3647 311.839C11.5967 311.932 11.8287 312.026 12.0738 312.132C12.2156 312.191 12.3574 312.25 12.4992 312.309C12.7697 312.414 13.027 312.507 13.2975 312.612C13.4131 312.646 13.5164 312.694 13.6197 312.741C13.9926 312.868 14.3655 312.996 14.7507 313.11C14.7761 313.109 14.8023 313.133 14.8277 313.132C15.1744 313.235 15.521 313.338 15.8677 313.44C15.9833 313.475 16.1111 313.496 16.2266 313.53C16.4831 313.598 16.7396 313.665 16.983 313.72C17.124 313.754 17.2649 313.787 17.4058 313.82C17.6361 313.864 17.8672 313.932 18.0974 313.975C18.2384 314.008 18.3916 314.029 18.5448 314.049C18.7751 314.092 18.9922 314.123 19.2224 314.166C19.3756 314.186 19.5288 314.206 19.6698 314.239C19.8869 314.27 20.104 314.301 20.3211 314.332C20.4744 314.352 20.6276 314.372 20.7808 314.392C20.9979 314.423 21.2273 314.441 21.4313 314.459C21.5845 314.48 21.7246 314.487 21.8778 314.508C22.1071 314.525 22.3234 314.531 22.5528 314.548C22.6929 314.556 22.833 314.564 22.973 314.572C23.2024 314.59 23.4441 314.594 23.6857 314.599C23.8127 314.595 23.9274 314.603 24.0674 314.611C24.3345 314.615 24.6138 314.605 24.8808 314.609C24.957 314.607 25.0463 314.616 25.1347 314.6C25.4902 314.588 25.8457 314.576 26.2012 314.564C26.2519 314.562 26.2896 314.548 26.3281 314.56C26.6328 314.55 26.9366 314.514 27.2413 314.503C27.3552 314.487 27.469 314.47 27.5837 314.479C27.8245 314.458 28.0399 314.438 28.2675 314.405C28.4067 314.387 28.5206 314.371 28.6598 314.353C28.8752 314.333 29.0774 314.301 29.2797 314.269C29.4189 314.251 29.5582 314.234 29.6842 314.204C29.8865 314.172 30.0888 314.14 30.2656 314.108C30.4049 314.091 30.5432 314.048 30.6824 314.03C30.8716 313.986 31.0616 313.967 31.2507 313.922C31.39 313.905 31.5283 313.862 31.6675 313.844C31.8567 313.8 32.0458 313.755 32.2227 313.724C32.3488 313.694 32.5003 313.663 32.6264 313.634C32.8155 313.589 32.9915 313.532 33.1806 313.488C33.3067 313.458 33.4451 313.415 33.5712 313.385C33.7603 313.341 33.9486 313.271 34.1377 313.226C34.2507 313.184 34.3768 313.155 34.4898 313.113C34.7034 313.042 34.9048 312.984 35.1185 312.913C35.2192 312.884 35.2945 312.856 35.3952 312.827C35.6842 312.729 35.9732 312.63 36.2613 312.505C36.3489 312.464 36.4496 312.435 36.5371 312.394C36.7254 312.324 36.926 312.241 37.1142 312.171C37.2395 312.116 37.3524 312.074 37.4777 312.019C37.6405 311.95 37.7912 311.894 37.9409 311.813C38.0662 311.757 38.1914 311.702 38.3166 311.647C38.4541 311.579 38.5916 311.511 38.7422 311.455C38.8675 311.4 38.9918 311.319 39.1171 311.264C39.2545 311.196 39.3798 311.141 39.5041 311.06C39.6294 311.005 39.7537 310.924 39.879 310.869C39.9911 310.802 40.1286 310.734 40.2407 310.666C40.365 310.586 40.4903 310.531 40.6146 310.45C40.7267 310.383 40.8388 310.315 40.9632 310.235C41.0876 310.154 41.1997 310.087 41.324 310.006C41.4361 309.939 41.5351 309.859 41.6472 309.792C41.7716 309.711 41.8837 309.644 41.9949 309.551C42.0939 309.471 42.1938 309.417 42.2805 309.351C42.4048 309.27 42.5161 309.177 42.6282 309.11C42.7149 309.043 42.7893 308.99 42.876 308.923C43.3096 308.591 43.73 308.246 44.112 307.89C44.1733 307.824 44.2355 307.784 44.2968 307.718C44.408 307.625 44.5061 307.52 44.6043 307.415C44.6656 307.349 44.7269 307.284 44.8013 307.23C44.8994 307.125 44.9853 307.033 45.0834 306.928C45.1447 306.863 45.2061 306.797 45.2674 306.731C45.3532 306.639 45.4513 306.534 45.5241 306.43C45.5854 306.364 45.6344 306.312 45.6826 306.234C45.7554 306.13 45.8412 306.038 45.9139 305.934C45.963 305.881 46.0112 305.803 46.0471 305.738C46.1198 305.634 46.1926 305.53 46.2653 305.426C46.3012 305.361 46.3503 305.308 46.3862 305.244C46.4589 305.139 46.5185 305.023 46.5912 304.919C46.6272 304.854 46.6508 304.802 46.6868 304.737C46.7464 304.621 46.8191 304.517 46.8787 304.4C46.9023 304.349 46.9137 304.31 46.9374 304.258C46.997 304.142 47.0566 304.025 47.1031 303.897L47.1153 303.884C47.3161 303.432 47.4406 302.982 47.5144 302.535C47.5135 302.509 47.5249 302.471 47.5363 302.432C47.5574 302.304 47.5662 302.19 47.575 302.075C47.5733 302.024 47.5847 301.986 47.5952 301.922C47.604 301.807 47.6006 301.705 47.6094 301.591C47.6077 301.54 47.6059 301.489 47.6165 301.425C47.613 301.323 47.6096 301.222 47.593 301.108C47.5913 301.057 47.5764 300.994 47.5747 300.943C47.5713 300.842 47.5424 300.741 47.5258 300.627C47.511 300.564 47.5093 300.513 47.4821 300.463C47.4533 300.362 47.4245 300.262 47.3956 300.161C47.3808 300.098 47.3536 300.048 47.3397 300.01C47.3108 299.909 47.2566 299.809 47.2277 299.709C47.2006 299.659 47.1735 299.609 47.1595 299.571C47.1053 299.471 47.0633 299.358 47.0091 299.258C46.9951 299.221 46.9557 299.184 46.9417 299.146C46.3224 298.125 45.2862 297.181 43.7351 296.419C31.1287 290.121 11.0616 301.79 4.99039 305.659C6.41901 300.944 7.95006 296.25 9.6737 291.613L9.74384 291.433C9.80258 291.291 9.84904 291.162 9.89464 291.008C9.89464 291.008 9.89465 291.008 9.90691 290.995L10.9353 288.341C13.2426 282.552 15.9123 276.956 18.9444 271.55C19.6166 271.883 20.5086 272.323 21.6054 272.807C21.7218 272.867 21.8374 272.901 21.9538 272.961C22.4308 273.161 22.9473 273.397 23.4883 273.608C23.6301 273.667 23.7588 273.713 23.9006 273.772C24.2096 273.889 24.5317 274.018 24.8538 274.146C25.0858 274.24 25.3178 274.334 25.562 274.415C25.7424 274.485 25.9227 274.555 26.1284 274.624C26.7464 274.858 27.4021 275.077 28.0831 275.296C28.4175 275.411 28.7642 275.514 29.1109 275.617C33.4397 276.957 38.5734 278.042 43.7697 277.98C44.0237 277.971 44.2653 277.975 44.5192 277.967C44.5954 277.964 44.6716 277.962 44.7477 277.959C44.9377 277.94 45.1286 277.946 45.3186 277.927C45.3948 277.924 45.4456 277.923 45.5217 277.92C45.7625 277.899 46.0164 277.89 46.2572 277.87C46.308 277.868 46.3334 277.867 46.3842 277.865C46.5873 277.858 46.7896 277.826 46.9796 277.807C47.0557 277.804 47.1188 277.789 47.195 277.787C47.385 277.768 47.575 277.748 47.7518 277.717C47.8026 277.715 47.8534 277.714 47.8911 277.7C48.1187 277.666 48.3464 277.633 48.574 277.6C48.6248 277.598 48.6879 277.583 48.7255 277.569C48.9024 277.538 49.0793 277.507 49.2561 277.475C49.3192 277.46 49.3822 277.445 49.4453 277.431C49.6475 277.398 49.8498 277.366 50.039 277.321C50.0643 277.32 50.0766 277.307 50.0897 277.32C50.3043 277.274 50.5188 277.229 50.7333 277.183C50.7964 277.168 50.834 277.154 50.8848 277.153C51.0486 277.109 51.2123 277.065 51.3638 277.035C51.4146 277.033 51.4645 277.006 51.5153 277.004C51.7167 276.946 51.9181 276.889 52.1195 276.831C52.1195 276.831 52.1317 276.818 52.1449 276.83C52.334 276.786 52.5223 276.716 52.6983 276.659C52.736 276.645 52.799 276.63 52.8367 276.616C52.9873 276.56 53.151 276.516 53.3016 276.46C53.3393 276.446 53.3647 276.445 53.4023 276.431C53.5906 276.361 53.7666 276.304 53.9418 276.222C53.9672 276.221 53.9794 276.208 53.9917 276.195C54.1423 276.139 54.3052 276.07 54.4427 276.002C54.4804 275.988 54.518 275.974 54.5557 275.96C54.7186 275.891 54.8814 275.821 55.0312 275.74L55.0435 275.727C55.2064 275.658 55.3684 275.563 55.5181 275.482C55.5304 275.469 55.5558 275.468 55.5803 275.442C55.7178 275.373 55.8422 275.293 55.9797 275.225C55.9919 275.211 56.0296 275.197 56.0419 275.184C56.3283 275.009 56.6024 274.847 56.8502 274.661C56.8625 274.648 56.8748 274.635 56.9002 274.634C57.0114 274.541 57.1235 274.474 57.2347 274.381C57.247 274.368 57.247 274.368 57.2593 274.355C57.494 274.156 57.7034 273.958 57.8873 273.761C57.8996 273.748 57.9119 273.735 57.9241 273.722C58.1204 273.511 58.2789 273.315 58.4366 273.094C58.5094 272.99 58.569 272.873 58.6294 272.782C58.6417 272.769 58.6417 272.769 58.6539 272.756C58.774 272.548 58.8678 272.316 58.9362 272.085L58.9485 272.072C58.9827 271.956 59.0046 271.854 59.0388 271.738C59.0388 271.738 59.0511 271.725 59.038 271.713C59.081 271.482 59.0986 271.253 59.1031 271.011L59.1022 270.986C59.0244 269.068 57.1868 266.981 53.001 264.987C43.0414 260.278 26.3582 266.796 20.073 269.604C22.8956 264.765 25.9781 260.095 29.3722 255.618L31.3811 253.019C32.0513 252.169 32.7347 251.332 33.418 250.495C36.1899 247.158 39.1193 243.969 42.1931 240.914C42.3752 241.035 42.5826 241.155 42.8163 241.3C42.9336 241.385 43.0631 241.457 43.1927 241.529C43.4526 241.698 43.738 241.866 44.0496 242.059C44.9844 242.638 46.1257 243.311 47.4877 244.117C47.9411 244.368 48.4085 244.657 48.9135 244.933C49.1726 245.077 49.4317 245.22 49.6785 245.377C52.2965 246.865 55.5202 248.599 59.3104 250.543C59.4916 250.639 59.6727 250.734 59.8531 250.805C59.9178 250.841 59.9695 250.864 60.0343 250.9C60.1507 250.96 60.2794 251.006 60.4089 251.078C60.4737 251.114 60.5507 251.137 60.6155 251.173C60.7319 251.233 60.8475 251.267 60.9639 251.326C61.0409 251.349 61.1188 251.397 61.1958 251.42C61.2991 251.468 61.4278 251.514 61.5311 251.561C61.6081 251.584 61.686 251.632 61.7631 251.655C61.8664 251.703 61.9819 251.737 62.1106 251.783C62.1876 251.806 62.2778 251.841 62.3426 251.877C62.4581 251.911 62.5614 251.959 62.6901 252.005C62.7671 252.028 62.8442 252.051 62.9089 252.087C63.0376 252.133 63.1532 252.168 63.2687 252.202C63.3458 252.225 63.3974 252.248 63.4744 252.271C63.6285 252.317 63.7826 252.362 63.9367 252.408C63.9752 252.419 64.0137 252.431 64.0522 252.442C64.2448 252.499 64.4374 252.556 64.63 252.613C64.6816 252.637 64.7455 252.647 64.7963 252.646C64.9373 252.679 65.0782 252.712 65.2069 252.759C65.2839 252.782 65.3478 252.792 65.4249 252.815C65.5404 252.849 65.6683 252.87 65.7838 252.905C65.8608 252.927 65.9501 252.937 66.0272 252.96C66.1427 252.994 66.2574 253.003 66.3599 253.025C66.4369 253.048 66.5262 253.057 66.6155 253.067C66.7179 253.089 66.8457 253.11 66.9482 253.132C67.0375 253.142 67.1145 253.165 67.2038 253.174C67.3062 253.196 67.4209 253.205 67.5365 253.239C67.6258 253.249 67.7028 253.272 67.7921 253.281C67.9068 253.29 68.0092 253.312 68.137 253.333C68.2263 253.343 68.2903 253.354 68.3796 253.363C68.5074 253.384 68.6221 253.393 68.7499 253.414C68.8138 253.425 68.89 253.422 68.9539 253.433C69.1325 253.452 69.3365 253.471 69.5151 253.49C69.579 253.5 69.6298 253.499 69.6937 253.509C69.8215 253.53 69.9484 253.526 70.0763 253.547C70.1656 253.557 70.2417 253.554 70.331 253.564C70.4457 253.573 70.5473 253.569 70.6497 253.591C70.739 253.601 70.8152 253.598 70.9168 253.595C71.0183 253.591 71.1076 253.601 71.2092 253.598C71.2985 253.607 71.3869 253.592 71.4762 253.601C71.5778 253.598 71.6671 253.607 71.7687 253.604C71.858 253.614 71.9464 253.598 72.0357 253.608C72.1373 253.604 72.2134 253.602 72.315 253.598C72.4166 253.595 72.4927 253.592 72.5943 253.589C72.6836 253.598 72.772 253.583 72.8736 253.579C72.9752 253.576 73.0513 253.573 73.1529 253.57C73.2291 253.567 73.3306 253.564 73.4068 253.561C73.5084 253.558 73.5968 253.542 73.6861 253.552C73.7623 253.549 73.8507 253.533 73.9269 253.531C74.1169 253.511 74.32 253.505 74.5223 253.472C74.5853 253.457 74.6493 253.468 74.7123 253.453C74.8139 253.45 74.9146 253.421 75.0161 253.417C75.0923 253.415 75.1554 253.4 75.2315 253.397C75.32 253.382 75.4338 253.365 75.5222 253.349C75.5853 253.334 75.6614 253.332 75.7245 253.317C75.8129 253.301 75.9268 253.285 76.0152 253.269C76.0783 253.254 76.1544 253.251 76.2175 253.237C76.3059 253.221 76.4066 253.192 76.5082 253.189C76.5712 253.174 76.6343 253.159 76.6973 253.144C76.798 253.115 76.8865 253.099 76.9872 253.071C77.0502 253.056 77.1132 253.041 77.1763 253.026C77.277 252.997 77.3654 252.981 77.4661 252.953C77.5169 252.951 77.5668 252.924 77.6176 252.922C77.7183 252.893 77.819 252.864 77.9197 252.835C77.9451 252.835 77.9828 252.821 77.995 252.807C78.3724 252.693 78.749 252.553 79.1133 252.426C79.1387 252.425 79.1509 252.412 79.1763 252.411C79.2893 252.369 79.3769 252.328 79.4767 252.274C79.5144 252.26 79.552 252.246 79.5897 252.232C79.6773 252.191 79.7771 252.136 79.8778 252.108C79.9154 252.094 79.9531 252.08 80.003 252.052C80.0906 252.011 80.1782 251.97 80.278 251.916C80.3157 251.902 80.3533 251.888 80.3901 251.849C80.4777 251.807 80.5653 251.766 80.652 251.7C80.6896 251.686 80.7142 251.66 80.7518 251.646C80.8394 251.604 80.9261 251.538 81.0137 251.497C81.0382 251.47 81.0636 251.47 81.0881 251.443C81.188 251.389 81.2747 251.323 81.3491 251.269C81.3614 251.256 81.3614 251.256 81.3737 251.243C81.7836 250.962 82.1549 250.67 82.4869 250.34C82.4992 250.327 82.5115 250.314 82.5115 250.314C82.585 250.235 82.6464 250.17 82.7199 250.091C82.7322 250.078 82.7567 250.051 82.769 250.038C82.8303 249.973 82.9039 249.894 82.9652 249.828C82.9898 249.802 83.002 249.789 83.0265 249.762C83.0879 249.697 83.1361 249.619 83.2096 249.54C83.2342 249.514 83.2464 249.501 83.2578 249.462C83.306 249.384 83.3674 249.319 83.4278 249.227C83.4401 249.214 83.4646 249.188 83.4637 249.163C83.5119 249.085 83.5724 248.994 83.6206 248.916C83.6329 248.903 83.6329 248.903 83.6451 248.889C83.873 248.487 84.0623 248.074 84.2 247.637C84.2219 247.535 84.257 247.444 84.2789 247.342C84.278 247.317 84.2903 247.303 84.2895 247.278C84.3114 247.175 84.3211 247.086 84.3561 246.996C84.3553 246.971 84.3667 246.932 84.3658 246.907C84.3755 246.817 84.3974 246.715 84.4071 246.625C84.4062 246.6 84.4176 246.561 84.4168 246.536C84.4265 246.447 84.4353 246.332 84.4449 246.243C84.4441 246.217 84.4555 246.179 84.4546 246.153C84.4512 246.052 84.4608 245.962 84.4697 245.848C84.4688 245.822 84.4679 245.797 84.4671 245.771C84.4554 244.678 84.1732 243.48 83.5951 242.177C78.1483 230.002 52.7359 236.601 44.0308 239.262C49.0895 234.398 54.5166 229.902 60.264 225.854C60.2894 225.853 60.2894 225.853 60.3147 225.852L62.4623 224.342C65.879 222.026 69.4024 219.859 73.0202 217.854C73.0588 217.865 73.0973 217.877 73.1358 217.888C73.4054 217.968 73.6497 218.049 73.9062 218.116C73.9447 218.128 73.9701 218.127 74.0086 218.138C74.2651 218.206 74.5216 218.273 74.7903 218.328C74.8157 218.327 74.8543 218.338 74.8674 218.351C75.1361 218.405 75.4049 218.459 75.6737 218.514C75.7245 218.512 75.7761 218.536 75.8269 218.534C76.0825 218.576 76.3513 218.631 76.6192 218.66C76.67 218.658 76.7085 218.669 76.7593 218.668C77.0403 218.709 77.3082 218.738 77.6015 218.766L77.6269 218.765C77.8948 218.794 78.175 218.81 78.4551 218.826C78.5059 218.825 78.5444 218.836 78.5952 218.834C78.8754 218.85 79.1424 218.854 79.4094 218.857C79.4602 218.856 79.511 218.854 79.5749 218.864C79.842 218.868 80.1221 218.884 80.4014 218.875C80.4399 218.886 80.4776 218.872 80.5284 218.87C80.7954 218.874 81.0747 218.864 81.3409 218.843C81.3663 218.842 81.3917 218.841 81.4171 218.84C81.6964 218.831 81.9879 218.808 82.2541 218.786C82.3049 218.784 82.3557 218.783 82.4065 218.781C82.6726 218.759 82.9511 218.724 83.2172 218.703C83.268 218.701 83.3188 218.699 83.3696 218.697C83.648 218.662 83.9265 218.628 84.2049 218.593C84.2303 218.592 84.2426 218.579 84.268 218.578C84.5464 218.543 84.8117 218.496 85.0902 218.461C85.1278 218.447 85.1786 218.445 85.204 218.444C85.4693 218.397 85.76 218.349 86.0253 218.302C86.0761 218.3 86.1391 218.285 86.1768 218.271C86.4544 218.211 86.7197 218.164 86.9973 218.104C87.0349 218.09 87.0857 218.088 87.1234 218.074C87.4009 218.013 87.6654 217.941 87.943 217.881C87.9552 217.867 87.9683 217.88 87.9806 217.867C88.2705 217.793 88.5349 217.721 88.8247 217.647C88.8624 217.633 88.9254 217.618 88.9631 217.604C89.2276 217.532 89.5043 217.446 89.7687 217.373C89.8186 217.346 89.8694 217.345 89.9193 217.317C90.196 217.232 90.4728 217.146 90.7364 217.048C90.7617 217.047 90.7863 217.021 90.8117 217.02C91.0752 216.922 91.3397 216.85 91.6033 216.752C91.6409 216.738 91.6786 216.724 91.704 216.723C91.9676 216.625 92.2312 216.527 92.4947 216.429C92.5447 216.402 92.5954 216.4 92.6454 216.373C92.909 216.275 93.1594 216.165 93.423 216.067C93.4607 216.053 93.5106 216.025 93.5482 216.011C93.8241 215.9 94.0745 215.79 94.3504 215.679C94.6131 215.556 94.889 215.445 95.1517 215.321C95.1893 215.307 95.2393 215.28 95.2769 215.266C95.5274 215.156 95.777 215.02 96.0274 214.91C96.0774 214.883 96.115 214.869 96.1649 214.842C96.4145 214.706 96.665 214.596 96.9146 214.46C96.9522 214.446 96.9645 214.433 97.0022 214.419C97.2395 214.296 97.4891 214.161 97.7264 214.038C97.7387 214.025 97.7763 214.011 97.7886 213.998C98.0382 213.862 98.2755 213.74 98.512 213.592C98.5619 213.565 98.5996 213.551 98.6495 213.524C98.8737 213.389 99.1233 213.253 99.3475 213.118C99.3852 213.104 99.422 213.065 99.4596 213.051C99.6961 212.903 99.9326 212.755 100.169 212.607L100.181 212.594C100.418 212.446 100.654 212.298 100.865 212.151C100.903 212.137 100.927 212.111 100.965 212.097C101.176 211.95 101.4 211.815 101.624 211.655C101.674 211.628 101.698 211.602 101.748 211.574C101.959 211.427 102.183 211.267 102.394 211.12C102.418 211.094 102.444 211.093 102.468 211.067C102.679 210.92 102.877 210.76 103.088 210.613C103.1 210.6 103.113 210.587 103.138 210.586C103.336 210.427 103.547 210.28 103.745 210.12C103.77 210.094 103.82 210.067 103.844 210.041C104.042 209.881 104.228 209.735 104.426 209.576C104.45 209.55 104.488 209.536 104.525 209.496C104.723 209.337 104.907 209.165 105.105 209.006L105.118 208.993C105.302 208.821 105.488 208.675 105.673 208.504C105.698 208.477 105.71 208.464 105.734 208.438C105.907 208.279 106.079 208.121 106.252 207.962C106.277 207.936 106.301 207.91 106.338 207.871C106.51 207.712 106.67 207.541 106.83 207.396C106.855 207.37 106.867 207.357 106.891 207.33C107.051 207.16 107.223 207.001 107.358 206.831L107.37 206.818C107.529 206.647 107.676 206.49 107.81 206.32C107.835 206.294 107.859 206.267 107.872 206.254C108.019 206.097 108.153 205.927 108.275 205.77C108.299 205.744 108.312 205.731 108.336 205.704C108.47 205.535 108.604 205.365 108.726 205.208C108.738 205.195 108.738 205.195 108.75 205.182C108.872 205.025 109.006 204.855 109.115 204.686C109.127 204.673 109.139 204.66 109.152 204.647C109.273 204.49 109.382 204.321 109.479 204.165C109.503 204.139 109.502 204.113 109.527 204.087C109.623 203.931 109.732 203.762 109.828 203.606C109.84 203.593 109.84 203.568 109.864 203.542C110.056 203.204 110.223 202.893 110.378 202.57C110.39 202.557 110.389 202.532 110.401 202.519C110.472 202.364 110.543 202.209 110.602 202.067C110.614 202.054 110.613 202.028 110.638 202.002C110.709 201.847 110.755 201.693 110.8 201.539C110.8 201.539 110.812 201.526 110.799 201.513C110.845 201.359 110.891 201.205 110.924 201.064L110.923 201.039C110.956 200.898 110.99 200.757 111.01 200.603C111.009 200.578 111.021 200.565 111.02 200.539C110.909 200.238 110.93 200.11 110.938 199.97C110.937 199.944 110.937 199.944 110.936 199.919C110.952 199.639 110.954 199.346 110.933 199.08C110.932 199.054 110.932 199.054 110.931 199.029C110.914 198.89 110.897 198.776 110.867 198.65C110.866 198.624 110.853 198.612 110.852 198.587C110.823 198.461 110.793 198.334 110.738 198.209C110.738 198.209 110.725 198.197 110.724 198.171C110.682 198.058 110.627 197.933 110.572 197.808L110.559 197.796C110.504 197.67 110.436 197.558 110.369 197.446C110.356 197.434 110.355 197.408 110.342 197.396C110.274 197.284 110.195 197.185 110.102 197.074C110.089 197.061 110.076 197.049 110.063 197.037C109.996 196.95 109.903 196.839 109.798 196.74C108.628 195.598 106.556 194.842 103.371 194.619C84.7989 193.419 75.1031 209.199 72.1864 215.008C68.4556 217.055 64.8323 219.277 61.3159 221.647L59.3785 222.985C53.4315 227.142 47.7924 231.759 42.5349 236.757C45.9965 228.653 53.42 208.093 44.0734 199.725C41.5959 197.508 39.3715 196.757 37.4627 197.063C37.4504 197.076 37.4373 197.064 37.425 197.077C36.869 197.173 36.3287 197.356 35.8295 197.627L35.8173 197.641C35.3181 197.912 34.8346 198.272 34.3913 198.694L34.3791 198.707C33.9358 199.129 33.5083 199.639 33.1333 200.199C33.121 200.212 33.121 200.212 33.1088 200.225C33.0361 200.329 32.9511 200.447 32.8915 200.563C32.6023 201.031 32.3271 201.536 32.0528 202.067C32.0406 202.08 32.0292 202.118 32.0169 202.132C31.9573 202.248 31.9108 202.377 31.839 202.506C31.8267 202.52 31.8276 202.545 31.8153 202.558C31.6383 202.958 31.4743 203.371 31.3112 203.809C31.299 203.822 31.2998 203.847 31.2876 203.86C31.2411 203.989 31.1946 204.118 31.1482 204.247C31.1368 204.285 31.1131 204.337 31.1017 204.375C31.0552 204.504 31.021 204.62 30.9877 204.761C30.9763 204.799 30.9649 204.838 30.9412 204.889C30.8158 205.313 30.6904 205.737 30.5904 206.16C30.5667 206.212 30.5684 206.263 30.557 206.301C30.5228 206.417 30.5017 206.545 30.4807 206.673C30.4701 206.737 30.4473 206.814 30.4368 206.878C30.4157 207.005 30.3815 207.121 30.3604 207.249C30.3376 207.326 30.3271 207.39 30.3174 207.479C30.2963 207.607 30.2621 207.723 30.2533 207.838C30.2428 207.902 30.2322 207.965 30.2217 208.029C30.1787 208.26 30.1357 208.49 30.118 208.72C30.1084 208.809 30.0987 208.898 30.0759 208.975C30.0671 209.09 30.0451 209.193 30.0363 209.307C30.0267 209.397 30.0047 209.499 30.0082 209.601C29.9993 209.716 29.9774 209.818 29.9686 209.933C29.9467 210.035 29.9501 210.137 29.9413 210.252C29.9325 210.366 29.9228 210.456 29.914 210.57C29.8938 210.724 29.8858 210.864 29.8787 211.029C29.8577 211.157 29.862 211.284 29.8409 211.412C29.833 211.552 29.8241 211.667 29.8162 211.807C29.8065 211.897 29.81 211.998 29.8003 212.088C29.7915 212.202 29.7958 212.329 29.787 212.444C29.7904 212.546 29.7807 212.635 29.7842 212.737C29.7885 212.864 29.7806 213.004 29.7718 213.119C29.7621 213.208 29.7647 213.284 29.7681 213.386C29.7628 213.602 29.7697 213.805 29.7643 214.022C29.766 214.072 29.7677 214.123 29.7572 214.187C29.7501 214.353 29.7684 214.517 29.7613 214.683C29.7639 214.759 29.7674 214.861 29.77 214.937C29.7743 215.064 29.7795 215.216 29.7838 215.344C29.7864 215.42 29.7898 215.521 29.7924 215.598C29.7976 215.75 29.815 215.889 29.8202 216.042C29.8228 216.118 29.8254 216.194 29.828 216.27C29.848 216.486 29.868 216.701 29.888 216.917C29.8889 216.942 29.9029 216.98 29.8915 217.018C29.9107 217.209 29.9298 217.399 29.949 217.589C29.9516 217.665 29.9664 217.728 29.9821 217.816C29.9996 217.956 30.0179 218.12 30.0353 218.26C30.0379 218.336 30.0536 218.424 30.0685 218.487C30.0991 218.639 30.1042 218.791 30.1348 218.943C30.1497 219.006 30.1522 219.082 30.1671 219.145C30.2003 219.373 30.2325 219.576 30.278 219.79C30.2788 219.816 30.292 219.828 30.2797 219.841C30.312 220.043 30.3565 220.233 30.3888 220.435C30.4037 220.498 30.4185 220.561 30.4343 220.65C30.4648 220.801 30.4954 220.953 30.5382 221.091C30.5662 221.166 30.5688 221.243 30.5968 221.318C30.6273 221.47 30.6702 221.608 30.7007 221.76C30.7156 221.823 30.7304 221.886 30.7453 221.949C30.803 222.15 30.8484 222.365 30.9192 222.579C30.9192 222.579 30.9323 222.591 30.9201 222.604C30.9778 222.806 31.0354 223.007 31.0931 223.209C31.108 223.272 31.1228 223.335 31.1631 223.397C31.2059 223.535 31.2619 223.686 31.3047 223.825C31.3327 223.9 31.3475 223.963 31.3755 224.038C31.4183 224.177 31.4743 224.327 31.5294 224.453C31.5443 224.516 31.5845 224.578 31.5993 224.641C31.6824 224.842 31.7524 225.03 31.8355 225.231C33.0545 228.19 34.1775 230.568 35.1825 232.467C35.4808 233.016 35.752 233.516 36.0223 233.99C36.2926 234.464 36.5489 234.9 36.8166 235.298C37.1928 235.896 37.5541 236.43 37.8875 236.889C37.9942 237.038 38.101 237.187 38.2077 237.336C38.6338 237.907 39.0048 238.352 39.3478 238.722C39.4275 238.821 39.5062 238.894 39.5981 238.98C39.7294 239.103 39.8484 239.239 39.9534 239.337C36.8559 242.443 33.8906 245.698 31.0819 249.074L28.9224 251.729C25.0106 256.681 21.4253 261.89 18.2032 267.315C19.0526 258.27 20.3413 232.221 7.34287 230.845C6.78167 230.788 6.27212 230.754 5.76344 230.746C5.63648 230.75 5.52179 230.741 5.39484 230.746L5.36945 230.747C5.24249 230.751 5.14092 230.754 5.02709 230.771L5.0017 230.772C4.90014 230.775 4.78631 230.792 4.68475 230.795L4.65936 230.796C4.48162 230.802 4.36779 230.819 4.26623 230.822L4.24083 230.823C4.13927 230.826 4.03857 230.855 3.937 230.859C3.92474 230.872 3.91161 230.86 3.89935 230.873C3.81091 230.889 3.69708 230.905 3.60864 230.921C3.59638 230.934 3.58325 230.922 3.57099 230.935C3.48255 230.951 3.38185 230.979 3.29341 230.995C3.28114 231.008 3.26802 230.996 3.25576 231.009C3.16732 231.025 3.07888 231.041 2.99131 231.082C2.97904 231.095 2.96591 231.083 2.95365 231.096C2.86521 231.111 2.7899 231.139 2.70233 231.181C2.69006 231.194 2.67693 231.181 2.66467 231.195C2.58936 231.223 2.50093 231.238 2.41335 231.279C2.40109 231.292 2.38796 231.28 2.37569 231.293C2.30038 231.321 2.22507 231.349 2.1375 231.39C2.12523 231.404 2.11211 231.391 2.09984 231.404C2.02453 231.432 1.94922 231.46 1.87477 231.514C1.86251 231.527 1.84938 231.515 1.83712 231.528C1.76181 231.556 1.69962 231.596 1.61205 231.637C1.59979 231.65 1.59979 231.65 1.57439 231.651C1.51221 231.691 1.4369 231.719 1.36245 231.773C1.35019 231.786 1.35019 231.786 1.32479 231.787C1.26261 231.827 1.20043 231.867 1.12598 231.921C1.11372 231.934 1.11372 231.934 1.10145 231.947C1.03927 231.987 0.977085 232.028 0.902638 232.081C0.890373 232.094 0.890373 232.094 0.878109 232.107C0.815925 232.148 0.754603 232.213 0.692419 232.253C0.680155 232.267 0.680159 232.267 0.667895 232.28C0.605711 232.32 0.544389 232.386 0.495333 232.438L0.483066 232.451C0.434009 232.504 0.372692 232.57 0.310508 232.61L0.298241 232.623C0.249184 232.675 0.187862 232.741 0.138806 232.794L0.126544 232.807C0.0774868 232.859 0.0161647 232.925 -0.019765 232.99C-0.019765 232.99 -0.019763 232.99 -0.0320272 233.003C-0.093348 233.069 -0.129277 233.133 -0.190598 233.199C-0.238792 233.277 -0.287848 233.33 -0.336042 233.407C-1.39803 235.071 -1.61109 237.406 -1.20095 240.126C-1.18437 240.24 -1.16779 240.353 -1.15121 240.467C-1.15121 240.467 -1.15121 240.467 -1.13809 240.48C-1.12151 240.593 -1.10493 240.707 -1.07609 240.808L-1.07523 240.834C-1.05865 240.947 -1.0298 241.048 -1.01322 241.162C-1.0001 241.174 -1.01236 241.187 -0.999238 241.2C-0.98266 241.314 -0.953818 241.414 -0.924113 241.541C-0.910986 241.553 -0.923248 241.566 -0.910121 241.578C-0.893543 241.692 -0.864704 241.793 -0.822734 241.906C-0.821871 241.931 -0.80874 241.944 -0.821005 241.957C-0.792162 242.057 -0.775587 242.171 -0.733618 242.284C-0.732755 242.31 -0.719628 242.322 -0.718766 242.347C-0.689923 242.448 -0.673343 242.562 -0.631374 242.675C-0.630511 242.7 -0.617385 242.713 -0.616522 242.738C-0.58768 242.839 -0.558836 242.94 -0.529131 243.066C-0.528268 243.091 -0.515141 243.103 -0.514278 243.129C-0.485436 243.23 -0.443467 243.343 -0.414625 243.443C-0.413762 243.469 -0.400636 243.481 -0.386646 243.519C-0.357804 243.619 -0.315834 243.732 -0.286992 243.833C-0.286129 243.859 -0.259876 243.883 -0.259013 243.909C-0.23017 244.009 -0.188202 244.122 -0.159359 244.223C-0.158497 244.249 -0.144507 244.286 -0.13138 244.298C-0.102538 244.399 -0.0605693 244.512 -0.031727 244.613C-0.0308642 244.638 -0.016875 244.676 -0.00374806 244.688C0.0250942 244.789 0.0670637 244.902 0.095906 245.003C0.109896 245.041 0.110758 245.066 0.137012 245.09C0.165854 245.191 0.207828 245.304 0.23667 245.405C0.25066 245.443 0.251522 245.468 0.277776 245.493C0.306618 245.593 0.348585 245.706 0.402819 245.806C0.416808 245.844 0.417671 245.869 0.443925 245.894C0.485894 246.007 0.527003 246.095 0.568972 246.208C0.582962 246.245 0.583821 246.271 0.597811 246.308C0.63978 246.421 0.680889 246.509 0.722859 246.622C0.736848 246.66 0.750838 246.697 0.763965 246.71C0.805934 246.823 0.847038 246.91 0.889007 247.023C0.902997 247.061 0.916991 247.099 0.930118 247.111C0.972087 247.224 1.01319 247.311 1.05516 247.424C1.06915 247.462 1.08314 247.5 1.10939 247.524C1.15136 247.637 1.2056 247.737 1.23444 247.838C1.24843 247.876 1.26242 247.913 1.27641 247.951C1.31838 248.064 1.37261 248.164 1.41458 248.277C1.42857 248.315 1.44256 248.352 1.45569 248.365C1.49766 248.478 1.55189 248.578 1.59386 248.691C1.60785 248.728 1.62184 248.766 1.64809 248.79C1.70233 248.89 1.74429 249.003 1.79853 249.103C1.81252 249.141 1.83877 249.165 1.85276 249.203C1.907 249.303 1.94897 249.416 2.0032 249.516C2.01719 249.554 2.03118 249.591 2.05743 249.616C2.11167 249.716 2.15364 249.829 2.20787 249.929C2.22186 249.966 2.24811 249.991 2.24898 250.016C2.30321 250.116 2.35831 250.241 2.41254 250.341C2.42653 250.379 2.45278 250.403 2.45365 250.429C2.50788 250.529 2.56298 250.654 2.61721 250.754C2.6312 250.792 2.64432 250.804 2.65831 250.842C2.72567 250.954 2.76764 251.067 2.835 251.179C2.83587 251.204 2.86212 251.229 2.86298 251.254C2.93034 251.366 2.98544 251.492 3.0528 251.604C3.06593 251.616 3.06679 251.642 3.09304 251.666C3.14814 251.791 3.2155 251.904 3.29599 252.028C3.30911 252.04 3.30998 252.066 3.30998 252.066C3.3782 252.203 3.44556 252.315 3.51378 252.453C4.04299 253.44 4.60985 254.412 5.20211 255.384C5.26947 255.496 5.34995 255.62 5.41731 255.733C5.44357 255.757 5.44443 255.783 5.47069 255.807C5.52492 255.907 5.60455 256.006 5.65878 256.106C5.67277 256.144 5.71215 256.18 5.72614 256.218C5.78037 256.318 5.84687 256.405 5.9011 256.505C5.92822 256.555 5.9676 256.591 5.98159 256.629C6.04809 256.716 6.10232 256.816 6.15569 256.89C6.18281 256.94 6.20992 256.99 6.24931 257.027C6.3158 257.114 6.35691 257.201 6.42341 257.288C6.45052 257.338 6.49077 257.4 6.51788 257.45C6.57125 257.525 6.62549 257.624 6.67886 257.699C6.7191 257.761 6.74623 257.811 6.78647 257.873C6.83984 257.948 6.89321 258.022 6.94744 258.122C6.98769 258.184 7.0148 258.234 7.05505 258.297C7.10842 258.371 7.16179 258.445 7.21516 258.52C7.25541 258.582 7.29565 258.644 7.32277 258.694C7.37614 258.769 7.4295 258.843 7.48287 258.918C7.52311 258.98 7.56336 259.042 7.6036 259.104C7.65697 259.179 7.71035 259.253 7.76372 259.328C7.80396 259.39 7.84421 259.452 7.88445 259.515C7.93782 259.589 7.99119 259.663 8.04456 259.738C8.08481 259.8 8.12505 259.862 8.17755 259.911C8.23092 259.986 8.2843 260.06 8.33767 260.135C8.37791 260.197 8.41816 260.259 8.47067 260.308C8.52404 260.383 8.56428 260.445 8.61765 260.52C8.6579 260.582 8.71126 260.656 8.76377 260.705C8.81714 260.78 8.85739 260.842 8.92302 260.903C8.96327 260.966 9.01663 261.04 9.06914 261.089C9.12251 261.164 9.16276 261.226 9.22839 261.287C9.26864 261.349 9.322 261.424 9.37451 261.473C9.42788 261.548 9.46813 261.61 9.53376 261.671C9.57401 261.733 9.63964 261.795 9.67989 261.857C9.73326 261.931 9.78576 261.98 9.83913 262.055C9.87938 262.117 9.94502 262.178 9.98526 262.241C10.0255 262.303 10.0911 262.364 10.1314 262.426C10.1716 262.489 10.2373 262.55 10.2775 262.612C10.3177 262.674 10.3834 262.736 10.4236 262.798C10.4639 262.86 10.5295 262.922 10.5697 262.984C10.61 263.046 10.6756 263.107 10.7159 263.17C10.7561 263.232 10.8217 263.293 10.862 263.355C10.9022 263.418 10.9679 263.479 11.0081 263.541C11.0484 263.603 11.114 263.665 11.1542 263.727C11.1945 263.789 11.2601 263.85 11.3004 263.913C11.3406 263.975 11.4062 264.036 11.4465 264.098C11.4867 264.161 11.5524 264.222 11.5926 264.284C11.6451 264.333 11.6985 264.408 11.751 264.457C11.8035 264.506 11.8569 264.58 11.9094 264.63C11.9619 264.679 12.0153 264.753 12.0678 264.802C12.1203 264.851 12.1605 264.913 12.2261 264.975C12.2787 265.024 12.332 265.098 12.3845 265.147C12.437 265.197 12.4773 265.259 12.5298 265.308C12.5823 265.357 12.6357 265.431 12.6882 265.481C12.7407 265.53 12.7809 265.592 12.8334 265.641C12.8859 265.69 12.9393 265.764 12.9918 265.814C13.0443 265.863 13.0846 265.925 13.1371 265.974C13.1896 266.023 13.243 266.097 13.2955 266.147C13.348 266.196 13.3882 266.258 13.4407 266.307C13.4932 266.356 13.5466 266.43 13.5991 266.48C13.6516 266.529 13.7041 266.578 13.7444 266.64C13.7969 266.689 13.8625 266.75 13.9028 266.813C13.9553 266.862 14.0078 266.911 14.048 266.973C14.1005 267.022 14.153 267.071 14.2064 267.146C14.2589 267.195 14.3114 267.244 14.3639 267.293C14.4164 267.342 14.4821 267.403 14.5346 267.452C14.5871 267.501 14.6396 267.551 14.679 267.587C14.7315 267.636 14.784 267.685 14.8496 267.747C14.9021 267.796 14.9546 267.845 14.994 267.882C15.0465 267.931 15.099 267.98 15.1515 268.029C15.2041 268.078 15.2434 268.115 15.2959 268.164C15.3485 268.213 15.401 268.262 15.4535 268.311C15.506 268.36 15.5454 268.397 15.5979 268.446C15.6504 268.495 15.7029 268.544 15.7554 268.593C15.8079 268.643 15.8473 268.679 15.8998 268.728C15.9523 268.778 16.0048 268.827 16.0573 268.876C16.0967 268.913 16.1492 268.962 16.1886 268.998C16.2411 269.047 16.2936 269.097 16.3592 269.158C16.3986 269.195 16.4511 269.244 16.4905 269.281C16.543 269.33 16.6086 269.391 16.6734 269.427C16.6865 269.439 16.7128 269.464 16.7259 269.476C14.4466 273.47 12.3748 277.584 10.5095 281.793C9.99061 282.981 9.47169 284.169 8.97903 285.381L8.0761 287.611C6.21583 292.341 4.57439 297.153 3.04938 302.025C2.58865 293.698 -0.382225 276.581 -16.3648 270.423C-19.4942 269.22 -21.7521 268.978 -23.2863 269.463C-23.2863 269.463 -23.2986 269.476 -23.3117 269.464C-23.4501 269.507 -23.5753 269.562 -23.7005 269.617C-23.7005 269.617 -23.7128 269.63 -23.7259 269.618C-23.8511 269.673 -23.9632 269.74 -24.0885 269.795C-24.325 269.943 -24.5229 270.103 -24.72 270.287C-24.8058 270.379 -24.8917 270.471 -24.9644 270.575L-24.9767 270.589C-25.0494 270.693 -25.1221 270.797 -25.1817 270.913C-25.1817 270.913 -25.1817 270.914 -25.194 270.927C-25.3982 271.277 -25.5376 271.663 -25.6376 272.086C-25.6376 272.086 -25.6498 272.099 -25.6367 272.112C-25.6701 272.253 -25.6903 272.406 -25.7236 272.547C-25.7236 272.547 -25.7359 272.56 -25.7228 272.572C-25.7834 273.032 -25.8047 273.529 -25.7611 274.061L-25.7603 274.087C-25.7542 274.265 -25.736 274.429 -25.7168 274.619L-25.7159 274.645C-25.6462 275.202 -25.537 275.796 -25.3762 276.414C-25.3631 276.426 -25.3754 276.439 -25.3622 276.451C-25.3045 276.653 -25.26 276.842 -25.1892 277.056C-25.176 277.068 -25.1752 277.093 -25.1752 277.093C-25.1175 277.295 -25.0467 277.509 -24.9759 277.722L-24.9627 277.735C-24.8211 278.162 -24.6533 278.614 -24.4854 279.066C-24.4722 279.079 -24.4714 279.104 -24.4714 279.104C-24.3874 279.33 -24.2912 279.543 -24.2073 279.769C-24.2064 279.795 -24.1933 279.807 -24.1793 279.844C-24.0831 280.057 -23.9861 280.296 -23.8899 280.509C-23.8767 280.521 -23.8759 280.546 -23.8759 280.546C-23.6695 281.01 -23.4377 281.472 -23.205 281.96C-23.1919 281.973 -23.191 281.998 -23.1779 282.01C-23.0686 282.236 -22.9461 282.473 -22.8114 282.697C-22.7974 282.735 -22.7843 282.747 -22.7703 282.785C-22.6478 283.022 -22.5131 283.247 -22.3907 283.484C-22.3775 283.496 -22.3636 283.534 -22.3504 283.546C-22.0801 284.02 -21.7836 284.519 -21.487 285.018C-21.4739 285.03 -21.473 285.055 -21.4599 285.067C-21.312 285.304 -21.1642 285.541 -21.0163 285.777C-21.0024 285.815 -20.9761 285.839 -20.9621 285.877C-20.8143 286.114 -20.6664 286.35 -20.5063 286.574C-20.4801 286.598 -20.4661 286.636 -20.4398 286.661C-20.2788 286.909 -20.1187 287.133 -19.9577 287.382C-19.9446 287.394 -19.9315 287.406 -19.9306 287.432C-19.7697 287.68 -19.5964 287.916 -19.4232 288.152C-19.41 288.164 -19.3969 288.176 -19.3961 288.202C-19.2228 288.438 -19.0496 288.673 -18.8763 288.909C-18.8501 288.934 -18.823 288.984 -18.7967 289.008C-18.6235 289.244 -18.4502 289.479 -18.2647 289.702C-18.2254 289.739 -18.2114 289.777 -18.172 289.813C-17.9987 290.049 -17.8001 290.284 -17.6269 290.52C-17.6006 290.544 -17.5998 290.57 -17.5735 290.594C-17.3871 290.842 -17.2016 291.065 -17.003 291.3C-16.9899 291.312 -16.9768 291.324 -16.9636 291.336C-16.765 291.571 -16.5664 291.806 -16.3677 292.041C-16.3284 292.078 -16.3144 292.115 -16.275 292.152C-16.0895 292.375 -15.8909 292.61 -15.6931 292.819C-15.6537 292.856 -15.6266 292.906 -15.5872 292.943C-15.3886 293.178 -15.1908 293.387 -14.9922 293.622C-14.9659 293.646 -14.9265 293.683 -14.9126 293.721C-14.7017 293.943 -14.4899 294.19 -14.279 294.412L-14.2659 294.424C-14.055 294.646 -13.831 294.88 -13.6201 295.101C-13.5807 295.138 -13.5544 295.163 -13.5151 295.199C-13.3042 295.421 -13.0933 295.643 -12.8832 295.839C-12.8439 295.876 -12.8045 295.913 -12.7651 295.95C-12.5542 296.171 -12.331 296.38 -12.121 296.576C-12.0816 296.613 -12.0554 296.638 -12.016 296.674C-11.7797 296.895 -11.5565 297.104 -11.3203 297.325C-11.3071 297.337 -11.3071 297.337 -11.294 297.349C-11.0709 297.558 -10.8346 297.779 -10.6114 297.987C-10.5852 298.012 -10.5458 298.049 -10.5195 298.073C-10.2964 298.282 -10.0609 298.477 -9.83779 298.686C-9.79841 298.723 -9.75903 298.759 -9.71965 298.796C-9.48422 298.992 -9.27419 299.188 -9.03876 299.384C-8.99938 299.42 -8.96 299.457 -8.90835 299.481C-8.67293 299.676 -8.43751 299.872 -8.18896 300.079C-8.17583 300.092 -8.14958 300.116 -8.13645 300.129C-7.90103 300.324 -7.65334 300.506 -7.41792 300.702C-7.39167 300.726 -7.36542 300.751 -7.3269 300.762C-7.07921 300.945 -6.84379 301.14 -6.60923 301.31C-6.56985 301.347 -6.5182 301.371 -6.47882 301.407C-6.24426 301.577 -5.99657 301.76 -5.76201 301.93C-5.72263 301.967 -5.67099 301.99 -5.6316 302.027C-5.38392 302.209 -5.13709 302.366 -4.87714 302.536C-4.85089 302.56 -4.81238 302.572 -4.79925 302.584C-4.55243 302.741 -4.29247 302.91 -4.04565 303.067C-4.03252 303.079 -3.99401 303.091 -3.98088 303.103C-3.72093 303.272 -3.4741 303.429 -3.21501 303.573C-3.16336 303.596 -3.12399 303.633 -3.08547 303.645C-2.83865 303.802 -2.57956 303.945 -2.3336 304.077C-2.28195 304.1 -2.24258 304.137 -2.19093 304.161C-1.93184 304.305 -1.67275 304.449 -1.42679 304.58C-1.38827 304.591 -1.36201 304.616 -1.32349 304.627C-1.06441 304.771 -0.793057 304.902 -0.533969 305.046C-0.520842 305.058 -0.507712 305.07 -0.495447 305.057C-0.224095 305.188 0.0472487 305.318 0.305474 305.437C0.343992 305.448 0.395642 305.472 0.421896 305.496C0.680121 305.615 0.938349 305.733 1.19657 305.852C1.24822 305.875 1.29986 305.899 1.33838 305.91C1.48019 305.969 1.62199 306.028 1.77693 306.099C-0.389334 313.421 -2.36214 320.825 -4.42597 328.169L-5.40132 331.636C-6.57222 335.707 -7.79475 339.754 -9.12057 343.754C-12.7476 336.133 -24.8706 312.257 -34.035 310.75C-36.8339 310.298 -38.835 311.256 -40.0696 313.079C-40.0941 313.105 -40.0932 313.13 -40.1178 313.157C-40.3228 313.481 -40.5147 313.819 -40.6926 314.193C-40.704 314.232 -40.7163 314.245 -40.7277 314.284C-40.8802 314.658 -41.0319 315.057 -41.1451 315.468C-41.1565 315.506 -41.1556 315.532 -41.167 315.57C-41.2231 315.788 -41.267 315.993 -41.3232 316.211C-41.3232 316.211 -41.3354 316.224 -41.3223 316.237C-41.3662 316.442 -41.3969 316.659 -41.44 316.889C-41.4514 316.928 -41.4505 316.953 -41.4619 316.992C-41.4926 317.209 -41.5225 317.452 -41.5402 317.681C-41.5393 317.706 -41.5516 317.72 -41.5507 317.745C-41.5683 317.974 -41.5737 318.191 -41.5913 318.42C-41.5905 318.446 -41.6019 318.484 -41.5879 318.522C-41.5924 318.764 -41.5969 319.005 -41.5882 319.259C-41.5874 319.285 -41.5856 319.336 -41.5848 319.361C-41.577 319.59 -41.5693 319.818 -41.5484 320.059C-41.5475 320.085 -41.5466 320.11 -41.5326 320.148C-41.524 320.402 -41.49 320.655 -41.456 320.908C-41.4543 320.959 -41.4403 320.997 -41.4517 321.035C-41.4308 321.276 -41.3845 321.516 -41.3636 321.757C-41.3627 321.782 -41.3619 321.808 -41.361 321.833C-41.327 322.086 -41.2798 322.352 -41.2327 322.617C-41.231 322.668 -41.2039 322.718 -41.2021 322.769C-41.1427 323.021 -41.1087 323.274 -41.0362 323.539C-41.023 323.551 -41.0353 323.564 -41.0222 323.577C-40.9496 323.841 -40.8894 324.119 -40.8168 324.383C-40.802 324.446 -40.788 324.484 -40.7731 324.547C-40.6281 325.076 -40.4445 325.617 -40.2486 326.144C-40.2338 326.207 -40.2066 326.257 -40.1918 326.32C-40.0939 326.584 -39.9959 326.848 -39.8849 327.124C-39.8717 327.136 -39.8709 327.162 -39.8709 327.162C-39.7607 327.412 -39.6636 327.65 -39.5534 327.901C-39.5263 327.951 -39.4983 328.026 -39.4712 328.076C-39.3479 328.339 -39.2377 328.59 -39.1021 328.839C-39.0881 328.877 -39.0619 328.902 -39.0479 328.939C-38.9254 329.177 -38.8161 329.402 -38.6814 329.626C-38.6543 329.676 -38.614 329.738 -38.5869 329.788C-38.4513 330.038 -38.3035 330.275 -38.1548 330.537C-38.1277 330.587 -38.1014 330.611 -38.0743 330.661C-37.9396 330.885 -37.8057 331.084 -37.671 331.309C-37.6439 331.359 -37.6036 331.421 -37.5642 331.458C-37.4033 331.706 -37.2432 331.93 -37.0699 332.166C-37.0428 332.216 -36.9903 332.265 -36.9632 332.315C-36.8162 332.526 -36.6569 332.724 -36.4977 332.922C-36.4583 332.959 -36.4312 333.009 -36.3918 333.045C-36.2063 333.268 -36.0208 333.491 -35.8353 333.713C-35.7828 333.762 -35.7557 333.812 -35.7032 333.861C-35.5185 334.059 -35.3593 334.257 -35.1624 334.441C-35.1361 334.465 -35.0967 334.502 -35.0705 334.526C-34.8727 334.736 -34.6496 334.945 -34.4518 335.154C-34.3993 335.203 -34.3468 335.252 -34.2943 335.301C-34.0974 335.485 -33.8873 335.682 -33.6782 335.853C-33.665 335.865 -33.6388 335.889 -33.6257 335.902C-33.3902 336.097 -33.1679 336.28 -32.9325 336.476C-32.88 336.525 -32.8152 336.561 -32.7627 336.61C-32.515 336.792 -32.2796 336.988 -32.0328 337.145C-24.4559 342.431 -17.3625 344.708 -12.8549 345.699C-11.6257 345.963 -10.6032 346.131 -9.79862 346.244C-12.0547 352.793 -14.632 359.239 -17.7766 365.45L-17.8362 365.566C-17.8843 365.644 -17.9194 365.734 -17.9676 365.812L-19.0175 367.832C-19.0175 367.832 -19.0175 367.832 -19.0167 367.857C-19.1008 368 -19.1718 368.155 -19.2559 368.298L-19.2918 368.363C-20.0218 369.697 -20.765 371.019 -21.5466 372.33C-30.9753 388.114 -43.9646 401.603 -59.3459 411.65C-60.8383 412.616 -59.1006 414.757 -57.6204 413.804C-44.0171 404.923 -32.2221 393.319 -23.0948 379.886C-21.0007 376.801 -19.0756 373.607 -17.3045 370.368L-15.9312 367.765C-12.5203 361.164 -9.69058 354.29 -7.23466 347.263C-7.03862 347.422 -6.83032 347.567 -6.62202 347.713C-6.58264 347.75 -6.51786 347.785 -6.47848 347.822C-6.21766 348.017 -5.94459 348.198 -5.67151 348.38C-5.64526 348.404 -5.61986 348.403 -5.5936 348.428C-5.33365 348.597 -5.07371 348.766 -4.81376 348.936C-4.76211 348.959 -4.73586 348.984 -4.69648 349.021C-4.42426 349.177 -4.16431 349.346 -3.89209 349.502C-3.84045 349.526 -3.77568 349.562 -3.7363 349.598C-3.46409 349.754 -3.205 349.898 -2.93365 350.029C-2.89513 350.04 -2.85574 350.077 -2.81723 350.088C-2.54587 350.219 -2.29991 350.351 -2.02856 350.481C-1.99004 350.493 -1.97691 350.505 -1.95066 350.53C-1.67931 350.66 -1.39569 350.778 -1.13747 350.896C-1.08582 350.92 -1.03418 350.943 -0.98254 350.967C-0.71205 351.072 -0.453824 351.191 -0.17107 351.283C-0.119425 351.307 -0.0808966 351.318 -0.0292516 351.342C0.241238 351.447 0.523986 351.539 0.794476 351.644L0.8076 351.657C1.09035 351.749 1.37311 351.841 1.65586 351.933C1.70751 351.957 1.75829 351.955 1.80993 351.979C2.07956 352.058 2.34919 352.138 2.63108 352.205C2.69499 352.215 2.74664 352.239 2.79742 352.237C3.07931 352.304 3.34893 352.384 3.61769 352.438C3.64309 352.438 3.68161 352.449 3.69474 352.461C3.9635 352.516 4.22 352.583 4.47563 352.625C4.51415 352.637 4.56494 352.635 4.60345 352.647C4.87222 352.701 5.15324 352.742 5.40888 352.784C5.47279 352.795 5.52357 352.793 5.58748 352.804C5.85538 352.833 6.12415 352.887 6.39205 352.916C6.43057 352.928 6.48135 352.926 6.51987 352.937C6.78777 352.966 7.03028 352.996 7.28506 353.013C7.31045 353.012 7.34896 353.024 7.37435 353.023C7.64225 353.052 7.9093 353.056 8.18946 353.071C8.24024 353.07 8.30415 353.08 8.35493 353.079C8.62197 353.082 8.87674 353.099 9.14378 353.103C9.19456 353.101 9.24534 353.099 9.29613 353.097C9.56316 353.101 9.83021 353.105 10.0972 353.108L10.1226 353.107C10.3897 353.111 10.669 353.102 10.9352 353.08C10.9859 353.078 11.0367 353.076 11.0875 353.075C11.3414 353.066 11.6076 353.044 11.8615 353.036C11.9123 353.034 11.9631 353.032 12.0261 353.017C12.2923 352.996 12.5585 352.974 12.8115 352.94C12.8369 352.939 12.8623 352.938 12.8877 352.937C13.1285 352.916 13.3815 352.882 13.6346 352.848C13.6853 352.846 13.723 352.832 13.7738 352.831C14.0268 352.797 14.2799 352.763 14.5198 352.716C14.6564 352.623 14.7072 352.621 14.7703 352.606Z" fill="#3D4775"/>
<path d="M31.9886 403.958C31.9886 403.958 -70.304 509.417 -89.6846 602.116C-96.2645 633.568 -94.3677 658.491 -88.9721 677.689C-77.736 717.72 -28.4601 731 1.11765 701.979C15.3029 688.063 29.3014 667.433 39.1953 636.868C68.3423 546.798 31.9886 403.958 31.9886 403.958Z" fill="#2F8C91"/>
<path d="M-29.4485 646.65C-27.785 640.327 -26.1144 634.014 -24.451 627.691C-1.13634 622.324 22.1854 616.966 45.5097 611.591C45.6522 610.835 45.7947 610.078 45.9204 609.319C22.6686 614.67 -0.583239 620.02 -23.8351 625.371C-22.2606 619.402 -20.6835 613.416 -19.109 607.447C3.11476 601.955 25.5634 597.46 48.1643 593.986C48.2414 593.263 48.3353 592.542 48.4124 591.819C25.9299 595.25 3.61925 599.688 -18.4904 605.11C-16.9767 599.368 -15.463 593.626 -13.9493 587.884C7.31229 583.608 28.5642 579.339 49.8258 575.063C49.8693 574.335 49.9128 573.607 49.9491 572.869C28.8564 577.11 7.7469 581.348 -13.3458 585.589C-11.7634 579.568 -10.1642 573.551 -8.58179 567.53C10.9134 561.818 30.6289 556.909 50.516 552.841C50.5161 552.115 50.5233 551.399 50.5137 550.68C30.8415 554.694 11.3365 559.521 -7.95535 565.142C-6.32006 558.946 -4.68477 552.75 -3.05656 546.545C14.5216 541.656 32.2917 537.532 50.1979 534.199C50.1786 533.488 50.1425 532.773 50.1231 532.062C32.4486 535.343 14.9155 539.381 -2.43276 544.174C-1.1041 539.129 0.234293 534.077 1.56296 529.033C17.2664 523.969 33.1766 519.627 49.2479 516.028C49.1949 515.312 49.149 514.605 49.096 513.888C33.2857 517.413 17.6487 521.656 2.20439 526.603C3.82469 520.449 5.44498 514.294 7.06528 508.14C20.0832 502.521 33.6281 498.339 47.4948 495.642C47.4224 494.94 47.35 494.238 47.2705 493.525C33.7248 496.149 20.4947 500.187 7.73753 505.566C8.29262 503.474 8.84063 501.371 9.39572 499.278C9.66171 499.004 9.7993 498.614 9.68472 498.185C10.083 496.663 10.4883 495.151 10.8865 493.628C21.936 487.994 33.8361 484.433 46.0916 483.089C46.0023 482.384 45.9202 481.689 45.831 480.984C33.9488 482.307 22.4006 485.651 11.6064 490.914C12.8258 486.298 14.0355 481.69 15.2549 477.075C24.6299 473.203 34.2383 470.05 44.0439 467.627C43.9378 466.92 43.8389 466.222 43.7329 465.514C34.2678 467.85 24.9813 470.869 15.9219 474.536C17.0479 470.248 18.1907 465.962 19.3167 461.673C25.9004 460.109 32.4673 458.542 39.051 456.978C40.1326 456.716 41.2382 456.467 42.3198 456.205C42.2041 455.505 42.0954 454.814 41.9868 454.124C40.3692 454.513 38.7568 454.867 37.1586 455.242C31.4151 456.603 25.6787 457.975 19.9353 459.337C20.8912 455.704 21.8446 452.089 22.8005 448.457C28.4137 446.043 34.1201 443.862 39.9143 441.948C39.7914 441.238 39.6589 440.535 39.5334 439.842C34.1115 441.629 28.7588 443.638 23.4922 445.869C24.6103 441.632 25.7187 437.402 26.8439 433.175C30.3783 431.796 33.9564 430.581 37.5921 429.55C37.4524 428.837 37.3101 428.142 37.1749 427.456C33.916 428.387 30.6793 429.454 27.4985 430.66C28.1681 428.103 28.8448 425.557 29.5144 423C31.5951 422.176 33.6687 421.341 35.7397 420.523C35.5929 419.801 35.4409 419.112 35.296 418.434C33.5902 419.115 31.8845 419.797 30.1884 420.471C31.1902 416.653 32.1991 412.846 33.2105 409.021C32.4436 405.735 31.9861 403.958 31.9861 403.958C31.9861 403.958 30.7392 405.235 28.5098 407.638C27.389 411.893 26.2683 416.147 25.1476 420.401C24.3182 418.357 23.3386 416.394 22.2449 414.502C21.766 415.04 21.2774 415.586 20.7693 416.146C22.137 418.606 23.303 421.201 24.2242 423.933C23.448 426.902 22.655 429.868 21.8788 432.837C20.2645 428.851 18.3275 425.061 16.0678 421.466C15.5888 422.005 15.117 422.553 14.6257 423.116C16.9812 426.927 18.9796 430.989 20.5783 435.243C20.6803 435.53 20.8681 435.708 21.0832 435.82C19.6382 441.284 18.2029 446.741 16.7579 452.205C13.5157 445.606 10.0383 439.136 6.35219 432.792C5.87774 433.358 5.39357 433.931 4.91648 434.513C8.84452 441.297 12.525 448.235 15.9438 455.308C14.653 460.218 13.3525 465.136 12.0618 470.046C7.46787 461.051 2.64144 452.168 -2.38656 443.421C-2.86365 444.004 -3.32393 444.589 -3.80366 445.188C1.45214 454.356 6.47986 463.663 11.2627 473.108C9.68027 479.128 8.08814 485.155 6.50574 491.176C0.810642 479.053 -5.34246 467.166 -11.9297 455.526C-12.3926 456.129 -12.8555 456.731 -13.3281 457.34C-6.51575 469.417 -0.176377 481.77 5.67846 494.364C4.63616 498.333 3.58412 502.309 2.54182 506.278C-5.86743 494.121 -14.2767 481.964 -22.6859 469.807C-23.1223 470.404 -23.5587 471.002 -24.0048 471.607C-15.3997 484.057 -6.78492 496.499 1.82724 508.958C-0.203653 516.659 -2.23455 524.36 -4.26545 532.061C-12.4173 514.887 -21.4852 498.183 -31.4292 482.027C-31.8708 482.659 -32.3028 483.283 -32.7444 483.915C-22.5965 500.479 -13.361 517.602 -5.09718 535.223C-6.95094 542.277 -8.8118 549.322 -10.6753 556.384C-22.3663 538.776 -34.0643 521.159 -45.7553 503.552C-46.1659 504.206 -46.5837 504.85 -46.9846 505.497C-35.1191 523.368 -23.2536 541.238 -11.3783 559.101C-12.0858 561.792 -12.7933 564.482 -13.5079 567.163C-14.3652 570.434 -15.2393 573.703 -16.0966 576.974C-29.292 557.962 -42.4946 538.94 -55.6901 519.928C-56.0769 520.595 -56.4734 521.268 -56.853 521.945C-43.5016 541.173 -30.1528 560.419 -16.8014 579.648C-18.1301 584.692 -19.4588 589.737 -20.7874 594.781C-36.1343 576.662 -51.4812 558.542 -66.8378 540.43C-67.1839 541.112 -67.5299 541.793 -67.8689 542.485C-52.4769 560.646 -37.0945 578.815 -21.7025 596.976C-21.6148 597.077 -21.5218 597.144 -21.4289 597.211C-23.3329 604.424 -25.2272 611.63 -27.1312 618.843C-43.2171 598.763 -59.2933 578.676 -75.3792 558.596C-75.6898 559.327 -76.0102 560.065 -76.3208 560.796C-60.1498 580.994 -43.9789 601.191 -27.7982 621.382C-29.2255 626.788 -30.6432 632.186 -32.0705 637.591C-49.7339 619.928 -67.414 602.262 -85.0773 584.598C-85.3162 585.367 -85.5454 586.127 -85.7675 586.898C-68.0732 604.584 -50.3815 622.287 -32.6872 639.972C-34.2107 645.722 -35.7173 651.474 -37.2407 657.223C-56.0194 642.161 -73.9465 626.04 -90.9484 608.943C-91.0996 609.812 -91.2482 610.664 -91.38 611.519C-74.4198 628.496 -56.5442 644.504 -37.8169 659.453C-40.2715 668.786 -42.743 678.116 -45.1977 687.449C-62.0488 674.006 -78.2417 659.754 -93.7533 644.768C-93.7239 645.805 -93.6822 646.818 -93.6333 647.84C-78.4246 662.447 -62.5541 676.334 -46.074 689.448C-45.974 689.525 -45.8713 689.585 -45.7562 689.62C-46.7835 693.547 -47.8277 697.472 -48.855 701.4C-62.7664 691.271 -76.6681 681.136 -90.5724 671.018C-90.3412 672.086 -90.0906 673.14 -89.8374 674.176C-76.3669 683.982 -62.8964 693.789 -49.4356 703.602C-50.4647 707.486 -51.4868 711.379 -52.5062 715.255C-50.9531 715.731 -49.3629 716.134 -47.772 716.476C-47.4856 715.4 -47.1992 714.325 -46.9129 713.249C-32.0986 710.602 -17.2844 707.955 -2.47986 705.316C-1.44572 704.469 -0.437296 703.566 0.559589 702.627C-15.0675 705.41 -30.6875 708.204 -46.3243 710.995C-45.4018 707.524 -44.4961 704.05 -43.5736 700.579C-25.1145 697.121 -6.65286 693.647 11.8062 690.189C12.4573 689.371 13.1039 688.526 13.7435 687.671C-5.15952 691.218 -24.0723 694.771 -42.9824 698.308C-41.5577 692.92 -40.1427 687.538 -38.718 682.15C-17.7068 678.605 3.29731 675.051 24.3085 671.506C24.7473 670.725 25.1862 669.944 25.6205 669.136C4.37056 672.723 -16.8723 676.319 -38.1126 679.899C-36.88 675.198 -35.6306 670.5 -34.398 665.799C-34.3601 665.665 -34.3319 665.538 -34.294 665.404C-12.1166 660.491 10.2833 656.758 32.8287 654.203C33.149 653.465 33.4623 652.717 33.7684 651.959C11.1151 654.489 -11.3953 658.214 -33.6808 663.101C-33.5186 662.496 -33.3565 661.892 -33.2041 661.294C-33.1423 661.172 -33.1044 661.038 -33.1028 660.916C-32.0657 656.981 -31.0287 653.047 -29.9819 649.105C-6.61865 642.082 17.0493 636.209 40.9547 631.475C41.1671 630.712 41.3963 629.951 41.6016 629.178C17.589 633.825 -6.07627 639.681 -29.4485 646.65Z" fill="#286F7F"/>
<path d="M-3.48421 534.877C-19.1279 532.467 -39.3393 541.74 -46.5047 545.38C-40.5941 536.793 -35.2586 528.07 -30.5254 519.212C21.8274 516.833 69.9034 489.554 69.9034 489.554C69.9034 489.554 58.2795 493.589 25.4834 497.622C-3.46504 501.186 -22.8664 512.808 -29.5672 517.401C-25.1948 509.054 -21.3578 500.618 -18.0668 492.1C-16.8741 489.011 -15.758 485.91 -14.7125 482.806C-0.792545 474.851 23.5584 480.29 46.3666 475.849C63.5323 472.513 79.1823 446.685 79.1823 446.685C79.1823 446.685 62.8868 468.325 36.1426 465.66C14.782 463.531 -6.79572 477.052 -14.6394 482.583C-11.3289 472.699 -8.7493 462.725 -6.92073 452.701C-2.13219 451.841 13.8506 448.809 29.5019 444.177C47.9396 438.712 87.1462 418.856 87.1462 418.856C87.1462 418.856 69.936 419.411 46.3292 425.141C27.2579 429.777 0.0398158 447.361 -6.7666 451.888C-5.28195 443.551 -4.30351 435.179 -3.84189 426.778C0.871965 425.374 16.8094 420.552 33.1589 414.702C52.6366 407.729 96.6784 376.375 96.6784 376.375C96.6784 376.375 82.2136 381.524 51.1713 392.233C24.4865 401.445 1.98667 420.639 -3.80608 425.85C-3.42211 418.275 -3.45139 410.681 -3.90458 403.076C-1.16071 397.631 4.58377 381.276 -1.69586 347.692C-9.07646 308.195 -14.5073 296.11 -14.5073 296.11C-14.5073 296.11 -26.0768 368.409 -6.70891 402.704C-6.28235 409.598 -6.2248 416.352 -6.4656 422.967C-11.4512 416.537 -29.9107 393.739 -54.6392 375.61C-83.7215 354.297 -93.1921 349.003 -93.1921 349.003C-93.1921 349.003 -53.6772 394.336 -34.6104 407.115C-19.5643 417.194 -9.92081 422.32 -6.51756 424.044C-6.91206 433.077 -7.90806 441.85 -9.38759 450.323C-14.3437 444.1 -33.9847 420.921 -56.8104 413.154C-83.2765 404.147 -96.7028 385.572 -96.7028 385.572C-96.7028 385.572 -88.3486 406.423 -55.7586 423.843C-28.7248 438.297 -13.7994 448.052 -9.49366 450.97C-11.4767 462.087 -14.2931 472.697 -17.7436 482.758C-21.5279 476.949 -34.1127 459.533 -54.7791 449.122C-79.8611 436.485 -104.503 413.14 -104.503 413.14C-104.503 413.14 -80.9226 449.596 -52.0165 468.089C-31.1699 481.428 -21.9416 484.164 -18.4054 484.653C-22.4182 496.078 -27.2231 506.792 -32.437 516.731C-35.0059 511.339 -44.4571 493.955 -66.2423 477.446C-92.4473 457.581 -112.76 442.266 -112.76 442.266C-112.76 442.266 -63.8789 506.483 -33.0751 517.957C-38.325 527.804 -43.9733 536.871 -49.7017 545.104C-51.4016 540.157 -57.7196 525.403 -75.2708 514.1C-96.6603 500.328 -102.99 491.055 -109.805 477.684C-109.805 477.684 -100.401 507.564 -85.6985 518.618C-68.4991 531.544 -54.9483 536.923 -49.913 545.405C-53.7406 550.903 -57.5991 556.013 -61.3635 560.735C-91.6749 598.637 -123.746 620.148 -124.069 620.372C-124.709 620.804 -124.894 621.662 -124.484 622.311C-124.427 622.39 -124.37 622.469 -124.302 622.543C-123.851 622.986 -123.137 623.072 -122.569 622.71C-122.241 622.496 -89.8627 600.784 -59.2703 562.556C-55.1111 557.359 -51.1824 552.098 -47.4676 546.775C-40.9394 546.706 -17.1033 546.517 -1.42883 547.429C16.8734 548.492 51.7545 520.409 51.7545 520.409C51.7545 520.409 15.8671 537.861 -3.48421 534.877Z" fill="#E5674E"/>
<path d="M166.066 143.54C166.066 143.54 138.021 -20.7441 64.8537 -84.3373C40.0174 -105.917 15.455 -114.867 -6.16655 -117.253C-51.2618 -122.246 -97.5519 -71.7158 -90.8183 -24.8804C-87.5896 -2.4109 -77.9759 22.8403 -56.2514 47.8296C7.7323 121.428 166.066 143.54 166.066 143.54Z" fill="#BAE3DD"/>
<path d="M-18.1722 -35.194C-13.4204 -30.4559 -8.66755 -25.7405 -3.91577 -21.0024C-14.9492 8.10472 -25.9941 37.2255 -37.0275 66.3327C-36.4238 66.8359 -35.8086 67.3255 -35.1933 67.8151C-24.1851 38.7805 -13.1769 9.74595 -2.18021 -19.275C2.31402 -14.8089 6.80715 -10.3202 11.3014 -5.8542C1.1273 22.0637 -10.1096 49.7872 -22.4267 77.2302C-21.8082 77.6517 -21.1897 78.0732 -20.5816 78.4857C-8.32628 51.2016 2.90288 23.6369 13.0577 -4.10858C17.3765 0.180621 21.6941 4.4925 26.0128 8.7817C15.3777 35.0439 4.73107 61.3198 -5.90403 87.582C-5.25103 87.9627 -4.60842 88.3343 -3.94392 88.7014C6.6167 62.6343 17.1773 36.5672 27.738 10.5001C32.2623 15.016 36.7877 19.5093 41.3119 24.0252C33.2238 48.9156 24.2425 73.6887 14.3701 98.299C15.0368 98.6206 15.7138 98.9514 16.3805 99.2731C26.1637 74.9396 35.0777 50.4389 43.1088 25.8297C47.7681 30.4635 52.4379 35.1064 57.0858 39.7538C49.5556 62.0805 41.1759 84.2807 31.9604 106.295C32.6397 106.581 33.3294 106.875 34.0087 107.161C43.1119 85.45 51.4012 63.5493 58.8618 41.5402C62.6528 45.3216 66.4554 49.0894 70.2464 52.8708C64.1705 73.1323 57.2659 93.2854 49.5659 113.312C50.2682 113.57 50.9705 113.828 51.6613 114.1C59.2468 94.4229 66.0599 74.592 72.064 54.6935C76.6922 59.3001 81.3204 63.9067 85.9486 68.5133C82.231 85.9376 76.8149 103.322 69.7988 120.422C70.5022 120.657 71.2171 120.879 71.9205 121.115C78.798 104.414 84.1171 87.4654 87.8804 70.4357C89.4613 72.0045 91.0317 73.5642 92.601 75.1466C92.678 75.5685 92.9426 75.9177 93.4278 75.9627C94.5641 77.0963 95.7108 78.2388 96.847 79.3724C94.4946 94.5591 89.6281 109.775 82.45 124.415C83.1649 124.637 83.8809 124.837 84.5958 125.058C91.5362 110.849 96.3681 96.1231 98.8817 81.4081C102.353 84.8631 105.814 88.309 109.285 91.7639C106.447 104.233 102.767 116.653 98.2907 128.97C99.0286 129.164 99.7446 129.363 100.471 129.572C104.808 117.677 108.379 105.707 111.196 93.6682C114.419 96.8829 117.642 100.098 120.866 103.289C117.801 111.517 114.735 119.767 111.671 127.995C111.172 129.356 110.65 130.722 110.151 132.083C110.878 132.269 111.606 132.454 112.323 132.631C113.071 130.612 113.851 128.597 114.598 126.6C117.277 119.407 119.944 112.228 122.622 105.035C125.349 107.746 128.077 110.458 130.804 113.169C129.204 120.688 127.29 128.193 125.107 135.676C125.856 135.857 126.607 136.015 127.335 136.178C129.399 129.158 131.202 122.148 132.747 115.101C135.928 118.279 139.111 121.435 142.292 124.613C141.155 129.273 139.814 133.92 138.289 138.549C139.039 138.707 139.79 138.865 140.52 139.005C141.903 134.844 143.113 130.674 144.182 126.499C146.104 128.413 148.025 130.326 149.947 132.239C149.293 134.98 148.629 137.734 147.986 140.484C148.758 140.638 149.51 140.774 150.24 140.914C150.772 138.659 151.326 136.399 151.858 134.144C154.73 137.005 157.591 139.857 160.463 142.718C164.086 143.278 166.066 143.54 166.066 143.54C166.066 143.54 165.73 141.544 165.018 137.919C161.826 134.732 158.623 131.558 155.421 128.361C157.903 128.328 160.406 128.077 162.917 127.667C162.749 126.882 162.583 126.075 162.385 125.24C159.145 125.723 155.92 125.888 152.744 125.718C150.513 123.487 148.281 121.279 146.05 119.048C150.873 118.977 155.762 118.443 160.651 117.46C160.462 116.68 160.284 115.886 160.107 115.07C154.936 116.066 149.768 116.546 144.692 116.468C144.356 116.459 144.047 116.591 143.799 116.777C139.687 112.692 135.587 108.593 131.475 104.508C139.863 103.74 148.288 102.65 156.761 101.248C156.561 100.458 156.362 99.6462 156.142 98.8388C147.102 100.315 138.112 101.432 129.14 102.186C125.441 98.5091 121.743 94.832 118.066 91.1503C129.63 89.8907 141.229 88.3317 152.854 86.4867C152.633 85.6793 152.412 84.8946 152.181 84.078C140.01 86.0141 127.866 87.6188 115.761 88.8788C111.237 84.3629 106.701 79.8606 102.187 75.3537C117.415 74.2415 132.75 72.4895 148.158 70.1385C147.915 69.3356 147.673 68.5328 147.43 67.7299C131.467 70.1401 115.591 71.8925 99.8014 72.9643C96.8164 69.9809 93.8302 67.0201 90.8556 64.0458C107.989 59.8427 125.111 55.6305 142.244 51.4273C141.989 50.6607 141.734 49.8942 141.469 49.1185C123.919 53.4308 106.38 57.7295 88.8406 62.0508C83.0554 56.2926 77.2597 50.5253 71.4745 44.767C93.0976 43.1108 114.924 40.1659 136.854 35.987C136.578 35.2022 136.281 34.4221 135.994 33.6283C113.553 37.8575 91.2283 40.7936 69.0876 42.4003C63.7885 37.1135 58.4779 31.8405 53.1892 26.5628C77.665 21.0347 102.141 15.5066 126.628 9.96494C126.297 9.20294 125.976 8.45001 125.645 7.68801C100.808 13.3025 75.9586 18.9307 51.1211 24.5452C49.1072 22.5275 47.0818 20.5235 45.0679 18.5058C42.6095 16.0529 40.151 13.6 37.6914 11.1697C64.5282 4.53312 91.3431 -2.09894 118.18 -8.73556C117.815 -9.47939 117.461 -10.2142 117.097 -10.958C89.9638 -4.24859 62.8311 2.46083 35.6765 9.17478C31.8854 5.39338 28.0829 1.62559 24.2919 -2.15581C51.755 -11.6511 79.2401 -21.151 106.703 -30.6463C106.304 -31.3493 105.905 -32.0522 105.495 -32.7416C77.9543 -23.219 50.414 -13.6964 22.8737 -4.17386C22.7194 -4.11932 22.5859 -4.04664 22.4732 -3.95582C17.0494 -9.35134 11.6256 -14.7469 6.21325 -20.156C36.0248 -29.612 65.826 -39.077 95.6375 -48.533C95.1728 -49.2223 94.7081 -49.9116 94.2319 -50.5873C64.2661 -41.0768 34.2784 -31.5617 4.31254 -22.0512C0.252472 -26.0911 -3.80758 -30.1309 -7.87804 -34.1798C20.775 -46.5387 49.4061 -58.893 78.0592 -71.2519C77.5151 -71.8686 76.9492 -72.4807 76.3937 -73.0838C47.7072 -60.7067 19.0208 -48.3297 -9.65408 -35.9662C-13.9832 -40.2645 -18.3008 -44.5764 -22.6299 -48.8747C4.34367 -63.6688 31.734 -77.0114 59.3983 -88.8616C58.7 -89.4237 57.9902 -89.9722 57.2907 -90.5117C29.767 -78.6571 2.53913 -65.3146 -24.3031 -50.5477C-31.3285 -57.5302 -38.3321 -64.5171 -45.3575 -71.4996C-21.2187 -84.7947 3.22431 -96.9966 27.884 -108.087C26.8979 -108.522 25.9211 -108.925 24.9442 -109.328C0.856784 -98.4243 -23.0233 -86.4405 -46.6072 -73.4179C-46.7522 -73.3316 -46.8649 -73.2408 -46.9892 -73.1364C-49.9441 -76.0699 -52.8876 -79.017 -55.8426 -81.9505C-36.8204 -93.3732 -17.7993 -104.773 1.22285 -116.196C0.0632329 -116.404 -1.0756 -116.594 -2.23743 -116.756C-20.6566 -105.706 -39.0758 -94.6557 -57.5065 -83.5919C-60.4303 -86.4982 -63.3541 -89.4045 -66.2664 -92.3245C-67.7943 -90.7491 -69.26 -89.1194 -70.6632 -87.4353C-69.8468 -86.6283 -69.0408 -85.8303 -68.2359 -85.0096C-75.9641 -66.8523 -83.6808 -48.7085 -91.409 -30.5512C-91.3226 -28.986 -91.1821 -27.4208 -90.9864 -25.8784C-82.842 -45.0205 -74.6862 -64.1763 -66.5419 -83.3184C-63.9391 -80.7158 -61.3144 -78.1178 -58.7116 -75.5153C-68.1768 -52.8199 -77.642 -30.1244 -87.1291 -7.42446C-86.804 -6.31311 -86.4686 -5.19271 -86.1113 -4.07684C-76.4134 -27.3259 -66.7155 -50.575 -57.0072 -73.815C-52.9575 -69.7843 -48.9079 -65.7535 -44.8582 -61.7227C-56.0051 -36.0726 -67.1415 -10.4135 -78.2884 15.2366C-77.8637 16.0802 -77.4286 16.9328 -76.9831 17.7946C-65.7136 -8.15048 -54.4441 -34.0955 -43.1746 -60.0406C-39.6411 -56.5312 -36.1087 -52.9992 -32.5752 -49.4898C-32.4713 -49.3992 -32.3789 -49.2949 -32.2865 -49.1906C-42.9648 -21.5945 -54.887 5.74384 -68.0152 32.7154C-67.5401 33.4138 -67.0535 34.0986 -66.5784 34.797C-53.3582 7.71644 -41.3327 -19.7444 -30.5728 -47.4586C-30.1178 -47.0142 -29.664 -46.5472 -29.2091 -46.1029C-29.1396 -45.9714 -29.0357 -45.8807 -28.9192 -45.8263C-25.9539 -42.8837 -23 -39.9275 -20.0347 -36.9849C-29.558 -7.08023 -40.3516 22.6619 -52.4004 52.1599C-51.8334 52.7494 -51.2663 53.3388 -50.6993 53.9283C-38.564 24.4348 -27.7382 -5.30291 -18.1722 -35.194Z" fill="#97C9CE"/>
<path d="M-41.7195 51.7477C-56.8667 58.2298 -79.4032 54.0178 -87.4733 52.1762C-79.4624 59.355 -72.0122 66.8421 -65.137 74.6C-11.9362 63.536 42.936 78.8016 42.936 78.8016C42.936 78.8016 30.289 77.7031 -3.64304 82.0586C-33.5875 85.9045 -55.8897 79.1152 -63.7181 76.1773C-57.3192 83.5114 -51.4391 91.0855 -46.0764 98.8818C-44.1312 101.7 -42.279 104.563 -40.4811 107.44C-24.5918 111.93 -1.39746 100.121 22.5703 98.7459C40.6301 97.7178 62.5476 119.868 62.5476 119.868C62.5476 119.868 40.9756 102.118 14.7341 111.709C-6.21982 119.378 -31.1672 111.221 -40.3742 107.631C-34.6742 116.794 -29.6933 126.251 -25.4282 135.966C-20.4069 135.608 -3.6226 134.55 13.2343 135.232C33.0807 136.032 77.2439 146.068 77.2439 146.068C77.2439 146.068 59.812 149.952 34.7032 150.21C14.4263 150.434 -17.1655 139.594 -25.0916 136.756C-21.6003 144.827 -18.6037 153.069 -16.1196 161.479C-11.0432 161.685 6.12407 162.469 23.9685 164.2C45.2422 166.29 97.0321 186.753 97.0321 186.753C97.0321 186.753 81.2616 185.253 47.4892 182.385C18.4552 179.927 -8.75973 166.25 -15.8346 162.444C-13.6309 170.034 -11.8467 177.747 -10.4645 185.584C-6.39366 190.407 3.31144 205.506 5.05359 241.21C7.11283 283.19 4.57476 296.85 4.57476 296.85C4.57476 296.85 -24.4261 226.472 -13.1934 186.699C-14.4119 179.599 -15.97 172.72 -17.8166 166.085C-21.279 173.9 -34.36 201.785 -54.861 226.536C-78.9729 255.658 -87.2095 263.458 -87.2095 263.458C-87.2095 263.458 -58.3836 207.288 -42.2879 189.398C-29.5908 175.303 -21.1319 167.596 -18.1063 164.975C-20.6726 155.907 -23.7758 147.276 -27.307 139.056C-30.801 146.634 -44.9586 175.23 -66.0401 188.988C-90.4811 204.939 -99.5045 227.249 -99.5045 227.249C-99.5045 227.249 -96.1245 203.94 -67.5503 177.872C-43.853 156.237 -31.2061 142.498 -27.5701 138.436C-32.237 127.673 -37.6092 117.637 -43.4898 108.312C-45.9072 115.179 -54.3587 136.08 -72.6346 151.979C-94.8046 171.267 -113.974 201.287 -113.974 201.287C-113.974 201.287 -99.0327 158.216 -74.4227 132.011C-56.6722 113.102 -48.0554 107.955 -44.6251 106.545C-51.4049 95.9803 -58.8023 86.3503 -66.4411 77.6181C-67.7275 83.7605 -73.0488 103.819 -90.9903 126.194C-112.557 153.101 -129.288 173.874 -129.288 173.874C-129.288 173.874 -95.5881 96.1233 -67.3742 76.5557C-75.0035 67.9146 -82.8743 60.1715 -90.6103 53.2893C-91.1419 58.7446 -93.9309 75.3591 -108.859 91.3382C-127.052 110.819 -131.18 121.856 -134.828 137.181C-134.828 137.181 -132.561 104.435 -120.438 89.4375C-106.256 71.8903 -93.9378 62.9401 -90.9077 53.0447C-96.0656 48.4626 -101.17 44.2645 -106.113 40.4426C-145.683 9.77466 -183.082 -3.77637 -183.442 -3.9185C-184.199 -4.18816 -184.585 -5.01865 -184.32 -5.78792C-184.292 -5.89365 -184.231 -5.97817 -184.188 -6.06434C-183.835 -6.62682 -183.135 -6.90399 -182.481 -6.68004C-182.102 -6.55416 -144.343 7.139 -104.42 38.0386C-98.9963 42.2306 -93.7804 46.5655 -88.7696 51.0075C-82.1971 49.4051 -58.1857 43.4493 -42.6439 38.4843C-24.5065 32.6984 17.3058 52.1875 17.3058 52.1875C17.3058 52.1875 -22.9722 43.7447 -41.7195 51.7477Z" fill="#FCF4DF"/>
<path d="M78.0634 543.129C78.0634 543.129 -57.2372 598.489 -111.568 675.677C-130.006 701.865 -138.104 725.491 -140.739 745.282C-146.246 786.544 -106.358 818.653 -67.817 803.996C-49.3336 796.969 -28.372 783.708 -7.2492 759.674C54.9891 688.847 78.0634 543.129 78.0634 543.129Z" fill="#1A4143"/>
<path d="M-73.9773 740.891C-69.9586 735.764 -65.9374 730.649 -61.9187 725.522C-38.4477 730.028 -14.9741 734.546 8.50863 739.049C8.93777 738.413 9.36689 737.776 9.78166 737.131C-13.6253 732.635 -37.0322 728.139 -60.4392 723.644C-56.6416 718.805 -52.8348 713.952 -49.0373 709.114C-26.5162 713.064 -4.18264 718.02 17.8875 723.974C18.2435 723.342 18.6138 722.719 18.9697 722.087C-2.97498 716.142 -25.1595 711.189 -47.5486 707.221C-43.8962 702.566 -40.2438 697.911 -36.5914 693.257C-15.4315 697.933 5.71668 702.613 26.8766 707.29C27.2038 706.639 27.531 705.989 27.8556 705.327C6.86426 700.686 -14.1415 696.036 -35.1328 691.395C-31.3078 686.513 -27.4684 681.64 -23.6433 676.758C-3.53423 679.403 16.4593 682.874 36.2784 687.186C36.5651 686.52 36.8544 685.866 37.1293 685.202C17.5284 680.928 -2.24028 677.467 -22.1271 674.821C-18.1843 669.799 -14.2416 664.777 -10.3014 659.744C7.72682 662.369 25.629 665.773 43.3438 669.958C43.607 669.297 43.8558 668.627 44.1189 667.967C26.6368 663.828 8.98547 660.441 -8.79438 657.821C-5.58678 653.732 -2.36741 649.639 0.8402 645.549C17.2208 647.255 33.5054 649.708 49.6445 652.907C49.8789 652.228 50.1159 651.561 50.3503 650.882C34.4792 647.721 18.4834 645.289 2.38645 643.58C6.29915 638.59 10.2118 633.601 14.1246 628.611C28.2645 628.722 42.3198 630.364 56.084 633.499C56.2948 632.825 56.5057 632.152 56.714 631.466C43.2726 628.395 29.5624 626.747 15.7558 626.522C17.0902 624.827 18.4219 623.12 19.7562 621.425C20.1079 621.281 20.3878 620.979 20.4521 620.539C21.4175 619.304 22.3856 618.081 23.351 616.846C35.6942 616.146 47.9981 617.693 59.7529 621.416C59.9494 620.734 60.1485 620.063 60.345 619.38C48.9404 615.789 37.0444 614.185 25.0817 614.647C28.0198 610.906 30.9462 607.169 33.8843 603.429C43.9983 603.669 54.0426 604.663 63.9792 606.406C64.1614 605.714 64.3461 605.034 64.5282 604.342C54.938 602.656 45.2413 601.67 35.4972 601.37C38.2208 597.891 40.9588 594.423 43.6824 590.944C50.3294 592.172 56.9621 593.391 63.6091 594.619C64.703 594.816 65.8139 595.035 66.9078 595.232C67.0781 594.543 67.2511 593.866 67.4241 593.188C65.7891 592.891 64.1725 592.564 62.561 592.261C56.7635 591.187 50.9686 590.125 45.1711 589.051C47.48 586.106 49.7797 583.176 52.0886 580.231C58.1822 580.287 64.2691 580.594 70.331 581.182C70.4987 580.481 70.6547 579.783 70.8133 579.096C65.1422 578.543 59.4475 578.22 53.7434 578.137C56.4395 574.703 59.1239 571.271 61.8226 567.849C65.6039 568.013 69.3602 568.346 73.0968 568.871C73.2502 568.161 73.3945 567.465 73.5413 566.781C70.1889 566.318 66.8038 565.987 63.4147 565.806C65.0368 563.732 66.6615 561.67 68.2836 559.596C70.5147 559.681 72.7433 559.754 74.9626 559.842C75.1134 559.12 75.2459 558.427 75.3809 557.746C73.5498 557.681 71.7186 557.616 69.8992 557.549C72.3232 554.452 74.7498 551.367 77.1856 548.268C77.7799 544.944 78.0621 543.129 78.0621 543.129C78.0621 543.129 76.416 543.797 73.4259 545.099C70.7206 548.548 68.0153 551.997 65.3101 555.446C65.3572 553.235 65.2345 551.039 64.9797 548.861C64.3286 549.161 63.6657 549.464 62.9793 549.772C63.2611 552.582 63.305 555.434 63.0705 558.312C61.188 560.721 59.2912 563.121 57.4088 565.531C57.5031 561.222 57.2248 556.962 56.574 552.751C55.9228 553.051 55.2743 553.363 54.6023 553.681C55.2556 558.129 55.4827 562.663 55.268 567.212C55.2482 567.516 55.35 567.755 55.5028 567.945C52.0231 572.373 48.5552 576.797 45.0755 581.225C44.7103 573.86 44.0785 566.52 43.2062 559.21C42.5485 559.537 41.8791 559.867 41.2122 560.208C42.1326 568.019 42.7654 575.871 43.1054 583.742C39.9854 587.724 36.8537 591.708 33.7337 595.69C33.0763 585.581 32.1613 575.482 31.0084 565.425C30.3416 565.766 29.6891 566.117 29.0131 566.473C30.2088 577.007 31.1405 587.578 31.7937 598.175C27.9687 603.057 24.1318 607.942 20.3068 612.824C19.875 599.401 18.9307 586.009 17.4911 572.669C16.8295 573.034 16.1679 573.399 15.4945 573.767C16.9678 587.6 17.8986 601.495 18.2909 615.414C15.7701 618.633 13.2375 621.854 10.7167 625.073C7.81256 610.521 4.90847 595.969 2.00437 581.418C1.36889 581.789 0.73341 582.161 0.0861629 582.535C3.05408 597.435 6.03377 612.332 9.00429 627.243C4.10524 633.485 -0.793818 639.728 -5.69287 645.97C-6.38117 626.92 -8.09425 607.931 -10.8257 589.09C-11.4795 589.491 -12.1215 589.889 -12.7753 590.29C-10.0181 609.588 -8.31701 629.029 -7.7022 648.533C-12.184 654.254 -16.6683 659.964 -21.1618 665.687C-24.9206 644.809 -28.682 623.919 -32.4407 603.04C-33.075 603.474 -33.7118 603.896 -34.3342 604.327C-30.5195 625.517 -26.7047 646.708 -22.8782 667.896C-24.5879 670.077 -26.2977 672.259 -28.0101 674.429C-30.0861 677.083 -32.1765 679.727 -34.2526 682.381C-38.8349 659.606 -43.4198 636.818 -48.0021 614.043C-48.6194 614.498 -49.2484 614.955 -49.863 615.422C-45.2233 638.459 -40.5928 661.511 -35.9532 684.548C-39.1608 688.638 -42.3684 692.728 -45.576 696.817C-52.481 673.991 -59.3859 651.164 -66.3027 628.34C-66.8885 628.825 -67.4744 629.31 -68.0577 629.807C-61.1279 652.691 -54.21 675.577 -47.2802 698.461C-47.2398 698.589 -47.181 698.688 -47.1223 698.787C-51.7126 704.633 -56.2911 710.476 -60.8815 716.322C-67.6896 691.398 -74.4861 666.472 -81.2943 641.548C-81.8671 642.093 -82.4517 642.64 -83.0246 643.185C-76.1851 668.251 -69.3457 693.318 -62.4944 718.382C-65.9349 722.762 -69.3636 727.141 -72.804 731.522C-82.0104 708.176 -91.2312 684.822 -100.438 661.476C-100.96 662.084 -101.47 662.689 -101.977 663.306C-92.7512 686.685 -83.5344 710.078 -74.3084 733.456C-77.9726 738.113 -81.6223 742.78 -85.2865 747.438C-96.541 726.027 -106.598 703.99 -115.422 681.432C-115.903 682.168 -116.376 682.889 -116.834 683.62C-108 706.051 -97.9461 727.964 -86.6941 749.25C-92.6253 756.818 -98.5708 764.376 -104.502 771.944C-114.63 752.798 -123.836 733.177 -132.128 713.157C-132.511 714.121 -132.872 715.066 -133.231 716.024C-125.066 735.573 -116.012 754.729 -106.094 773.424C-106.032 773.534 -105.962 773.631 -105.87 773.71C-108.361 776.896 -110.866 780.074 -113.357 783.261C-122.101 768.345 -130.833 753.426 -139.574 738.522C-139.784 739.595 -139.97 740.663 -140.148 741.716C-131.68 756.159 -123.213 770.601 -114.758 785.047C-117.233 788.192 -119.705 791.35 -122.169 794.493C-120.934 795.558 -119.637 796.571 -118.315 797.528C-117.628 796.657 -116.941 795.786 -116.254 794.915C-101.642 798.479 -87.0301 802.042 -72.4297 805.609C-71.1485 805.251 -69.8686 804.83 -68.5847 804.371C-83.9954 800.605 -99.4035 796.85 -114.826 793.086C-112.611 790.275 -110.411 787.455 -108.196 784.644C-89.926 788.938 -71.6466 793.218 -53.3763 797.512C-52.4571 797.025 -51.5314 796.511 -50.6082 795.986C-69.3202 791.594 -88.0439 787.204 -106.759 782.8C-103.327 778.434 -99.9077 774.07 -96.4764 769.704C-75.8344 774.951 -55.1951 780.185 -34.5531 785.431C-33.843 784.892 -33.1329 784.354 -32.4162 783.788C-53.2934 778.484 -74.1681 773.191 -95.0335 767.884C-92.0496 764.071 -89.0513 760.267 -86.0674 756.454C-85.9797 756.346 -85.9039 756.241 -85.8162 756.133C-63.566 760.596 -41.578 766.232 -19.9214 773.006C-19.3368 772.459 -18.7548 771.899 -18.1754 771.328C-39.9208 764.487 -62.0068 758.799 -84.3459 754.269C-83.9587 753.78 -83.5714 753.291 -83.196 752.804C-83.0914 752.717 -83.0037 752.61 -82.954 752.498C-80.4515 749.309 -77.949 746.119 -75.4347 742.927C-51.2661 745.934 -27.2721 750.12 -3.51012 755.446C-3.01434 754.831 -2.50419 754.226 -2.01101 753.6C-25.8369 748.151 -49.8218 743.951 -73.9773 740.891Z" fill="#2F8C91"/>
</g>
<defs>
<clipPath id="clip0">
<rect y="664" width="664" height="169" transform="rotate(-90 0 664)" fill="white"/>
</clipPath>
</defs>
</svg>
