<svg width="143" height="667" viewBox="0 0 143 667" fill="none" xmlns="http://www.w3.org/2000/svg">
<g clip-path="url(#clip0)">
<path d="M80.043 334.094C80.043 334.094 63.4144 550.13 128.394 672.981C150.437 714.669 175.928 740.942 200.004 757.442C250.189 791.859 318.238 759.982 324.425 699.175C327.394 670.014 323.863 633.467 306.391 589.63C254.895 460.457 80.043 334.094 80.043 334.094Z" fill="#2F8C91"/>
<path d="M238.1 665.874C234.054 657.17 230.024 648.471 225.978 639.767C247.258 611.562 268.554 583.36 289.838 555.137C289.29 554.149 288.742 553.161 288.172 552.186C266.948 580.314 245.724 608.441 224.5 636.569C220.684 628.348 216.856 620.106 213.04 611.886C232.972 584.576 254.092 558.176 276.34 532.782C275.75 531.894 275.181 530.993 274.59 530.105C252.435 555.339 231.418 581.543 211.549 608.665C207.878 600.758 204.206 592.851 200.535 584.944C220.52 559.919 240.502 534.911 260.487 509.887C259.854 509.025 259.221 508.163 258.57 507.297C238.743 532.122 218.893 556.96 199.065 581.784C195.211 573.499 191.378 565.2 187.523 556.914C204.17 531.95 221.818 507.682 240.447 484.198C239.767 483.379 239.104 482.566 238.42 481.765C219.982 504.984 202.495 528.96 185.993 553.628C182.033 545.095 178.074 536.561 174.098 528.023C189.353 505.809 205.541 484.273 222.624 463.5C221.935 462.717 221.225 461.946 220.537 461.163C203.667 481.658 187.666 502.871 172.58 524.759C169.353 517.813 166.131 510.851 162.904 503.905C175.879 483.275 189.765 463.263 204.528 443.934C203.797 443.177 203.083 442.424 202.352 441.666C187.814 460.665 174.145 480.307 161.352 500.559C157.415 492.086 153.477 483.613 149.54 475.14C158.965 456.437 170.331 438.853 183.452 422.635C182.712 421.913 181.972 421.191 181.215 420.464C168.389 436.294 157.243 453.417 147.887 471.602C146.553 468.717 145.201 465.827 143.867 462.942C143.91 462.381 143.7 461.81 143.169 461.436C142.193 459.343 141.233 457.254 140.256 455.161C147.446 438.312 157.538 422.99 170.108 409.828C169.347 409.118 168.603 408.413 167.841 407.704C155.674 420.488 145.775 435.231 138.525 451.418C135.578 445.06 132.626 438.72 129.678 432.362C136.629 419.09 144.517 406.405 153.312 394.356C152.529 393.66 151.764 392.968 150.981 392.272C142.489 403.899 134.839 416.126 128.052 428.868C125.305 422.966 122.579 417.052 119.832 411.151C125.796 403.132 131.738 395.125 137.701 387.106C138.676 385.783 139.69 384.451 140.666 383.128C139.879 382.449 139.11 381.775 138.34 381.1C136.879 383.076 135.392 385.008 133.939 386.949C128.734 393.941 123.546 400.938 118.341 407.931C116.017 402.931 113.706 397.952 111.382 392.952C115.454 384.898 119.849 377.017 124.595 369.354C123.791 368.671 122.983 368.005 122.192 367.344C117.748 374.511 113.59 381.86 109.737 389.379C107.03 383.544 104.318 377.725 101.627 371.894C104.323 366.981 107.223 362.212 110.359 357.595C109.534 356.925 108.722 356.277 107.927 355.632C105.122 359.779 102.469 364.057 100.009 368.439C98.37 364.923 96.7478 361.411 95.1084 357.894C96.6835 354.988 98.2414 352.077 99.8123 349.187C98.9698 348.513 98.1533 347.882 97.354 347.255C96.0677 349.644 94.7814 352.033 93.4992 354.404C91.0531 349.152 88.6243 343.903 86.1824 338.633C82.2386 335.661 80.0578 334.094 80.0578 334.094C80.0578 334.094 79.8475 336.718 79.5831 341.544C82.304 347.402 85.0249 353.259 87.7458 359.117C84.8948 357.602 81.9509 356.323 78.9437 355.23C78.9078 356.292 78.8678 357.371 78.8193 358.485C82.6671 359.956 86.414 361.771 90.013 363.973C91.9184 368.055 93.8023 372.15 95.7077 376.232C90.1524 373.277 84.4158 370.848 78.498 368.946C78.4621 370.008 78.4434 371.074 78.4163 372.175C84.6447 374.23 90.7053 376.906 96.4947 380.179C96.8788 380.406 97.2571 380.427 97.6047 380.349C101.093 387.878 104.586 395.389 108.074 402.917C98.2333 398.565 88.2487 394.583 78.146 390.94C78.1404 392.027 78.1306 393.133 78.138 394.242C88.9258 398.151 99.5788 402.468 110.062 407.186C113.206 413.945 116.346 420.72 119.49 427.479C105.879 421.712 92.1111 416.293 78.2426 411.218C78.2499 412.328 78.2788 413.424 78.2992 414.556C92.8184 419.888 107.211 425.594 121.456 431.687C125.311 439.973 129.161 448.276 133.015 456.562C115.232 448.318 97.1523 440.776 78.8151 433.925C78.857 435.043 78.8988 436.162 78.9365 437.298C97.9374 444.427 116.664 452.318 135.069 460.939C137.611 466.401 140.149 471.88 142.691 477.341C121.813 471.639 100.935 465.937 80.0564 460.235C80.1238 461.323 80.1912 462.411 80.2545 463.516C101.628 469.362 123.005 475.19 144.396 481.04C149.319 491.646 154.242 502.251 159.165 512.856C133.876 501.257 107.996 491.06 81.639 482.311C81.7325 483.442 81.8302 484.557 81.9237 485.688C108.892 494.702 135.355 505.213 161.188 517.208C165.705 526.917 170.205 536.621 174.718 546.347C145.031 537.625 115.326 528.898 85.6392 520.175C85.7885 521.302 85.9206 522.425 86.0742 523.534C116.205 532.388 146.336 541.241 176.471 550.077C178.193 553.78 179.916 557.484 181.621 561.183C183.718 565.682 185.794 570.195 187.891 574.695C155.19 565.82 122.472 556.94 89.7705 548.065C89.9585 549.183 90.1423 550.319 90.3474 551.442C123.427 560.413 156.52 569.405 189.6 578.376C192.827 585.322 196.054 592.267 199.28 599.213C164.988 593.388 130.695 587.563 96.3989 581.756C96.6469 582.852 96.8948 583.949 97.1601 585.05C131.543 590.879 165.921 596.726 200.304 602.555C200.498 602.585 200.665 602.572 200.833 602.559C205.442 612.494 210.055 622.412 214.664 632.347C177.701 625.016 140.742 617.668 103.78 610.338C104.114 611.456 104.444 612.592 104.778 613.71C141.947 621.093 179.117 628.476 216.29 635.842C219.744 643.287 223.202 650.716 226.655 658.162C190.176 655.052 153.675 651.956 117.196 648.846C117.646 649.938 118.1 651.013 118.572 652.093C155.107 655.198 191.655 658.325 228.19 661.43C231.857 669.355 235.546 677.266 239.213 685.191C203.912 686.072 168.581 684.951 133.378 681.85C134.022 682.973 134.653 684.074 135.304 685.162C170.347 688.167 205.515 689.209 240.652 688.25C246.625 701.096 252.578 713.956 258.551 726.802C226.942 727.675 195.319 727.011 163.776 724.872C164.78 726.013 165.776 727.114 166.789 728.219C197.635 730.219 228.553 730.778 259.436 729.888C259.62 729.879 259.792 729.849 259.955 729.779C262.475 735.18 264.974 740.593 267.494 745.994C242.308 747.807 217.126 749.602 191.957 751.419C193.219 752.403 194.489 753.352 195.746 754.279C220.133 752.522 244.52 750.766 268.902 749.027C271.379 754.38 273.873 759.737 276.354 765.072C278.553 764.132 280.725 763.075 282.84 761.948C282.156 760.464 281.471 758.98 280.786 757.496C295.023 740.434 309.26 723.372 323.492 706.328C323.866 704.392 324.158 702.416 324.403 700.41C309.377 718.398 294.369 736.391 279.339 754.397C277.128 749.611 274.896 744.837 272.685 740.05C290.275 718.61 307.851 697.149 325.441 675.71C325.41 674.17 325.347 672.603 325.268 671.032C307.261 692.994 289.249 714.972 271.224 736.929C267.784 729.505 264.339 722.099 260.899 714.674C281.287 690.711 301.658 666.744 322.046 642.781C321.809 641.484 321.573 640.187 321.306 638.865C300.688 663.102 280.087 687.343 259.472 711.563C256.46 705.096 253.468 698.616 250.455 692.15C250.372 691.963 250.285 691.793 250.202 691.606C270.624 664.993 292.403 639.498 315.449 615.191C315.119 614.055 314.772 612.915 314.408 611.771C291.216 636.151 269.305 661.742 248.737 688.429C248.353 687.593 247.969 686.758 247.581 685.94C247.537 685.744 247.454 685.557 247.342 685.418C244.826 680 242.31 674.582 239.798 669.146C259.582 639.03 280.787 609.919 303.327 581.866C302.851 580.804 302.397 579.729 301.904 578.663C279.162 606.72 257.945 635.81 238.1 665.874Z" fill="#286F7F"/>
<path d="M139.669 361.298C139.669 361.298 242.089 247.45 271.154 146.094C281.016 111.693 282.684 84.3144 280.57 63.1576C276.17 19.0227 235.342 3.55356 205.929 34.8505C191.818 49.8638 176.976 72.2381 164.361 105.606C127.209 203.882 139.669 361.298 139.669 361.298Z" fill="#BAE3DD"/>
<path d="M224.993 96.1079C222.708 103.016 220.439 109.914 218.154 116.822C197.291 122.282 176.416 127.738 155.552 133.198C155.326 134.023 155.111 134.851 154.896 135.679C175.708 130.235 196.521 124.791 217.322 119.344C215.172 125.869 213.006 132.406 210.855 138.932C190.913 144.544 170.918 149.075 150.921 152.463C150.751 153.257 150.581 154.052 150.416 154.832C170.298 151.473 190.188 147.02 210.015 141.483C207.95 147.752 205.87 154.033 203.805 160.303C184.864 164.604 165.913 168.901 146.973 173.202C146.836 174.006 146.703 174.796 146.576 175.604C165.376 171.339 184.176 167.075 202.976 162.81C200.798 169.39 198.635 175.959 196.457 182.54C178.845 188.446 161.157 193.469 143.424 197.586C143.327 198.371 143.227 199.171 143.13 199.956C160.667 195.906 178.166 190.967 195.585 185.159C193.353 191.926 191.117 198.708 188.874 205.473C173.029 210.518 157.122 214.715 141.194 218.044C141.123 218.821 141.048 219.613 140.977 220.391C156.688 217.122 172.384 213.002 188.01 208.063C186.187 213.575 184.374 219.091 182.551 224.603C168.3 229.879 153.979 234.334 139.606 237.991C139.557 238.775 139.507 239.559 139.447 240.34C153.573 236.765 167.669 232.398 181.67 227.251C179.451 233.976 177.231 240.7 175.012 247.424C163.012 253.347 150.75 257.687 138.403 260.403C138.369 261.176 138.345 261.952 138.311 262.725C150.375 260.096 162.336 255.9 174.086 250.231C173.33 252.525 172.58 254.805 171.814 257.096C171.551 257.393 171.369 257.823 171.422 258.294C170.875 259.946 170.324 261.613 169.778 263.265C159.47 269.243 148.717 272.926 137.946 274.175C137.922 274.951 137.914 275.716 137.89 276.492C148.34 275.256 158.768 271.804 168.795 266.227C167.13 271.27 165.47 276.299 163.805 281.342C155.188 285.418 146.46 288.692 137.664 291.179C137.663 291.962 137.654 292.727 137.642 293.506C146.138 291.117 154.555 287.984 162.887 284.12C161.337 288.806 159.787 293.492 158.252 298.167C152.364 299.76 146.461 301.365 140.572 302.958C139.599 303.228 138.62 303.481 137.647 303.752C137.649 304.52 137.652 305.288 137.658 306.042C139.103 305.647 140.55 305.285 141.979 304.901C147.127 303.508 152.264 302.111 157.411 300.718C156.106 304.679 154.8 308.64 153.494 312.601C148.317 315.16 143.095 317.424 137.842 319.428C137.851 320.213 137.876 320.988 137.893 321.745C142.823 319.879 147.704 317.779 152.564 315.422C151.03 320.05 149.512 324.668 147.978 329.296C144.745 330.75 141.485 332.007 138.207 333.086C138.231 333.861 138.255 334.636 138.287 335.382C141.237 334.423 144.163 333.3 147.069 332.045C146.147 334.837 145.225 337.629 144.303 340.422C142.404 341.29 140.494 342.156 138.59 343.039C138.621 343.831 138.66 344.595 138.693 345.341C140.255 344.621 141.823 343.919 143.385 343.199C142.006 347.373 140.631 351.533 139.252 355.707C139.502 359.338 139.667 361.298 139.667 361.298C139.667 361.298 140.912 359.919 143.156 357.322C144.694 352.679 146.221 348.033 147.762 343.375C148.205 345.639 148.794 347.806 149.488 349.895C149.972 349.32 150.47 348.734 150.981 348.105C150.116 345.385 149.461 342.509 149.032 339.498C150.109 336.251 151.17 333.015 152.247 329.768C153.113 334.164 154.291 338.373 155.763 342.341C156.24 341.748 156.727 341.159 157.23 340.559C155.701 336.339 154.511 331.845 153.7 327.136C153.649 326.823 153.51 326.609 153.347 326.481C155.314 320.511 157.292 314.544 159.259 308.574C161.184 315.874 163.326 323.035 165.68 330.073C166.161 329.466 166.657 328.848 167.146 328.212C164.648 320.693 162.393 313.027 160.377 305.183C162.148 299.811 163.919 294.44 165.697 289.086C168.482 299.042 171.469 308.87 174.647 318.569C175.136 317.933 175.61 317.308 176.104 316.658C172.774 306.507 169.665 296.203 166.787 285.75C168.965 279.169 171.132 272.586 173.306 266.02C176.618 279.424 180.365 292.583 184.515 305.487C184.998 304.834 185.48 304.181 185.963 303.527C181.68 290.144 177.841 276.487 174.46 262.546C175.9 258.202 177.324 253.87 178.76 249.541C184.411 263.039 190.067 276.523 195.719 290.021C196.175 289.375 196.632 288.73 197.093 288.07C191.3 274.247 185.517 260.427 179.719 246.619C182.494 238.213 185.272 229.794 188.047 221.388C192.799 240.38 198.427 258.867 204.877 276.788C205.342 276.114 205.801 275.422 206.27 274.733C199.7 256.369 193.993 237.419 189.185 217.925C191.735 210.219 194.273 202.51 196.819 194.819C204.581 214.358 212.344 233.896 220.118 253.438C220.559 252.725 220.996 252.026 221.437 251.313C213.556 231.489 205.664 211.661 197.784 191.836C198.758 188.903 199.722 185.967 200.696 183.034C201.879 179.459 203.062 175.884 204.23 172.32C213.117 193.434 221.997 214.531 230.884 235.646C231.308 234.912 231.727 234.193 232.15 233.459C223.165 212.111 214.181 190.763 205.189 169.398C207.012 163.886 208.825 158.37 210.648 152.858C221.507 173.016 232.372 193.192 243.231 213.35C243.621 212.606 244.012 211.862 244.392 211.115C233.503 190.901 222.614 170.686 211.724 150.472C211.662 150.359 211.592 150.276 211.514 150.221C214.113 142.342 216.712 134.463 219.322 126.588C230.554 148.926 241.79 171.25 253.021 193.588C253.392 192.791 253.763 191.995 254.123 191.195C242.829 168.744 231.529 146.275 220.236 123.825C222.182 117.926 224.129 112.028 226.079 106.116C239.008 125.832 251.93 145.532 264.859 165.249C265.169 164.418 265.472 163.57 265.771 162.736C252.825 142.998 239.878 123.26 226.943 103.525C229.012 97.241 231.092 90.9602 233.161 84.6762C247.394 101.544 260.75 119.572 273.179 138.653C273.427 137.71 273.664 136.763 273.898 135.831C261.49 116.882 248.161 99.0024 233.969 82.241C237.331 72.0392 240.7 61.8551 244.063 51.6533C256.836 66.7182 268.948 82.6489 280.371 99.3745C280.487 98.2348 280.584 97.1206 280.682 96.0064C269.477 79.707 257.603 64.177 245.102 49.476C245.021 49.389 244.943 49.334 244.854 49.2758C246.266 44.9866 247.689 40.7007 249.101 36.4116C259.784 47.7763 270.451 59.1522 281.134 70.5169C281.073 69.3394 281.003 68.1906 280.912 67.0353C270.575 56.0253 260.237 45.0153 249.889 34.0019C251.289 29.756 252.689 25.5101 254.099 21.2674C252.812 20.7071 251.5 20.2334 250.163 19.846C249.775 21.0292 249.391 22.198 248.992 23.3779C235.834 26.0065 222.686 28.6383 209.527 31.2668C208.521 32.1852 207.523 33.1534 206.55 34.1602C220.422 31.3864 234.305 28.6158 248.177 25.8419C246.921 29.6299 245.671 33.4356 244.415 37.2235C228.001 40.6879 211.587 44.1522 195.165 47.5988C194.496 48.4934 193.822 49.4023 193.154 50.329C209.969 46.7818 226.784 43.2347 243.595 39.7019C241.653 45.5857 239.711 51.4695 237.769 57.3533C219.141 60.8555 200.51 64.372 181.882 67.8741C181.404 68.7168 180.921 69.5738 180.435 70.4453C199.276 66.8979 218.117 63.3504 236.958 59.8029C235.268 64.9326 233.563 70.0735 231.874 75.2032C231.832 75.3473 231.78 75.4882 231.728 75.629C211.91 80.6051 192.049 84.2995 172.223 86.6885C171.848 87.4996 171.484 88.3141 171.109 89.1252C191.022 86.7623 210.98 83.0973 230.889 78.133C230.676 78.7894 230.448 79.457 230.236 80.1134C230.162 80.2478 230.12 80.3919 230.104 80.5282C228.688 84.8317 227.261 89.1321 225.845 93.4357C204.717 100.711 183.479 106.732 162.188 111.467C161.9 112.305 161.612 113.142 161.323 113.979C182.626 109.325 203.866 103.337 224.993 96.1079Z" fill="#97C9CE"/>
<path d="M178.23 264.394C177.977 264.428 177.725 264.487 177.485 264.534C177.447 264.548 177.408 264.536 177.371 264.55C177.131 264.597 176.891 264.643 176.664 264.701C176.639 264.702 176.601 264.716 176.576 264.717C176.324 264.777 176.084 264.823 175.845 264.895C175.794 264.896 175.744 264.924 175.693 264.925C175.454 264.997 175.214 265.043 174.975 265.115C174.937 265.129 174.887 265.131 174.849 265.145C174.61 265.216 174.371 265.288 174.132 265.36L174.12 265.373C173.88 265.445 173.629 265.529 173.403 265.613C173.366 265.627 173.328 265.641 173.29 265.655C173.064 265.739 172.838 265.823 172.612 265.907C172.575 265.921 172.537 265.935 172.487 265.963C172.261 266.047 172.023 266.144 171.797 266.228C171.785 266.241 171.772 266.228 171.759 266.242C171.534 266.326 171.321 266.422 171.108 266.518C171.07 266.532 171.058 266.545 171.02 266.559C170.808 266.655 170.595 266.752 170.37 266.861C170.332 266.875 170.294 266.889 170.257 266.903C170.044 266.999 169.819 267.109 169.619 267.217C169.607 267.23 169.582 267.231 169.557 267.257C169.344 267.354 169.132 267.475 168.933 267.584C168.92 267.597 168.907 267.585 168.895 267.598C168.695 267.706 168.483 267.828 168.284 267.937C168.246 267.951 168.221 267.977 168.196 267.978C167.996 268.086 167.81 268.207 167.61 268.316C167.598 268.329 167.56 268.343 167.548 268.356C167.149 268.598 166.764 268.853 166.379 269.108C166.366 269.121 166.329 269.135 166.317 269.148C166.13 269.269 165.957 269.402 165.783 269.535C165.771 269.548 165.746 269.574 165.721 269.575C165.349 269.842 165.015 270.12 164.681 270.399C164.669 270.412 164.669 270.412 164.657 270.425C164.496 270.57 164.335 270.69 164.175 270.836C164.163 270.849 164.15 270.862 164.138 270.875C163.978 271.02 163.83 271.153 163.67 271.298C163.374 271.588 163.079 271.878 162.809 272.167C162.797 272.18 162.785 272.193 162.785 272.193C162.65 272.337 162.528 272.494 162.405 272.625L162.393 272.638C162.137 272.94 161.918 273.227 161.699 273.539L161.687 273.553C161.578 273.696 161.481 273.852 161.397 273.995L161.385 274.008C161.108 274.462 160.869 274.903 160.681 275.367L160.669 275.38C160.493 275.831 160.356 276.268 160.269 276.704L160.257 276.717C160.223 276.858 160.215 276.998 160.195 277.151C160.167 277.445 160.163 277.712 160.186 278.004C160.203 278.143 160.208 278.27 160.251 278.408C160.251 278.408 160.251 278.408 160.264 278.421C160.605 280.24 162.144 281.752 165.186 282.628C179.1 286.656 194.118 276.392 199.393 272.271C198.493 274.972 197.644 277.671 196.822 280.395C196.262 282.258 195.728 284.12 195.194 285.982L194.456 288.588C192.53 295.495 190.681 302.425 188.665 309.297C188.574 309.236 188.483 309.176 188.404 309.102C188.156 308.92 187.922 308.75 187.674 308.568C187.53 308.458 187.388 308.374 187.244 308.264C187.023 308.106 186.802 307.974 186.581 307.816C186.425 307.72 186.269 307.623 186.113 307.527C185.893 307.395 185.685 307.249 185.477 307.129C185.321 307.033 185.165 306.936 184.997 306.853C184.79 306.733 184.569 306.6 184.35 306.493C184.194 306.397 184.039 306.326 183.871 306.243C183.651 306.136 183.444 306.015 183.224 305.908C183.069 305.837 182.901 305.754 182.758 305.67C182.539 305.563 182.319 305.456 182.087 305.362C181.932 305.291 181.777 305.22 181.635 305.161C181.403 305.068 181.171 304.974 180.926 304.868C180.784 304.809 180.643 304.75 180.501 304.691C180.23 304.586 179.973 304.493 179.703 304.388C179.587 304.354 179.484 304.306 179.38 304.259C179.007 304.132 178.635 304.004 178.249 303.89C178.224 303.891 178.198 303.867 178.172 303.868C177.826 303.765 177.479 303.662 177.132 303.56C177.017 303.525 176.889 303.504 176.773 303.47C176.517 303.402 176.26 303.335 176.017 303.28C175.876 303.246 175.735 303.213 175.594 303.18C175.364 303.136 175.133 303.068 174.903 303.025C174.762 302.992 174.608 302.971 174.455 302.951C174.225 302.908 174.008 302.877 173.778 302.834C173.624 302.814 173.471 302.794 173.33 302.761C173.113 302.73 172.896 302.699 172.679 302.668C172.526 302.648 172.372 302.628 172.219 302.608C172.002 302.577 171.773 302.559 171.569 302.541C171.416 302.52 171.275 302.513 171.122 302.492C170.893 302.475 170.677 302.469 170.447 302.452C170.307 302.444 170.167 302.436 170.027 302.428C169.798 302.41 169.556 302.406 169.314 302.401C169.187 302.405 169.073 302.397 168.933 302.389C168.666 302.385 168.386 302.395 168.119 302.391C168.043 302.394 167.954 302.384 167.865 302.4C167.51 302.412 167.154 302.424 166.799 302.436C166.748 302.438 166.71 302.452 166.672 302.44C166.367 302.45 166.063 302.486 165.759 302.497C165.645 302.513 165.531 302.53 165.416 302.521C165.176 302.542 164.96 302.562 164.733 302.595C164.593 302.613 164.479 302.629 164.34 302.647C164.125 302.667 163.923 302.699 163.72 302.731C163.581 302.749 163.442 302.766 163.316 302.796C163.114 302.828 162.911 302.86 162.734 302.892C162.595 302.909 162.457 302.952 162.318 302.97C162.128 303.014 161.938 303.033 161.749 303.078C161.61 303.095 161.472 303.138 161.333 303.156C161.143 303.2 160.954 303.245 160.777 303.276C160.651 303.306 160.5 303.337 160.374 303.366C160.185 303.411 160.009 303.468 159.819 303.512C159.693 303.542 159.555 303.585 159.429 303.615C159.24 303.659 159.051 303.729 158.862 303.774C158.749 303.816 158.623 303.845 158.51 303.887C158.297 303.958 158.095 304.016 157.882 304.087C157.781 304.116 157.706 304.144 157.605 304.173C157.316 304.271 157.027 304.37 156.739 304.495C156.651 304.536 156.55 304.565 156.463 304.606C156.275 304.676 156.074 304.759 155.886 304.829C155.761 304.884 155.648 304.926 155.522 304.981C155.36 305.05 155.209 305.106 155.059 305.187C154.934 305.243 154.809 305.298 154.683 305.353C154.546 305.421 154.408 305.489 154.258 305.545C154.133 305.6 154.008 305.681 153.883 305.736C153.745 305.804 153.62 305.859 153.496 305.94C153.371 305.995 153.246 306.076 153.121 306.131C153.009 306.198 152.871 306.266 152.759 306.334C152.635 306.414 152.51 306.469 152.385 306.55C152.273 306.617 152.161 306.685 152.037 306.765C151.912 306.846 151.8 306.913 151.676 306.994C151.564 307.061 151.465 307.141 151.353 307.208C151.228 307.289 151.116 307.356 151.005 307.449C150.906 307.529 150.806 307.583 150.72 307.649C150.595 307.73 150.484 307.823 150.372 307.89C150.285 307.957 150.211 308.01 150.124 308.077C149.69 308.409 149.27 308.754 148.888 309.11C148.827 309.176 148.765 309.216 148.703 309.282C148.592 309.375 148.494 309.48 148.396 309.585C148.334 309.651 148.273 309.716 148.199 309.77C148.101 309.875 148.015 309.967 147.917 310.072C147.855 310.137 147.794 310.203 147.733 310.269C147.647 310.361 147.549 310.466 147.476 310.57C147.415 310.636 147.366 310.688 147.317 310.766C147.245 310.87 147.159 310.962 147.086 311.066C147.037 311.119 146.989 311.197 146.953 311.262C146.88 311.366 146.807 311.47 146.735 311.574C146.699 311.639 146.65 311.692 146.614 311.756C146.541 311.861 146.482 311.977 146.409 312.081C146.373 312.146 146.349 312.198 146.313 312.263C146.254 312.379 146.181 312.483 146.121 312.6C146.098 312.651 146.086 312.69 146.063 312.742C146.003 312.858 145.943 312.975 145.897 313.103L145.885 313.116C145.684 313.568 145.559 314.018 145.486 314.465C145.487 314.491 145.475 314.529 145.464 314.568C145.443 314.696 145.434 314.81 145.425 314.925C145.427 314.976 145.415 315.014 145.405 315.078C145.396 315.193 145.399 315.295 145.391 315.409C145.392 315.46 145.394 315.511 145.384 315.575C145.387 315.677 145.39 315.778 145.407 315.892C145.409 315.943 145.424 316.006 145.425 316.057C145.429 316.158 145.458 316.259 145.474 316.373C145.489 316.436 145.491 316.487 145.518 316.537C145.547 316.638 145.576 316.738 145.604 316.839C145.619 316.902 145.646 316.952 145.66 316.99C145.689 317.091 145.743 317.191 145.772 317.291C145.799 317.341 145.827 317.391 145.841 317.429C145.895 317.529 145.937 317.642 145.991 317.742C146.005 317.779 146.044 317.816 146.058 317.854C146.678 318.875 147.714 319.819 149.265 320.581C161.871 326.879 181.938 315.21 188.01 311.341C186.581 316.057 185.05 320.75 183.326 325.387L183.256 325.567C183.197 325.709 183.151 325.838 183.105 325.992C183.105 325.992 183.105 325.992 183.093 326.005L182.065 328.659C179.757 334.448 177.088 340.044 174.056 345.45C173.383 345.117 172.491 344.677 171.395 344.193C171.278 344.133 171.163 344.099 171.046 344.039C170.569 343.839 170.053 343.603 169.512 343.392C169.37 343.333 169.241 343.287 169.099 343.228C168.79 343.111 168.468 342.983 168.146 342.854C167.914 342.76 167.682 342.666 167.438 342.585C167.258 342.515 167.077 342.445 166.872 342.376C166.254 342.142 165.598 341.923 164.917 341.704C164.583 341.589 164.236 341.486 163.889 341.383C159.56 340.043 154.427 338.958 149.23 339.02C148.976 339.029 148.735 339.025 148.481 339.033C148.405 339.036 148.328 339.038 148.252 339.041C148.062 339.06 147.871 339.054 147.681 339.073C147.605 339.076 147.554 339.077 147.478 339.08C147.238 339.101 146.984 339.11 146.743 339.13C146.692 339.132 146.667 339.133 146.616 339.135C146.413 339.142 146.21 339.174 146.02 339.193C145.944 339.196 145.881 339.211 145.805 339.213C145.615 339.232 145.425 339.252 145.248 339.283C145.197 339.285 145.147 339.286 145.109 339.3C144.881 339.334 144.654 339.367 144.426 339.4C144.375 339.402 144.312 339.417 144.275 339.431C144.098 339.462 143.921 339.493 143.744 339.525C143.681 339.54 143.618 339.555 143.555 339.569C143.352 339.602 143.15 339.634 142.961 339.679C142.936 339.68 142.923 339.693 142.91 339.68C142.696 339.726 142.481 339.771 142.267 339.817C142.204 339.832 142.166 339.846 142.115 339.847C141.951 339.891 141.788 339.935 141.636 339.965C141.585 339.967 141.536 339.994 141.485 339.996C141.283 340.054 141.082 340.111 140.881 340.169C140.881 340.169 140.868 340.182 140.855 340.17C140.666 340.214 140.478 340.284 140.302 340.341C140.264 340.355 140.201 340.37 140.163 340.384C140.013 340.44 139.849 340.484 139.698 340.54C139.661 340.554 139.635 340.555 139.598 340.569C139.409 340.639 139.233 340.696 139.058 340.778C139.033 340.779 139.021 340.792 139.008 340.805C138.858 340.861 138.695 340.93 138.557 340.998C138.52 341.012 138.482 341.026 138.444 341.04C138.281 341.109 138.119 341.179 137.969 341.26L137.957 341.273C137.794 341.342 137.632 341.437 137.482 341.518C137.47 341.531 137.444 341.532 137.42 341.558C137.282 341.627 137.158 341.707 137.02 341.775C137.008 341.789 136.97 341.803 136.958 341.816C136.672 341.991 136.398 342.153 136.15 342.339C136.138 342.352 136.125 342.365 136.1 342.366C135.989 342.459 135.877 342.526 135.765 342.619C135.753 342.632 135.753 342.632 135.741 342.645C135.506 342.844 135.297 343.042 135.113 343.239C135.1 343.252 135.088 343.265 135.076 343.278C134.88 343.489 134.721 343.685 134.563 343.906C134.491 344.01 134.431 344.127 134.371 344.218C134.358 344.231 134.358 344.231 134.346 344.244C134.226 344.452 134.132 344.684 134.064 344.915L134.052 344.928C134.017 345.044 133.995 345.146 133.961 345.262C133.961 345.262 133.949 345.275 133.962 345.287C133.919 345.518 133.901 345.747 133.897 345.989L133.898 346.014C133.976 347.932 135.813 350.019 139.999 352.013C149.959 356.722 166.642 350.204 172.927 347.396C170.104 352.235 167.022 356.905 163.628 361.382L161.619 363.981C160.949 364.831 160.265 365.668 159.582 366.505C156.81 369.842 153.881 373.031 150.807 376.086C150.625 375.965 150.417 375.845 150.184 375.7C150.066 375.615 149.937 375.543 149.807 375.471C149.547 375.302 149.262 375.134 148.95 374.941C148.016 374.362 146.874 373.689 145.512 372.883C145.059 372.632 144.592 372.343 144.087 372.067C143.827 371.923 143.568 371.78 143.322 371.623C140.704 370.135 137.48 368.401 133.69 366.457C133.508 366.361 133.327 366.266 133.147 366.195C133.082 366.159 133.031 366.136 132.966 366.1C132.849 366.04 132.721 365.994 132.591 365.922C132.526 365.886 132.449 365.863 132.385 365.827C132.268 365.767 132.153 365.733 132.036 365.674C131.959 365.651 131.881 365.603 131.804 365.58C131.701 365.532 131.572 365.486 131.469 365.439C131.392 365.416 131.314 365.368 131.237 365.345C131.134 365.297 131.018 365.263 130.889 365.217C130.812 365.194 130.722 365.159 130.657 365.123C130.542 365.089 130.439 365.041 130.31 364.995C130.233 364.972 130.156 364.949 130.091 364.913C129.962 364.867 129.847 364.832 129.731 364.798C129.654 364.775 129.603 364.752 129.526 364.729C129.372 364.683 129.217 364.638 129.063 364.592C129.025 364.581 128.986 364.569 128.948 364.558C128.755 364.501 128.563 364.444 128.37 364.387C128.318 364.363 128.254 364.353 128.204 364.354C128.063 364.321 127.922 364.288 127.793 364.241C127.716 364.218 127.652 364.208 127.575 364.185C127.46 364.151 127.332 364.13 127.216 364.095C127.139 364.073 127.05 364.063 126.973 364.04C126.857 364.006 126.743 363.997 126.64 363.975C126.563 363.952 126.474 363.943 126.385 363.933C126.282 363.911 126.154 363.89 126.052 363.868C125.963 363.858 125.886 363.835 125.796 363.826C125.694 363.804 125.579 363.795 125.464 363.761C125.374 363.751 125.297 363.728 125.208 363.719C125.093 363.71 124.991 363.688 124.863 363.667C124.774 363.657 124.71 363.646 124.62 363.637C124.493 363.616 124.378 363.607 124.25 363.586C124.186 363.575 124.11 363.578 124.046 363.567C123.868 363.548 123.664 363.529 123.485 363.51C123.421 363.5 123.37 363.501 123.306 363.491C123.179 363.47 123.052 363.474 122.924 363.453C122.834 363.443 122.758 363.446 122.669 363.436C122.554 363.427 122.453 363.431 122.35 363.409C122.261 363.399 122.185 363.402 122.083 363.405C121.982 363.409 121.892 363.399 121.791 363.402C121.702 363.393 121.613 363.408 121.524 363.399C121.422 363.402 121.333 363.393 121.231 363.396C121.142 363.386 121.054 363.402 120.964 363.392C120.863 363.396 120.787 363.398 120.685 363.402C120.583 363.405 120.507 363.408 120.406 363.411C120.316 363.402 120.228 363.417 120.126 363.421C120.025 363.424 119.949 363.427 119.847 363.43C119.771 363.433 119.669 363.436 119.593 363.439C119.492 363.442 119.403 363.458 119.314 363.448C119.238 363.451 119.149 363.467 119.073 363.469C118.883 363.488 118.68 363.495 118.478 363.528C118.415 363.543 118.351 363.532 118.288 363.547C118.186 363.55 118.085 363.579 117.984 363.583C117.908 363.585 117.845 363.6 117.769 363.603C117.68 363.618 117.566 363.635 117.478 363.651C117.415 363.666 117.339 363.668 117.276 363.683C117.187 363.699 117.073 363.715 116.985 363.731C116.922 363.746 116.846 363.749 116.783 363.763C116.694 363.779 116.593 363.808 116.492 363.811C116.429 363.826 116.366 363.841 116.303 363.856C116.202 363.885 116.114 363.901 116.013 363.929C115.95 363.944 115.887 363.959 115.824 363.974C115.723 364.003 115.635 364.019 115.534 364.047C115.483 364.049 115.433 364.076 115.382 364.078C115.282 364.107 115.181 364.136 115.08 364.165C115.055 364.165 115.017 364.179 115.005 364.193C114.628 364.307 114.251 364.447 113.887 364.574C113.861 364.575 113.849 364.588 113.824 364.589C113.711 364.631 113.623 364.672 113.523 364.726C113.486 364.74 113.448 364.754 113.41 364.768C113.323 364.809 113.223 364.864 113.122 364.892C113.085 364.906 113.047 364.92 112.997 364.948C112.909 364.989 112.822 365.03 112.722 365.084C112.684 365.098 112.647 365.112 112.61 365.151C112.522 365.193 112.435 365.234 112.348 365.3C112.31 365.314 112.286 365.34 112.248 365.354C112.161 365.396 112.074 365.462 111.986 365.503C111.962 365.53 111.936 365.53 111.912 365.557C111.812 365.611 111.725 365.677 111.651 365.731C111.639 365.744 111.639 365.744 111.626 365.757C111.216 366.038 110.845 366.33 110.513 366.66C110.501 366.673 110.489 366.686 110.489 366.686C110.415 366.765 110.354 366.83 110.28 366.909C110.268 366.922 110.243 366.949 110.231 366.962C110.17 367.027 110.096 367.106 110.035 367.172C110.01 367.198 109.998 367.211 109.973 367.238C109.912 367.303 109.864 367.381 109.79 367.46C109.766 367.486 109.754 367.499 109.742 367.538C109.694 367.616 109.633 367.681 109.572 367.773C109.56 367.786 109.535 367.812 109.536 367.837C109.488 367.915 109.428 368.006 109.379 368.084C109.367 368.097 109.367 368.097 109.355 368.111C109.127 368.513 108.938 368.926 108.8 369.363C108.778 369.465 108.743 369.556 108.721 369.658C108.722 369.683 108.71 369.697 108.711 369.722C108.689 369.825 108.679 369.914 108.644 370.004C108.645 370.029 108.633 370.068 108.634 370.093C108.625 370.183 108.603 370.285 108.593 370.375C108.594 370.4 108.582 370.439 108.583 370.464C108.574 370.553 108.565 370.668 108.555 370.757C108.556 370.783 108.545 370.821 108.545 370.847C108.549 370.948 108.539 371.038 108.53 371.152C108.531 371.178 108.532 371.203 108.533 371.229C108.545 372.322 108.827 373.52 109.405 374.823C114.852 386.998 140.264 380.399 148.969 377.738C143.911 382.602 138.483 387.098 132.736 391.146C132.711 391.147 132.711 391.147 132.685 391.148L130.538 392.658C127.121 394.974 123.598 397.141 119.98 399.146C119.941 399.135 119.903 399.123 119.864 399.112C119.595 399.032 119.35 398.951 119.094 398.884C119.055 398.872 119.03 398.873 118.991 398.862C118.735 398.794 118.478 398.727 118.21 398.672C118.184 398.673 118.146 398.662 118.133 398.649C117.864 398.595 117.595 398.541 117.326 398.486C117.276 398.488 117.224 398.464 117.173 398.466C116.918 398.424 116.649 398.369 116.381 398.34C116.33 398.342 116.292 398.331 116.241 398.332C115.96 398.291 115.692 398.262 115.399 398.234L115.373 398.235C115.105 398.206 114.825 398.19 114.545 398.174C114.494 398.175 114.456 398.164 114.405 398.166C114.125 398.15 113.858 398.146 113.591 398.143C113.54 398.144 113.489 398.146 113.425 398.136C113.158 398.132 112.878 398.116 112.599 398.125C112.56 398.114 112.522 398.128 112.472 398.13C112.205 398.126 111.925 398.136 111.659 398.157C111.634 398.158 111.608 398.159 111.583 398.16C111.304 398.169 111.012 398.192 110.746 398.214C110.695 398.216 110.644 398.217 110.594 398.219C110.327 398.241 110.049 398.276 109.783 398.297C109.732 398.299 109.681 398.301 109.63 398.303C109.352 398.338 109.074 398.372 108.795 398.407C108.77 398.408 108.757 398.421 108.732 398.422C108.454 398.457 108.188 398.504 107.91 398.539C107.872 398.553 107.821 398.555 107.796 398.556C107.531 398.603 107.24 398.651 106.975 398.698C106.924 398.7 106.861 398.715 106.823 398.729C106.546 398.789 106.28 398.836 106.003 398.896C105.965 398.91 105.914 398.912 105.877 398.926C105.599 398.987 105.335 399.059 105.057 399.119C105.045 399.133 105.032 399.12 105.019 399.133C104.73 399.207 104.465 399.279 104.175 399.353C104.138 399.367 104.075 399.382 104.037 399.396C103.772 399.468 103.496 399.554 103.231 399.627C103.181 399.654 103.131 399.655 103.081 399.683C102.804 399.768 102.527 399.854 102.264 399.952C102.238 399.953 102.214 399.979 102.188 399.98C101.925 400.078 101.66 400.15 101.397 400.248C101.359 400.262 101.321 400.276 101.296 400.277C101.032 400.375 100.769 400.473 100.505 400.571C100.455 400.598 100.405 400.6 100.355 400.627C100.091 400.725 99.8406 400.835 99.577 400.933C99.5394 400.947 99.4895 400.975 99.4518 400.989C99.1759 401.1 98.9255 401.21 98.6496 401.321C98.3869 401.444 98.1111 401.555 97.8483 401.679C97.8107 401.693 97.7608 401.72 97.7231 401.734C97.4727 401.844 97.2231 401.98 96.9726 402.09C96.9227 402.117 96.885 402.131 96.8351 402.158C96.5855 402.294 96.335 402.404 96.0854 402.54C96.0478 402.554 96.0355 402.567 95.9979 402.581C95.7605 402.704 95.5109 402.839 95.2736 402.962C95.2613 402.975 95.2237 402.989 95.2114 403.002C94.9618 403.138 94.7245 403.26 94.488 403.408C94.4381 403.435 94.4004 403.449 94.3505 403.476C94.1263 403.611 93.8767 403.747 93.6525 403.882C93.6149 403.896 93.5781 403.935 93.5404 403.949C93.3039 404.097 93.0675 404.245 92.831 404.393L92.8187 404.406C92.5823 404.554 92.3458 404.702 92.1347 404.849C92.0971 404.863 92.0725 404.889 92.0349 404.903C91.8238 405.05 91.5996 405.185 91.3762 405.345C91.3263 405.372 91.3018 405.398 91.2519 405.426C91.0408 405.573 90.8175 405.733 90.6064 405.88C90.5819 405.906 90.5565 405.907 90.5319 405.933C90.3209 406.08 90.1229 406.24 89.9118 406.387C89.8996 406.4 89.8873 406.413 89.8619 406.414C89.6639 406.573 89.4529 406.72 89.2549 406.88C89.2304 406.906 89.1805 406.933 89.1559 406.959C88.958 407.119 88.7723 407.265 88.5743 407.424C88.5498 407.45 88.5122 407.464 88.4754 407.504C88.2774 407.663 88.0926 407.835 87.8946 407.994L87.8824 408.007C87.6976 408.179 87.5119 408.325 87.327 408.496C87.3025 408.523 87.2902 408.536 87.2657 408.562C87.0932 408.721 86.9206 408.879 86.748 409.038C86.7235 409.064 86.699 409.09 86.6622 409.129C86.4896 409.288 86.3302 409.459 86.1699 409.604C86.1454 409.63 86.1331 409.643 86.1086 409.67C85.9491 409.84 85.7766 409.999 85.6425 410.169L85.6303 410.182C85.4708 410.353 85.3237 410.51 85.1896 410.68C85.1651 410.706 85.1406 410.733 85.1283 410.746C84.9811 410.903 84.8471 411.073 84.7253 411.23C84.7008 411.256 84.6885 411.269 84.664 411.296C84.5299 411.465 84.3959 411.635 84.2741 411.792C84.2619 411.805 84.2619 411.805 84.2496 411.818C84.1278 411.975 83.9938 412.145 83.8851 412.314C83.8729 412.327 83.8606 412.34 83.8483 412.353C83.7266 412.51 83.6179 412.679 83.5215 412.835C83.497 412.861 83.4978 412.887 83.4733 412.913C83.3769 413.069 83.2683 413.238 83.1719 413.394C83.1596 413.407 83.1605 413.432 83.136 413.458C82.944 413.796 82.7767 414.107 82.6224 414.43C82.6101 414.443 82.611 414.468 82.5987 414.481C82.5277 414.636 82.4567 414.791 82.398 414.933C82.3857 414.946 82.3866 414.972 82.3621 414.998C82.2911 415.153 82.2455 415.307 82.1999 415.461C82.1999 415.461 82.1876 415.474 82.2007 415.487C82.1551 415.641 82.1095 415.795 82.0762 415.936L82.077 415.961C82.0437 416.102 82.0104 416.243 81.9901 416.397C81.991 416.422 81.9788 416.435 81.9796 416.461C82.0915 416.762 82.0705 416.89 82.0625 417.03C82.0634 417.056 82.0634 417.056 82.0642 417.081C82.0483 417.361 82.0456 417.654 82.0673 417.92C82.0682 417.946 82.0682 417.946 82.069 417.971C82.0865 418.11 82.1031 418.224 82.1328 418.35C82.1336 418.376 82.1467 418.388 82.1476 418.413C82.1773 418.539 82.207 418.666 82.2621 418.791C82.2621 418.791 82.2752 418.803 82.2761 418.829C82.3181 418.942 82.3732 419.067 82.4283 419.192L82.4414 419.204C82.4965 419.33 82.5639 419.442 82.6312 419.554C82.6443 419.566 82.6452 419.592 82.6583 419.604C82.7257 419.716 82.8053 419.815 82.8981 419.926C82.9112 419.939 82.9243 419.951 82.9374 419.963C83.0039 420.05 83.0967 420.161 83.2017 420.26C84.3717 421.402 86.4438 422.158 89.6289 422.381C108.201 423.581 117.897 407.801 120.814 401.992C124.544 399.945 128.168 397.723 131.684 395.353L133.622 394.015C139.569 389.858 145.208 385.241 150.465 380.243C147.004 388.347 139.58 408.907 148.927 417.275C151.404 419.492 153.629 420.243 155.537 419.937C155.55 419.924 155.563 419.936 155.575 419.923C156.131 419.827 156.671 419.644 157.171 419.373L157.183 419.359C157.682 419.088 158.165 418.728 158.609 418.306L158.621 418.293C159.064 417.871 159.492 417.361 159.867 416.801C159.879 416.788 159.879 416.788 159.891 416.775C159.964 416.671 160.049 416.553 160.109 416.437C160.398 415.969 160.673 415.464 160.947 414.933C160.959 414.92 160.971 414.882 160.983 414.868C161.043 414.752 161.089 414.623 161.161 414.494C161.173 414.48 161.172 414.455 161.185 414.442C161.362 414.042 161.526 413.629 161.689 413.191C161.701 413.178 161.7 413.153 161.712 413.14C161.759 413.011 161.805 412.882 161.852 412.753C161.863 412.715 161.887 412.663 161.898 412.625C161.945 412.496 161.979 412.38 162.012 412.239C162.024 412.201 162.035 412.162 162.059 412.111C162.184 411.687 162.31 411.263 162.41 410.84C162.433 410.788 162.432 410.737 162.443 410.699C162.477 410.583 162.498 410.455 162.519 410.327C162.53 410.263 162.553 410.186 162.563 410.122C162.584 409.995 162.619 409.879 162.64 409.751C162.662 409.674 162.673 409.61 162.683 409.521C162.704 409.393 162.738 409.277 162.747 409.162C162.757 409.098 162.768 409.035 162.778 408.971C162.821 408.74 162.864 408.51 162.882 408.28C162.892 408.191 162.901 408.102 162.924 408.025C162.933 407.91 162.955 407.807 162.964 407.693C162.973 407.603 162.995 407.501 162.992 407.399C163.001 407.284 163.023 407.182 163.031 407.067C163.053 406.965 163.05 406.863 163.059 406.748C163.068 406.634 163.077 406.544 163.086 406.43C163.106 406.276 163.114 406.136 163.121 405.971C163.142 405.843 163.138 405.716 163.159 405.588C163.167 405.448 163.176 405.333 163.184 405.193C163.194 405.103 163.19 405.002 163.2 404.912C163.209 404.798 163.204 404.671 163.213 404.556C163.21 404.454 163.219 404.365 163.216 404.263C163.212 404.136 163.219 403.996 163.228 403.881C163.238 403.792 163.235 403.716 163.232 403.614C163.237 403.398 163.23 403.195 163.236 402.978C163.234 402.928 163.232 402.877 163.243 402.813C163.25 402.647 163.232 402.483 163.239 402.317C163.236 402.241 163.233 402.139 163.23 402.063C163.226 401.936 163.221 401.784 163.216 401.656C163.214 401.58 163.21 401.479 163.208 401.402C163.202 401.25 163.185 401.111 163.18 400.958C163.177 400.882 163.175 400.806 163.172 400.73C163.152 400.514 163.132 400.299 163.112 400.083C163.111 400.058 163.097 400.02 163.109 399.982C163.089 399.792 163.07 399.601 163.051 399.411C163.048 399.335 163.034 399.272 163.018 399.184C163 399.044 162.982 398.88 162.965 398.74C162.962 398.664 162.946 398.576 162.932 398.513C162.901 398.361 162.896 398.209 162.865 398.057C162.85 397.994 162.848 397.918 162.833 397.855C162.8 397.627 162.767 397.424 162.722 397.21C162.721 397.184 162.708 397.172 162.72 397.159C162.688 396.957 162.643 396.767 162.611 396.565C162.596 396.502 162.581 396.439 162.566 396.35C162.535 396.199 162.505 396.047 162.462 395.909C162.434 395.834 162.431 395.757 162.403 395.682C162.373 395.53 162.33 395.392 162.299 395.24C162.284 395.177 162.27 395.114 162.255 395.051C162.197 394.85 162.152 394.635 162.081 394.421C162.081 394.421 162.068 394.409 162.08 394.396C162.022 394.194 161.965 393.993 161.907 393.791C161.892 393.728 161.877 393.665 161.837 393.603C161.794 393.465 161.738 393.314 161.695 393.175C161.667 393.1 161.653 393.037 161.625 392.962C161.582 392.823 161.526 392.673 161.471 392.547C161.456 392.484 161.416 392.422 161.401 392.359C161.318 392.158 161.248 391.97 161.165 391.769C159.946 388.81 158.823 386.432 157.818 384.533C157.519 383.984 157.248 383.484 156.978 383.01C156.707 382.536 156.451 382.1 156.183 381.702C155.807 381.104 155.446 380.57 155.113 380.111C155.006 379.962 154.899 379.813 154.792 379.664C154.366 379.093 153.995 378.648 153.652 378.278C153.573 378.179 153.494 378.106 153.402 378.02C153.271 377.897 153.152 377.761 153.047 377.663C156.144 374.557 159.109 371.302 161.918 367.926L164.078 365.271C167.989 360.319 171.575 355.11 174.797 349.685C173.947 358.73 172.659 384.779 185.657 386.155C186.218 386.212 186.728 386.246 187.237 386.254C187.364 386.25 187.478 386.259 187.605 386.254L187.631 386.254C187.758 386.249 187.859 386.246 187.973 386.229L187.998 386.228C188.1 386.225 188.214 386.208 188.315 386.205L188.341 386.204C188.518 386.198 188.632 386.181 188.734 386.178L188.759 386.177C188.861 386.174 188.961 386.145 189.063 386.141C189.075 386.128 189.088 386.14 189.101 386.127C189.189 386.112 189.303 386.095 189.391 386.079C189.404 386.066 189.417 386.078 189.429 386.065C189.517 386.049 189.618 386.021 189.707 386.005C189.719 385.992 189.732 386.004 189.744 385.991C189.833 385.975 189.921 385.959 190.009 385.918C190.021 385.905 190.034 385.917 190.046 385.904C190.135 385.889 190.21 385.861 190.298 385.819C190.31 385.806 190.323 385.819 190.335 385.805C190.411 385.777 190.499 385.762 190.587 385.721C190.599 385.708 190.612 385.72 190.624 385.707C190.7 385.679 190.775 385.651 190.863 385.61C190.875 385.596 190.888 385.609 190.9 385.596C190.976 385.568 191.051 385.54 191.125 385.486C191.138 385.473 191.151 385.485 191.163 385.472C191.238 385.444 191.3 385.404 191.388 385.363C191.4 385.35 191.4 385.35 191.426 385.349C191.488 385.309 191.563 385.281 191.638 385.227C191.65 385.214 191.65 385.214 191.675 385.213C191.737 385.173 191.8 385.133 191.874 385.079C191.886 385.066 191.886 385.066 191.899 385.053C191.961 385.013 192.023 384.972 192.097 384.919C192.11 384.906 192.11 384.906 192.122 384.893C192.184 384.852 192.245 384.787 192.308 384.747C192.32 384.733 192.32 384.733 192.332 384.72C192.394 384.68 192.456 384.614 192.505 384.562L192.517 384.549C192.566 384.496 192.627 384.43 192.69 384.39L192.702 384.377C192.751 384.325 192.812 384.259 192.861 384.206L192.873 384.193C192.923 384.141 192.984 384.075 193.02 384.01C193.02 384.01 193.02 384.01 193.032 383.997C193.093 383.931 193.129 383.867 193.191 383.801C193.239 383.723 193.288 383.67 193.336 383.593C194.398 381.929 194.611 379.594 194.201 376.874C194.184 376.76 194.168 376.647 194.151 376.533C194.151 376.533 194.151 376.533 194.138 376.52C194.122 376.407 194.105 376.293 194.076 376.192L194.075 376.166C194.059 376.053 194.03 375.952 194.013 375.838C194 375.826 194.012 375.813 193.999 375.8C193.983 375.686 193.954 375.586 193.924 375.459C193.911 375.447 193.923 375.434 193.91 375.422C193.894 375.308 193.865 375.207 193.823 375.094C193.822 375.069 193.809 375.056 193.821 375.043C193.792 374.943 193.776 374.829 193.734 374.716C193.733 374.69 193.72 374.678 193.719 374.653C193.69 374.552 193.673 374.438 193.631 374.325C193.631 374.3 193.617 374.287 193.617 374.262C193.588 374.161 193.559 374.06 193.529 373.934C193.528 373.909 193.515 373.897 193.514 373.871C193.485 373.77 193.444 373.657 193.415 373.557C193.414 373.531 193.401 373.519 193.387 373.481C193.358 373.381 193.316 373.268 193.287 373.167C193.286 373.141 193.26 373.117 193.259 373.091C193.23 372.991 193.188 372.878 193.159 372.777C193.159 372.751 193.145 372.714 193.131 372.702C193.103 372.601 193.061 372.488 193.032 372.387C193.031 372.362 193.017 372.324 193.004 372.312C192.975 372.211 192.933 372.098 192.904 371.997C192.89 371.959 192.889 371.934 192.863 371.91C192.834 371.809 192.792 371.696 192.763 371.595C192.749 371.557 192.749 371.532 192.722 371.507C192.693 371.407 192.651 371.294 192.597 371.194C192.583 371.156 192.582 371.131 192.556 371.106C192.514 370.993 192.473 370.905 192.431 370.792C192.417 370.755 192.416 370.729 192.402 370.692C192.36 370.579 192.319 370.491 192.277 370.378C192.263 370.34 192.249 370.303 192.236 370.29C192.194 370.177 192.153 370.09 192.111 369.977C192.097 369.939 192.083 369.901 192.07 369.889C192.028 369.776 191.987 369.689 191.945 369.576C191.931 369.538 191.917 369.5 191.891 369.476C191.849 369.363 191.794 369.263 191.766 369.162C191.752 369.124 191.738 369.087 191.724 369.049C191.682 368.936 191.627 368.836 191.585 368.723C191.571 368.685 191.557 368.648 191.544 368.635C191.502 368.522 191.448 368.422 191.406 368.309C191.392 368.272 191.378 368.234 191.352 368.21C191.298 368.11 191.256 367.997 191.202 367.897C191.188 367.859 191.161 367.835 191.147 367.797C191.093 367.697 191.051 367.584 190.997 367.484C190.983 367.446 190.969 367.409 190.943 367.384C190.888 367.284 190.846 367.171 190.792 367.071C190.778 367.034 190.752 367.009 190.751 366.984C190.697 366.884 190.642 366.759 190.587 366.659C190.574 366.621 190.547 366.597 190.546 366.571C190.492 366.471 190.437 366.346 190.383 366.246C190.369 366.208 190.356 366.196 190.342 366.158C190.274 366.046 190.232 365.933 190.165 365.821C190.164 365.796 190.138 365.771 190.137 365.746C190.07 365.634 190.015 365.508 189.947 365.396C189.934 365.384 189.933 365.358 189.907 365.334C189.852 365.209 189.785 365.096 189.704 364.972C189.691 364.96 189.69 364.934 189.69 364.934C189.622 364.797 189.554 364.685 189.486 364.547C188.957 363.56 188.39 362.588 187.798 361.616C187.731 361.504 187.65 361.38 187.583 361.267C187.556 361.243 187.556 361.217 187.529 361.193C187.475 361.093 187.395 360.994 187.341 360.894C187.327 360.856 187.288 360.82 187.274 360.782C187.22 360.682 187.153 360.595 187.099 360.495C187.072 360.445 187.032 360.409 187.018 360.371C186.952 360.284 186.898 360.184 186.844 360.11C186.817 360.06 186.79 360.01 186.751 359.973C186.684 359.886 186.643 359.799 186.577 359.712C186.55 359.662 186.509 359.6 186.482 359.55C186.429 359.475 186.375 359.376 186.321 359.301C186.281 359.239 186.254 359.189 186.214 359.127C186.16 359.052 186.107 358.978 186.053 358.878C186.012 358.816 185.985 358.766 185.945 358.704C185.892 358.629 185.838 358.555 185.785 358.48C185.745 358.418 185.704 358.356 185.677 358.306C185.624 358.231 185.571 358.157 185.517 358.082C185.477 358.02 185.437 357.958 185.396 357.896C185.343 357.821 185.29 357.747 185.236 357.672C185.196 357.61 185.156 357.548 185.116 357.485C185.062 357.411 185.009 357.337 184.955 357.262C184.915 357.2 184.875 357.138 184.822 357.089C184.769 357.014 184.716 356.94 184.662 356.865C184.622 356.803 184.582 356.741 184.529 356.692C184.476 356.617 184.436 356.555 184.382 356.48C184.342 356.418 184.289 356.344 184.236 356.295C184.183 356.22 184.143 356.158 184.077 356.097C184.037 356.034 183.983 355.96 183.931 355.911C183.878 355.836 183.837 355.774 183.772 355.713C183.731 355.651 183.678 355.576 183.626 355.527C183.572 355.452 183.532 355.39 183.466 355.329C183.426 355.267 183.36 355.205 183.32 355.143C183.267 355.069 183.214 355.02 183.161 354.945C183.121 354.883 183.055 354.822 183.015 354.759C182.975 354.697 182.909 354.636 182.869 354.574C182.828 354.511 182.763 354.45 182.723 354.388C182.682 354.326 182.617 354.264 182.576 354.202C182.536 354.14 182.471 354.078 182.43 354.016C182.39 353.954 182.324 353.893 182.284 353.83C182.244 353.768 182.178 353.707 182.138 353.645C182.098 353.582 182.032 353.521 181.992 353.459C181.952 353.397 181.886 353.335 181.846 353.273C181.806 353.211 181.74 353.15 181.7 353.087C181.659 353.025 181.594 352.964 181.554 352.902C181.513 352.839 181.448 352.778 181.407 352.716C181.355 352.667 181.302 352.592 181.249 352.543C181.197 352.494 181.143 352.42 181.091 352.37C181.038 352.321 180.985 352.247 180.932 352.198C180.88 352.149 180.84 352.087 180.774 352.025C180.721 351.976 180.668 351.902 180.616 351.853C180.563 351.803 180.523 351.741 180.47 351.692C180.418 351.643 180.364 351.569 180.312 351.519C180.259 351.47 180.219 351.408 180.167 351.359C180.114 351.31 180.061 351.236 180.008 351.186C179.956 351.137 179.915 351.075 179.863 351.026C179.81 350.977 179.757 350.903 179.705 350.853C179.652 350.804 179.612 350.742 179.559 350.693C179.507 350.644 179.453 350.57 179.401 350.52C179.348 350.471 179.296 350.422 179.256 350.36C179.203 350.311 179.138 350.25 179.097 350.187C179.045 350.138 178.992 350.089 178.952 350.027C178.9 349.978 178.847 349.929 178.794 349.854C178.741 349.805 178.689 349.756 178.636 349.707C178.584 349.658 178.518 349.597 178.465 349.548C178.413 349.499 178.36 349.449 178.321 349.413C178.269 349.364 178.216 349.315 178.15 349.253C178.098 349.204 178.045 349.155 178.006 349.118C177.954 349.069 177.901 349.02 177.848 348.971C177.796 348.922 177.757 348.885 177.704 348.836C177.652 348.787 177.599 348.738 177.547 348.689C177.494 348.64 177.455 348.603 177.402 348.554C177.35 348.505 177.297 348.456 177.245 348.407C177.192 348.357 177.153 348.321 177.1 348.272C177.048 348.222 176.995 348.173 176.943 348.124C176.903 348.088 176.851 348.038 176.811 348.002C176.759 347.953 176.706 347.903 176.641 347.842C176.601 347.805 176.549 347.756 176.51 347.719C176.457 347.67 176.391 347.609 176.327 347.573C176.314 347.561 176.287 347.536 176.274 347.524C178.553 343.53 180.625 339.416 182.491 335.207C183.009 334.019 183.528 332.831 184.021 331.619L184.924 329.389C186.784 324.659 188.426 319.847 189.951 314.975C190.411 323.302 193.382 340.419 209.365 346.577C212.494 347.78 214.752 348.022 216.286 347.537C216.286 347.537 216.299 347.524 216.312 347.536C216.45 347.493 216.575 347.438 216.701 347.383C216.701 347.383 216.713 347.37 216.726 347.382C216.851 347.327 216.963 347.26 217.089 347.205C217.325 347.057 217.523 346.897 217.72 346.713C217.806 346.621 217.892 346.529 217.964 346.425L217.977 346.411C218.049 346.307 218.122 346.203 218.182 346.087C218.182 346.087 218.182 346.087 218.194 346.073C218.398 345.723 218.538 345.337 218.638 344.914C218.638 344.914 218.65 344.901 218.637 344.888C218.67 344.747 218.69 344.594 218.724 344.453C218.724 344.453 218.736 344.44 218.723 344.428C218.783 343.968 218.805 343.471 218.761 342.939L218.76 342.913C218.754 342.735 218.736 342.571 218.717 342.381L218.716 342.355C218.646 341.798 218.537 341.204 218.376 340.586C218.363 340.574 218.375 340.561 218.362 340.549C218.305 340.347 218.26 340.158 218.189 339.944C218.176 339.932 218.175 339.907 218.175 339.907C218.118 339.705 218.047 339.491 217.976 339.278L217.963 339.265C217.821 338.838 217.653 338.386 217.485 337.934C217.472 337.921 217.471 337.896 217.471 337.896C217.387 337.67 217.291 337.457 217.207 337.231C217.206 337.205 217.193 337.193 217.179 337.156C217.083 336.943 216.986 336.704 216.89 336.491C216.877 336.479 216.876 336.454 216.876 336.454C216.67 335.99 216.438 335.528 216.205 335.04C216.192 335.027 216.191 335.002 216.178 334.99C216.069 334.764 215.946 334.527 215.811 334.303C215.797 334.265 215.784 334.253 215.77 334.215C215.648 333.978 215.513 333.753 215.391 333.516C215.378 333.504 215.364 333.466 215.35 333.454C215.08 332.98 214.784 332.481 214.487 331.982C214.474 331.97 214.473 331.945 214.46 331.933C214.312 331.696 214.164 331.459 214.016 331.223C214.002 331.185 213.976 331.161 213.962 331.123C213.814 330.886 213.666 330.65 213.506 330.426C213.48 330.402 213.466 330.364 213.44 330.339C213.279 330.091 213.119 329.867 212.958 329.618C212.945 329.606 212.932 329.594 212.931 329.568C212.77 329.32 212.596 329.084 212.423 328.848C212.41 328.836 212.397 328.824 212.396 328.798C212.223 328.562 212.05 328.327 211.876 328.091C211.85 328.066 211.823 328.016 211.797 327.992C211.624 327.756 211.45 327.521 211.265 327.298C211.225 327.261 211.211 327.223 211.172 327.187C210.999 326.951 210.8 326.716 210.627 326.48C210.601 326.456 210.6 326.43 210.574 326.406C210.387 326.158 210.202 325.935 210.003 325.7C209.99 325.688 209.977 325.676 209.964 325.664C209.765 325.429 209.566 325.194 209.368 324.959C209.328 324.922 209.314 324.885 209.275 324.848C209.09 324.625 208.891 324.39 208.693 324.181C208.654 324.144 208.627 324.094 208.587 324.057C208.389 323.822 208.191 323.613 207.992 323.378C207.966 323.354 207.927 323.317 207.913 323.279C207.702 323.057 207.49 322.81 207.279 322.588L207.266 322.576C207.055 322.354 206.831 322.12 206.62 321.899C206.581 321.862 206.554 321.837 206.515 321.801C206.304 321.579 206.093 321.357 205.883 321.161C205.844 321.124 205.805 321.087 205.765 321.05C205.554 320.829 205.331 320.62 205.121 320.424C205.082 320.387 205.055 320.362 205.016 320.326C204.78 320.105 204.557 319.896 204.32 319.675C204.307 319.663 204.307 319.663 204.294 319.651C204.071 319.442 203.835 319.221 203.611 319.013C203.585 318.988 203.546 318.951 203.52 318.927C203.296 318.718 203.061 318.523 202.838 318.314C202.798 318.277 202.759 318.241 202.72 318.204C202.484 318.008 202.274 317.812 202.039 317.616C201.999 317.58 201.96 317.543 201.908 317.519C201.673 317.324 201.438 317.128 201.189 316.921C201.176 316.908 201.15 316.884 201.136 316.871C200.901 316.676 200.653 316.494 200.418 316.298C200.392 316.274 200.365 316.249 200.327 316.238C200.079 316.055 199.844 315.86 199.609 315.69C199.57 315.653 199.518 315.629 199.479 315.593C199.244 315.423 198.997 315.24 198.762 315.07C198.723 315.033 198.671 315.01 198.632 314.973C198.384 314.791 198.137 314.634 197.877 314.464C197.851 314.44 197.812 314.428 197.799 314.416C197.552 314.259 197.293 314.09 197.046 313.933C197.033 313.921 196.994 313.909 196.981 313.897C196.721 313.728 196.474 313.571 196.215 313.427C196.163 313.404 196.124 313.367 196.086 313.355C195.839 313.198 195.58 313.055 195.334 312.923C195.282 312.9 195.243 312.863 195.191 312.839C194.932 312.695 194.673 312.551 194.427 312.42C194.388 312.409 194.362 312.384 194.324 312.373C194.064 312.229 193.793 312.098 193.534 311.954C193.521 311.942 193.508 311.93 193.495 311.943C193.224 311.812 192.953 311.682 192.695 311.563C192.656 311.552 192.604 311.528 192.578 311.504C192.32 311.385 192.062 311.267 191.803 311.148C191.752 311.125 191.7 311.101 191.662 311.09C191.52 311.031 191.378 310.972 191.223 310.901C193.389 303.579 195.362 296.175 197.426 288.831L198.401 285.364C199.572 281.293 200.795 277.246 202.121 273.246C205.748 280.867 217.871 304.743 227.035 306.25C229.834 306.702 231.835 305.744 233.07 303.921C233.094 303.895 233.093 303.87 233.118 303.844C233.323 303.519 233.515 303.181 233.693 302.807C233.704 302.768 233.716 302.755 233.728 302.716C233.88 302.342 234.032 301.943 234.145 301.532C234.156 301.494 234.156 301.468 234.167 301.43C234.223 301.212 234.267 301.007 234.323 300.789C234.323 300.789 234.335 300.776 234.322 300.763C234.366 300.558 234.397 300.341 234.44 300.111C234.451 300.072 234.451 300.047 234.462 300.008C234.493 299.791 234.523 299.548 234.54 299.319C234.539 299.294 234.552 299.28 234.551 299.255C234.568 299.026 234.574 298.809 234.591 298.58C234.59 298.554 234.602 298.516 234.588 298.478C234.592 298.236 234.597 297.995 234.588 297.741C234.587 297.715 234.586 297.664 234.585 297.639C234.577 297.41 234.569 297.182 234.548 296.941C234.548 296.915 234.547 296.89 234.533 296.852C234.524 296.598 234.49 296.345 234.456 296.092C234.454 296.041 234.44 296.003 234.452 295.965C234.431 295.724 234.385 295.484 234.364 295.243C234.363 295.218 234.362 295.192 234.361 295.167C234.327 294.914 234.28 294.648 234.233 294.383C234.231 294.332 234.204 294.282 234.202 294.231C234.143 293.979 234.109 293.726 234.036 293.461C234.023 293.449 234.035 293.436 234.022 293.423C233.95 293.159 233.889 292.881 233.817 292.617C233.802 292.554 233.788 292.516 233.773 292.453C233.628 291.924 233.445 291.383 233.249 290.856C233.234 290.793 233.207 290.743 233.192 290.68C233.094 290.416 232.996 290.152 232.885 289.876C232.872 289.864 232.871 289.838 232.871 289.838C232.761 289.588 232.664 289.35 232.553 289.099C232.526 289.049 232.498 288.974 232.471 288.924C232.348 288.661 232.238 288.41 232.102 288.161C232.088 288.123 232.062 288.098 232.048 288.061C231.925 287.823 231.816 287.598 231.681 287.374C231.654 287.324 231.614 287.262 231.587 287.212C231.451 286.962 231.304 286.725 231.155 286.463C231.128 286.413 231.101 286.389 231.074 286.339C230.94 286.115 230.806 285.916 230.671 285.691C230.644 285.641 230.604 285.579 230.564 285.542C230.403 285.294 230.243 285.07 230.07 284.834C230.043 284.784 229.99 284.735 229.963 284.685C229.816 284.474 229.657 284.276 229.498 284.078C229.458 284.041 229.431 283.991 229.392 283.955C229.206 283.732 229.021 283.509 228.835 283.287C228.783 283.238 228.756 283.188 228.703 283.139C228.519 282.942 228.359 282.743 228.162 282.559C228.136 282.535 228.097 282.498 228.071 282.474C227.873 282.264 227.65 282.055 227.452 281.846C227.399 281.797 227.347 281.748 227.294 281.699C227.097 281.515 226.887 281.318 226.678 281.147C226.665 281.135 226.639 281.111 226.626 281.098C226.39 280.903 226.168 280.72 225.933 280.524C225.88 280.475 225.815 280.439 225.763 280.39C225.515 280.208 225.28 280.012 225.033 279.855C217.456 274.569 210.363 272.292 205.855 271.301C204.626 271.037 203.603 270.869 202.799 270.756C205.055 264.207 207.632 257.761 210.777 251.55L210.836 251.434C210.884 251.356 210.919 251.266 210.968 251.188L212.018 249.168C212.018 249.168 212.018 249.168 212.017 249.143C212.101 249 212.172 248.845 212.256 248.702L212.292 248.637C213.022 247.303 213.765 245.981 214.547 244.67C223.975 228.886 236.965 215.397 252.346 205.35C253.838 204.384 252.101 202.243 250.62 203.196C237.017 212.077 225.222 223.681 216.095 237.114C214.001 240.199 212.076 243.393 210.305 246.632L208.931 249.235C205.52 255.836 202.691 262.71 200.235 269.737C200.039 269.578 199.83 269.433 199.622 269.287C199.583 269.25 199.518 269.215 199.479 269.178C199.218 268.983 198.945 268.802 198.672 268.62C198.645 268.596 198.62 268.597 198.594 268.572C198.334 268.403 198.074 268.234 197.814 268.064C197.762 268.041 197.736 268.016 197.697 267.979C197.424 267.823 197.164 267.654 196.892 267.498C196.84 267.474 196.776 267.438 196.736 267.402C196.464 267.246 196.205 267.102 195.934 266.971C195.895 266.96 195.856 266.923 195.817 266.912C195.546 266.781 195.3 266.649 195.029 266.519C194.99 266.507 194.977 266.495 194.951 266.47C194.679 266.34 194.396 266.222 194.138 266.104C194.086 266.08 194.034 266.057 193.983 266.033C193.712 265.928 193.454 265.809 193.171 265.717C193.119 265.693 193.081 265.682 193.029 265.658C192.759 265.553 192.476 265.461 192.206 265.356L192.192 265.343C191.91 265.251 191.627 265.159 191.344 265.067C191.293 265.043 191.242 265.045 191.19 265.021C190.92 264.942 190.651 264.862 190.369 264.795C190.305 264.785 190.253 264.761 190.203 264.763C189.921 264.696 189.651 264.616 189.382 264.562C189.357 264.562 189.318 264.551 189.305 264.539C189.037 264.484 188.78 264.417 188.524 264.375C188.486 264.363 188.435 264.365 188.397 264.353C188.128 264.299 187.847 264.258 187.591 264.216C187.527 264.205 187.476 264.207 187.413 264.196C187.145 264.167 186.876 264.113 186.608 264.084C186.569 264.072 186.519 264.074 186.48 264.063C186.212 264.034 185.97 264.004 185.715 263.987C185.69 263.988 185.651 263.976 185.626 263.977C185.358 263.948 185.091 263.944 184.811 263.929C184.76 263.93 184.696 263.92 184.645 263.921C184.378 263.918 184.123 263.901 183.856 263.897C183.805 263.899 183.755 263.901 183.704 263.903C183.437 263.899 183.17 263.895 182.903 263.892L182.877 263.893C182.61 263.889 182.331 263.898 182.065 263.92C182.014 263.922 181.963 263.924 181.913 263.925C181.659 263.934 181.392 263.956 181.139 263.964C181.088 263.966 181.037 263.968 180.974 263.983C180.708 264.004 180.442 264.026 180.189 264.06C180.163 264.061 180.138 264.062 180.112 264.063C179.872 264.084 179.619 264.118 179.365 264.152C179.315 264.154 179.277 264.168 179.226 264.169C178.973 264.203 178.72 264.237 178.48 264.284C178.344 264.377 178.293 264.379 178.23 264.394Z" fill="#3D4775"/>
<path d="M101.011 253.042C101.011 253.042 203.304 147.583 222.685 54.8842C229.264 23.4315 227.368 -1.49086 221.972 -20.689C210.736 -60.7203 161.46 -74.0002 131.882 -44.9794C117.697 -31.0627 103.699 -10.4326 93.8048 20.132C64.6577 110.202 101.011 253.042 101.011 253.042Z" fill="#2F8C91"/>
<path d="M162.449 10.3503C160.785 16.6731 159.114 22.986 157.451 29.3088C134.136 34.6763 110.815 40.034 87.4903 45.4088C87.3478 46.1655 87.2053 46.9222 87.0796 47.6815C110.331 42.3305 133.583 36.9795 156.835 31.6285C155.261 37.5975 153.683 43.5836 152.109 49.5527C129.885 55.0449 107.437 59.54 84.8357 63.0141C84.7586 63.7372 84.6647 64.4576 84.5877 65.1807C107.07 61.7495 129.381 57.3119 151.49 51.8895C149.977 57.6317 148.463 63.3738 146.949 69.116C125.688 73.3919 104.436 77.6606 83.1742 81.9365C83.1308 82.6648 83.0873 83.393 83.0509 84.1311C104.144 79.8904 125.253 75.6522 146.346 71.4114C144.763 77.4317 143.164 83.4494 141.582 89.4697C122.087 95.1821 102.371 100.091 82.484 104.159C82.4839 104.885 82.4767 105.601 82.4864 106.32C102.159 102.306 121.664 97.4792 140.955 91.8578C139.32 98.0537 137.685 104.25 136.057 110.455C118.478 115.344 100.708 119.468 82.8021 122.801C82.8214 123.512 82.8576 124.227 82.8769 124.938C100.551 121.657 118.085 117.619 135.433 112.826C134.104 117.871 132.766 122.923 131.437 127.967C115.734 133.031 99.8234 137.373 83.7522 140.972C83.8051 141.688 83.851 142.395 83.904 143.112C99.7143 139.587 115.351 135.344 130.796 130.397C129.175 136.551 127.555 142.706 125.935 148.86C112.917 154.479 99.372 158.661 85.5053 161.358C85.5777 162.06 85.6501 162.762 85.7296 163.475C99.2752 160.851 112.505 156.813 125.263 151.434C124.707 153.526 124.159 155.629 123.604 157.722C123.338 157.996 123.201 158.386 123.315 158.815C122.917 160.337 122.512 161.849 122.114 163.372C111.064 169.006 99.1639 172.567 86.9085 173.911C86.9977 174.616 87.0798 175.311 87.169 176.016C99.0512 174.693 110.599 171.349 121.394 166.086C120.174 170.702 118.965 175.31 117.745 179.925C108.37 183.797 98.7617 186.95 88.9562 189.373C89.0622 190.08 89.1611 190.778 89.2672 191.486C98.7322 189.15 108.019 186.131 117.078 182.464C115.952 186.752 114.809 191.038 113.683 195.327C107.1 196.891 100.533 198.458 93.949 200.022C92.8674 200.284 91.7618 200.533 90.6802 200.795C90.7959 201.495 90.9046 202.186 91.0133 202.876C92.6309 202.487 94.2432 202.133 95.8414 201.758C101.585 200.397 107.321 199.025 113.065 197.663C112.109 201.296 111.155 204.911 110.2 208.543C104.586 210.957 98.88 213.138 93.0858 215.052C93.2086 215.762 93.3412 216.465 93.4667 217.158C98.8886 215.371 104.241 213.362 109.508 211.131C108.39 215.368 107.281 219.598 106.156 223.825C102.622 225.204 99.0437 226.419 95.408 227.45C95.5476 228.163 95.6899 228.858 95.8251 229.544C99.0841 228.613 102.321 227.546 105.502 226.34C104.832 228.897 104.155 231.443 103.486 234C101.405 234.824 99.3313 235.659 97.2603 236.477C97.4071 237.199 97.5591 237.888 97.704 238.566C99.4098 237.885 101.116 237.203 102.812 236.529C101.81 240.347 100.801 244.154 99.7895 247.979C100.556 251.265 101.014 253.042 101.014 253.042C101.014 253.042 102.261 251.765 104.49 249.362C105.611 245.107 106.732 240.853 107.852 236.599C108.682 238.643 109.661 240.606 110.755 242.498C111.234 241.96 111.723 241.414 112.231 240.854C110.863 238.394 109.697 235.799 108.776 233.067C109.552 230.098 110.345 227.132 111.121 224.163C112.736 228.149 114.673 231.939 116.932 235.534C117.411 234.995 117.883 234.447 118.374 233.884C116.019 230.073 114.02 226.011 112.422 221.757C112.32 221.47 112.132 221.292 111.917 221.18C113.362 215.716 114.797 210.259 116.242 204.795C119.484 211.394 122.962 217.864 126.648 224.208C127.122 223.642 127.606 223.069 128.084 222.487C124.156 215.703 120.475 208.765 117.056 201.692C118.347 196.782 119.647 191.864 120.938 186.954C125.532 195.949 130.359 204.832 135.387 213.579C135.864 212.996 136.324 212.411 136.804 211.812C131.548 202.644 126.52 193.337 121.737 183.892C123.32 177.872 124.912 171.845 126.494 165.824C132.189 177.947 138.342 189.834 144.93 201.474C145.393 200.871 145.856 200.269 146.328 199.66C139.516 187.583 133.176 175.23 127.322 162.636C128.364 158.667 129.416 154.691 130.458 150.722C138.867 162.879 147.277 175.036 155.686 187.193C156.122 186.596 156.559 185.998 157.005 185.393C148.4 172.943 139.785 160.501 131.173 148.042C133.204 140.341 135.235 132.64 137.265 124.939C145.417 142.113 154.485 158.817 164.429 174.973C164.871 174.341 165.303 173.717 165.744 173.085C155.597 156.521 146.361 139.398 138.097 121.777C139.951 114.723 141.812 107.678 143.675 100.616C155.366 118.224 167.064 135.841 178.755 153.448C179.166 152.794 179.584 152.15 179.985 151.503C168.119 133.632 156.254 115.762 144.378 97.8987C145.086 95.2081 145.793 92.5175 146.508 89.8368C147.365 86.5656 148.239 83.297 149.097 80.0258C162.292 99.0379 175.495 118.06 188.69 137.072C189.077 136.405 189.473 135.732 189.853 135.055C176.502 115.827 163.153 96.581 149.801 77.3523C151.13 72.3078 152.459 67.2633 153.787 62.2187C169.134 80.3382 184.481 98.4576 199.838 116.57C200.184 115.888 200.53 115.207 200.869 114.515C185.477 96.3539 170.095 78.1853 154.702 60.0239C154.615 59.9229 154.522 59.856 154.429 59.7892C156.333 52.5761 158.227 45.3703 160.131 38.1573C176.217 58.237 192.293 78.3239 208.379 98.4036C208.69 97.6729 209.01 96.9349 209.321 96.2041C193.15 76.0063 176.979 55.8085 160.798 35.6179C162.226 30.2124 163.643 24.8141 165.071 19.4086C182.734 37.0721 200.414 54.7381 218.077 72.4015C218.316 71.6335 218.545 70.8727 218.768 70.102C201.073 52.4163 183.382 34.7135 165.687 17.0277C167.211 11.2783 168.717 5.5263 170.241 -0.223113C189.019 14.839 206.947 30.9595 223.948 48.0571C224.1 47.188 224.248 46.336 224.38 45.4814C207.42 28.504 189.544 12.4964 170.817 -2.45276C173.272 -11.7857 175.743 -21.116 178.198 -30.4489C195.049 -17.0056 211.242 -2.75412 226.753 12.2321C226.724 11.1951 226.682 10.1825 226.633 9.15999C211.425 -5.44699 195.554 -19.3337 179.074 -32.4484C178.974 -32.5251 178.871 -32.5847 178.756 -32.62C179.784 -36.5474 180.828 -40.4721 181.855 -44.3995C195.766 -34.2714 209.668 -24.1361 223.572 -14.0178C223.341 -15.086 223.091 -16.1396 222.837 -17.1762C209.367 -26.9825 195.896 -36.7887 182.436 -46.6023C183.465 -50.4856 184.487 -54.3788 185.506 -58.2549C183.953 -58.731 182.363 -59.1341 180.772 -59.476C180.486 -58.4003 180.199 -57.3246 179.913 -56.2489C165.099 -53.6021 150.284 -50.9553 135.48 -48.3157C134.446 -47.4692 133.437 -46.5663 132.44 -45.6265C148.068 -48.4103 163.688 -51.2039 179.324 -53.9949C178.402 -50.5238 177.496 -47.0501 176.574 -43.579C158.115 -40.1215 139.653 -36.6468 121.194 -33.1892C120.543 -32.3711 119.896 -31.526 119.257 -30.6711C138.16 -34.2176 157.072 -37.7713 175.982 -41.308C174.558 -35.9195 173.143 -30.5384 171.718 -25.1499C150.707 -21.6053 129.703 -18.0508 108.692 -14.5062C108.253 -13.7252 107.814 -12.9443 107.379 -12.1364C128.629 -15.7229 149.872 -19.3193 171.113 -22.8985C169.88 -18.1979 168.631 -13.4999 167.398 -8.79924C167.36 -8.6651 167.332 -8.5382 167.294 -8.40406C145.117 -3.49086 122.717 0.241786 100.171 2.79703C99.851 3.53501 99.5378 4.28283 99.2316 5.04051C121.885 2.51069 144.395 -1.21362 166.681 -6.1014C166.519 -5.49647 166.357 -4.89154 166.204 -4.29387C166.142 -4.17217 166.104 -4.03801 166.103 -3.91577C165.066 0.0188572 164.029 3.95348 162.982 7.89536C139.619 14.9178 115.951 20.7907 92.0454 25.5245C91.833 26.288 91.6038 27.0488 91.3985 27.822C115.411 23.1747 139.076 17.3189 162.449 10.3503Z" fill="#286F7F"/>
<path d="M166.484 112.123C182.128 114.533 202.339 105.26 209.505 101.62C203.594 110.207 198.259 118.93 193.525 127.788C141.173 130.167 93.0966 157.446 93.0966 157.446C93.0966 157.446 104.721 153.411 137.517 149.378C166.465 145.814 185.866 134.192 192.567 129.599C188.195 137.946 184.358 146.382 181.067 154.9C179.874 157.989 178.758 161.09 177.713 164.194C163.793 172.149 139.442 166.71 116.633 171.151C99.4678 174.487 83.8178 200.315 83.8178 200.315C83.8178 200.315 100.113 178.675 126.857 181.34C148.218 183.469 169.796 169.948 177.639 164.417C174.329 174.301 171.749 184.275 169.921 194.299C165.132 195.159 149.149 198.191 133.498 202.823C115.06 208.288 75.8539 228.144 75.8539 228.144C75.8539 228.144 93.064 227.589 116.671 221.859C135.742 217.223 162.96 199.639 169.767 195.112C168.282 203.449 167.304 211.821 166.842 220.222C162.128 221.626 146.191 226.448 129.841 232.298C110.363 239.271 66.3216 270.625 66.3216 270.625C66.3216 270.625 80.7864 265.476 111.829 254.767C138.513 245.555 161.013 226.361 166.806 221.15C166.422 228.725 166.451 236.319 166.905 243.924C164.161 249.369 158.416 265.724 164.696 299.308C172.076 338.805 177.507 350.89 177.507 350.89C177.507 350.89 189.077 278.591 169.709 244.296C169.282 237.402 169.225 230.648 169.466 224.033C174.451 230.463 192.911 253.261 217.639 271.39C246.722 292.703 256.192 297.997 256.192 297.997C256.192 297.997 216.677 252.664 197.61 239.885C182.564 229.806 172.921 224.68 169.518 222.956C169.912 213.923 170.908 205.15 172.388 196.677C177.344 202.9 196.985 226.079 219.81 233.846C246.277 242.853 259.703 261.428 259.703 261.428C259.703 261.428 251.349 240.577 218.759 223.157C191.725 208.703 176.799 198.948 172.494 196.03C174.477 184.913 177.293 174.303 180.744 164.242C184.528 170.051 197.113 187.467 217.779 197.878C242.861 210.515 267.503 233.859 267.503 233.859C267.503 233.859 243.923 197.404 215.017 178.911C194.17 165.572 184.942 162.836 181.405 162.347C185.418 150.922 190.223 140.208 195.437 130.269C198.006 135.661 207.457 153.045 229.242 169.554C255.447 189.419 275.76 204.734 275.76 204.734C275.76 204.734 226.879 140.517 196.075 129.043C201.325 119.196 206.973 110.129 212.702 101.896C214.402 106.843 220.72 121.597 238.271 132.9C259.66 146.672 265.99 155.945 272.805 169.315C272.805 169.315 263.401 139.436 248.699 128.382C231.499 115.456 217.948 110.077 212.913 101.595C216.741 96.0974 220.599 90.987 224.363 86.2648C254.675 48.3626 286.746 26.8518 287.069 26.6277C287.709 26.1962 287.894 25.3378 287.485 24.6893C287.427 24.61 287.37 24.5306 287.302 24.4572C286.851 24.0136 286.137 23.9281 285.569 24.2902C285.241 24.5036 252.863 46.2159 222.27 84.4442C218.111 89.6406 214.182 94.9024 210.468 100.225C203.939 100.294 180.103 100.483 164.429 99.5711C146.127 98.5084 111.246 126.591 111.246 126.591C111.246 126.591 147.133 109.139 166.484 112.123Z" fill="#E5674E"/>
<path d="M6.93408 473.46C6.93408 473.46 34.9787 637.744 108.146 701.337C132.983 722.917 157.545 731.867 179.167 734.253C224.262 739.246 270.552 688.716 263.818 641.88C260.59 619.411 250.976 594.16 229.251 569.17C165.268 495.572 6.93408 473.46 6.93408 473.46Z" fill="#BAE3DD"/>
<path d="M191.172 652.194C186.42 647.456 181.668 642.741 176.916 638.002C187.949 608.895 198.994 579.775 210.027 550.667C209.424 550.164 208.809 549.675 208.193 549.185C197.185 578.219 186.177 607.254 175.18 636.275C170.686 631.809 166.193 627.32 161.699 622.854C171.873 594.936 183.11 567.213 195.427 539.77C194.808 539.348 194.19 538.927 193.582 538.514C181.326 565.798 170.097 593.363 159.942 621.109C155.624 616.819 151.306 612.507 146.987 608.218C157.622 581.956 168.269 555.68 178.904 529.418C178.251 529.037 177.608 528.666 176.944 528.299C166.383 554.366 155.823 580.433 145.262 606.5C140.738 601.984 136.212 597.491 131.688 592.975C139.776 568.084 148.758 543.311 158.63 518.701C157.963 518.379 157.286 518.049 156.619 517.727C146.836 542.06 137.922 566.561 129.891 591.17C125.232 586.536 120.562 581.894 115.914 577.246C123.444 554.919 131.824 532.719 141.04 510.705C140.36 510.419 139.671 510.125 138.991 509.839C129.888 531.55 121.599 553.451 114.138 575.46C110.347 571.678 106.545 567.911 102.754 564.129C108.83 543.868 115.734 523.715 123.434 503.688C122.732 503.43 122.03 503.172 121.339 502.9C113.753 522.577 106.94 542.408 100.936 562.306C96.3079 557.7 91.6796 553.093 87.0515 548.487C90.769 531.062 96.1851 513.678 103.201 496.578C102.498 496.343 101.783 496.121 101.08 495.885C94.2021 512.586 88.883 529.535 85.1196 546.564C83.5387 544.995 81.9683 543.436 80.399 541.853C80.322 541.431 80.0574 541.082 79.5722 541.037C78.4359 539.904 77.2893 538.761 76.153 537.628C78.5054 522.441 83.3719 507.225 90.55 492.584C89.8351 492.363 89.1191 492.163 88.4043 491.942C81.4638 506.151 76.6319 520.877 74.1183 535.592C70.6472 532.137 67.1864 528.691 63.7153 525.236C66.5529 512.767 70.2329 500.347 74.7093 488.03C73.9714 487.836 73.2554 487.637 72.5291 487.428C68.1923 499.323 64.6208 511.293 61.8042 523.332C58.5813 520.117 55.3584 516.902 52.1344 513.711C55.1989 505.483 58.2645 497.233 61.3291 489.005C61.8285 487.644 62.3498 486.278 62.8493 484.917C62.1218 484.731 61.3943 484.546 60.6772 484.369C59.9292 486.388 59.1488 488.403 58.4019 490.4C55.7234 497.593 53.0565 504.772 50.378 511.965C47.6505 509.254 44.923 506.542 42.1956 503.831C43.7959 496.312 45.7098 488.807 47.8933 481.324C47.1439 481.143 46.3935 480.985 45.6649 480.822C43.6014 487.842 41.7982 494.852 40.2533 501.899C37.072 498.721 33.8895 495.565 30.7082 492.387C31.8446 487.727 33.1862 483.08 34.711 478.451C33.9605 478.293 33.2101 478.135 32.4804 477.995C31.0974 482.156 29.8874 486.326 28.8179 490.501C26.8964 488.587 24.9749 486.674 23.0534 484.761C23.7066 482.02 24.3712 479.266 25.014 476.516C24.2417 476.362 23.4901 476.226 22.7604 476.086C22.2283 478.341 21.6744 480.601 21.1423 482.856C18.2704 479.995 15.409 477.143 12.5371 474.282C8.91438 473.722 6.93424 473.46 6.93424 473.46C6.93424 473.46 7.2704 475.456 7.98226 479.081C11.174 482.268 14.3772 485.442 17.5793 488.639C15.0974 488.672 12.5941 488.923 10.0831 489.333C10.2507 490.118 10.4172 490.925 10.6149 491.76C13.8552 491.277 17.08 491.112 20.256 491.282C22.4869 493.513 24.719 495.721 26.95 497.952C22.1268 498.023 17.2378 498.557 12.3486 499.54C12.5381 500.32 12.7161 501.114 12.893 501.93C18.0645 500.934 23.2325 500.454 28.3083 500.532C28.6437 500.541 28.9533 500.409 29.2007 500.223C33.3127 504.308 37.4132 508.407 41.5252 512.492C33.1373 513.26 24.712 514.35 16.239 515.752C16.4389 516.542 16.6377 517.354 16.8584 518.161C25.8981 516.685 34.8879 515.568 43.8601 514.814C47.5587 518.491 51.2573 522.168 54.9341 525.85C43.3704 527.109 31.7705 528.668 20.1459 530.513C20.3666 531.321 20.5884 532.105 20.8194 532.922C32.99 530.986 45.1337 529.381 57.2389 528.121C61.7632 532.637 66.299 537.139 70.8129 541.646C55.5847 542.759 40.2497 544.511 24.8421 546.861C25.0847 547.664 25.3272 548.467 25.5698 549.27C41.5326 546.86 57.4092 545.107 73.1986 544.036C76.1836 547.019 79.1698 549.98 82.1444 552.954C65.0113 557.157 47.8887 561.37 30.7556 565.573C31.0107 566.339 31.2659 567.106 31.5314 567.881C49.0814 563.569 66.6198 559.271 84.1594 554.949C89.9447 560.707 95.7403 566.475 101.526 572.233C79.9024 573.889 58.0757 576.834 36.1458 581.013C36.4217 581.798 36.7195 582.578 37.0058 583.372C59.4473 579.142 81.7717 576.206 103.912 574.6C109.211 579.886 114.522 585.16 119.811 590.437C95.335 595.965 70.8591 601.493 46.3718 607.035C46.703 607.797 47.0238 608.55 47.355 609.312C72.1924 603.697 97.0414 598.069 121.879 592.455C123.893 594.472 125.918 596.477 127.932 598.494C130.391 600.947 132.849 603.4 135.309 605.83C108.472 612.467 81.6569 619.099 54.8202 625.736C55.1848 626.479 55.5389 627.214 55.9035 627.958C83.0362 621.249 110.169 614.539 137.324 607.825C141.115 611.607 144.917 615.374 148.708 619.156C121.245 628.651 93.7599 638.151 66.2968 647.646C66.6958 648.349 67.0949 649.052 67.5054 649.742C95.0457 640.219 122.586 630.696 150.126 621.174C150.281 621.119 150.414 621.047 150.527 620.956C155.951 626.351 161.374 631.747 166.787 637.156C136.975 646.612 107.174 656.077 77.3625 665.533C77.8272 666.222 78.2919 666.912 78.7681 667.587C108.734 658.077 138.722 648.562 168.687 639.051C172.748 643.091 176.808 647.131 180.878 651.18C152.225 663.539 123.594 675.893 94.9409 688.252C95.4849 688.869 96.0508 689.481 96.6064 690.084C125.293 677.707 153.979 665.33 182.654 652.966C186.983 657.264 191.301 661.576 195.63 665.875C168.656 680.669 141.266 694.011 113.602 705.862C114.3 706.424 115.01 706.972 115.709 707.512C143.233 695.657 170.461 682.315 197.303 667.548C204.329 674.53 211.332 681.517 218.358 688.5C194.219 701.795 169.776 713.997 145.116 725.087C146.102 725.522 147.079 725.925 148.056 726.328C172.143 715.424 196.023 703.44 219.607 690.418C219.752 690.332 219.865 690.241 219.989 690.136C222.944 693.07 225.888 696.017 228.843 698.951C209.82 710.373 190.799 721.773 171.777 733.196C172.937 733.404 174.076 733.594 175.237 733.756C193.657 722.706 212.076 711.656 230.507 700.592C233.43 703.498 236.354 706.405 239.266 709.324C240.794 707.749 242.26 706.119 243.663 704.435C242.847 703.628 242.041 702.83 241.236 702.01C248.964 683.852 256.681 665.709 264.409 647.551C264.323 645.986 264.182 644.421 263.986 642.878C255.842 662.021 247.686 681.176 239.542 700.318C236.939 697.716 234.314 695.118 231.712 692.515C241.177 669.82 250.642 647.124 260.129 624.424C259.804 623.313 259.469 622.193 259.111 621.077C249.413 644.326 239.716 667.575 230.007 690.815C225.958 686.784 221.908 682.753 217.858 678.723C229.005 653.073 240.142 627.414 251.288 601.763C250.864 600.92 250.429 600.067 249.983 599.205C238.714 625.15 227.444 651.096 216.175 677.041C212.641 673.531 209.109 669.999 205.575 666.49C205.471 666.399 205.379 666.295 205.287 666.191C215.965 638.594 227.887 611.256 241.015 584.285C240.54 583.586 240.054 582.901 239.578 582.203C226.358 609.284 214.333 636.744 203.573 664.459C203.118 664.014 202.664 663.547 202.209 663.103C202.14 662.971 202.036 662.881 201.919 662.826C198.954 659.884 196 656.928 193.035 653.985C202.558 624.08 213.352 594.338 225.4 564.84C224.833 564.251 224.266 563.661 223.699 563.072C211.564 592.565 200.738 622.303 191.172 652.194Z" fill="#97C9CE"/>
<path d="M174.72 605.252C189.867 598.77 212.403 602.982 220.473 604.824C212.462 597.645 205.012 590.158 198.137 582.4C144.936 593.464 90.064 578.198 90.064 578.198C90.064 578.198 102.711 579.297 136.643 574.941C166.588 571.096 188.89 577.885 196.718 580.823C190.319 573.489 184.439 565.914 179.076 558.118C177.131 555.3 175.279 552.437 173.481 549.56C157.592 545.07 134.397 556.879 110.43 558.254C92.3699 559.282 70.4524 537.132 70.4524 537.132C70.4524 537.132 92.0244 554.882 118.266 545.291C139.22 537.622 164.167 545.779 173.374 549.37C167.674 540.206 162.693 530.749 158.428 521.034C153.407 521.392 136.623 522.45 119.766 521.768C99.9193 520.968 55.7561 510.932 55.7561 510.932C55.7561 510.932 73.188 507.048 98.2968 506.79C118.574 506.566 150.165 517.406 158.092 520.244C154.6 512.173 151.604 503.931 149.12 495.521C144.043 495.315 126.876 494.531 109.032 492.8C87.7578 490.71 35.9679 470.247 35.9679 470.247C35.9679 470.247 51.7385 471.747 85.5108 474.615C114.545 477.073 141.76 490.75 148.835 494.556C146.631 486.966 144.847 479.253 143.464 471.416C139.394 466.593 129.689 451.494 127.946 415.79C125.887 373.81 128.425 360.15 128.425 360.15C128.425 360.15 157.426 430.528 146.193 470.301C147.412 477.401 148.97 484.28 150.817 490.915C154.279 483.1 167.36 455.215 187.861 430.464C211.973 401.342 220.209 393.542 220.209 393.542C220.209 393.542 191.384 449.712 175.288 467.602C162.591 481.697 154.132 489.404 151.106 492.026C153.673 501.093 156.776 509.724 160.307 517.944C163.801 510.366 177.959 481.77 199.04 468.012C223.481 452.061 232.504 429.751 232.504 429.751C232.504 429.751 229.124 453.06 200.55 479.128C176.853 500.763 164.206 514.502 160.57 518.564C165.237 529.327 170.609 539.363 176.49 548.688C178.907 541.821 187.359 520.92 205.635 505.021C227.805 485.733 246.974 455.713 246.974 455.713C246.974 455.713 232.033 498.784 207.423 524.989C189.672 543.898 181.055 549.045 177.625 550.455C184.405 561.02 191.802 570.65 199.441 579.382C200.727 573.239 206.049 553.181 223.99 530.806C245.557 503.899 262.288 483.126 262.288 483.126C262.288 483.126 228.588 560.877 200.374 580.444C208.004 589.085 215.874 596.829 223.61 603.711C224.142 598.255 226.931 581.641 241.859 565.662C260.052 546.181 264.18 535.144 267.828 519.819C267.828 519.819 265.561 552.565 253.438 567.563C239.256 585.11 226.938 594.06 223.908 603.955C229.066 608.537 234.17 612.735 239.113 616.557C278.683 647.225 316.082 660.776 316.442 660.919C317.199 661.188 317.585 662.019 317.32 662.788C317.292 662.894 317.232 662.978 317.188 663.064C316.835 663.627 316.135 663.904 315.481 663.68C315.102 663.554 277.343 649.861 237.42 618.961C231.996 614.769 226.78 610.434 221.77 605.993C215.197 607.595 191.186 613.551 175.644 618.516C157.507 624.302 115.694 604.813 115.694 604.813C115.694 604.813 155.972 613.255 174.72 605.252Z" fill="#FCF4DF"/>
<path d="M34.9366 183.871C34.9366 183.871 170.237 128.511 224.568 51.3234C243.006 25.1354 251.104 1.50893 253.739 -18.2822C259.246 -59.544 219.358 -91.653 180.817 -76.9965C162.334 -69.9686 141.372 -56.7075 120.249 -32.6742C58.0109 38.1525 34.9366 183.871 34.9366 183.871Z" fill="#1A4143"/>
<path d="M186.977 -13.8907C182.959 -8.76392 178.937 -3.64905 174.919 1.4777C151.448 -3.02821 127.974 -7.54601 104.491 -12.0492C104.062 -11.4127 103.633 -10.7763 103.218 -10.1307C126.625 -5.63498 150.032 -1.1393 173.439 3.35639C169.642 8.19465 165.835 13.0475 162.037 17.8858C139.516 13.9355 117.183 8.97961 95.1125 3.0256C94.7566 3.65765 94.3863 4.28052 94.0303 4.91257C115.975 10.858 138.16 15.8108 160.549 19.7791C156.896 24.4339 153.244 29.0887 149.591 33.7435C128.432 29.0666 107.283 24.387 86.1234 19.7101C85.7962 20.3605 85.469 21.0109 85.1444 21.6732C106.136 26.314 127.142 30.964 148.133 35.6048C144.308 40.4869 140.468 45.3598 136.643 50.2419C116.534 47.5971 96.5408 44.1257 76.7216 39.8143C76.435 40.4803 76.1457 41.1345 75.8708 41.7978C95.4716 46.0722 115.24 49.5329 135.127 52.1791C131.184 57.2008 127.242 62.2226 123.301 67.2562C105.273 64.631 87.371 61.2269 69.6562 57.0421C69.3931 57.7027 69.1443 58.3725 68.8811 59.0331C86.3633 63.1716 104.015 66.5587 121.794 69.1788C118.587 73.2685 115.367 77.3609 112.16 81.4506C95.7793 79.7449 79.4946 77.2921 63.3555 74.0934C63.1211 74.7724 62.8841 75.4395 62.6497 76.1185C78.5209 79.279 94.5167 81.711 110.614 83.4197C106.701 88.4095 102.788 93.3993 98.8755 98.3891C84.7355 98.2783 70.6802 96.6358 56.9161 93.5013C56.7052 94.1749 56.4943 94.8484 56.286 95.5339C69.7274 98.6054 83.4376 100.253 97.2442 100.478C95.9099 102.173 94.5782 103.88 93.2439 105.575C92.8922 105.719 92.6122 106.021 92.5479 106.461C91.5825 107.696 90.6145 108.919 89.649 110.154C77.3058 110.854 65.0019 109.307 53.2471 105.584C53.0506 106.266 52.8515 106.937 52.655 107.62C64.0596 111.211 75.9556 112.815 87.9183 112.353C84.9802 116.094 82.0539 119.831 79.1158 123.571C69.0017 123.331 58.9574 122.337 49.0208 120.594C48.8387 121.286 48.6539 121.966 48.4718 122.658C58.0621 124.344 67.7587 125.33 77.5028 125.63C74.7792 129.109 72.0412 132.577 69.3176 136.056C62.6706 134.828 56.038 133.609 49.3909 132.381C48.297 132.184 47.1862 131.965 46.0923 131.768C45.9219 132.457 45.7489 133.134 45.5759 133.812C47.2109 134.109 48.8276 134.436 50.439 134.739C56.2365 135.813 62.0314 136.875 67.829 137.949C65.52 140.894 63.2203 143.824 60.9114 146.769C54.8178 146.713 48.7309 146.406 42.6691 145.818C42.5013 146.519 42.3453 147.217 42.1867 147.904C47.8578 148.457 53.5526 148.78 59.2566 148.863C56.5605 152.297 53.8761 155.729 51.1774 159.151C47.3961 158.987 43.6398 158.654 39.9032 158.129C39.7498 158.839 39.6056 159.535 39.4587 160.219C42.8111 160.682 46.1962 161.013 49.5854 161.193C47.9633 163.268 46.3385 165.33 44.7164 167.404C42.4853 167.319 40.2568 167.246 38.0374 167.158C37.8866 167.88 37.7542 168.573 37.6191 169.254C39.4503 169.319 41.2814 169.384 43.1009 169.451C40.6768 172.548 38.2502 175.633 35.8144 178.732C35.2201 182.056 34.938 183.871 34.938 183.871C34.938 183.871 36.584 183.203 39.5742 181.901C42.2794 178.452 44.9847 175.003 47.69 171.554C47.6428 173.765 47.7656 175.961 48.0203 178.139C48.6715 177.839 49.3343 177.536 50.0207 177.227C49.7389 174.418 49.695 171.566 49.9295 168.688C51.812 166.279 53.7088 163.879 55.5913 161.469C55.497 165.778 55.7752 170.038 56.4261 174.249C57.0772 173.949 57.7257 173.637 58.3978 173.319C57.7445 168.871 57.5173 164.337 57.732 159.788C57.7518 159.484 57.65 159.245 57.4972 159.055C60.9769 154.627 64.4449 150.203 67.9245 145.775C68.2897 153.14 68.9215 160.48 69.7938 167.79C70.4515 167.463 71.121 167.133 71.7878 166.792C70.8674 158.981 70.2346 151.129 69.8946 143.258C73.0146 139.276 76.1463 135.292 79.2663 131.31C79.9238 141.419 80.8387 151.518 81.9916 161.575C82.6585 161.234 83.3109 160.883 83.9869 160.527C82.7912 149.993 81.8595 139.422 81.2063 128.825C85.0314 123.943 88.8682 119.058 92.6932 114.176C93.1251 127.599 94.0693 140.991 95.5089 154.331C96.1705 153.966 96.8322 153.601 97.5055 153.233C96.0322 139.4 95.1014 125.505 94.7091 111.586C97.2299 108.367 99.7626 105.146 102.283 101.927C105.187 116.479 108.092 131.031 110.996 145.582C111.631 145.211 112.267 144.839 112.914 144.465C109.946 129.565 106.966 114.668 103.996 99.7569C108.895 93.5146 113.794 87.2723 118.693 81.03C119.381 100.08 121.094 119.069 123.826 137.91C124.479 137.509 125.122 137.111 125.775 136.71C123.018 117.412 121.317 97.9711 120.702 78.4667C125.184 72.7456 129.668 67.0365 134.162 61.3127C137.921 82.1911 141.682 103.081 145.441 123.96C146.075 123.526 146.712 123.104 147.334 122.673C143.519 101.483 139.705 80.2921 135.878 59.1044C137.588 56.9226 139.298 54.7408 141.01 52.5709C143.086 49.9172 145.177 47.2726 147.253 44.6188C151.835 67.3943 156.42 90.1816 161.002 112.957C161.619 112.502 162.248 112.045 162.863 111.578C158.223 88.5406 153.593 65.4888 148.953 42.4517C152.161 38.362 155.368 34.2722 158.576 30.1825C165.481 53.0093 172.386 75.836 179.303 98.66C179.889 98.1749 180.474 97.6897 181.058 97.1927C174.128 74.3092 167.21 51.4229 160.28 28.5394C160.24 28.4113 160.181 28.3124 160.122 28.2134C164.713 22.3674 169.291 16.524 173.881 10.6779C180.69 35.6016 187.486 60.528 194.294 85.4517C194.867 84.9071 195.452 84.3597 196.025 83.8151C189.185 58.7486 182.346 33.6822 175.494 8.61845C178.935 4.23754 182.364 -0.140653 185.804 -4.52155C195.01 18.8238 204.231 42.1783 213.438 65.5237C213.96 64.9158 214.47 64.3107 214.977 63.6936C205.751 40.3153 196.534 16.9223 187.308 -6.45599C190.973 -11.1135 194.622 -15.7801 198.287 -20.4376C209.541 0.972758 219.598 23.0095 228.422 45.5683C228.903 44.8323 229.376 44.1109 229.834 43.3803C221 20.9486 210.946 -0.963745 199.694 -22.2498C205.625 -29.8176 211.571 -37.3762 217.502 -44.944C227.63 -25.7981 236.836 -6.17699 245.129 13.8425C245.511 12.8794 245.872 11.9337 246.231 10.9761C238.066 -8.57303 229.012 -27.7291 219.094 -46.4236C219.032 -46.5344 218.962 -46.6307 218.87 -46.7095C221.361 -49.8964 223.866 -53.0741 226.357 -56.261C235.101 -41.3448 243.833 -26.4259 252.574 -11.5216C252.784 -12.5948 252.97 -13.6627 253.148 -14.7159C244.68 -29.1585 236.213 -43.6012 227.758 -58.0466C230.233 -61.1924 232.705 -64.3501 235.169 -67.4931C233.934 -68.5579 232.637 -69.5708 231.315 -70.5279C230.628 -69.657 229.941 -68.7861 229.254 -67.9152C214.642 -71.4788 200.03 -75.0425 185.43 -78.6088C184.149 -78.2506 182.869 -77.8302 181.585 -77.3715C196.995 -73.6047 212.404 -69.8498 227.826 -66.0858C225.611 -63.2751 223.411 -60.4551 221.196 -57.6444C202.926 -61.9384 184.647 -66.2179 166.376 -70.5119C165.457 -70.0248 164.531 -69.5112 163.608 -68.9857C182.32 -64.5936 201.044 -60.2043 219.759 -55.8004C216.327 -51.4341 212.908 -47.0705 209.476 -42.7042C188.834 -47.9505 168.195 -53.185 147.553 -58.4313C146.843 -57.8925 146.133 -57.3537 145.416 -56.7883C166.293 -51.4838 187.168 -46.1912 208.034 -40.8839C205.05 -37.0708 202.051 -33.2669 199.067 -29.4537C198.98 -29.346 198.904 -29.241 198.816 -29.1333C176.566 -33.5961 154.578 -39.2316 132.921 -46.0059C132.337 -45.4586 131.755 -44.8993 131.175 -44.3282C152.921 -37.4869 175.007 -31.7989 197.346 -27.2692C196.959 -26.7799 196.571 -26.2907 196.196 -25.8041C196.091 -25.7174 196.004 -25.6097 195.954 -25.4982C193.452 -22.3086 190.949 -19.1191 188.435 -15.9267C164.266 -18.9344 140.272 -23.1196 116.51 -28.4457C116.014 -27.8313 115.504 -27.2262 115.011 -26.5999C138.837 -21.1511 162.822 -16.9513 186.977 -13.8907Z" fill="#2F8C91"/>
</g>
<defs>
<clipPath id="clip0">
<rect x="143" width="667" height="143" transform="rotate(90 143 0)" fill="white"/>
</clipPath>
</defs>
</svg>
