<svg width="94" height="94" viewBox="0 0 94 94" fill="none" xmlns="http://www.w3.org/2000/svg">
<circle cx="47" cy="47" r="47" fill="#F3E4E1"/>
<mask id="mask0" mask-type="alpha" maskUnits="userSpaceOnUse" x="0" y="0" width="94" height="94">
<circle cx="47" cy="47" r="47" fill="#F3E4E1"/>
</mask>
<g mask="url(#mask0)">
<path fill-rule="evenodd" clip-rule="evenodd" d="M52.5546 56.3248C62.5736 53.8402 70 44.7873 70 34C70 21.2975 59.7025 11 47 11C34.2975 11 24 21.2975 24 34C24 44.7873 31.4264 53.8402 41.4454 56.3248C18.1059 59.0727 0 78.9219 0 103C0 128.957 21.0426 150 47 150C72.9574 150 94 128.957 94 103C94 78.9219 75.8941 59.0727 52.5546 56.3248Z" fill="#E5674E"/>
</g>
</svg>
